%TF.GenerationSoftware,KiCad,Pcbnew,(6.0.8)*%
%TF.CreationDate,2023-10-10T00:17:19-07:00*%
%TF.ProjectId,CMKC65_R1,434d4b43-3635-45f5-9231-2e6b69636164,rev?*%
%TF.SameCoordinates,Original*%
%TF.FileFunction,Soldermask,Top*%
%TF.FilePolarity,Negative*%
%FSLAX46Y46*%
G04 Gerber Fmt 4.6, Leading zero omitted, Abs format (unit mm)*
G04 Created by KiCad (PCBNEW (6.0.8)) date 2023-10-10 00:17:19*
%MOMM*%
%LPD*%
G01*
G04 APERTURE LIST*
%ADD10R,1.600000X1.600000*%
%ADD11O,1.600000X1.600000*%
%ADD12C,3.987800*%
%ADD13C,1.750000*%
%ADD14C,3.048000*%
%ADD15R,2.000000X2.000000*%
%ADD16C,2.000000*%
%ADD17R,2.000000X3.200000*%
%ADD18C,1.524000*%
%ADD19C,1.600000*%
G04 APERTURE END LIST*
D10*
X34925000Y-49212500D03*
D11*
X34925000Y-41592500D03*
D10*
X53975000Y-49212500D03*
D11*
X53975000Y-41592500D03*
D10*
X73025000Y-49212500D03*
D11*
X73025000Y-41592500D03*
D10*
X92075000Y-49212500D03*
D11*
X92075000Y-41592500D03*
D10*
X111125000Y-49212500D03*
D11*
X111125000Y-41592500D03*
D10*
X130175000Y-49212500D03*
D11*
X130175000Y-41592500D03*
D10*
X149225000Y-49212500D03*
D11*
X149225000Y-41592500D03*
D10*
X168275000Y-49212500D03*
D11*
X168275000Y-41592500D03*
D10*
X187325000Y-49212500D03*
D11*
X187325000Y-41592500D03*
D10*
X206375000Y-49212500D03*
D11*
X206375000Y-41592500D03*
D10*
X225425000Y-49212500D03*
D11*
X225425000Y-41592500D03*
D10*
X244475000Y-49212500D03*
D11*
X244475000Y-41592500D03*
D10*
X263525000Y-49212500D03*
D11*
X263525000Y-41592500D03*
D10*
X301625000Y-49212500D03*
D11*
X301625000Y-41592500D03*
D10*
X42068750Y-68262500D03*
D11*
X42068750Y-60642500D03*
D10*
X63500000Y-68262500D03*
D11*
X63500000Y-60642500D03*
D10*
X82550000Y-68262500D03*
D11*
X82550000Y-60642500D03*
D10*
X101600000Y-68262500D03*
D11*
X101600000Y-60642500D03*
D10*
X120650000Y-68262500D03*
D11*
X120650000Y-60642500D03*
D10*
X139700000Y-68262500D03*
D11*
X139700000Y-60642500D03*
D10*
X158750000Y-68262500D03*
D11*
X158750000Y-60642500D03*
D10*
X177800000Y-68262500D03*
D11*
X177800000Y-60642500D03*
D10*
X196850000Y-68262500D03*
D11*
X196850000Y-60642500D03*
D10*
X215900000Y-68262500D03*
D11*
X215900000Y-60642500D03*
D10*
X234950000Y-68262500D03*
D11*
X234950000Y-60642500D03*
D10*
X254000000Y-68262500D03*
D11*
X254000000Y-60642500D03*
D10*
X273050000Y-68262500D03*
D11*
X273050000Y-60642500D03*
D10*
X301625000Y-68262500D03*
D11*
X301625000Y-60642500D03*
D10*
X311150000Y-68262500D03*
D11*
X311150000Y-60642500D03*
D10*
X44450000Y-87312500D03*
D11*
X44450000Y-79692500D03*
D10*
X68262500Y-87312500D03*
D11*
X68262500Y-79692500D03*
D10*
X87312500Y-87312500D03*
D11*
X87312500Y-79692500D03*
D10*
X106362500Y-87312500D03*
D11*
X106362500Y-79692500D03*
D10*
X125412500Y-87312500D03*
D11*
X125412500Y-79692500D03*
D10*
X144462500Y-87312500D03*
D11*
X144462500Y-79692500D03*
D10*
X163512500Y-87312500D03*
D11*
X163512500Y-79692500D03*
D10*
X182562500Y-87312500D03*
D11*
X182562500Y-79692500D03*
D10*
X201612500Y-87312500D03*
D11*
X201612500Y-79692500D03*
D10*
X220662500Y-87312500D03*
D11*
X220662500Y-79692500D03*
D10*
X239712500Y-87312500D03*
D11*
X239712500Y-79692500D03*
D10*
X258762500Y-87312500D03*
D11*
X258762500Y-79692500D03*
D10*
X301625000Y-87312500D03*
D11*
X301625000Y-79692500D03*
D10*
X311150000Y-87312500D03*
D11*
X311150000Y-79692500D03*
D10*
X56356250Y-106362500D03*
D11*
X56356250Y-98742500D03*
D10*
X77787500Y-106362500D03*
D11*
X77787500Y-98742500D03*
D10*
X96837500Y-106362500D03*
D11*
X96837500Y-98742500D03*
D10*
X115887500Y-106362500D03*
D11*
X115887500Y-98742500D03*
D10*
X134937500Y-106362500D03*
D11*
X134937500Y-98742500D03*
D10*
X153987500Y-106362500D03*
D11*
X153987500Y-98742500D03*
D10*
X173037500Y-106362500D03*
D11*
X173037500Y-98742500D03*
D10*
X192087500Y-106362500D03*
D11*
X192087500Y-98742500D03*
D10*
X211137500Y-106362500D03*
D11*
X211137500Y-98742500D03*
D10*
X230187500Y-106362500D03*
D11*
X230187500Y-98742500D03*
D10*
X249237500Y-106362500D03*
D11*
X249237500Y-98742500D03*
D10*
X277812500Y-106362500D03*
D11*
X277812500Y-98742500D03*
D10*
X306387500Y-106362500D03*
D11*
X306387500Y-98742500D03*
D10*
X311150000Y-106362500D03*
D11*
X311150000Y-98742500D03*
D10*
X39687500Y-125412500D03*
D11*
X39687500Y-117792500D03*
D10*
X63500000Y-125412500D03*
D11*
X63500000Y-117792500D03*
D10*
X87312500Y-125412500D03*
D11*
X87312500Y-117792500D03*
D10*
X158750000Y-125412500D03*
D11*
X158750000Y-117792500D03*
D10*
X225425000Y-125412500D03*
D11*
X225425000Y-117792500D03*
D10*
X244475000Y-125412500D03*
D11*
X244475000Y-117792500D03*
D10*
X263525000Y-125412500D03*
D11*
X263525000Y-117792500D03*
D10*
X287337500Y-130175000D03*
D11*
X287337500Y-122555000D03*
D10*
X306387500Y-130175000D03*
D11*
X306387500Y-122555000D03*
D10*
X325437500Y-130175000D03*
D11*
X325437500Y-122555000D03*
D12*
X201612500Y-102393750D03*
D13*
X206692500Y-102393750D03*
X196532500Y-102393750D03*
D12*
X220662500Y-102393750D03*
D13*
X225742500Y-102393750D03*
X215582500Y-102393750D03*
D12*
X215900000Y-45243750D03*
D13*
X220980000Y-45243750D03*
X210820000Y-45243750D03*
X49530000Y-45243750D03*
D12*
X44450000Y-45243750D03*
D13*
X39370000Y-45243750D03*
D12*
X63500000Y-45243750D03*
D13*
X58420000Y-45243750D03*
X68580000Y-45243750D03*
X77470000Y-45243750D03*
X87630000Y-45243750D03*
D12*
X82550000Y-45243750D03*
D13*
X96520000Y-45243750D03*
X106680000Y-45243750D03*
D12*
X101600000Y-45243750D03*
X120650000Y-45243750D03*
D13*
X115570000Y-45243750D03*
X125730000Y-45243750D03*
X134620000Y-45243750D03*
D12*
X139700000Y-45243750D03*
D13*
X144780000Y-45243750D03*
D12*
X158750000Y-45243750D03*
D13*
X163830000Y-45243750D03*
X153670000Y-45243750D03*
X172720000Y-45243750D03*
D12*
X177800000Y-45243750D03*
D13*
X182880000Y-45243750D03*
X191770000Y-45243750D03*
X201930000Y-45243750D03*
D12*
X196850000Y-45243750D03*
D13*
X254317500Y-83343750D03*
X244157500Y-83343750D03*
D12*
X249237500Y-83343750D03*
X234950000Y-45243750D03*
D13*
X229870000Y-45243750D03*
X240030000Y-45243750D03*
X234632500Y-102393750D03*
D12*
X239712500Y-102393750D03*
D13*
X244792500Y-102393750D03*
D12*
X230187500Y-83343750D03*
D13*
X235267500Y-83343750D03*
X225107500Y-83343750D03*
X259080000Y-45243750D03*
D12*
X254000000Y-45243750D03*
D13*
X248920000Y-45243750D03*
X239395000Y-64293750D03*
X249555000Y-64293750D03*
D12*
X244475000Y-64293750D03*
X287337500Y-64293750D03*
D13*
X292417500Y-64293750D03*
X282257500Y-64293750D03*
D12*
X263525000Y-64293750D03*
D13*
X258445000Y-64293750D03*
X268605000Y-64293750D03*
D12*
X58737500Y-83343750D03*
D13*
X63817500Y-83343750D03*
X53657500Y-83343750D03*
X139382500Y-102393750D03*
D12*
X144462500Y-102393750D03*
D13*
X149542500Y-102393750D03*
D14*
X294481250Y-38258750D03*
D13*
X277495000Y-45243750D03*
D14*
X270668750Y-38258750D03*
D12*
X282575000Y-45243750D03*
X270668750Y-53498750D03*
D13*
X287655000Y-45243750D03*
D12*
X294481250Y-53498750D03*
D13*
X111442500Y-102393750D03*
X101282500Y-102393750D03*
D12*
X106362500Y-102393750D03*
D13*
X37623750Y-83343750D03*
D12*
X32543750Y-83343750D03*
D13*
X27463750Y-83343750D03*
X101917500Y-83343750D03*
X91757500Y-83343750D03*
D12*
X96837500Y-83343750D03*
D13*
X315595000Y-64293750D03*
X325755000Y-64293750D03*
D12*
X320675000Y-64293750D03*
X296862500Y-126206250D03*
D13*
X301942500Y-126206250D03*
X291782500Y-126206250D03*
X97155000Y-64293750D03*
X86995000Y-64293750D03*
D12*
X92075000Y-64293750D03*
X320675000Y-102393750D03*
D13*
X325755000Y-102393750D03*
X315595000Y-102393750D03*
D12*
X280193750Y-83343750D03*
X292100000Y-91598750D03*
D13*
X285273750Y-83343750D03*
D14*
X268287500Y-76358750D03*
D13*
X275113750Y-83343750D03*
D14*
X292100000Y-76358750D03*
D12*
X268287500Y-91598750D03*
X25400000Y-45243750D03*
D13*
X20320000Y-45243750D03*
X30480000Y-45243750D03*
X110807500Y-83343750D03*
D12*
X115887500Y-83343750D03*
D13*
X120967500Y-83343750D03*
X229870000Y-121443750D03*
D12*
X234950000Y-121443750D03*
D13*
X240030000Y-121443750D03*
X140017500Y-83343750D03*
D12*
X134937500Y-83343750D03*
D13*
X129857500Y-83343750D03*
X159067500Y-83343750D03*
X148907500Y-83343750D03*
D12*
X153987500Y-83343750D03*
D13*
X325755000Y-83343750D03*
X315595000Y-83343750D03*
D12*
X320675000Y-83343750D03*
D13*
X182245000Y-64293750D03*
X192405000Y-64293750D03*
D12*
X187325000Y-64293750D03*
D13*
X167957500Y-83343750D03*
X178117500Y-83343750D03*
D12*
X173037500Y-83343750D03*
X192087500Y-83343750D03*
D13*
X197167500Y-83343750D03*
X187007500Y-83343750D03*
X216217500Y-83343750D03*
D12*
X211137500Y-83343750D03*
D13*
X206057500Y-83343750D03*
X70326250Y-121443750D03*
D12*
X75406250Y-121443750D03*
D13*
X80486250Y-121443750D03*
X32861250Y-121443750D03*
X22701250Y-121443750D03*
D12*
X27781250Y-121443750D03*
D13*
X272732500Y-126206250D03*
X282892500Y-126206250D03*
D12*
X277812500Y-126206250D03*
D13*
X32226250Y-102393750D03*
D12*
X25400000Y-110648750D03*
D14*
X49212500Y-95408750D03*
D13*
X42386250Y-102393750D03*
D12*
X37306250Y-102393750D03*
D14*
X25400000Y-95408750D03*
D12*
X49212500Y-110648750D03*
X182562500Y-102393750D03*
D13*
X177482500Y-102393750D03*
X187642500Y-102393750D03*
X158432500Y-102393750D03*
D12*
X163512500Y-102393750D03*
D13*
X168592500Y-102393750D03*
D12*
X206375000Y-64293750D03*
D13*
X201295000Y-64293750D03*
X211455000Y-64293750D03*
D12*
X225425000Y-64293750D03*
D13*
X220345000Y-64293750D03*
X230505000Y-64293750D03*
X48895000Y-64293750D03*
D12*
X53975000Y-64293750D03*
D13*
X59055000Y-64293750D03*
X116205000Y-64293750D03*
D12*
X111125000Y-64293750D03*
D13*
X106045000Y-64293750D03*
X210820000Y-121443750D03*
X220980000Y-121443750D03*
D12*
X215900000Y-121443750D03*
X254000000Y-121443750D03*
D13*
X248920000Y-121443750D03*
X259080000Y-121443750D03*
X310832500Y-126206250D03*
D12*
X315912500Y-126206250D03*
D13*
X320992500Y-126206250D03*
X260826250Y-102393750D03*
D12*
X265906250Y-102393750D03*
D13*
X270986250Y-102393750D03*
D12*
X77787500Y-83343750D03*
D13*
X82867500Y-83343750D03*
X72707500Y-83343750D03*
D12*
X96843850Y-113188750D03*
D14*
X96843850Y-128428750D03*
D13*
X141763750Y-121443750D03*
D12*
X196843650Y-113188750D03*
D14*
X196843650Y-128428750D03*
D13*
X151923750Y-121443750D03*
D12*
X146843750Y-121443750D03*
X130175000Y-64293750D03*
D13*
X135255000Y-64293750D03*
X125095000Y-64293750D03*
D12*
X30162500Y-64293750D03*
D13*
X25082500Y-64293750D03*
X35242500Y-64293750D03*
X173355000Y-64293750D03*
D12*
X168275000Y-64293750D03*
D13*
X163195000Y-64293750D03*
X301942500Y-107156250D03*
D12*
X296862500Y-107156250D03*
D13*
X291782500Y-107156250D03*
X130492500Y-102393750D03*
D12*
X125412500Y-102393750D03*
D13*
X120332500Y-102393750D03*
D12*
X73025000Y-64293750D03*
D13*
X67945000Y-64293750D03*
X78105000Y-64293750D03*
X46513750Y-121443750D03*
D12*
X51593750Y-121443750D03*
D13*
X56673750Y-121443750D03*
X82232500Y-102393750D03*
X92392500Y-102393750D03*
D12*
X87312500Y-102393750D03*
D13*
X154305000Y-64293750D03*
X144145000Y-64293750D03*
D12*
X149225000Y-64293750D03*
D13*
X63182500Y-102393750D03*
X73342500Y-102393750D03*
D12*
X68262500Y-102393750D03*
D15*
X318008000Y-47752000D03*
D16*
X323008000Y-47752000D03*
X320508000Y-47752000D03*
D17*
X326108000Y-40252000D03*
X314908000Y-40252000D03*
D16*
X323008000Y-33252000D03*
X318008000Y-33252000D03*
D18*
X18250000Y-20090000D03*
X18250000Y-22630000D03*
X18250000Y-25170000D03*
X18250000Y-27710000D03*
D16*
X51780000Y-19900000D03*
X58280000Y-19900000D03*
X51780000Y-24400000D03*
X58280000Y-24400000D03*
D10*
X20060000Y-36410000D03*
D19*
X22600000Y-36410000D03*
X25140000Y-36410000D03*
X27680000Y-36410000D03*
X30220000Y-36410000D03*
X32760000Y-36410000D03*
X35300000Y-36410000D03*
X37840000Y-36410000D03*
X40380000Y-36410000D03*
X42920000Y-36410000D03*
X45460000Y-36410000D03*
X48000000Y-36410000D03*
X48000000Y-51650000D03*
X45460000Y-51650000D03*
X42920000Y-51650000D03*
X40380000Y-51650000D03*
X37840000Y-51650000D03*
X35300000Y-51650000D03*
X32760000Y-51650000D03*
X30220000Y-51650000D03*
X27680000Y-51650000D03*
X25140000Y-51650000D03*
X22600000Y-51650000D03*
X20060000Y-51650000D03*
M02*
