%TF.GenerationSoftware,KiCad,Pcbnew,(6.0.8)*%
%TF.CreationDate,2023-03-19T20:00:37-07:00*%
%TF.ProjectId,Dissatisfaction65,44697373-6174-4697-9366-616374696f6e,rev?*%
%TF.SameCoordinates,Original*%
%TF.FileFunction,Drillmap*%
%TF.FilePolarity,Positive*%
%FSLAX45Y45*%
G04 Gerber Fmt 4.5, Leading zero omitted, Abs format (unit mm)*
G04 Created by KiCad (PCBNEW (6.0.8)) date 2023-03-19 20:00:37*
%MOMM*%
%LPD*%
G01*
G04 APERTURE LIST*
%ADD10C,0.100000*%
%ADD11C,0.200000*%
%ADD12C,0.040000*%
%ADD13C,0.076200*%
%ADD14C,0.080000*%
%ADD15C,0.110000*%
%ADD16C,0.147000*%
%ADD17C,0.150000*%
%ADD18C,0.175000*%
%ADD19C,0.304800*%
%ADD20C,0.398780*%
G04 APERTURE END LIST*
D10*
X1614233Y-13113323D02*
X1614233Y-13372429D01*
X33004256Y-13372481D02*
X33004520Y-3741596D01*
X1614233Y-13372429D02*
X1615132Y-13390348D01*
X1617773Y-13407738D01*
X1622068Y-13424515D01*
X1627930Y-13440590D01*
X1635274Y-13455878D01*
X1644011Y-13470291D01*
X1654055Y-13483743D01*
X1665320Y-13496146D01*
X1677718Y-13507416D01*
X1691162Y-13517464D01*
X1705567Y-13526204D01*
X1720845Y-13533549D01*
X1736909Y-13539413D01*
X1753672Y-13543709D01*
X1771049Y-13546350D01*
X1788951Y-13547250D01*
X1614233Y-1778615D02*
X1614233Y-13113323D01*
X32829485Y-3109696D02*
X32710473Y-3109799D01*
X1789002Y-1603845D02*
X1771084Y-1604744D01*
X1753694Y-1607383D01*
X1736920Y-1611677D01*
X1720848Y-1617537D01*
X1705564Y-1624878D01*
X1691155Y-1633614D01*
X1677708Y-1643657D01*
X1665309Y-1654922D01*
X1654045Y-1667321D01*
X1644002Y-1680768D01*
X1635266Y-1695176D01*
X1627925Y-1710460D01*
X1622064Y-1726532D01*
X1617771Y-1743306D01*
X1615132Y-1760696D01*
X1614233Y-1778615D01*
X33004256Y-3284466D02*
X33003357Y-3266547D01*
X33000717Y-3249157D01*
X32996424Y-3232383D01*
X32990563Y-3216311D01*
X32983222Y-3201027D01*
X32974486Y-3186618D01*
X32964443Y-3173171D01*
X32953179Y-3160772D01*
X32940780Y-3149508D01*
X32927332Y-3139465D01*
X32912924Y-3130729D01*
X32897640Y-3123388D01*
X32881568Y-3117528D01*
X32864793Y-3113234D01*
X32847404Y-3110595D01*
X32829485Y-3109696D01*
X2052035Y-1603845D02*
X1789002Y-1603845D01*
X32710473Y-3109799D02*
X7401941Y-3109799D01*
X1788951Y-13547250D02*
X32499272Y-13547303D01*
X33004520Y-3741596D02*
X33004256Y-3284466D01*
X3042259Y-1604775D02*
X2052035Y-1603845D01*
X7385508Y-3103702D02*
X5639000Y-1604000D01*
X7401941Y-3109799D02*
X7391633Y-3107591D01*
X7385508Y-3103702D01*
X32499272Y-13547303D02*
X32829485Y-13547250D01*
X5639000Y-1604000D02*
X4495452Y-1604000D01*
X4495452Y-1604000D02*
X3042259Y-1604775D01*
X32829485Y-13547250D02*
X32847404Y-13546351D01*
X32864793Y-13543712D01*
X32881568Y-13539418D01*
X32897640Y-13533558D01*
X32912924Y-13526216D01*
X32927332Y-13517481D01*
X32940780Y-13507438D01*
X32953179Y-13496173D01*
X32964443Y-13483774D01*
X32974486Y-13470327D01*
X32983222Y-13455918D01*
X32990563Y-13440635D01*
X32996424Y-13424562D01*
X33000717Y-13407788D01*
X33003357Y-13390399D01*
X33004256Y-13372481D01*
D11*
D12*
X1724000Y-5685000D02*
X1764000Y-5725000D01*
X1764000Y-5685000D02*
X1724000Y-5725000D01*
X1818000Y-5564000D02*
X1858000Y-5604000D01*
X1858000Y-5564000D02*
X1818000Y-5604000D01*
X2456500Y-2494600D02*
X2496500Y-2534600D01*
X2496500Y-2494600D02*
X2456500Y-2534600D01*
X3213000Y-2807000D02*
X3253000Y-2847000D01*
X3253000Y-2807000D02*
X3213000Y-2847000D01*
X3213000Y-3012000D02*
X3253000Y-3052000D01*
X3253000Y-3012000D02*
X3213000Y-3052000D01*
X3396000Y-2441000D02*
X3436000Y-2481000D01*
X3436000Y-2441000D02*
X3396000Y-2481000D01*
X3777300Y-2735900D02*
X3817300Y-2775900D01*
X3817300Y-2735900D02*
X3777300Y-2775900D01*
X3904300Y-2703200D02*
X3944300Y-2743200D01*
X3944300Y-2703200D02*
X3904300Y-2743200D01*
X3917000Y-3078800D02*
X3957000Y-3118800D01*
X3957000Y-3078800D02*
X3917000Y-3118800D01*
X4031300Y-2657799D02*
X4071300Y-2697799D01*
X4071300Y-2657799D02*
X4031300Y-2697799D01*
X4031907Y-3090893D02*
X4071907Y-3130893D01*
X4071907Y-3090893D02*
X4031907Y-3130893D01*
X4146813Y-3102987D02*
X4186813Y-3142987D01*
X4186813Y-3102987D02*
X4146813Y-3142987D01*
X4158300Y-2612398D02*
X4198300Y-2652398D01*
X4198300Y-2612398D02*
X4158300Y-2652398D01*
X4259900Y-3103896D02*
X4299900Y-3143896D01*
X4299900Y-3103896D02*
X4259900Y-3143896D01*
X4276900Y-2566997D02*
X4316900Y-2606997D01*
X4316900Y-2566997D02*
X4276900Y-2606997D01*
X4422300Y-3058495D02*
X4462300Y-3098495D01*
X4462300Y-3058495D02*
X4422300Y-3098495D01*
X4539300Y-2521596D02*
X4579300Y-2561596D01*
X4579300Y-2521596D02*
X4539300Y-2561596D01*
X4674177Y-1739263D02*
X4714177Y-1779263D01*
X4714177Y-1739263D02*
X4674177Y-1779263D01*
X4681000Y-5564000D02*
X4721000Y-5604000D01*
X4721000Y-5564000D02*
X4681000Y-5604000D01*
X4780000Y-5667000D02*
X4820000Y-5707000D01*
X4820000Y-5667000D02*
X4780000Y-5707000D01*
X4907600Y-3013094D02*
X4947600Y-3053094D01*
X4947600Y-3013094D02*
X4907600Y-3053094D01*
X5047300Y-2964500D02*
X5087300Y-3004500D01*
X5087300Y-2964500D02*
X5047300Y-3004500D01*
X5157000Y-5370000D02*
X5197000Y-5410000D01*
X5197000Y-5370000D02*
X5157000Y-5410000D01*
X5885500Y-2695287D02*
X5925500Y-2735287D01*
X5925500Y-2695287D02*
X5885500Y-2735287D01*
X7041200Y-3139787D02*
X7081200Y-3179787D01*
X7081200Y-3139787D02*
X7041200Y-3179787D01*
X7053900Y-5453700D02*
X7093900Y-5493700D01*
X7093900Y-5453700D02*
X7053900Y-5493700D01*
X7155500Y-3185188D02*
X7195500Y-3225188D01*
X7195500Y-3185188D02*
X7155500Y-3225188D01*
X9746300Y-3230589D02*
X9786300Y-3270589D01*
X9786300Y-3230589D02*
X9746300Y-3270589D01*
X11638600Y-3275990D02*
X11678600Y-3315990D01*
X11678600Y-3275990D02*
X11638600Y-3315990D01*
X13556300Y-3321391D02*
X13596300Y-3361391D01*
X13596300Y-3321391D02*
X13556300Y-3361391D01*
X15461300Y-3366792D02*
X15501300Y-3406792D01*
X15501300Y-3366792D02*
X15461300Y-3406792D01*
X17366300Y-3593797D02*
X17406300Y-3633797D01*
X17406300Y-3593797D02*
X17366300Y-3633797D01*
X19271300Y-3593797D02*
X19311300Y-3633797D01*
X19311300Y-3593797D02*
X19271300Y-3633797D01*
X21163600Y-3684599D02*
X21203600Y-3724599D01*
X21203600Y-3684599D02*
X21163600Y-3724599D01*
X23081300Y-3684599D02*
X23121300Y-3724599D01*
X23121300Y-3684599D02*
X23081300Y-3724599D01*
X24986300Y-3593797D02*
X25026300Y-3633797D01*
X25026300Y-3593797D02*
X24986300Y-3633797D01*
X27843800Y-3410598D02*
X27883800Y-3450598D01*
X27883800Y-3410598D02*
X27843800Y-3450598D01*
X30929900Y-3455999D02*
X30969900Y-3495999D01*
X30969900Y-3455999D02*
X30929900Y-3495999D01*
D13*
X1863100Y-2009000D02*
G75*
G03*
X1863100Y-2009000I-38100J0D01*
G01*
X1863100Y-2263000D02*
G75*
G03*
X1863100Y-2263000I-38100J0D01*
G01*
X1863100Y-2517000D02*
G75*
G03*
X1863100Y-2517000I-38100J0D01*
G01*
X1863100Y-2771000D02*
G75*
G03*
X1863100Y-2771000I-38100J0D01*
G01*
D14*
X3492500Y-4119250D02*
X3492500Y-4199250D01*
X3452500Y-4159250D02*
X3532500Y-4159250D01*
X3492500Y-4881250D02*
X3492500Y-4961250D01*
X3452500Y-4921250D02*
X3532500Y-4921250D01*
X3968750Y-11739250D02*
X3968750Y-11819250D01*
X3928750Y-11779250D02*
X4008750Y-11779250D01*
X3968750Y-12501250D02*
X3968750Y-12581250D01*
X3928750Y-12541250D02*
X4008750Y-12541250D01*
X4206875Y-6024250D02*
X4206875Y-6104250D01*
X4166875Y-6064250D02*
X4246875Y-6064250D01*
X4206875Y-6786250D02*
X4206875Y-6866250D01*
X4166875Y-6826250D02*
X4246875Y-6826250D01*
X4445000Y-7929250D02*
X4445000Y-8009250D01*
X4405000Y-7969250D02*
X4485000Y-7969250D01*
X4445000Y-8691250D02*
X4445000Y-8771250D01*
X4405000Y-8731250D02*
X4485000Y-8731250D01*
X5397500Y-4119250D02*
X5397500Y-4199250D01*
X5357500Y-4159250D02*
X5437500Y-4159250D01*
X5397500Y-4881250D02*
X5397500Y-4961250D01*
X5357500Y-4921250D02*
X5437500Y-4921250D01*
X5635625Y-9834250D02*
X5635625Y-9914250D01*
X5595625Y-9874250D02*
X5675625Y-9874250D01*
X5635625Y-10596250D02*
X5635625Y-10676250D01*
X5595625Y-10636250D02*
X5675625Y-10636250D01*
X6350000Y-6024250D02*
X6350000Y-6104250D01*
X6310000Y-6064250D02*
X6390000Y-6064250D01*
X6350000Y-6786250D02*
X6350000Y-6866250D01*
X6310000Y-6826250D02*
X6390000Y-6826250D01*
X6350000Y-11739250D02*
X6350000Y-11819250D01*
X6310000Y-11779250D02*
X6390000Y-11779250D01*
X6350000Y-12501250D02*
X6350000Y-12581250D01*
X6310000Y-12541250D02*
X6390000Y-12541250D01*
X6826250Y-7929250D02*
X6826250Y-8009250D01*
X6786250Y-7969250D02*
X6866250Y-7969250D01*
X6826250Y-8691250D02*
X6826250Y-8771250D01*
X6786250Y-8731250D02*
X6866250Y-8731250D01*
X7302500Y-4119250D02*
X7302500Y-4199250D01*
X7262500Y-4159250D02*
X7342500Y-4159250D01*
X7302500Y-4881250D02*
X7302500Y-4961250D01*
X7262500Y-4921250D02*
X7342500Y-4921250D01*
X7778750Y-9834250D02*
X7778750Y-9914250D01*
X7738750Y-9874250D02*
X7818750Y-9874250D01*
X7778750Y-10596250D02*
X7778750Y-10676250D01*
X7738750Y-10636250D02*
X7818750Y-10636250D01*
X8255000Y-6024250D02*
X8255000Y-6104250D01*
X8215000Y-6064250D02*
X8295000Y-6064250D01*
X8255000Y-6786250D02*
X8255000Y-6866250D01*
X8215000Y-6826250D02*
X8295000Y-6826250D01*
X8731250Y-7929250D02*
X8731250Y-8009250D01*
X8691250Y-7969250D02*
X8771250Y-7969250D01*
X8731250Y-8691250D02*
X8731250Y-8771250D01*
X8691250Y-8731250D02*
X8771250Y-8731250D01*
X8731250Y-11739250D02*
X8731250Y-11819250D01*
X8691250Y-11779250D02*
X8771250Y-11779250D01*
X8731250Y-12501250D02*
X8731250Y-12581250D01*
X8691250Y-12541250D02*
X8771250Y-12541250D01*
X9207500Y-4119250D02*
X9207500Y-4199250D01*
X9167500Y-4159250D02*
X9247500Y-4159250D01*
X9207500Y-4881250D02*
X9207500Y-4961250D01*
X9167500Y-4921250D02*
X9247500Y-4921250D01*
X9683750Y-9834250D02*
X9683750Y-9914250D01*
X9643750Y-9874250D02*
X9723750Y-9874250D01*
X9683750Y-10596250D02*
X9683750Y-10676250D01*
X9643750Y-10636250D02*
X9723750Y-10636250D01*
X10160000Y-6024250D02*
X10160000Y-6104250D01*
X10120000Y-6064250D02*
X10200000Y-6064250D01*
X10160000Y-6786250D02*
X10160000Y-6866250D01*
X10120000Y-6826250D02*
X10200000Y-6826250D01*
X10636250Y-7929250D02*
X10636250Y-8009250D01*
X10596250Y-7969250D02*
X10676250Y-7969250D01*
X10636250Y-8691250D02*
X10636250Y-8771250D01*
X10596250Y-8731250D02*
X10676250Y-8731250D01*
X11112500Y-4119250D02*
X11112500Y-4199250D01*
X11072500Y-4159250D02*
X11152500Y-4159250D01*
X11112500Y-4881250D02*
X11112500Y-4961250D01*
X11072500Y-4921250D02*
X11152500Y-4921250D01*
X11588750Y-9834250D02*
X11588750Y-9914250D01*
X11548750Y-9874250D02*
X11628750Y-9874250D01*
X11588750Y-10596250D02*
X11588750Y-10676250D01*
X11548750Y-10636250D02*
X11628750Y-10636250D01*
X12065000Y-6024250D02*
X12065000Y-6104250D01*
X12025000Y-6064250D02*
X12105000Y-6064250D01*
X12065000Y-6786250D02*
X12065000Y-6866250D01*
X12025000Y-6826250D02*
X12105000Y-6826250D01*
X12541250Y-7929250D02*
X12541250Y-8009250D01*
X12501250Y-7969250D02*
X12581250Y-7969250D01*
X12541250Y-8691250D02*
X12541250Y-8771250D01*
X12501250Y-8731250D02*
X12581250Y-8731250D01*
X13017500Y-4119250D02*
X13017500Y-4199250D01*
X12977500Y-4159250D02*
X13057500Y-4159250D01*
X13017500Y-4881250D02*
X13017500Y-4961250D01*
X12977500Y-4921250D02*
X13057500Y-4921250D01*
X13493750Y-9834250D02*
X13493750Y-9914250D01*
X13453750Y-9874250D02*
X13533750Y-9874250D01*
X13493750Y-10596250D02*
X13493750Y-10676250D01*
X13453750Y-10636250D02*
X13533750Y-10636250D01*
X13970000Y-6024250D02*
X13970000Y-6104250D01*
X13930000Y-6064250D02*
X14010000Y-6064250D01*
X13970000Y-6786250D02*
X13970000Y-6866250D01*
X13930000Y-6826250D02*
X14010000Y-6826250D01*
X14446250Y-7929250D02*
X14446250Y-8009250D01*
X14406250Y-7969250D02*
X14486250Y-7969250D01*
X14446250Y-8691250D02*
X14446250Y-8771250D01*
X14406250Y-8731250D02*
X14486250Y-8731250D01*
X14922500Y-4119250D02*
X14922500Y-4199250D01*
X14882500Y-4159250D02*
X14962500Y-4159250D01*
X14922500Y-4881250D02*
X14922500Y-4961250D01*
X14882500Y-4921250D02*
X14962500Y-4921250D01*
X15398750Y-9834250D02*
X15398750Y-9914250D01*
X15358750Y-9874250D02*
X15438750Y-9874250D01*
X15398750Y-10596250D02*
X15398750Y-10676250D01*
X15358750Y-10636250D02*
X15438750Y-10636250D01*
X15875000Y-6024250D02*
X15875000Y-6104250D01*
X15835000Y-6064250D02*
X15915000Y-6064250D01*
X15875000Y-6786250D02*
X15875000Y-6866250D01*
X15835000Y-6826250D02*
X15915000Y-6826250D01*
X15875000Y-11739250D02*
X15875000Y-11819250D01*
X15835000Y-11779250D02*
X15915000Y-11779250D01*
X15875000Y-12501250D02*
X15875000Y-12581250D01*
X15835000Y-12541250D02*
X15915000Y-12541250D01*
X16351250Y-7929250D02*
X16351250Y-8009250D01*
X16311250Y-7969250D02*
X16391250Y-7969250D01*
X16351250Y-8691250D02*
X16351250Y-8771250D01*
X16311250Y-8731250D02*
X16391250Y-8731250D01*
X16827500Y-4119250D02*
X16827500Y-4199250D01*
X16787500Y-4159250D02*
X16867500Y-4159250D01*
X16827500Y-4881250D02*
X16827500Y-4961250D01*
X16787500Y-4921250D02*
X16867500Y-4921250D01*
X17303750Y-9834250D02*
X17303750Y-9914250D01*
X17263750Y-9874250D02*
X17343750Y-9874250D01*
X17303750Y-10596250D02*
X17303750Y-10676250D01*
X17263750Y-10636250D02*
X17343750Y-10636250D01*
X17780000Y-6024250D02*
X17780000Y-6104250D01*
X17740000Y-6064250D02*
X17820000Y-6064250D01*
X17780000Y-6786250D02*
X17780000Y-6866250D01*
X17740000Y-6826250D02*
X17820000Y-6826250D01*
X18256250Y-7929250D02*
X18256250Y-8009250D01*
X18216250Y-7969250D02*
X18296250Y-7969250D01*
X18256250Y-8691250D02*
X18256250Y-8771250D01*
X18216250Y-8731250D02*
X18296250Y-8731250D01*
X18732500Y-4119250D02*
X18732500Y-4199250D01*
X18692500Y-4159250D02*
X18772500Y-4159250D01*
X18732500Y-4881250D02*
X18732500Y-4961250D01*
X18692500Y-4921250D02*
X18772500Y-4921250D01*
X19208750Y-9834250D02*
X19208750Y-9914250D01*
X19168750Y-9874250D02*
X19248750Y-9874250D01*
X19208750Y-10596250D02*
X19208750Y-10676250D01*
X19168750Y-10636250D02*
X19248750Y-10636250D01*
X19685000Y-6024250D02*
X19685000Y-6104250D01*
X19645000Y-6064250D02*
X19725000Y-6064250D01*
X19685000Y-6786250D02*
X19685000Y-6866250D01*
X19645000Y-6826250D02*
X19725000Y-6826250D01*
X20161250Y-7929250D02*
X20161250Y-8009250D01*
X20121250Y-7969250D02*
X20201250Y-7969250D01*
X20161250Y-8691250D02*
X20161250Y-8771250D01*
X20121250Y-8731250D02*
X20201250Y-8731250D01*
X20637500Y-4119250D02*
X20637500Y-4199250D01*
X20597500Y-4159250D02*
X20677500Y-4159250D01*
X20637500Y-4881250D02*
X20637500Y-4961250D01*
X20597500Y-4921250D02*
X20677500Y-4921250D01*
X21113750Y-9834250D02*
X21113750Y-9914250D01*
X21073750Y-9874250D02*
X21153750Y-9874250D01*
X21113750Y-10596250D02*
X21113750Y-10676250D01*
X21073750Y-10636250D02*
X21153750Y-10636250D01*
X21590000Y-6024250D02*
X21590000Y-6104250D01*
X21550000Y-6064250D02*
X21630000Y-6064250D01*
X21590000Y-6786250D02*
X21590000Y-6866250D01*
X21550000Y-6826250D02*
X21630000Y-6826250D01*
X22066250Y-7929250D02*
X22066250Y-8009250D01*
X22026250Y-7969250D02*
X22106250Y-7969250D01*
X22066250Y-8691250D02*
X22066250Y-8771250D01*
X22026250Y-8731250D02*
X22106250Y-8731250D01*
X22542500Y-4119250D02*
X22542500Y-4199250D01*
X22502500Y-4159250D02*
X22582500Y-4159250D01*
X22542500Y-4881250D02*
X22542500Y-4961250D01*
X22502500Y-4921250D02*
X22582500Y-4921250D01*
X22542500Y-11739250D02*
X22542500Y-11819250D01*
X22502500Y-11779250D02*
X22582500Y-11779250D01*
X22542500Y-12501250D02*
X22542500Y-12581250D01*
X22502500Y-12541250D02*
X22582500Y-12541250D01*
X23018750Y-9834250D02*
X23018750Y-9914250D01*
X22978750Y-9874250D02*
X23058750Y-9874250D01*
X23018750Y-10596250D02*
X23018750Y-10676250D01*
X22978750Y-10636250D02*
X23058750Y-10636250D01*
X23495000Y-6024250D02*
X23495000Y-6104250D01*
X23455000Y-6064250D02*
X23535000Y-6064250D01*
X23495000Y-6786250D02*
X23495000Y-6866250D01*
X23455000Y-6826250D02*
X23535000Y-6826250D01*
X23971250Y-7929250D02*
X23971250Y-8009250D01*
X23931250Y-7969250D02*
X24011250Y-7969250D01*
X23971250Y-8691250D02*
X23971250Y-8771250D01*
X23931250Y-8731250D02*
X24011250Y-8731250D01*
X24447500Y-4119250D02*
X24447500Y-4199250D01*
X24407500Y-4159250D02*
X24487500Y-4159250D01*
X24447500Y-4881250D02*
X24447500Y-4961250D01*
X24407500Y-4921250D02*
X24487500Y-4921250D01*
X24447500Y-11739250D02*
X24447500Y-11819250D01*
X24407500Y-11779250D02*
X24487500Y-11779250D01*
X24447500Y-12501250D02*
X24447500Y-12581250D01*
X24407500Y-12541250D02*
X24487500Y-12541250D01*
X24923750Y-9834250D02*
X24923750Y-9914250D01*
X24883750Y-9874250D02*
X24963750Y-9874250D01*
X24923750Y-10596250D02*
X24923750Y-10676250D01*
X24883750Y-10636250D02*
X24963750Y-10636250D01*
X25400000Y-6024250D02*
X25400000Y-6104250D01*
X25360000Y-6064250D02*
X25440000Y-6064250D01*
X25400000Y-6786250D02*
X25400000Y-6866250D01*
X25360000Y-6826250D02*
X25440000Y-6826250D01*
X25876250Y-7929250D02*
X25876250Y-8009250D01*
X25836250Y-7969250D02*
X25916250Y-7969250D01*
X25876250Y-8691250D02*
X25876250Y-8771250D01*
X25836250Y-8731250D02*
X25916250Y-8731250D01*
X26352500Y-4119250D02*
X26352500Y-4199250D01*
X26312500Y-4159250D02*
X26392500Y-4159250D01*
X26352500Y-4881250D02*
X26352500Y-4961250D01*
X26312500Y-4921250D02*
X26392500Y-4921250D01*
X26352500Y-11739250D02*
X26352500Y-11819250D01*
X26312500Y-11779250D02*
X26392500Y-11779250D01*
X26352500Y-12501250D02*
X26352500Y-12581250D01*
X26312500Y-12541250D02*
X26392500Y-12541250D01*
X27305000Y-6024250D02*
X27305000Y-6104250D01*
X27265000Y-6064250D02*
X27345000Y-6064250D01*
X27305000Y-6786250D02*
X27305000Y-6866250D01*
X27265000Y-6826250D02*
X27345000Y-6826250D01*
X27781250Y-9834250D02*
X27781250Y-9914250D01*
X27741250Y-9874250D02*
X27821250Y-9874250D01*
X27781250Y-10596250D02*
X27781250Y-10676250D01*
X27741250Y-10636250D02*
X27821250Y-10636250D01*
X28733750Y-12215500D02*
X28733750Y-12295500D01*
X28693750Y-12255500D02*
X28773750Y-12255500D01*
X28733750Y-12977500D02*
X28733750Y-13057500D01*
X28693750Y-13017500D02*
X28773750Y-13017500D01*
X30162500Y-4119250D02*
X30162500Y-4199250D01*
X30122500Y-4159250D02*
X30202500Y-4159250D01*
X30162500Y-4881250D02*
X30162500Y-4961250D01*
X30122500Y-4921250D02*
X30202500Y-4921250D01*
X30162500Y-6024250D02*
X30162500Y-6104250D01*
X30122500Y-6064250D02*
X30202500Y-6064250D01*
X30162500Y-6786250D02*
X30162500Y-6866250D01*
X30122500Y-6826250D02*
X30202500Y-6826250D01*
X30162500Y-7929250D02*
X30162500Y-8009250D01*
X30122500Y-7969250D02*
X30202500Y-7969250D01*
X30162500Y-8691250D02*
X30162500Y-8771250D01*
X30122500Y-8731250D02*
X30202500Y-8731250D01*
X30638750Y-9834250D02*
X30638750Y-9914250D01*
X30598750Y-9874250D02*
X30678750Y-9874250D01*
X30638750Y-10596250D02*
X30638750Y-10676250D01*
X30598750Y-10636250D02*
X30678750Y-10636250D01*
X30638750Y-12215500D02*
X30638750Y-12295500D01*
X30598750Y-12255500D02*
X30678750Y-12255500D01*
X30638750Y-12977500D02*
X30638750Y-13057500D01*
X30598750Y-13017500D02*
X30678750Y-13017500D01*
X31115000Y-6024250D02*
X31115000Y-6104250D01*
X31075000Y-6064250D02*
X31155000Y-6064250D01*
X31115000Y-6786250D02*
X31115000Y-6866250D01*
X31075000Y-6826250D02*
X31155000Y-6826250D01*
X31115000Y-7929250D02*
X31115000Y-8009250D01*
X31075000Y-7969250D02*
X31155000Y-7969250D01*
X31115000Y-8691250D02*
X31115000Y-8771250D01*
X31075000Y-8731250D02*
X31155000Y-8731250D01*
X31115000Y-9834250D02*
X31115000Y-9914250D01*
X31075000Y-9874250D02*
X31155000Y-9874250D01*
X31115000Y-10596250D02*
X31115000Y-10676250D01*
X31075000Y-10636250D02*
X31155000Y-10636250D01*
X32543750Y-12215500D02*
X32543750Y-12295500D01*
X32503750Y-12255500D02*
X32583750Y-12255500D01*
X32543750Y-12977500D02*
X32543750Y-13057500D01*
X32503750Y-13017500D02*
X32583750Y-13017500D01*
D10*
X5701356Y-2495356D02*
X5701356Y-2424644D01*
X5630644Y-2424644D01*
X5630644Y-2495356D01*
X5701356Y-2495356D01*
X5955356Y-2495356D02*
X5955356Y-2424644D01*
X5884644Y-2424644D01*
X5884644Y-2495356D01*
X5955356Y-2495356D01*
X31836156Y-3360556D02*
X31836156Y-3289844D01*
X31765444Y-3289844D01*
X31765444Y-3360556D01*
X31836156Y-3360556D01*
X31836156Y-4810556D02*
X31836156Y-4739844D01*
X31765444Y-4739844D01*
X31765444Y-4810556D01*
X31836156Y-4810556D01*
X32086156Y-4810556D02*
X32086156Y-4739844D01*
X32015444Y-4739844D01*
X32015444Y-4810556D01*
X32086156Y-4810556D01*
X32336156Y-3360556D02*
X32336156Y-3289844D01*
X32265444Y-3289844D01*
X32265444Y-3360556D01*
X32336156Y-3360556D01*
X32336156Y-4810556D02*
X32336156Y-4739844D01*
X32265444Y-4739844D01*
X32265444Y-4810556D01*
X32336156Y-4810556D01*
D15*
X2006000Y-3696000D02*
X2061000Y-3641000D01*
X2006000Y-3586000D01*
X1951000Y-3641000D01*
X2006000Y-3696000D01*
X2006000Y-5220000D02*
X2061000Y-5165000D01*
X2006000Y-5110000D01*
X1951000Y-5165000D01*
X2006000Y-5220000D01*
X2260000Y-3696000D02*
X2315000Y-3641000D01*
X2260000Y-3586000D01*
X2205000Y-3641000D01*
X2260000Y-3696000D01*
X2260000Y-5220000D02*
X2315000Y-5165000D01*
X2260000Y-5110000D01*
X2205000Y-5165000D01*
X2260000Y-5220000D01*
X2514000Y-3696000D02*
X2569000Y-3641000D01*
X2514000Y-3586000D01*
X2459000Y-3641000D01*
X2514000Y-3696000D01*
X2514000Y-5220000D02*
X2569000Y-5165000D01*
X2514000Y-5110000D01*
X2459000Y-5165000D01*
X2514000Y-5220000D01*
X2768000Y-3696000D02*
X2823000Y-3641000D01*
X2768000Y-3586000D01*
X2713000Y-3641000D01*
X2768000Y-3696000D01*
X2768000Y-5220000D02*
X2823000Y-5165000D01*
X2768000Y-5110000D01*
X2713000Y-5165000D01*
X2768000Y-5220000D01*
X3022000Y-3696000D02*
X3077000Y-3641000D01*
X3022000Y-3586000D01*
X2967000Y-3641000D01*
X3022000Y-3696000D01*
X3022000Y-5220000D02*
X3077000Y-5165000D01*
X3022000Y-5110000D01*
X2967000Y-5165000D01*
X3022000Y-5220000D01*
X3276000Y-3696000D02*
X3331000Y-3641000D01*
X3276000Y-3586000D01*
X3221000Y-3641000D01*
X3276000Y-3696000D01*
X3276000Y-5220000D02*
X3331000Y-5165000D01*
X3276000Y-5110000D01*
X3221000Y-5165000D01*
X3276000Y-5220000D01*
X3530000Y-3696000D02*
X3585000Y-3641000D01*
X3530000Y-3586000D01*
X3475000Y-3641000D01*
X3530000Y-3696000D01*
X3530000Y-5220000D02*
X3585000Y-5165000D01*
X3530000Y-5110000D01*
X3475000Y-5165000D01*
X3530000Y-5220000D01*
X3784000Y-3696000D02*
X3839000Y-3641000D01*
X3784000Y-3586000D01*
X3729000Y-3641000D01*
X3784000Y-3696000D01*
X3784000Y-5220000D02*
X3839000Y-5165000D01*
X3784000Y-5110000D01*
X3729000Y-5165000D01*
X3784000Y-5220000D01*
X4038000Y-3696000D02*
X4093000Y-3641000D01*
X4038000Y-3586000D01*
X3983000Y-3641000D01*
X4038000Y-3696000D01*
X4038000Y-5220000D02*
X4093000Y-5165000D01*
X4038000Y-5110000D01*
X3983000Y-5165000D01*
X4038000Y-5220000D01*
X4292000Y-3696000D02*
X4347000Y-3641000D01*
X4292000Y-3586000D01*
X4237000Y-3641000D01*
X4292000Y-3696000D01*
X4292000Y-5220000D02*
X4347000Y-5165000D01*
X4292000Y-5110000D01*
X4237000Y-5165000D01*
X4292000Y-5220000D01*
X4546000Y-3696000D02*
X4601000Y-3641000D01*
X4546000Y-3586000D01*
X4491000Y-3641000D01*
X4546000Y-3696000D01*
X4546000Y-5220000D02*
X4601000Y-5165000D01*
X4546000Y-5110000D01*
X4491000Y-5165000D01*
X4546000Y-5220000D01*
X4800000Y-3696000D02*
X4855000Y-3641000D01*
X4800000Y-3586000D01*
X4745000Y-3641000D01*
X4800000Y-3696000D01*
X4800000Y-5220000D02*
X4855000Y-5165000D01*
X4800000Y-5110000D01*
X4745000Y-5165000D01*
X4800000Y-5220000D01*
D16*
X2085500Y-4196875D02*
X2232500Y-4343875D01*
X2232500Y-4196875D02*
X2085500Y-4343875D01*
X2232500Y-4270375D02*
G75*
G03*
X2232500Y-4270375I-73500J0D01*
G01*
X2323625Y-11816875D02*
X2470625Y-11963875D01*
X2470625Y-11816875D02*
X2323625Y-11963875D01*
X2470625Y-11890375D02*
G75*
G03*
X2470625Y-11890375I-73500J0D01*
G01*
X2561750Y-6101875D02*
X2708750Y-6248875D01*
X2708750Y-6101875D02*
X2561750Y-6248875D01*
X2708750Y-6175375D02*
G75*
G03*
X2708750Y-6175375I-73500J0D01*
G01*
X2720500Y-3942875D02*
X2867500Y-4089875D01*
X2867500Y-3942875D02*
X2720500Y-4089875D01*
X2867500Y-4016375D02*
G75*
G03*
X2867500Y-4016375I-73500J0D01*
G01*
X2799875Y-8006875D02*
X2946875Y-8153875D01*
X2946875Y-8006875D02*
X2799875Y-8153875D01*
X2946875Y-8080375D02*
G75*
G03*
X2946875Y-8080375I-73500J0D01*
G01*
X2958625Y-11562875D02*
X3105625Y-11709875D01*
X3105625Y-11562875D02*
X2958625Y-11709875D01*
X3105625Y-11636375D02*
G75*
G03*
X3105625Y-11636375I-73500J0D01*
G01*
X3196750Y-5847875D02*
X3343750Y-5994875D01*
X3343750Y-5847875D02*
X3196750Y-5994875D01*
X3343750Y-5921375D02*
G75*
G03*
X3343750Y-5921375I-73500J0D01*
G01*
X3276125Y-9911875D02*
X3423125Y-10058875D01*
X3423125Y-9911875D02*
X3276125Y-10058875D01*
X3423125Y-9985375D02*
G75*
G03*
X3423125Y-9985375I-73500J0D01*
G01*
X3434875Y-7752875D02*
X3581875Y-7899875D01*
X3581875Y-7752875D02*
X3434875Y-7899875D01*
X3581875Y-7826375D02*
G75*
G03*
X3581875Y-7826375I-73500J0D01*
G01*
X3911125Y-9657875D02*
X4058125Y-9804875D01*
X4058125Y-9657875D02*
X3911125Y-9804875D01*
X4058125Y-9731375D02*
G75*
G03*
X4058125Y-9731375I-73500J0D01*
G01*
X3990500Y-4196875D02*
X4137500Y-4343875D01*
X4137500Y-4196875D02*
X3990500Y-4343875D01*
X4137500Y-4270375D02*
G75*
G03*
X4137500Y-4270375I-73500J0D01*
G01*
X4625500Y-3942875D02*
X4772500Y-4089875D01*
X4772500Y-3942875D02*
X4625500Y-4089875D01*
X4772500Y-4016375D02*
G75*
G03*
X4772500Y-4016375I-73500J0D01*
G01*
X4704875Y-11816875D02*
X4851875Y-11963875D01*
X4851875Y-11816875D02*
X4704875Y-11963875D01*
X4851875Y-11890375D02*
G75*
G03*
X4851875Y-11890375I-73500J0D01*
G01*
X4943000Y-6101875D02*
X5090000Y-6248875D01*
X5090000Y-6101875D02*
X4943000Y-6248875D01*
X5090000Y-6175375D02*
G75*
G03*
X5090000Y-6175375I-73500J0D01*
G01*
X5339875Y-11562875D02*
X5486875Y-11709875D01*
X5486875Y-11562875D02*
X5339875Y-11709875D01*
X5486875Y-11636375D02*
G75*
G03*
X5486875Y-11636375I-73500J0D01*
G01*
X5419250Y-8006875D02*
X5566250Y-8153875D01*
X5566250Y-8006875D02*
X5419250Y-8153875D01*
X5566250Y-8080375D02*
G75*
G03*
X5566250Y-8080375I-73500J0D01*
G01*
X5578000Y-5847875D02*
X5725000Y-5994875D01*
X5725000Y-5847875D02*
X5578000Y-5994875D01*
X5725000Y-5921375D02*
G75*
G03*
X5725000Y-5921375I-73500J0D01*
G01*
X5895500Y-4196875D02*
X6042500Y-4343875D01*
X6042500Y-4196875D02*
X5895500Y-4343875D01*
X6042500Y-4270375D02*
G75*
G03*
X6042500Y-4270375I-73500J0D01*
G01*
X6054250Y-7752875D02*
X6201250Y-7899875D01*
X6201250Y-7752875D02*
X6054250Y-7899875D01*
X6201250Y-7826375D02*
G75*
G03*
X6201250Y-7826375I-73500J0D01*
G01*
X6371750Y-9911875D02*
X6518750Y-10058875D01*
X6518750Y-9911875D02*
X6371750Y-10058875D01*
X6518750Y-9985375D02*
G75*
G03*
X6518750Y-9985375I-73500J0D01*
G01*
X6530500Y-3942875D02*
X6677500Y-4089875D01*
X6677500Y-3942875D02*
X6530500Y-4089875D01*
X6677500Y-4016375D02*
G75*
G03*
X6677500Y-4016375I-73500J0D01*
G01*
X6848000Y-6101875D02*
X6995000Y-6248875D01*
X6995000Y-6101875D02*
X6848000Y-6248875D01*
X6995000Y-6175375D02*
G75*
G03*
X6995000Y-6175375I-73500J0D01*
G01*
X7006750Y-9657875D02*
X7153750Y-9804875D01*
X7153750Y-9657875D02*
X7006750Y-9804875D01*
X7153750Y-9731375D02*
G75*
G03*
X7153750Y-9731375I-73500J0D01*
G01*
X7086125Y-11816875D02*
X7233125Y-11963875D01*
X7233125Y-11816875D02*
X7086125Y-11963875D01*
X7233125Y-11890375D02*
G75*
G03*
X7233125Y-11890375I-73500J0D01*
G01*
X7324250Y-8006875D02*
X7471250Y-8153875D01*
X7471250Y-8006875D02*
X7324250Y-8153875D01*
X7471250Y-8080375D02*
G75*
G03*
X7471250Y-8080375I-73500J0D01*
G01*
X7483000Y-5847875D02*
X7630000Y-5994875D01*
X7630000Y-5847875D02*
X7483000Y-5994875D01*
X7630000Y-5921375D02*
G75*
G03*
X7630000Y-5921375I-73500J0D01*
G01*
X7721125Y-11562875D02*
X7868125Y-11709875D01*
X7868125Y-11562875D02*
X7721125Y-11709875D01*
X7868125Y-11636375D02*
G75*
G03*
X7868125Y-11636375I-73500J0D01*
G01*
X7800500Y-4196875D02*
X7947500Y-4343875D01*
X7947500Y-4196875D02*
X7800500Y-4343875D01*
X7947500Y-4270375D02*
G75*
G03*
X7947500Y-4270375I-73500J0D01*
G01*
X7959250Y-7752875D02*
X8106250Y-7899875D01*
X8106250Y-7752875D02*
X7959250Y-7899875D01*
X8106250Y-7826375D02*
G75*
G03*
X8106250Y-7826375I-73500J0D01*
G01*
X8276750Y-9911875D02*
X8423750Y-10058875D01*
X8423750Y-9911875D02*
X8276750Y-10058875D01*
X8423750Y-9985375D02*
G75*
G03*
X8423750Y-9985375I-73500J0D01*
G01*
X8435500Y-3942875D02*
X8582500Y-4089875D01*
X8582500Y-3942875D02*
X8435500Y-4089875D01*
X8582500Y-4016375D02*
G75*
G03*
X8582500Y-4016375I-73500J0D01*
G01*
X8753000Y-6101875D02*
X8900000Y-6248875D01*
X8900000Y-6101875D02*
X8753000Y-6248875D01*
X8900000Y-6175375D02*
G75*
G03*
X8900000Y-6175375I-73500J0D01*
G01*
X8911750Y-9657875D02*
X9058750Y-9804875D01*
X9058750Y-9657875D02*
X8911750Y-9804875D01*
X9058750Y-9731375D02*
G75*
G03*
X9058750Y-9731375I-73500J0D01*
G01*
X9229250Y-8006875D02*
X9376250Y-8153875D01*
X9376250Y-8006875D02*
X9229250Y-8153875D01*
X9376250Y-8080375D02*
G75*
G03*
X9376250Y-8080375I-73500J0D01*
G01*
X9388000Y-5847875D02*
X9535000Y-5994875D01*
X9535000Y-5847875D02*
X9388000Y-5994875D01*
X9535000Y-5921375D02*
G75*
G03*
X9535000Y-5921375I-73500J0D01*
G01*
X9705500Y-4196875D02*
X9852500Y-4343875D01*
X9852500Y-4196875D02*
X9705500Y-4343875D01*
X9852500Y-4270375D02*
G75*
G03*
X9852500Y-4270375I-73500J0D01*
G01*
X9864250Y-7752875D02*
X10011250Y-7899875D01*
X10011250Y-7752875D02*
X9864250Y-7899875D01*
X10011250Y-7826375D02*
G75*
G03*
X10011250Y-7826375I-73500J0D01*
G01*
X10181750Y-9911875D02*
X10328750Y-10058875D01*
X10328750Y-9911875D02*
X10181750Y-10058875D01*
X10328750Y-9985375D02*
G75*
G03*
X10328750Y-9985375I-73500J0D01*
G01*
X10340500Y-3942875D02*
X10487500Y-4089875D01*
X10487500Y-3942875D02*
X10340500Y-4089875D01*
X10487500Y-4016375D02*
G75*
G03*
X10487500Y-4016375I-73500J0D01*
G01*
X10658000Y-6101875D02*
X10805000Y-6248875D01*
X10805000Y-6101875D02*
X10658000Y-6248875D01*
X10805000Y-6175375D02*
G75*
G03*
X10805000Y-6175375I-73500J0D01*
G01*
X10816750Y-9657875D02*
X10963750Y-9804875D01*
X10963750Y-9657875D02*
X10816750Y-9804875D01*
X10963750Y-9731375D02*
G75*
G03*
X10963750Y-9731375I-73500J0D01*
G01*
X11134250Y-8006875D02*
X11281250Y-8153875D01*
X11281250Y-8006875D02*
X11134250Y-8153875D01*
X11281250Y-8080375D02*
G75*
G03*
X11281250Y-8080375I-73500J0D01*
G01*
X11293000Y-5847875D02*
X11440000Y-5994875D01*
X11440000Y-5847875D02*
X11293000Y-5994875D01*
X11440000Y-5921375D02*
G75*
G03*
X11440000Y-5921375I-73500J0D01*
G01*
X11610500Y-4196875D02*
X11757500Y-4343875D01*
X11757500Y-4196875D02*
X11610500Y-4343875D01*
X11757500Y-4270375D02*
G75*
G03*
X11757500Y-4270375I-73500J0D01*
G01*
X11769250Y-7752875D02*
X11916250Y-7899875D01*
X11916250Y-7752875D02*
X11769250Y-7899875D01*
X11916250Y-7826375D02*
G75*
G03*
X11916250Y-7826375I-73500J0D01*
G01*
X12086750Y-9911875D02*
X12233750Y-10058875D01*
X12233750Y-9911875D02*
X12086750Y-10058875D01*
X12233750Y-9985375D02*
G75*
G03*
X12233750Y-9985375I-73500J0D01*
G01*
X12245500Y-3942875D02*
X12392500Y-4089875D01*
X12392500Y-3942875D02*
X12245500Y-4089875D01*
X12392500Y-4016375D02*
G75*
G03*
X12392500Y-4016375I-73500J0D01*
G01*
X12563000Y-6101875D02*
X12710000Y-6248875D01*
X12710000Y-6101875D02*
X12563000Y-6248875D01*
X12710000Y-6175375D02*
G75*
G03*
X12710000Y-6175375I-73500J0D01*
G01*
X12721750Y-9657875D02*
X12868750Y-9804875D01*
X12868750Y-9657875D02*
X12721750Y-9804875D01*
X12868750Y-9731375D02*
G75*
G03*
X12868750Y-9731375I-73500J0D01*
G01*
X13039250Y-8006875D02*
X13186250Y-8153875D01*
X13186250Y-8006875D02*
X13039250Y-8153875D01*
X13186250Y-8080375D02*
G75*
G03*
X13186250Y-8080375I-73500J0D01*
G01*
X13198000Y-5847875D02*
X13345000Y-5994875D01*
X13345000Y-5847875D02*
X13198000Y-5994875D01*
X13345000Y-5921375D02*
G75*
G03*
X13345000Y-5921375I-73500J0D01*
G01*
X13515500Y-4196875D02*
X13662500Y-4343875D01*
X13662500Y-4196875D02*
X13515500Y-4343875D01*
X13662500Y-4270375D02*
G75*
G03*
X13662500Y-4270375I-73500J0D01*
G01*
X13674250Y-7752875D02*
X13821250Y-7899875D01*
X13821250Y-7752875D02*
X13674250Y-7899875D01*
X13821250Y-7826375D02*
G75*
G03*
X13821250Y-7826375I-73500J0D01*
G01*
X13991750Y-9911875D02*
X14138750Y-10058875D01*
X14138750Y-9911875D02*
X13991750Y-10058875D01*
X14138750Y-9985375D02*
G75*
G03*
X14138750Y-9985375I-73500J0D01*
G01*
X14150500Y-3942875D02*
X14297500Y-4089875D01*
X14297500Y-3942875D02*
X14150500Y-4089875D01*
X14297500Y-4016375D02*
G75*
G03*
X14297500Y-4016375I-73500J0D01*
G01*
X14229875Y-11816875D02*
X14376875Y-11963875D01*
X14376875Y-11816875D02*
X14229875Y-11963875D01*
X14376875Y-11890375D02*
G75*
G03*
X14376875Y-11890375I-73500J0D01*
G01*
X14468000Y-6101875D02*
X14615000Y-6248875D01*
X14615000Y-6101875D02*
X14468000Y-6248875D01*
X14615000Y-6175375D02*
G75*
G03*
X14615000Y-6175375I-73500J0D01*
G01*
X14626750Y-9657875D02*
X14773750Y-9804875D01*
X14773750Y-9657875D02*
X14626750Y-9804875D01*
X14773750Y-9731375D02*
G75*
G03*
X14773750Y-9731375I-73500J0D01*
G01*
X14864875Y-11562875D02*
X15011875Y-11709875D01*
X15011875Y-11562875D02*
X14864875Y-11709875D01*
X15011875Y-11636375D02*
G75*
G03*
X15011875Y-11636375I-73500J0D01*
G01*
X14944250Y-8006875D02*
X15091250Y-8153875D01*
X15091250Y-8006875D02*
X14944250Y-8153875D01*
X15091250Y-8080375D02*
G75*
G03*
X15091250Y-8080375I-73500J0D01*
G01*
X15103000Y-5847875D02*
X15250000Y-5994875D01*
X15250000Y-5847875D02*
X15103000Y-5994875D01*
X15250000Y-5921375D02*
G75*
G03*
X15250000Y-5921375I-73500J0D01*
G01*
X15420500Y-4196875D02*
X15567500Y-4343875D01*
X15567500Y-4196875D02*
X15420500Y-4343875D01*
X15567500Y-4270375D02*
G75*
G03*
X15567500Y-4270375I-73500J0D01*
G01*
X15579250Y-7752875D02*
X15726250Y-7899875D01*
X15726250Y-7752875D02*
X15579250Y-7899875D01*
X15726250Y-7826375D02*
G75*
G03*
X15726250Y-7826375I-73500J0D01*
G01*
X15896750Y-9911875D02*
X16043750Y-10058875D01*
X16043750Y-9911875D02*
X15896750Y-10058875D01*
X16043750Y-9985375D02*
G75*
G03*
X16043750Y-9985375I-73500J0D01*
G01*
X16055500Y-3942875D02*
X16202500Y-4089875D01*
X16202500Y-3942875D02*
X16055500Y-4089875D01*
X16202500Y-4016375D02*
G75*
G03*
X16202500Y-4016375I-73500J0D01*
G01*
X16373000Y-6101875D02*
X16520000Y-6248875D01*
X16520000Y-6101875D02*
X16373000Y-6248875D01*
X16520000Y-6175375D02*
G75*
G03*
X16520000Y-6175375I-73500J0D01*
G01*
X16531750Y-9657875D02*
X16678750Y-9804875D01*
X16678750Y-9657875D02*
X16531750Y-9804875D01*
X16678750Y-9731375D02*
G75*
G03*
X16678750Y-9731375I-73500J0D01*
G01*
X16849250Y-8006875D02*
X16996250Y-8153875D01*
X16996250Y-8006875D02*
X16849250Y-8153875D01*
X16996250Y-8080375D02*
G75*
G03*
X16996250Y-8080375I-73500J0D01*
G01*
X17008000Y-5847875D02*
X17155000Y-5994875D01*
X17155000Y-5847875D02*
X17008000Y-5994875D01*
X17155000Y-5921375D02*
G75*
G03*
X17155000Y-5921375I-73500J0D01*
G01*
X17325500Y-4196875D02*
X17472500Y-4343875D01*
X17472500Y-4196875D02*
X17325500Y-4343875D01*
X17472500Y-4270375D02*
G75*
G03*
X17472500Y-4270375I-73500J0D01*
G01*
X17484250Y-7752875D02*
X17631250Y-7899875D01*
X17631250Y-7752875D02*
X17484250Y-7899875D01*
X17631250Y-7826375D02*
G75*
G03*
X17631250Y-7826375I-73500J0D01*
G01*
X17801750Y-9911875D02*
X17948750Y-10058875D01*
X17948750Y-9911875D02*
X17801750Y-10058875D01*
X17948750Y-9985375D02*
G75*
G03*
X17948750Y-9985375I-73500J0D01*
G01*
X17960500Y-3942875D02*
X18107500Y-4089875D01*
X18107500Y-3942875D02*
X17960500Y-4089875D01*
X18107500Y-4016375D02*
G75*
G03*
X18107500Y-4016375I-73500J0D01*
G01*
X18278000Y-6101875D02*
X18425000Y-6248875D01*
X18425000Y-6101875D02*
X18278000Y-6248875D01*
X18425000Y-6175375D02*
G75*
G03*
X18425000Y-6175375I-73500J0D01*
G01*
X18436750Y-9657875D02*
X18583750Y-9804875D01*
X18583750Y-9657875D02*
X18436750Y-9804875D01*
X18583750Y-9731375D02*
G75*
G03*
X18583750Y-9731375I-73500J0D01*
G01*
X18754250Y-8006875D02*
X18901250Y-8153875D01*
X18901250Y-8006875D02*
X18754250Y-8153875D01*
X18901250Y-8080375D02*
G75*
G03*
X18901250Y-8080375I-73500J0D01*
G01*
X18913000Y-5847875D02*
X19060000Y-5994875D01*
X19060000Y-5847875D02*
X18913000Y-5994875D01*
X19060000Y-5921375D02*
G75*
G03*
X19060000Y-5921375I-73500J0D01*
G01*
X19230500Y-4196875D02*
X19377500Y-4343875D01*
X19377500Y-4196875D02*
X19230500Y-4343875D01*
X19377500Y-4270375D02*
G75*
G03*
X19377500Y-4270375I-73500J0D01*
G01*
X19389250Y-7752875D02*
X19536250Y-7899875D01*
X19536250Y-7752875D02*
X19389250Y-7899875D01*
X19536250Y-7826375D02*
G75*
G03*
X19536250Y-7826375I-73500J0D01*
G01*
X19706750Y-9911875D02*
X19853750Y-10058875D01*
X19853750Y-9911875D02*
X19706750Y-10058875D01*
X19853750Y-9985375D02*
G75*
G03*
X19853750Y-9985375I-73500J0D01*
G01*
X19865500Y-3942875D02*
X20012500Y-4089875D01*
X20012500Y-3942875D02*
X19865500Y-4089875D01*
X20012500Y-4016375D02*
G75*
G03*
X20012500Y-4016375I-73500J0D01*
G01*
X20183000Y-6101875D02*
X20330000Y-6248875D01*
X20330000Y-6101875D02*
X20183000Y-6248875D01*
X20330000Y-6175375D02*
G75*
G03*
X20330000Y-6175375I-73500J0D01*
G01*
X20341750Y-9657875D02*
X20488750Y-9804875D01*
X20488750Y-9657875D02*
X20341750Y-9804875D01*
X20488750Y-9731375D02*
G75*
G03*
X20488750Y-9731375I-73500J0D01*
G01*
X20659250Y-8006875D02*
X20806250Y-8153875D01*
X20806250Y-8006875D02*
X20659250Y-8153875D01*
X20806250Y-8080375D02*
G75*
G03*
X20806250Y-8080375I-73500J0D01*
G01*
X20818000Y-5847875D02*
X20965000Y-5994875D01*
X20965000Y-5847875D02*
X20818000Y-5994875D01*
X20965000Y-5921375D02*
G75*
G03*
X20965000Y-5921375I-73500J0D01*
G01*
X21135500Y-4196875D02*
X21282500Y-4343875D01*
X21282500Y-4196875D02*
X21135500Y-4343875D01*
X21282500Y-4270375D02*
G75*
G03*
X21282500Y-4270375I-73500J0D01*
G01*
X21135500Y-11816875D02*
X21282500Y-11963875D01*
X21282500Y-11816875D02*
X21135500Y-11963875D01*
X21282500Y-11890375D02*
G75*
G03*
X21282500Y-11890375I-73500J0D01*
G01*
X21294250Y-7752875D02*
X21441250Y-7899875D01*
X21441250Y-7752875D02*
X21294250Y-7899875D01*
X21441250Y-7826375D02*
G75*
G03*
X21441250Y-7826375I-73500J0D01*
G01*
X21611750Y-9911875D02*
X21758750Y-10058875D01*
X21758750Y-9911875D02*
X21611750Y-10058875D01*
X21758750Y-9985375D02*
G75*
G03*
X21758750Y-9985375I-73500J0D01*
G01*
X21770500Y-3942875D02*
X21917500Y-4089875D01*
X21917500Y-3942875D02*
X21770500Y-4089875D01*
X21917500Y-4016375D02*
G75*
G03*
X21917500Y-4016375I-73500J0D01*
G01*
X21770500Y-11562875D02*
X21917500Y-11709875D01*
X21917500Y-11562875D02*
X21770500Y-11709875D01*
X21917500Y-11636375D02*
G75*
G03*
X21917500Y-11636375I-73500J0D01*
G01*
X22088000Y-6101875D02*
X22235000Y-6248875D01*
X22235000Y-6101875D02*
X22088000Y-6248875D01*
X22235000Y-6175375D02*
G75*
G03*
X22235000Y-6175375I-73500J0D01*
G01*
X22246750Y-9657875D02*
X22393750Y-9804875D01*
X22393750Y-9657875D02*
X22246750Y-9804875D01*
X22393750Y-9731375D02*
G75*
G03*
X22393750Y-9731375I-73500J0D01*
G01*
X22564250Y-8006875D02*
X22711250Y-8153875D01*
X22711250Y-8006875D02*
X22564250Y-8153875D01*
X22711250Y-8080375D02*
G75*
G03*
X22711250Y-8080375I-73500J0D01*
G01*
X22723000Y-5847875D02*
X22870000Y-5994875D01*
X22870000Y-5847875D02*
X22723000Y-5994875D01*
X22870000Y-5921375D02*
G75*
G03*
X22870000Y-5921375I-73500J0D01*
G01*
X23040500Y-4196875D02*
X23187500Y-4343875D01*
X23187500Y-4196875D02*
X23040500Y-4343875D01*
X23187500Y-4270375D02*
G75*
G03*
X23187500Y-4270375I-73500J0D01*
G01*
X23040500Y-11816875D02*
X23187500Y-11963875D01*
X23187500Y-11816875D02*
X23040500Y-11963875D01*
X23187500Y-11890375D02*
G75*
G03*
X23187500Y-11890375I-73500J0D01*
G01*
X23199250Y-7752875D02*
X23346250Y-7899875D01*
X23346250Y-7752875D02*
X23199250Y-7899875D01*
X23346250Y-7826375D02*
G75*
G03*
X23346250Y-7826375I-73500J0D01*
G01*
X23516750Y-9911875D02*
X23663750Y-10058875D01*
X23663750Y-9911875D02*
X23516750Y-10058875D01*
X23663750Y-9985375D02*
G75*
G03*
X23663750Y-9985375I-73500J0D01*
G01*
X23675500Y-3942875D02*
X23822500Y-4089875D01*
X23822500Y-3942875D02*
X23675500Y-4089875D01*
X23822500Y-4016375D02*
G75*
G03*
X23822500Y-4016375I-73500J0D01*
G01*
X23675500Y-11562875D02*
X23822500Y-11709875D01*
X23822500Y-11562875D02*
X23675500Y-11709875D01*
X23822500Y-11636375D02*
G75*
G03*
X23822500Y-11636375I-73500J0D01*
G01*
X23993000Y-6101875D02*
X24140000Y-6248875D01*
X24140000Y-6101875D02*
X23993000Y-6248875D01*
X24140000Y-6175375D02*
G75*
G03*
X24140000Y-6175375I-73500J0D01*
G01*
X24151750Y-9657875D02*
X24298750Y-9804875D01*
X24298750Y-9657875D02*
X24151750Y-9804875D01*
X24298750Y-9731375D02*
G75*
G03*
X24298750Y-9731375I-73500J0D01*
G01*
X24469250Y-8006875D02*
X24616250Y-8153875D01*
X24616250Y-8006875D02*
X24469250Y-8153875D01*
X24616250Y-8080375D02*
G75*
G03*
X24616250Y-8080375I-73500J0D01*
G01*
X24628000Y-5847875D02*
X24775000Y-5994875D01*
X24775000Y-5847875D02*
X24628000Y-5994875D01*
X24775000Y-5921375D02*
G75*
G03*
X24775000Y-5921375I-73500J0D01*
G01*
X24945500Y-4196875D02*
X25092500Y-4343875D01*
X25092500Y-4196875D02*
X24945500Y-4343875D01*
X25092500Y-4270375D02*
G75*
G03*
X25092500Y-4270375I-73500J0D01*
G01*
X24945500Y-11816875D02*
X25092500Y-11963875D01*
X25092500Y-11816875D02*
X24945500Y-11963875D01*
X25092500Y-11890375D02*
G75*
G03*
X25092500Y-11890375I-73500J0D01*
G01*
X25104250Y-7752875D02*
X25251250Y-7899875D01*
X25251250Y-7752875D02*
X25104250Y-7899875D01*
X25251250Y-7826375D02*
G75*
G03*
X25251250Y-7826375I-73500J0D01*
G01*
X25580500Y-3942875D02*
X25727500Y-4089875D01*
X25727500Y-3942875D02*
X25580500Y-4089875D01*
X25727500Y-4016375D02*
G75*
G03*
X25727500Y-4016375I-73500J0D01*
G01*
X25580500Y-11562875D02*
X25727500Y-11709875D01*
X25727500Y-11562875D02*
X25580500Y-11709875D01*
X25727500Y-11636375D02*
G75*
G03*
X25727500Y-11636375I-73500J0D01*
G01*
X25898000Y-6101875D02*
X26045000Y-6248875D01*
X26045000Y-6101875D02*
X25898000Y-6248875D01*
X26045000Y-6175375D02*
G75*
G03*
X26045000Y-6175375I-73500J0D01*
G01*
X26136125Y-9911875D02*
X26283125Y-10058875D01*
X26283125Y-9911875D02*
X26136125Y-10058875D01*
X26283125Y-9985375D02*
G75*
G03*
X26283125Y-9985375I-73500J0D01*
G01*
X26533000Y-5847875D02*
X26680000Y-5994875D01*
X26680000Y-5847875D02*
X26533000Y-5994875D01*
X26680000Y-5921375D02*
G75*
G03*
X26680000Y-5921375I-73500J0D01*
G01*
X26771125Y-9657875D02*
X26918125Y-9804875D01*
X26918125Y-9657875D02*
X26771125Y-9804875D01*
X26918125Y-9731375D02*
G75*
G03*
X26918125Y-9731375I-73500J0D01*
G01*
X27326750Y-12293125D02*
X27473750Y-12440125D01*
X27473750Y-12293125D02*
X27326750Y-12440125D01*
X27473750Y-12366625D02*
G75*
G03*
X27473750Y-12366625I-73500J0D01*
G01*
X27564875Y-8006875D02*
X27711875Y-8153875D01*
X27711875Y-8006875D02*
X27564875Y-8153875D01*
X27711875Y-8080375D02*
G75*
G03*
X27711875Y-8080375I-73500J0D01*
G01*
X27803000Y-4196875D02*
X27950000Y-4343875D01*
X27950000Y-4196875D02*
X27803000Y-4343875D01*
X27950000Y-4270375D02*
G75*
G03*
X27950000Y-4270375I-73500J0D01*
G01*
X27961750Y-12039125D02*
X28108750Y-12186125D01*
X28108750Y-12039125D02*
X27961750Y-12186125D01*
X28108750Y-12112625D02*
G75*
G03*
X28108750Y-12112625I-73500J0D01*
G01*
X28199875Y-7752875D02*
X28346875Y-7899875D01*
X28346875Y-7752875D02*
X28199875Y-7899875D01*
X28346875Y-7826375D02*
G75*
G03*
X28346875Y-7826375I-73500J0D01*
G01*
X28279250Y-6101875D02*
X28426250Y-6248875D01*
X28426250Y-6101875D02*
X28279250Y-6248875D01*
X28426250Y-6175375D02*
G75*
G03*
X28426250Y-6175375I-73500J0D01*
G01*
X28438000Y-3942875D02*
X28585000Y-4089875D01*
X28585000Y-3942875D02*
X28438000Y-4089875D01*
X28585000Y-4016375D02*
G75*
G03*
X28585000Y-4016375I-73500J0D01*
G01*
X28914250Y-5847875D02*
X29061250Y-5994875D01*
X29061250Y-5847875D02*
X28914250Y-5994875D01*
X29061250Y-5921375D02*
G75*
G03*
X29061250Y-5921375I-73500J0D01*
G01*
X29231750Y-10388125D02*
X29378750Y-10535125D01*
X29378750Y-10388125D02*
X29231750Y-10535125D01*
X29378750Y-10461625D02*
G75*
G03*
X29378750Y-10461625I-73500J0D01*
G01*
X29231750Y-12293125D02*
X29378750Y-12440125D01*
X29378750Y-12293125D02*
X29231750Y-12440125D01*
X29378750Y-12366625D02*
G75*
G03*
X29378750Y-12366625I-73500J0D01*
G01*
X29866750Y-10134125D02*
X30013750Y-10281125D01*
X30013750Y-10134125D02*
X29866750Y-10281125D01*
X30013750Y-10207625D02*
G75*
G03*
X30013750Y-10207625I-73500J0D01*
G01*
X29866750Y-12039125D02*
X30013750Y-12186125D01*
X30013750Y-12039125D02*
X29866750Y-12186125D01*
X30013750Y-12112625D02*
G75*
G03*
X30013750Y-12112625I-73500J0D01*
G01*
X31136750Y-12293125D02*
X31283750Y-12440125D01*
X31283750Y-12293125D02*
X31136750Y-12440125D01*
X31283750Y-12366625D02*
G75*
G03*
X31283750Y-12366625I-73500J0D01*
G01*
X31613000Y-6101875D02*
X31760000Y-6248875D01*
X31760000Y-6101875D02*
X31613000Y-6248875D01*
X31760000Y-6175375D02*
G75*
G03*
X31760000Y-6175375I-73500J0D01*
G01*
X31613000Y-8006875D02*
X31760000Y-8153875D01*
X31760000Y-8006875D02*
X31613000Y-8153875D01*
X31760000Y-8080375D02*
G75*
G03*
X31760000Y-8080375I-73500J0D01*
G01*
X31613000Y-9911875D02*
X31760000Y-10058875D01*
X31760000Y-9911875D02*
X31613000Y-10058875D01*
X31760000Y-9985375D02*
G75*
G03*
X31760000Y-9985375I-73500J0D01*
G01*
X31771750Y-12039125D02*
X31918750Y-12186125D01*
X31918750Y-12039125D02*
X31771750Y-12186125D01*
X31918750Y-12112625D02*
G75*
G03*
X31918750Y-12112625I-73500J0D01*
G01*
X32248000Y-5847875D02*
X32395000Y-5994875D01*
X32395000Y-5847875D02*
X32248000Y-5994875D01*
X32395000Y-5921375D02*
G75*
G03*
X32395000Y-5921375I-73500J0D01*
G01*
X32248000Y-7752875D02*
X32395000Y-7899875D01*
X32395000Y-7752875D02*
X32248000Y-7899875D01*
X32395000Y-7826375D02*
G75*
G03*
X32395000Y-7826375I-73500J0D01*
G01*
X32248000Y-9657875D02*
X32395000Y-9804875D01*
X32395000Y-9657875D02*
X32248000Y-9804875D01*
X32395000Y-9731375D02*
G75*
G03*
X32395000Y-9731375I-73500J0D01*
G01*
D17*
X31415800Y-3950200D02*
X31565800Y-4100200D01*
X31565800Y-3950200D02*
X31415800Y-4100200D01*
X31490800Y-3950200D02*
X31490800Y-4100200D01*
X31415800Y-4025200D02*
X31565800Y-4025200D01*
D11*
X31565800Y-4090200D02*
X31565800Y-3960200D01*
X31415800Y-4090200D02*
X31415800Y-3960200D01*
X31565800Y-3960200D02*
G75*
G03*
X31415800Y-3960200I-75000J0D01*
G01*
X31415800Y-4090200D02*
G75*
G03*
X31565800Y-4090200I75000J0D01*
G01*
D17*
X32535800Y-3950200D02*
X32685800Y-4100200D01*
X32685800Y-3950200D02*
X32535800Y-4100200D01*
X32610800Y-3950200D02*
X32610800Y-4100200D01*
X32535800Y-4025200D02*
X32685800Y-4025200D01*
D11*
X32685800Y-4090200D02*
X32685800Y-3960200D01*
X32535800Y-4090200D02*
X32535800Y-3960200D01*
X32685800Y-3960200D02*
G75*
G03*
X32535800Y-3960200I-75000J0D01*
G01*
X32535800Y-4090200D02*
G75*
G03*
X32685800Y-4090200I75000J0D01*
G01*
D18*
X1944500Y-4436875D02*
X2119500Y-4611875D01*
X2119500Y-4436875D02*
X1944500Y-4611875D01*
X2093872Y-4586247D02*
X2093872Y-4462503D01*
X1970128Y-4462503D01*
X1970128Y-4586247D01*
X2093872Y-4586247D01*
X2182625Y-12056875D02*
X2357625Y-12231875D01*
X2357625Y-12056875D02*
X2182625Y-12231875D01*
X2331997Y-12206247D02*
X2331997Y-12082503D01*
X2208253Y-12082503D01*
X2208253Y-12206247D01*
X2331997Y-12206247D01*
X2420750Y-6341875D02*
X2595750Y-6516875D01*
X2595750Y-6341875D02*
X2420750Y-6516875D01*
X2570122Y-6491247D02*
X2570122Y-6367503D01*
X2446378Y-6367503D01*
X2446378Y-6491247D01*
X2570122Y-6491247D01*
X2658875Y-8246875D02*
X2833875Y-8421875D01*
X2833875Y-8246875D02*
X2658875Y-8421875D01*
X2808247Y-8396247D02*
X2808247Y-8272503D01*
X2684503Y-8272503D01*
X2684503Y-8396247D01*
X2808247Y-8396247D01*
X2960500Y-4436875D02*
X3135500Y-4611875D01*
X3135500Y-4436875D02*
X2960500Y-4611875D01*
X3109872Y-4586247D02*
X3109872Y-4462503D01*
X2986128Y-4462503D01*
X2986128Y-4586247D01*
X3109872Y-4586247D01*
X3135125Y-10151875D02*
X3310125Y-10326875D01*
X3310125Y-10151875D02*
X3135125Y-10326875D01*
X3284497Y-10301247D02*
X3284497Y-10177503D01*
X3160753Y-10177503D01*
X3160753Y-10301247D01*
X3284497Y-10301247D01*
X3198625Y-12056875D02*
X3373625Y-12231875D01*
X3373625Y-12056875D02*
X3198625Y-12231875D01*
X3347997Y-12206247D02*
X3347997Y-12082503D01*
X3224253Y-12082503D01*
X3224253Y-12206247D01*
X3347997Y-12206247D01*
X3436750Y-6341875D02*
X3611750Y-6516875D01*
X3611750Y-6341875D02*
X3436750Y-6516875D01*
X3586122Y-6491247D02*
X3586122Y-6367503D01*
X3462378Y-6367503D01*
X3462378Y-6491247D01*
X3586122Y-6491247D01*
X3674875Y-8246875D02*
X3849875Y-8421875D01*
X3849875Y-8246875D02*
X3674875Y-8421875D01*
X3824247Y-8396247D02*
X3824247Y-8272503D01*
X3700503Y-8272503D01*
X3700503Y-8396247D01*
X3824247Y-8396247D01*
X3849500Y-4436875D02*
X4024500Y-4611875D01*
X4024500Y-4436875D02*
X3849500Y-4611875D01*
X3998872Y-4586247D02*
X3998872Y-4462503D01*
X3875128Y-4462503D01*
X3875128Y-4586247D01*
X3998872Y-4586247D01*
X4151125Y-10151875D02*
X4326125Y-10326875D01*
X4326125Y-10151875D02*
X4151125Y-10326875D01*
X4300497Y-10301247D02*
X4300497Y-10177503D01*
X4176753Y-10177503D01*
X4176753Y-10301247D01*
X4300497Y-10301247D01*
X4563875Y-12056875D02*
X4738875Y-12231875D01*
X4738875Y-12056875D02*
X4563875Y-12231875D01*
X4713247Y-12206247D02*
X4713247Y-12082503D01*
X4589503Y-12082503D01*
X4589503Y-12206247D01*
X4713247Y-12206247D01*
X4802000Y-6341875D02*
X4977000Y-6516875D01*
X4977000Y-6341875D02*
X4802000Y-6516875D01*
X4951372Y-6491247D02*
X4951372Y-6367503D01*
X4827628Y-6367503D01*
X4827628Y-6491247D01*
X4951372Y-6491247D01*
X4865500Y-4436875D02*
X5040500Y-4611875D01*
X5040500Y-4436875D02*
X4865500Y-4611875D01*
X5014872Y-4586247D02*
X5014872Y-4462503D01*
X4891128Y-4462503D01*
X4891128Y-4586247D01*
X5014872Y-4586247D01*
X5278250Y-8246875D02*
X5453250Y-8421875D01*
X5453250Y-8246875D02*
X5278250Y-8421875D01*
X5427622Y-8396247D02*
X5427622Y-8272503D01*
X5303878Y-8272503D01*
X5303878Y-8396247D01*
X5427622Y-8396247D01*
X5579875Y-12056875D02*
X5754875Y-12231875D01*
X5754875Y-12056875D02*
X5579875Y-12231875D01*
X5729247Y-12206247D02*
X5729247Y-12082503D01*
X5605503Y-12082503D01*
X5605503Y-12206247D01*
X5729247Y-12206247D01*
X5754500Y-4436875D02*
X5929500Y-4611875D01*
X5929500Y-4436875D02*
X5754500Y-4611875D01*
X5903872Y-4586247D02*
X5903872Y-4462503D01*
X5780128Y-4462503D01*
X5780128Y-4586247D01*
X5903872Y-4586247D01*
X5818000Y-6341875D02*
X5993000Y-6516875D01*
X5993000Y-6341875D02*
X5818000Y-6516875D01*
X5967372Y-6491247D02*
X5967372Y-6367503D01*
X5843628Y-6367503D01*
X5843628Y-6491247D01*
X5967372Y-6491247D01*
X6230750Y-10151875D02*
X6405750Y-10326875D01*
X6405750Y-10151875D02*
X6230750Y-10326875D01*
X6380122Y-10301247D02*
X6380122Y-10177503D01*
X6256378Y-10177503D01*
X6256378Y-10301247D01*
X6380122Y-10301247D01*
X6294250Y-8246875D02*
X6469250Y-8421875D01*
X6469250Y-8246875D02*
X6294250Y-8421875D01*
X6443622Y-8396247D02*
X6443622Y-8272503D01*
X6319878Y-8272503D01*
X6319878Y-8396247D01*
X6443622Y-8396247D01*
X6707000Y-6341875D02*
X6882000Y-6516875D01*
X6882000Y-6341875D02*
X6707000Y-6516875D01*
X6856372Y-6491247D02*
X6856372Y-6367503D01*
X6732628Y-6367503D01*
X6732628Y-6491247D01*
X6856372Y-6491247D01*
X6770500Y-4436875D02*
X6945500Y-4611875D01*
X6945500Y-4436875D02*
X6770500Y-4611875D01*
X6919872Y-4586247D02*
X6919872Y-4462503D01*
X6796128Y-4462503D01*
X6796128Y-4586247D01*
X6919872Y-4586247D01*
X6945125Y-12056875D02*
X7120125Y-12231875D01*
X7120125Y-12056875D02*
X6945125Y-12231875D01*
X7094497Y-12206247D02*
X7094497Y-12082503D01*
X6970753Y-12082503D01*
X6970753Y-12206247D01*
X7094497Y-12206247D01*
X7183250Y-8246875D02*
X7358250Y-8421875D01*
X7358250Y-8246875D02*
X7183250Y-8421875D01*
X7332622Y-8396247D02*
X7332622Y-8272503D01*
X7208878Y-8272503D01*
X7208878Y-8396247D01*
X7332622Y-8396247D01*
X7246750Y-10151875D02*
X7421750Y-10326875D01*
X7421750Y-10151875D02*
X7246750Y-10326875D01*
X7396122Y-10301247D02*
X7396122Y-10177503D01*
X7272378Y-10177503D01*
X7272378Y-10301247D01*
X7396122Y-10301247D01*
X7659500Y-4436875D02*
X7834500Y-4611875D01*
X7834500Y-4436875D02*
X7659500Y-4611875D01*
X7808872Y-4586247D02*
X7808872Y-4462503D01*
X7685128Y-4462503D01*
X7685128Y-4586247D01*
X7808872Y-4586247D01*
X7723000Y-6341875D02*
X7898000Y-6516875D01*
X7898000Y-6341875D02*
X7723000Y-6516875D01*
X7872372Y-6491247D02*
X7872372Y-6367503D01*
X7748628Y-6367503D01*
X7748628Y-6491247D01*
X7872372Y-6491247D01*
X7961125Y-12056875D02*
X8136125Y-12231875D01*
X8136125Y-12056875D02*
X7961125Y-12231875D01*
X8110497Y-12206247D02*
X8110497Y-12082503D01*
X7986753Y-12082503D01*
X7986753Y-12206247D01*
X8110497Y-12206247D01*
X8135750Y-10151875D02*
X8310750Y-10326875D01*
X8310750Y-10151875D02*
X8135750Y-10326875D01*
X8285122Y-10301247D02*
X8285122Y-10177503D01*
X8161378Y-10177503D01*
X8161378Y-10301247D01*
X8285122Y-10301247D01*
X8199250Y-8246875D02*
X8374250Y-8421875D01*
X8374250Y-8246875D02*
X8199250Y-8421875D01*
X8348622Y-8396247D02*
X8348622Y-8272503D01*
X8224878Y-8272503D01*
X8224878Y-8396247D01*
X8348622Y-8396247D01*
X8612000Y-6341875D02*
X8787000Y-6516875D01*
X8787000Y-6341875D02*
X8612000Y-6516875D01*
X8761372Y-6491247D02*
X8761372Y-6367503D01*
X8637628Y-6367503D01*
X8637628Y-6491247D01*
X8761372Y-6491247D01*
X8675500Y-4436875D02*
X8850500Y-4611875D01*
X8850500Y-4436875D02*
X8675500Y-4611875D01*
X8824872Y-4586247D02*
X8824872Y-4462503D01*
X8701128Y-4462503D01*
X8701128Y-4586247D01*
X8824872Y-4586247D01*
X9088250Y-8246875D02*
X9263250Y-8421875D01*
X9263250Y-8246875D02*
X9088250Y-8421875D01*
X9237622Y-8396247D02*
X9237622Y-8272503D01*
X9113878Y-8272503D01*
X9113878Y-8396247D01*
X9237622Y-8396247D01*
X9151750Y-10151875D02*
X9326750Y-10326875D01*
X9326750Y-10151875D02*
X9151750Y-10326875D01*
X9301122Y-10301247D02*
X9301122Y-10177503D01*
X9177378Y-10177503D01*
X9177378Y-10301247D01*
X9301122Y-10301247D01*
X9564500Y-4436875D02*
X9739500Y-4611875D01*
X9739500Y-4436875D02*
X9564500Y-4611875D01*
X9713872Y-4586247D02*
X9713872Y-4462503D01*
X9590128Y-4462503D01*
X9590128Y-4586247D01*
X9713872Y-4586247D01*
X9628000Y-6341875D02*
X9803000Y-6516875D01*
X9803000Y-6341875D02*
X9628000Y-6516875D01*
X9777372Y-6491247D02*
X9777372Y-6367503D01*
X9653628Y-6367503D01*
X9653628Y-6491247D01*
X9777372Y-6491247D01*
X10040750Y-10151875D02*
X10215750Y-10326875D01*
X10215750Y-10151875D02*
X10040750Y-10326875D01*
X10190122Y-10301247D02*
X10190122Y-10177503D01*
X10066378Y-10177503D01*
X10066378Y-10301247D01*
X10190122Y-10301247D01*
X10104250Y-8246875D02*
X10279250Y-8421875D01*
X10279250Y-8246875D02*
X10104250Y-8421875D01*
X10253622Y-8396247D02*
X10253622Y-8272503D01*
X10129878Y-8272503D01*
X10129878Y-8396247D01*
X10253622Y-8396247D01*
X10517000Y-6341875D02*
X10692000Y-6516875D01*
X10692000Y-6341875D02*
X10517000Y-6516875D01*
X10666372Y-6491247D02*
X10666372Y-6367503D01*
X10542628Y-6367503D01*
X10542628Y-6491247D01*
X10666372Y-6491247D01*
X10580500Y-4436875D02*
X10755500Y-4611875D01*
X10755500Y-4436875D02*
X10580500Y-4611875D01*
X10729872Y-4586247D02*
X10729872Y-4462503D01*
X10606128Y-4462503D01*
X10606128Y-4586247D01*
X10729872Y-4586247D01*
X10993250Y-8246875D02*
X11168250Y-8421875D01*
X11168250Y-8246875D02*
X10993250Y-8421875D01*
X11142622Y-8396247D02*
X11142622Y-8272503D01*
X11018878Y-8272503D01*
X11018878Y-8396247D01*
X11142622Y-8396247D01*
X11056750Y-10151875D02*
X11231750Y-10326875D01*
X11231750Y-10151875D02*
X11056750Y-10326875D01*
X11206122Y-10301247D02*
X11206122Y-10177503D01*
X11082378Y-10177503D01*
X11082378Y-10301247D01*
X11206122Y-10301247D01*
X11469500Y-4436875D02*
X11644500Y-4611875D01*
X11644500Y-4436875D02*
X11469500Y-4611875D01*
X11618872Y-4586247D02*
X11618872Y-4462503D01*
X11495128Y-4462503D01*
X11495128Y-4586247D01*
X11618872Y-4586247D01*
X11533000Y-6341875D02*
X11708000Y-6516875D01*
X11708000Y-6341875D02*
X11533000Y-6516875D01*
X11682372Y-6491247D02*
X11682372Y-6367503D01*
X11558628Y-6367503D01*
X11558628Y-6491247D01*
X11682372Y-6491247D01*
X11945750Y-10151875D02*
X12120750Y-10326875D01*
X12120750Y-10151875D02*
X11945750Y-10326875D01*
X12095122Y-10301247D02*
X12095122Y-10177503D01*
X11971378Y-10177503D01*
X11971378Y-10301247D01*
X12095122Y-10301247D01*
X12009250Y-8246875D02*
X12184250Y-8421875D01*
X12184250Y-8246875D02*
X12009250Y-8421875D01*
X12158622Y-8396247D02*
X12158622Y-8272503D01*
X12034878Y-8272503D01*
X12034878Y-8396247D01*
X12158622Y-8396247D01*
X12422000Y-6341875D02*
X12597000Y-6516875D01*
X12597000Y-6341875D02*
X12422000Y-6516875D01*
X12571372Y-6491247D02*
X12571372Y-6367503D01*
X12447628Y-6367503D01*
X12447628Y-6491247D01*
X12571372Y-6491247D01*
X12485500Y-4436875D02*
X12660500Y-4611875D01*
X12660500Y-4436875D02*
X12485500Y-4611875D01*
X12634872Y-4586247D02*
X12634872Y-4462503D01*
X12511128Y-4462503D01*
X12511128Y-4586247D01*
X12634872Y-4586247D01*
X12898250Y-8246875D02*
X13073250Y-8421875D01*
X13073250Y-8246875D02*
X12898250Y-8421875D01*
X13047622Y-8396247D02*
X13047622Y-8272503D01*
X12923878Y-8272503D01*
X12923878Y-8396247D01*
X13047622Y-8396247D01*
X12961750Y-10151875D02*
X13136750Y-10326875D01*
X13136750Y-10151875D02*
X12961750Y-10326875D01*
X13111122Y-10301247D02*
X13111122Y-10177503D01*
X12987378Y-10177503D01*
X12987378Y-10301247D01*
X13111122Y-10301247D01*
X13374500Y-4436875D02*
X13549500Y-4611875D01*
X13549500Y-4436875D02*
X13374500Y-4611875D01*
X13523872Y-4586247D02*
X13523872Y-4462503D01*
X13400128Y-4462503D01*
X13400128Y-4586247D01*
X13523872Y-4586247D01*
X13438000Y-6341875D02*
X13613000Y-6516875D01*
X13613000Y-6341875D02*
X13438000Y-6516875D01*
X13587372Y-6491247D02*
X13587372Y-6367503D01*
X13463628Y-6367503D01*
X13463628Y-6491247D01*
X13587372Y-6491247D01*
X13850750Y-10151875D02*
X14025750Y-10326875D01*
X14025750Y-10151875D02*
X13850750Y-10326875D01*
X14000122Y-10301247D02*
X14000122Y-10177503D01*
X13876378Y-10177503D01*
X13876378Y-10301247D01*
X14000122Y-10301247D01*
X13914250Y-8246875D02*
X14089250Y-8421875D01*
X14089250Y-8246875D02*
X13914250Y-8421875D01*
X14063622Y-8396247D02*
X14063622Y-8272503D01*
X13939878Y-8272503D01*
X13939878Y-8396247D01*
X14063622Y-8396247D01*
X14088875Y-12056875D02*
X14263875Y-12231875D01*
X14263875Y-12056875D02*
X14088875Y-12231875D01*
X14238247Y-12206247D02*
X14238247Y-12082503D01*
X14114503Y-12082503D01*
X14114503Y-12206247D01*
X14238247Y-12206247D01*
X14327000Y-6341875D02*
X14502000Y-6516875D01*
X14502000Y-6341875D02*
X14327000Y-6516875D01*
X14476372Y-6491247D02*
X14476372Y-6367503D01*
X14352628Y-6367503D01*
X14352628Y-6491247D01*
X14476372Y-6491247D01*
X14390500Y-4436875D02*
X14565500Y-4611875D01*
X14565500Y-4436875D02*
X14390500Y-4611875D01*
X14539872Y-4586247D02*
X14539872Y-4462503D01*
X14416128Y-4462503D01*
X14416128Y-4586247D01*
X14539872Y-4586247D01*
X14803250Y-8246875D02*
X14978250Y-8421875D01*
X14978250Y-8246875D02*
X14803250Y-8421875D01*
X14952622Y-8396247D02*
X14952622Y-8272503D01*
X14828878Y-8272503D01*
X14828878Y-8396247D01*
X14952622Y-8396247D01*
X14866750Y-10151875D02*
X15041750Y-10326875D01*
X15041750Y-10151875D02*
X14866750Y-10326875D01*
X15016122Y-10301247D02*
X15016122Y-10177503D01*
X14892378Y-10177503D01*
X14892378Y-10301247D01*
X15016122Y-10301247D01*
X15104875Y-12056875D02*
X15279875Y-12231875D01*
X15279875Y-12056875D02*
X15104875Y-12231875D01*
X15254247Y-12206247D02*
X15254247Y-12082503D01*
X15130503Y-12082503D01*
X15130503Y-12206247D01*
X15254247Y-12206247D01*
X15279500Y-4436875D02*
X15454500Y-4611875D01*
X15454500Y-4436875D02*
X15279500Y-4611875D01*
X15428872Y-4586247D02*
X15428872Y-4462503D01*
X15305128Y-4462503D01*
X15305128Y-4586247D01*
X15428872Y-4586247D01*
X15343000Y-6341875D02*
X15518000Y-6516875D01*
X15518000Y-6341875D02*
X15343000Y-6516875D01*
X15492372Y-6491247D02*
X15492372Y-6367503D01*
X15368628Y-6367503D01*
X15368628Y-6491247D01*
X15492372Y-6491247D01*
X15755750Y-10151875D02*
X15930750Y-10326875D01*
X15930750Y-10151875D02*
X15755750Y-10326875D01*
X15905122Y-10301247D02*
X15905122Y-10177503D01*
X15781378Y-10177503D01*
X15781378Y-10301247D01*
X15905122Y-10301247D01*
X15819250Y-8246875D02*
X15994250Y-8421875D01*
X15994250Y-8246875D02*
X15819250Y-8421875D01*
X15968622Y-8396247D02*
X15968622Y-8272503D01*
X15844878Y-8272503D01*
X15844878Y-8396247D01*
X15968622Y-8396247D01*
X16232000Y-6341875D02*
X16407000Y-6516875D01*
X16407000Y-6341875D02*
X16232000Y-6516875D01*
X16381372Y-6491247D02*
X16381372Y-6367503D01*
X16257628Y-6367503D01*
X16257628Y-6491247D01*
X16381372Y-6491247D01*
X16295500Y-4436875D02*
X16470500Y-4611875D01*
X16470500Y-4436875D02*
X16295500Y-4611875D01*
X16444872Y-4586247D02*
X16444872Y-4462503D01*
X16321128Y-4462503D01*
X16321128Y-4586247D01*
X16444872Y-4586247D01*
X16708250Y-8246875D02*
X16883250Y-8421875D01*
X16883250Y-8246875D02*
X16708250Y-8421875D01*
X16857622Y-8396247D02*
X16857622Y-8272503D01*
X16733878Y-8272503D01*
X16733878Y-8396247D01*
X16857622Y-8396247D01*
X16771750Y-10151875D02*
X16946750Y-10326875D01*
X16946750Y-10151875D02*
X16771750Y-10326875D01*
X16921122Y-10301247D02*
X16921122Y-10177503D01*
X16797378Y-10177503D01*
X16797378Y-10301247D01*
X16921122Y-10301247D01*
X17184500Y-4436875D02*
X17359500Y-4611875D01*
X17359500Y-4436875D02*
X17184500Y-4611875D01*
X17333872Y-4586247D02*
X17333872Y-4462503D01*
X17210128Y-4462503D01*
X17210128Y-4586247D01*
X17333872Y-4586247D01*
X17248000Y-6341875D02*
X17423000Y-6516875D01*
X17423000Y-6341875D02*
X17248000Y-6516875D01*
X17397372Y-6491247D02*
X17397372Y-6367503D01*
X17273628Y-6367503D01*
X17273628Y-6491247D01*
X17397372Y-6491247D01*
X17660750Y-10151875D02*
X17835750Y-10326875D01*
X17835750Y-10151875D02*
X17660750Y-10326875D01*
X17810122Y-10301247D02*
X17810122Y-10177503D01*
X17686378Y-10177503D01*
X17686378Y-10301247D01*
X17810122Y-10301247D01*
X17724250Y-8246875D02*
X17899250Y-8421875D01*
X17899250Y-8246875D02*
X17724250Y-8421875D01*
X17873622Y-8396247D02*
X17873622Y-8272503D01*
X17749878Y-8272503D01*
X17749878Y-8396247D01*
X17873622Y-8396247D01*
X18137000Y-6341875D02*
X18312000Y-6516875D01*
X18312000Y-6341875D02*
X18137000Y-6516875D01*
X18286372Y-6491247D02*
X18286372Y-6367503D01*
X18162628Y-6367503D01*
X18162628Y-6491247D01*
X18286372Y-6491247D01*
X18200500Y-4436875D02*
X18375500Y-4611875D01*
X18375500Y-4436875D02*
X18200500Y-4611875D01*
X18349872Y-4586247D02*
X18349872Y-4462503D01*
X18226128Y-4462503D01*
X18226128Y-4586247D01*
X18349872Y-4586247D01*
X18613250Y-8246875D02*
X18788250Y-8421875D01*
X18788250Y-8246875D02*
X18613250Y-8421875D01*
X18762622Y-8396247D02*
X18762622Y-8272503D01*
X18638878Y-8272503D01*
X18638878Y-8396247D01*
X18762622Y-8396247D01*
X18676750Y-10151875D02*
X18851750Y-10326875D01*
X18851750Y-10151875D02*
X18676750Y-10326875D01*
X18826122Y-10301247D02*
X18826122Y-10177503D01*
X18702378Y-10177503D01*
X18702378Y-10301247D01*
X18826122Y-10301247D01*
X19089500Y-4436875D02*
X19264500Y-4611875D01*
X19264500Y-4436875D02*
X19089500Y-4611875D01*
X19238872Y-4586247D02*
X19238872Y-4462503D01*
X19115128Y-4462503D01*
X19115128Y-4586247D01*
X19238872Y-4586247D01*
X19153000Y-6341875D02*
X19328000Y-6516875D01*
X19328000Y-6341875D02*
X19153000Y-6516875D01*
X19302372Y-6491247D02*
X19302372Y-6367503D01*
X19178628Y-6367503D01*
X19178628Y-6491247D01*
X19302372Y-6491247D01*
X19565750Y-10151875D02*
X19740750Y-10326875D01*
X19740750Y-10151875D02*
X19565750Y-10326875D01*
X19715122Y-10301247D02*
X19715122Y-10177503D01*
X19591378Y-10177503D01*
X19591378Y-10301247D01*
X19715122Y-10301247D01*
X19629250Y-8246875D02*
X19804250Y-8421875D01*
X19804250Y-8246875D02*
X19629250Y-8421875D01*
X19778622Y-8396247D02*
X19778622Y-8272503D01*
X19654878Y-8272503D01*
X19654878Y-8396247D01*
X19778622Y-8396247D01*
X20042000Y-6341875D02*
X20217000Y-6516875D01*
X20217000Y-6341875D02*
X20042000Y-6516875D01*
X20191372Y-6491247D02*
X20191372Y-6367503D01*
X20067628Y-6367503D01*
X20067628Y-6491247D01*
X20191372Y-6491247D01*
X20105500Y-4436875D02*
X20280500Y-4611875D01*
X20280500Y-4436875D02*
X20105500Y-4611875D01*
X20254872Y-4586247D02*
X20254872Y-4462503D01*
X20131128Y-4462503D01*
X20131128Y-4586247D01*
X20254872Y-4586247D01*
X20518250Y-8246875D02*
X20693250Y-8421875D01*
X20693250Y-8246875D02*
X20518250Y-8421875D01*
X20667622Y-8396247D02*
X20667622Y-8272503D01*
X20543878Y-8272503D01*
X20543878Y-8396247D01*
X20667622Y-8396247D01*
X20581750Y-10151875D02*
X20756750Y-10326875D01*
X20756750Y-10151875D02*
X20581750Y-10326875D01*
X20731122Y-10301247D02*
X20731122Y-10177503D01*
X20607378Y-10177503D01*
X20607378Y-10301247D01*
X20731122Y-10301247D01*
X20994500Y-4436875D02*
X21169500Y-4611875D01*
X21169500Y-4436875D02*
X20994500Y-4611875D01*
X21143872Y-4586247D02*
X21143872Y-4462503D01*
X21020128Y-4462503D01*
X21020128Y-4586247D01*
X21143872Y-4586247D01*
X20994500Y-12056875D02*
X21169500Y-12231875D01*
X21169500Y-12056875D02*
X20994500Y-12231875D01*
X21143872Y-12206247D02*
X21143872Y-12082503D01*
X21020128Y-12082503D01*
X21020128Y-12206247D01*
X21143872Y-12206247D01*
X21058000Y-6341875D02*
X21233000Y-6516875D01*
X21233000Y-6341875D02*
X21058000Y-6516875D01*
X21207372Y-6491247D02*
X21207372Y-6367503D01*
X21083628Y-6367503D01*
X21083628Y-6491247D01*
X21207372Y-6491247D01*
X21470750Y-10151875D02*
X21645750Y-10326875D01*
X21645750Y-10151875D02*
X21470750Y-10326875D01*
X21620122Y-10301247D02*
X21620122Y-10177503D01*
X21496378Y-10177503D01*
X21496378Y-10301247D01*
X21620122Y-10301247D01*
X21534250Y-8246875D02*
X21709250Y-8421875D01*
X21709250Y-8246875D02*
X21534250Y-8421875D01*
X21683622Y-8396247D02*
X21683622Y-8272503D01*
X21559878Y-8272503D01*
X21559878Y-8396247D01*
X21683622Y-8396247D01*
X21947000Y-6341875D02*
X22122000Y-6516875D01*
X22122000Y-6341875D02*
X21947000Y-6516875D01*
X22096372Y-6491247D02*
X22096372Y-6367503D01*
X21972628Y-6367503D01*
X21972628Y-6491247D01*
X22096372Y-6491247D01*
X22010500Y-4436875D02*
X22185500Y-4611875D01*
X22185500Y-4436875D02*
X22010500Y-4611875D01*
X22159872Y-4586247D02*
X22159872Y-4462503D01*
X22036128Y-4462503D01*
X22036128Y-4586247D01*
X22159872Y-4586247D01*
X22010500Y-12056875D02*
X22185500Y-12231875D01*
X22185500Y-12056875D02*
X22010500Y-12231875D01*
X22159872Y-12206247D02*
X22159872Y-12082503D01*
X22036128Y-12082503D01*
X22036128Y-12206247D01*
X22159872Y-12206247D01*
X22423250Y-8246875D02*
X22598250Y-8421875D01*
X22598250Y-8246875D02*
X22423250Y-8421875D01*
X22572622Y-8396247D02*
X22572622Y-8272503D01*
X22448878Y-8272503D01*
X22448878Y-8396247D01*
X22572622Y-8396247D01*
X22486750Y-10151875D02*
X22661750Y-10326875D01*
X22661750Y-10151875D02*
X22486750Y-10326875D01*
X22636122Y-10301247D02*
X22636122Y-10177503D01*
X22512378Y-10177503D01*
X22512378Y-10301247D01*
X22636122Y-10301247D01*
X22899500Y-4436875D02*
X23074500Y-4611875D01*
X23074500Y-4436875D02*
X22899500Y-4611875D01*
X23048872Y-4586247D02*
X23048872Y-4462503D01*
X22925128Y-4462503D01*
X22925128Y-4586247D01*
X23048872Y-4586247D01*
X22899500Y-12056875D02*
X23074500Y-12231875D01*
X23074500Y-12056875D02*
X22899500Y-12231875D01*
X23048872Y-12206247D02*
X23048872Y-12082503D01*
X22925128Y-12082503D01*
X22925128Y-12206247D01*
X23048872Y-12206247D01*
X22963000Y-6341875D02*
X23138000Y-6516875D01*
X23138000Y-6341875D02*
X22963000Y-6516875D01*
X23112372Y-6491247D02*
X23112372Y-6367503D01*
X22988628Y-6367503D01*
X22988628Y-6491247D01*
X23112372Y-6491247D01*
X23375750Y-10151875D02*
X23550750Y-10326875D01*
X23550750Y-10151875D02*
X23375750Y-10326875D01*
X23525122Y-10301247D02*
X23525122Y-10177503D01*
X23401378Y-10177503D01*
X23401378Y-10301247D01*
X23525122Y-10301247D01*
X23439250Y-8246875D02*
X23614250Y-8421875D01*
X23614250Y-8246875D02*
X23439250Y-8421875D01*
X23588622Y-8396247D02*
X23588622Y-8272503D01*
X23464878Y-8272503D01*
X23464878Y-8396247D01*
X23588622Y-8396247D01*
X23852000Y-6341875D02*
X24027000Y-6516875D01*
X24027000Y-6341875D02*
X23852000Y-6516875D01*
X24001372Y-6491247D02*
X24001372Y-6367503D01*
X23877628Y-6367503D01*
X23877628Y-6491247D01*
X24001372Y-6491247D01*
X23915500Y-4436875D02*
X24090500Y-4611875D01*
X24090500Y-4436875D02*
X23915500Y-4611875D01*
X24064872Y-4586247D02*
X24064872Y-4462503D01*
X23941128Y-4462503D01*
X23941128Y-4586247D01*
X24064872Y-4586247D01*
X23915500Y-12056875D02*
X24090500Y-12231875D01*
X24090500Y-12056875D02*
X23915500Y-12231875D01*
X24064872Y-12206247D02*
X24064872Y-12082503D01*
X23941128Y-12082503D01*
X23941128Y-12206247D01*
X24064872Y-12206247D01*
X24328250Y-8246875D02*
X24503250Y-8421875D01*
X24503250Y-8246875D02*
X24328250Y-8421875D01*
X24477622Y-8396247D02*
X24477622Y-8272503D01*
X24353878Y-8272503D01*
X24353878Y-8396247D01*
X24477622Y-8396247D01*
X24391750Y-10151875D02*
X24566750Y-10326875D01*
X24566750Y-10151875D02*
X24391750Y-10326875D01*
X24541122Y-10301247D02*
X24541122Y-10177503D01*
X24417378Y-10177503D01*
X24417378Y-10301247D01*
X24541122Y-10301247D01*
X24804500Y-4436875D02*
X24979500Y-4611875D01*
X24979500Y-4436875D02*
X24804500Y-4611875D01*
X24953872Y-4586247D02*
X24953872Y-4462503D01*
X24830128Y-4462503D01*
X24830128Y-4586247D01*
X24953872Y-4586247D01*
X24804500Y-12056875D02*
X24979500Y-12231875D01*
X24979500Y-12056875D02*
X24804500Y-12231875D01*
X24953872Y-12206247D02*
X24953872Y-12082503D01*
X24830128Y-12082503D01*
X24830128Y-12206247D01*
X24953872Y-12206247D01*
X24868000Y-6341875D02*
X25043000Y-6516875D01*
X25043000Y-6341875D02*
X24868000Y-6516875D01*
X25017372Y-6491247D02*
X25017372Y-6367503D01*
X24893628Y-6367503D01*
X24893628Y-6491247D01*
X25017372Y-6491247D01*
X25344250Y-8246875D02*
X25519250Y-8421875D01*
X25519250Y-8246875D02*
X25344250Y-8421875D01*
X25493622Y-8396247D02*
X25493622Y-8272503D01*
X25369878Y-8272503D01*
X25369878Y-8396247D01*
X25493622Y-8396247D01*
X25757000Y-6341875D02*
X25932000Y-6516875D01*
X25932000Y-6341875D02*
X25757000Y-6516875D01*
X25906372Y-6491247D02*
X25906372Y-6367503D01*
X25782628Y-6367503D01*
X25782628Y-6491247D01*
X25906372Y-6491247D01*
X25820500Y-4436875D02*
X25995500Y-4611875D01*
X25995500Y-4436875D02*
X25820500Y-4611875D01*
X25969872Y-4586247D02*
X25969872Y-4462503D01*
X25846128Y-4462503D01*
X25846128Y-4586247D01*
X25969872Y-4586247D01*
X25820500Y-12056875D02*
X25995500Y-12231875D01*
X25995500Y-12056875D02*
X25820500Y-12231875D01*
X25969872Y-12206247D02*
X25969872Y-12082503D01*
X25846128Y-12082503D01*
X25846128Y-12206247D01*
X25969872Y-12206247D01*
X25995125Y-10151875D02*
X26170125Y-10326875D01*
X26170125Y-10151875D02*
X25995125Y-10326875D01*
X26144497Y-10301247D02*
X26144497Y-10177503D01*
X26020753Y-10177503D01*
X26020753Y-10301247D01*
X26144497Y-10301247D01*
X26773000Y-6341875D02*
X26948000Y-6516875D01*
X26948000Y-6341875D02*
X26773000Y-6516875D01*
X26922372Y-6491247D02*
X26922372Y-6367503D01*
X26798628Y-6367503D01*
X26798628Y-6491247D01*
X26922372Y-6491247D01*
X27011125Y-10151875D02*
X27186125Y-10326875D01*
X27186125Y-10151875D02*
X27011125Y-10326875D01*
X27160497Y-10301247D02*
X27160497Y-10177503D01*
X27036753Y-10177503D01*
X27036753Y-10301247D01*
X27160497Y-10301247D01*
X27185750Y-12533125D02*
X27360750Y-12708125D01*
X27360750Y-12533125D02*
X27185750Y-12708125D01*
X27335122Y-12682497D02*
X27335122Y-12558753D01*
X27211378Y-12558753D01*
X27211378Y-12682497D01*
X27335122Y-12682497D01*
X27423875Y-8246875D02*
X27598875Y-8421875D01*
X27598875Y-8246875D02*
X27423875Y-8421875D01*
X27573247Y-8396247D02*
X27573247Y-8272503D01*
X27449503Y-8272503D01*
X27449503Y-8396247D01*
X27573247Y-8396247D01*
X27662000Y-4436875D02*
X27837000Y-4611875D01*
X27837000Y-4436875D02*
X27662000Y-4611875D01*
X27811372Y-4586247D02*
X27811372Y-4462503D01*
X27687628Y-4462503D01*
X27687628Y-4586247D01*
X27811372Y-4586247D01*
X28138250Y-6341875D02*
X28313250Y-6516875D01*
X28313250Y-6341875D02*
X28138250Y-6516875D01*
X28287622Y-6491247D02*
X28287622Y-6367503D01*
X28163878Y-6367503D01*
X28163878Y-6491247D01*
X28287622Y-6491247D01*
X28201750Y-12533125D02*
X28376750Y-12708125D01*
X28376750Y-12533125D02*
X28201750Y-12708125D01*
X28351122Y-12682497D02*
X28351122Y-12558753D01*
X28227378Y-12558753D01*
X28227378Y-12682497D01*
X28351122Y-12682497D01*
X28439875Y-8246875D02*
X28614875Y-8421875D01*
X28614875Y-8246875D02*
X28439875Y-8421875D01*
X28589247Y-8396247D02*
X28589247Y-8272503D01*
X28465503Y-8272503D01*
X28465503Y-8396247D01*
X28589247Y-8396247D01*
X28678000Y-4436875D02*
X28853000Y-4611875D01*
X28853000Y-4436875D02*
X28678000Y-4611875D01*
X28827372Y-4586247D02*
X28827372Y-4462503D01*
X28703628Y-4462503D01*
X28703628Y-4586247D01*
X28827372Y-4586247D01*
X29090750Y-10628125D02*
X29265750Y-10803125D01*
X29265750Y-10628125D02*
X29090750Y-10803125D01*
X29240122Y-10777497D02*
X29240122Y-10653753D01*
X29116378Y-10653753D01*
X29116378Y-10777497D01*
X29240122Y-10777497D01*
X29090750Y-12533125D02*
X29265750Y-12708125D01*
X29265750Y-12533125D02*
X29090750Y-12708125D01*
X29240122Y-12682497D02*
X29240122Y-12558753D01*
X29116378Y-12558753D01*
X29116378Y-12682497D01*
X29240122Y-12682497D01*
X29154250Y-6341875D02*
X29329250Y-6516875D01*
X29329250Y-6341875D02*
X29154250Y-6516875D01*
X29303622Y-6491247D02*
X29303622Y-6367503D01*
X29179878Y-6367503D01*
X29179878Y-6491247D01*
X29303622Y-6491247D01*
X30106750Y-10628125D02*
X30281750Y-10803125D01*
X30281750Y-10628125D02*
X30106750Y-10803125D01*
X30256122Y-10777497D02*
X30256122Y-10653753D01*
X30132378Y-10653753D01*
X30132378Y-10777497D01*
X30256122Y-10777497D01*
X30106750Y-12533125D02*
X30281750Y-12708125D01*
X30281750Y-12533125D02*
X30106750Y-12708125D01*
X30256122Y-12682497D02*
X30256122Y-12558753D01*
X30132378Y-12558753D01*
X30132378Y-12682497D01*
X30256122Y-12682497D01*
X30995750Y-12533125D02*
X31170750Y-12708125D01*
X31170750Y-12533125D02*
X30995750Y-12708125D01*
X31145122Y-12682497D02*
X31145122Y-12558753D01*
X31021378Y-12558753D01*
X31021378Y-12682497D01*
X31145122Y-12682497D01*
X31472000Y-6341875D02*
X31647000Y-6516875D01*
X31647000Y-6341875D02*
X31472000Y-6516875D01*
X31621372Y-6491247D02*
X31621372Y-6367503D01*
X31497628Y-6367503D01*
X31497628Y-6491247D01*
X31621372Y-6491247D01*
X31472000Y-8246875D02*
X31647000Y-8421875D01*
X31647000Y-8246875D02*
X31472000Y-8421875D01*
X31621372Y-8396247D02*
X31621372Y-8272503D01*
X31497628Y-8272503D01*
X31497628Y-8396247D01*
X31621372Y-8396247D01*
X31472000Y-10151875D02*
X31647000Y-10326875D01*
X31647000Y-10151875D02*
X31472000Y-10326875D01*
X31621372Y-10301247D02*
X31621372Y-10177503D01*
X31497628Y-10177503D01*
X31497628Y-10301247D01*
X31621372Y-10301247D01*
X32011750Y-12533125D02*
X32186750Y-12708125D01*
X32186750Y-12533125D02*
X32011750Y-12708125D01*
X32161122Y-12682497D02*
X32161122Y-12558753D01*
X32037378Y-12558753D01*
X32037378Y-12682497D01*
X32161122Y-12682497D01*
X32488000Y-6341875D02*
X32663000Y-6516875D01*
X32663000Y-6341875D02*
X32488000Y-6516875D01*
X32637372Y-6491247D02*
X32637372Y-6367503D01*
X32513628Y-6367503D01*
X32513628Y-6491247D01*
X32637372Y-6491247D01*
X32488000Y-8246875D02*
X32663000Y-8421875D01*
X32663000Y-8246875D02*
X32488000Y-8421875D01*
X32637372Y-8396247D02*
X32637372Y-8272503D01*
X32513628Y-8272503D01*
X32513628Y-8396247D01*
X32637372Y-8396247D01*
X32488000Y-10151875D02*
X32663000Y-10326875D01*
X32663000Y-10151875D02*
X32488000Y-10326875D01*
X32637372Y-10301247D02*
X32637372Y-10177503D01*
X32513628Y-10177503D01*
X32513628Y-10301247D01*
X32637372Y-10301247D01*
D19*
X2387600Y-9388475D02*
X2692400Y-9693275D01*
X2692400Y-9388475D02*
X2387600Y-9693275D01*
X2540000Y-9693275D02*
X2692400Y-9540875D01*
X2540000Y-9388475D01*
X2387600Y-9540875D01*
X2540000Y-9693275D01*
X4768850Y-9388475D02*
X5073650Y-9693275D01*
X5073650Y-9388475D02*
X4768850Y-9693275D01*
X4921250Y-9693275D02*
X5073650Y-9540875D01*
X4921250Y-9388475D01*
X4768850Y-9540875D01*
X4921250Y-9693275D01*
X9531985Y-12690475D02*
X9836785Y-12995275D01*
X9836785Y-12690475D02*
X9531985Y-12995275D01*
X9684385Y-12995275D02*
X9836785Y-12842875D01*
X9684385Y-12690475D01*
X9531985Y-12842875D01*
X9684385Y-12995275D01*
X19531965Y-12690475D02*
X19836765Y-12995275D01*
X19836765Y-12690475D02*
X19531965Y-12995275D01*
X19684365Y-12995275D02*
X19836765Y-12842875D01*
X19684365Y-12690475D01*
X19531965Y-12842875D01*
X19684365Y-12995275D01*
X26676350Y-7483475D02*
X26981150Y-7788275D01*
X26981150Y-7483475D02*
X26676350Y-7788275D01*
X26828750Y-7788275D02*
X26981150Y-7635875D01*
X26828750Y-7483475D01*
X26676350Y-7635875D01*
X26828750Y-7788275D01*
X26914475Y-3673475D02*
X27219275Y-3978275D01*
X27219275Y-3673475D02*
X26914475Y-3978275D01*
X27066875Y-3978275D02*
X27219275Y-3825875D01*
X27066875Y-3673475D01*
X26914475Y-3825875D01*
X27066875Y-3978275D01*
X29057600Y-7483475D02*
X29362400Y-7788275D01*
X29362400Y-7483475D02*
X29057600Y-7788275D01*
X29210000Y-7788275D02*
X29362400Y-7635875D01*
X29210000Y-7483475D01*
X29057600Y-7635875D01*
X29210000Y-7788275D01*
X29295725Y-3673475D02*
X29600525Y-3978275D01*
X29600525Y-3673475D02*
X29295725Y-3978275D01*
X29448125Y-3978275D02*
X29600525Y-3825875D01*
X29448125Y-3673475D01*
X29295725Y-3825875D01*
X29448125Y-3978275D01*
D20*
X2540000Y-4324985D02*
X2540000Y-4723765D01*
X2340610Y-4524375D02*
X2739390Y-4524375D01*
X2739390Y-4524375D02*
G75*
G03*
X2739390Y-4524375I-199390J0D01*
G01*
X2540000Y-10865485D02*
X2540000Y-11264265D01*
X2340610Y-11064875D02*
X2739390Y-11064875D01*
X2739390Y-11064875D02*
G75*
G03*
X2739390Y-11064875I-199390J0D01*
G01*
X2778125Y-11944985D02*
X2778125Y-12343765D01*
X2578735Y-12144375D02*
X2977515Y-12144375D01*
X2977515Y-12144375D02*
G75*
G03*
X2977515Y-12144375I-199390J0D01*
G01*
X3016250Y-6229985D02*
X3016250Y-6628765D01*
X2816860Y-6429375D02*
X3215640Y-6429375D01*
X3215640Y-6429375D02*
G75*
G03*
X3215640Y-6429375I-199390J0D01*
G01*
X3254375Y-8134985D02*
X3254375Y-8533765D01*
X3054985Y-8334375D02*
X3453765Y-8334375D01*
X3453765Y-8334375D02*
G75*
G03*
X3453765Y-8334375I-199390J0D01*
G01*
X3730625Y-10039985D02*
X3730625Y-10438765D01*
X3531235Y-10239375D02*
X3930015Y-10239375D01*
X3930015Y-10239375D02*
G75*
G03*
X3930015Y-10239375I-199390J0D01*
G01*
X4445000Y-4324985D02*
X4445000Y-4723765D01*
X4245610Y-4524375D02*
X4644390Y-4524375D01*
X4644390Y-4524375D02*
G75*
G03*
X4644390Y-4524375I-199390J0D01*
G01*
X4921250Y-10865485D02*
X4921250Y-11264265D01*
X4721860Y-11064875D02*
X5120640Y-11064875D01*
X5120640Y-11064875D02*
G75*
G03*
X5120640Y-11064875I-199390J0D01*
G01*
X5159375Y-11944985D02*
X5159375Y-12343765D01*
X4959985Y-12144375D02*
X5358765Y-12144375D01*
X5358765Y-12144375D02*
G75*
G03*
X5358765Y-12144375I-199390J0D01*
G01*
X5397500Y-6229985D02*
X5397500Y-6628765D01*
X5198110Y-6429375D02*
X5596890Y-6429375D01*
X5596890Y-6429375D02*
G75*
G03*
X5596890Y-6429375I-199390J0D01*
G01*
X5873750Y-8134985D02*
X5873750Y-8533765D01*
X5674360Y-8334375D02*
X6073140Y-8334375D01*
X6073140Y-8334375D02*
G75*
G03*
X6073140Y-8334375I-199390J0D01*
G01*
X6350000Y-4324985D02*
X6350000Y-4723765D01*
X6150610Y-4524375D02*
X6549390Y-4524375D01*
X6549390Y-4524375D02*
G75*
G03*
X6549390Y-4524375I-199390J0D01*
G01*
X6826250Y-10039985D02*
X6826250Y-10438765D01*
X6626860Y-10239375D02*
X7025640Y-10239375D01*
X7025640Y-10239375D02*
G75*
G03*
X7025640Y-10239375I-199390J0D01*
G01*
X7302500Y-6229985D02*
X7302500Y-6628765D01*
X7103110Y-6429375D02*
X7501890Y-6429375D01*
X7501890Y-6429375D02*
G75*
G03*
X7501890Y-6429375I-199390J0D01*
G01*
X7540625Y-11944985D02*
X7540625Y-12343765D01*
X7341235Y-12144375D02*
X7740015Y-12144375D01*
X7740015Y-12144375D02*
G75*
G03*
X7740015Y-12144375I-199390J0D01*
G01*
X7778750Y-8134985D02*
X7778750Y-8533765D01*
X7579360Y-8334375D02*
X7978140Y-8334375D01*
X7978140Y-8334375D02*
G75*
G03*
X7978140Y-8334375I-199390J0D01*
G01*
X8255000Y-4324985D02*
X8255000Y-4723765D01*
X8055610Y-4524375D02*
X8454390Y-4524375D01*
X8454390Y-4524375D02*
G75*
G03*
X8454390Y-4524375I-199390J0D01*
G01*
X8731250Y-10039985D02*
X8731250Y-10438765D01*
X8531860Y-10239375D02*
X8930640Y-10239375D01*
X8930640Y-10239375D02*
G75*
G03*
X8930640Y-10239375I-199390J0D01*
G01*
X9207500Y-6229985D02*
X9207500Y-6628765D01*
X9008110Y-6429375D02*
X9406890Y-6429375D01*
X9406890Y-6429375D02*
G75*
G03*
X9406890Y-6429375I-199390J0D01*
G01*
X9683750Y-8134985D02*
X9683750Y-8533765D01*
X9484360Y-8334375D02*
X9883140Y-8334375D01*
X9883140Y-8334375D02*
G75*
G03*
X9883140Y-8334375I-199390J0D01*
G01*
X9684385Y-11119485D02*
X9684385Y-11518265D01*
X9484995Y-11318875D02*
X9883775Y-11318875D01*
X9883775Y-11318875D02*
G75*
G03*
X9883775Y-11318875I-199390J0D01*
G01*
X10160000Y-4324985D02*
X10160000Y-4723765D01*
X9960610Y-4524375D02*
X10359390Y-4524375D01*
X10359390Y-4524375D02*
G75*
G03*
X10359390Y-4524375I-199390J0D01*
G01*
X10636250Y-10039985D02*
X10636250Y-10438765D01*
X10436860Y-10239375D02*
X10835640Y-10239375D01*
X10835640Y-10239375D02*
G75*
G03*
X10835640Y-10239375I-199390J0D01*
G01*
X11112500Y-6229985D02*
X11112500Y-6628765D01*
X10913110Y-6429375D02*
X11311890Y-6429375D01*
X11311890Y-6429375D02*
G75*
G03*
X11311890Y-6429375I-199390J0D01*
G01*
X11588750Y-8134985D02*
X11588750Y-8533765D01*
X11389360Y-8334375D02*
X11788140Y-8334375D01*
X11788140Y-8334375D02*
G75*
G03*
X11788140Y-8334375I-199390J0D01*
G01*
X12065000Y-4324985D02*
X12065000Y-4723765D01*
X11865610Y-4524375D02*
X12264390Y-4524375D01*
X12264390Y-4524375D02*
G75*
G03*
X12264390Y-4524375I-199390J0D01*
G01*
X12541250Y-10039985D02*
X12541250Y-10438765D01*
X12341860Y-10239375D02*
X12740640Y-10239375D01*
X12740640Y-10239375D02*
G75*
G03*
X12740640Y-10239375I-199390J0D01*
G01*
X13017500Y-6229985D02*
X13017500Y-6628765D01*
X12818110Y-6429375D02*
X13216890Y-6429375D01*
X13216890Y-6429375D02*
G75*
G03*
X13216890Y-6429375I-199390J0D01*
G01*
X13493750Y-8134985D02*
X13493750Y-8533765D01*
X13294360Y-8334375D02*
X13693140Y-8334375D01*
X13693140Y-8334375D02*
G75*
G03*
X13693140Y-8334375I-199390J0D01*
G01*
X13970000Y-4324985D02*
X13970000Y-4723765D01*
X13770610Y-4524375D02*
X14169390Y-4524375D01*
X14169390Y-4524375D02*
G75*
G03*
X14169390Y-4524375I-199390J0D01*
G01*
X14446250Y-10039985D02*
X14446250Y-10438765D01*
X14246860Y-10239375D02*
X14645640Y-10239375D01*
X14645640Y-10239375D02*
G75*
G03*
X14645640Y-10239375I-199390J0D01*
G01*
X14684375Y-11944985D02*
X14684375Y-12343765D01*
X14484985Y-12144375D02*
X14883765Y-12144375D01*
X14883765Y-12144375D02*
G75*
G03*
X14883765Y-12144375I-199390J0D01*
G01*
X14922500Y-6229985D02*
X14922500Y-6628765D01*
X14723110Y-6429375D02*
X15121890Y-6429375D01*
X15121890Y-6429375D02*
G75*
G03*
X15121890Y-6429375I-199390J0D01*
G01*
X15398750Y-8134985D02*
X15398750Y-8533765D01*
X15199360Y-8334375D02*
X15598140Y-8334375D01*
X15598140Y-8334375D02*
G75*
G03*
X15598140Y-8334375I-199390J0D01*
G01*
X15875000Y-4324985D02*
X15875000Y-4723765D01*
X15675610Y-4524375D02*
X16074390Y-4524375D01*
X16074390Y-4524375D02*
G75*
G03*
X16074390Y-4524375I-199390J0D01*
G01*
X16351250Y-10039985D02*
X16351250Y-10438765D01*
X16151860Y-10239375D02*
X16550640Y-10239375D01*
X16550640Y-10239375D02*
G75*
G03*
X16550640Y-10239375I-199390J0D01*
G01*
X16827500Y-6229985D02*
X16827500Y-6628765D01*
X16628110Y-6429375D02*
X17026890Y-6429375D01*
X17026890Y-6429375D02*
G75*
G03*
X17026890Y-6429375I-199390J0D01*
G01*
X17303750Y-8134985D02*
X17303750Y-8533765D01*
X17104360Y-8334375D02*
X17503140Y-8334375D01*
X17503140Y-8334375D02*
G75*
G03*
X17503140Y-8334375I-199390J0D01*
G01*
X17780000Y-4324985D02*
X17780000Y-4723765D01*
X17580610Y-4524375D02*
X17979390Y-4524375D01*
X17979390Y-4524375D02*
G75*
G03*
X17979390Y-4524375I-199390J0D01*
G01*
X18256250Y-10039985D02*
X18256250Y-10438765D01*
X18056860Y-10239375D02*
X18455640Y-10239375D01*
X18455640Y-10239375D02*
G75*
G03*
X18455640Y-10239375I-199390J0D01*
G01*
X18732500Y-6229985D02*
X18732500Y-6628765D01*
X18533110Y-6429375D02*
X18931890Y-6429375D01*
X18931890Y-6429375D02*
G75*
G03*
X18931890Y-6429375I-199390J0D01*
G01*
X19208750Y-8134985D02*
X19208750Y-8533765D01*
X19009360Y-8334375D02*
X19408140Y-8334375D01*
X19408140Y-8334375D02*
G75*
G03*
X19408140Y-8334375I-199390J0D01*
G01*
X19684365Y-11119485D02*
X19684365Y-11518265D01*
X19484975Y-11318875D02*
X19883755Y-11318875D01*
X19883755Y-11318875D02*
G75*
G03*
X19883755Y-11318875I-199390J0D01*
G01*
X19685000Y-4324985D02*
X19685000Y-4723765D01*
X19485610Y-4524375D02*
X19884390Y-4524375D01*
X19884390Y-4524375D02*
G75*
G03*
X19884390Y-4524375I-199390J0D01*
G01*
X20161250Y-10039985D02*
X20161250Y-10438765D01*
X19961860Y-10239375D02*
X20360640Y-10239375D01*
X20360640Y-10239375D02*
G75*
G03*
X20360640Y-10239375I-199390J0D01*
G01*
X20637500Y-6229985D02*
X20637500Y-6628765D01*
X20438110Y-6429375D02*
X20836890Y-6429375D01*
X20836890Y-6429375D02*
G75*
G03*
X20836890Y-6429375I-199390J0D01*
G01*
X21113750Y-8134985D02*
X21113750Y-8533765D01*
X20914360Y-8334375D02*
X21313140Y-8334375D01*
X21313140Y-8334375D02*
G75*
G03*
X21313140Y-8334375I-199390J0D01*
G01*
X21590000Y-4324985D02*
X21590000Y-4723765D01*
X21390610Y-4524375D02*
X21789390Y-4524375D01*
X21789390Y-4524375D02*
G75*
G03*
X21789390Y-4524375I-199390J0D01*
G01*
X21590000Y-11944985D02*
X21590000Y-12343765D01*
X21390610Y-12144375D02*
X21789390Y-12144375D01*
X21789390Y-12144375D02*
G75*
G03*
X21789390Y-12144375I-199390J0D01*
G01*
X22066250Y-10039985D02*
X22066250Y-10438765D01*
X21866860Y-10239375D02*
X22265640Y-10239375D01*
X22265640Y-10239375D02*
G75*
G03*
X22265640Y-10239375I-199390J0D01*
G01*
X22542500Y-6229985D02*
X22542500Y-6628765D01*
X22343110Y-6429375D02*
X22741890Y-6429375D01*
X22741890Y-6429375D02*
G75*
G03*
X22741890Y-6429375I-199390J0D01*
G01*
X23018750Y-8134985D02*
X23018750Y-8533765D01*
X22819360Y-8334375D02*
X23218140Y-8334375D01*
X23218140Y-8334375D02*
G75*
G03*
X23218140Y-8334375I-199390J0D01*
G01*
X23495000Y-4324985D02*
X23495000Y-4723765D01*
X23295610Y-4524375D02*
X23694390Y-4524375D01*
X23694390Y-4524375D02*
G75*
G03*
X23694390Y-4524375I-199390J0D01*
G01*
X23495000Y-11944985D02*
X23495000Y-12343765D01*
X23295610Y-12144375D02*
X23694390Y-12144375D01*
X23694390Y-12144375D02*
G75*
G03*
X23694390Y-12144375I-199390J0D01*
G01*
X23971250Y-10039985D02*
X23971250Y-10438765D01*
X23771860Y-10239375D02*
X24170640Y-10239375D01*
X24170640Y-10239375D02*
G75*
G03*
X24170640Y-10239375I-199390J0D01*
G01*
X24447500Y-6229985D02*
X24447500Y-6628765D01*
X24248110Y-6429375D02*
X24646890Y-6429375D01*
X24646890Y-6429375D02*
G75*
G03*
X24646890Y-6429375I-199390J0D01*
G01*
X24923750Y-8134985D02*
X24923750Y-8533765D01*
X24724360Y-8334375D02*
X25123140Y-8334375D01*
X25123140Y-8334375D02*
G75*
G03*
X25123140Y-8334375I-199390J0D01*
G01*
X25400000Y-4324985D02*
X25400000Y-4723765D01*
X25200610Y-4524375D02*
X25599390Y-4524375D01*
X25599390Y-4524375D02*
G75*
G03*
X25599390Y-4524375I-199390J0D01*
G01*
X25400000Y-11944985D02*
X25400000Y-12343765D01*
X25200610Y-12144375D02*
X25599390Y-12144375D01*
X25599390Y-12144375D02*
G75*
G03*
X25599390Y-12144375I-199390J0D01*
G01*
X26352500Y-6229985D02*
X26352500Y-6628765D01*
X26153110Y-6429375D02*
X26551890Y-6429375D01*
X26551890Y-6429375D02*
G75*
G03*
X26551890Y-6429375I-199390J0D01*
G01*
X26590625Y-10039985D02*
X26590625Y-10438765D01*
X26391235Y-10239375D02*
X26790015Y-10239375D01*
X26790015Y-10239375D02*
G75*
G03*
X26790015Y-10239375I-199390J0D01*
G01*
X26828750Y-8960485D02*
X26828750Y-9359265D01*
X26629360Y-9159875D02*
X27028140Y-9159875D01*
X27028140Y-9159875D02*
G75*
G03*
X27028140Y-9159875I-199390J0D01*
G01*
X27066875Y-5150485D02*
X27066875Y-5549265D01*
X26867485Y-5349875D02*
X27266265Y-5349875D01*
X27266265Y-5349875D02*
G75*
G03*
X27266265Y-5349875I-199390J0D01*
G01*
X27781250Y-12421235D02*
X27781250Y-12820015D01*
X27581860Y-12620625D02*
X27980640Y-12620625D01*
X27980640Y-12620625D02*
G75*
G03*
X27980640Y-12620625I-199390J0D01*
G01*
X28019375Y-8134985D02*
X28019375Y-8533765D01*
X27819985Y-8334375D02*
X28218765Y-8334375D01*
X28218765Y-8334375D02*
G75*
G03*
X28218765Y-8334375I-199390J0D01*
G01*
X28257500Y-4324985D02*
X28257500Y-4723765D01*
X28058110Y-4524375D02*
X28456890Y-4524375D01*
X28456890Y-4524375D02*
G75*
G03*
X28456890Y-4524375I-199390J0D01*
G01*
X28733750Y-6229985D02*
X28733750Y-6628765D01*
X28534360Y-6429375D02*
X28933140Y-6429375D01*
X28933140Y-6429375D02*
G75*
G03*
X28933140Y-6429375I-199390J0D01*
G01*
X29210000Y-8960485D02*
X29210000Y-9359265D01*
X29010610Y-9159875D02*
X29409390Y-9159875D01*
X29409390Y-9159875D02*
G75*
G03*
X29409390Y-9159875I-199390J0D01*
G01*
X29448125Y-5150485D02*
X29448125Y-5549265D01*
X29248735Y-5349875D02*
X29647515Y-5349875D01*
X29647515Y-5349875D02*
G75*
G03*
X29647515Y-5349875I-199390J0D01*
G01*
X29686250Y-10516235D02*
X29686250Y-10915015D01*
X29486860Y-10715625D02*
X29885640Y-10715625D01*
X29885640Y-10715625D02*
G75*
G03*
X29885640Y-10715625I-199390J0D01*
G01*
X29686250Y-12421235D02*
X29686250Y-12820015D01*
X29486860Y-12620625D02*
X29885640Y-12620625D01*
X29885640Y-12620625D02*
G75*
G03*
X29885640Y-12620625I-199390J0D01*
G01*
X31591250Y-12421235D02*
X31591250Y-12820015D01*
X31391860Y-12620625D02*
X31790640Y-12620625D01*
X31790640Y-12620625D02*
G75*
G03*
X31790640Y-12620625I-199390J0D01*
G01*
X32067500Y-6229985D02*
X32067500Y-6628765D01*
X31868110Y-6429375D02*
X32266890Y-6429375D01*
X32266890Y-6429375D02*
G75*
G03*
X32266890Y-6429375I-199390J0D01*
G01*
X32067500Y-8134985D02*
X32067500Y-8533765D01*
X31868110Y-8334375D02*
X32266890Y-8334375D01*
X32266890Y-8334375D02*
G75*
G03*
X32266890Y-8334375I-199390J0D01*
G01*
X32067500Y-10039985D02*
X32067500Y-10438765D01*
X31868110Y-10239375D02*
X32266890Y-10239375D01*
X32266890Y-10239375D02*
G75*
G03*
X32266890Y-10239375I-199390J0D01*
G01*
D11*
X1866852Y-13862779D02*
X1866852Y-13662779D01*
X1914471Y-13662779D01*
X1943042Y-13672303D01*
X1962090Y-13691351D01*
X1971614Y-13710398D01*
X1981137Y-13748494D01*
X1981137Y-13777065D01*
X1971614Y-13815160D01*
X1962090Y-13834208D01*
X1943042Y-13853255D01*
X1914471Y-13862779D01*
X1866852Y-13862779D01*
X2066852Y-13862779D02*
X2066852Y-13729446D01*
X2066852Y-13767541D02*
X2076376Y-13748494D01*
X2085899Y-13738970D01*
X2104947Y-13729446D01*
X2123995Y-13729446D01*
X2190661Y-13862779D02*
X2190661Y-13729446D01*
X2190661Y-13662779D02*
X2181138Y-13672303D01*
X2190661Y-13681827D01*
X2200185Y-13672303D01*
X2190661Y-13662779D01*
X2190661Y-13681827D01*
X2314471Y-13862779D02*
X2295423Y-13853255D01*
X2285899Y-13834208D01*
X2285899Y-13662779D01*
X2419233Y-13862779D02*
X2400185Y-13853255D01*
X2390661Y-13834208D01*
X2390661Y-13662779D01*
X2647804Y-13862779D02*
X2647804Y-13662779D01*
X2714471Y-13805636D01*
X2781138Y-13662779D01*
X2781138Y-13862779D01*
X2962090Y-13862779D02*
X2962090Y-13758017D01*
X2952566Y-13738970D01*
X2933518Y-13729446D01*
X2895423Y-13729446D01*
X2876376Y-13738970D01*
X2962090Y-13853255D02*
X2943042Y-13862779D01*
X2895423Y-13862779D01*
X2876376Y-13853255D01*
X2866852Y-13834208D01*
X2866852Y-13815160D01*
X2876376Y-13796113D01*
X2895423Y-13786589D01*
X2943042Y-13786589D01*
X2962090Y-13777065D01*
X3057328Y-13729446D02*
X3057328Y-13929446D01*
X3057328Y-13738970D02*
X3076376Y-13729446D01*
X3114471Y-13729446D01*
X3133518Y-13738970D01*
X3143042Y-13748494D01*
X3152566Y-13767541D01*
X3152566Y-13824684D01*
X3143042Y-13843732D01*
X3133518Y-13853255D01*
X3114471Y-13862779D01*
X3076376Y-13862779D01*
X3057328Y-13853255D01*
X3238280Y-13843732D02*
X3247804Y-13853255D01*
X3238280Y-13862779D01*
X3228757Y-13853255D01*
X3238280Y-13843732D01*
X3238280Y-13862779D01*
X3238280Y-13738970D02*
X3247804Y-13748494D01*
X3238280Y-13758017D01*
X3228757Y-13748494D01*
X3238280Y-13738970D01*
X3238280Y-13758017D01*
D12*
X1569233Y-14172303D02*
X1609233Y-14212303D01*
X1609233Y-14172303D02*
X1569233Y-14212303D01*
D11*
X1904947Y-14082779D02*
X1923995Y-14082779D01*
X1943042Y-14092303D01*
X1952566Y-14101827D01*
X1962090Y-14120875D01*
X1971614Y-14158970D01*
X1971614Y-14206589D01*
X1962090Y-14244684D01*
X1952566Y-14263732D01*
X1943042Y-14273255D01*
X1923995Y-14282779D01*
X1904947Y-14282779D01*
X1885899Y-14273255D01*
X1876376Y-14263732D01*
X1866852Y-14244684D01*
X1857328Y-14206589D01*
X1857328Y-14158970D01*
X1866852Y-14120875D01*
X1876376Y-14101827D01*
X1885899Y-14092303D01*
X1904947Y-14082779D01*
X2057328Y-14263732D02*
X2066852Y-14273255D01*
X2057328Y-14282779D01*
X2047804Y-14273255D01*
X2057328Y-14263732D01*
X2057328Y-14282779D01*
X2238280Y-14149446D02*
X2238280Y-14282779D01*
X2190661Y-14073255D02*
X2143042Y-14216113D01*
X2266852Y-14216113D01*
X2381138Y-14082779D02*
X2400185Y-14082779D01*
X2419233Y-14092303D01*
X2428757Y-14101827D01*
X2438280Y-14120875D01*
X2447804Y-14158970D01*
X2447804Y-14206589D01*
X2438280Y-14244684D01*
X2428757Y-14263732D01*
X2419233Y-14273255D01*
X2400185Y-14282779D01*
X2381138Y-14282779D01*
X2362090Y-14273255D01*
X2352566Y-14263732D01*
X2343042Y-14244684D01*
X2333519Y-14206589D01*
X2333519Y-14158970D01*
X2343042Y-14120875D01*
X2352566Y-14101827D01*
X2362090Y-14092303D01*
X2381138Y-14082779D01*
X2571614Y-14082779D02*
X2590661Y-14082779D01*
X2609709Y-14092303D01*
X2619233Y-14101827D01*
X2628757Y-14120875D01*
X2638280Y-14158970D01*
X2638280Y-14206589D01*
X2628757Y-14244684D01*
X2619233Y-14263732D01*
X2609709Y-14273255D01*
X2590661Y-14282779D01*
X2571614Y-14282779D01*
X2552566Y-14273255D01*
X2543042Y-14263732D01*
X2533519Y-14244684D01*
X2523995Y-14206589D01*
X2523995Y-14158970D01*
X2533519Y-14120875D01*
X2543042Y-14101827D01*
X2552566Y-14092303D01*
X2571614Y-14082779D01*
X2723995Y-14282779D02*
X2723995Y-14149446D01*
X2723995Y-14168494D02*
X2733519Y-14158970D01*
X2752566Y-14149446D01*
X2781138Y-14149446D01*
X2800185Y-14158970D01*
X2809709Y-14178017D01*
X2809709Y-14282779D01*
X2809709Y-14178017D02*
X2819233Y-14158970D01*
X2838280Y-14149446D01*
X2866852Y-14149446D01*
X2885899Y-14158970D01*
X2895423Y-14178017D01*
X2895423Y-14282779D01*
X2990661Y-14282779D02*
X2990661Y-14149446D01*
X2990661Y-14168494D02*
X3000185Y-14158970D01*
X3019233Y-14149446D01*
X3047804Y-14149446D01*
X3066852Y-14158970D01*
X3076376Y-14178017D01*
X3076376Y-14282779D01*
X3076376Y-14178017D02*
X3085899Y-14158970D01*
X3104947Y-14149446D01*
X3133518Y-14149446D01*
X3152566Y-14158970D01*
X3162090Y-14178017D01*
X3162090Y-14282779D01*
X3552566Y-14073255D02*
X3381137Y-14330398D01*
X3809709Y-14082779D02*
X3828757Y-14082779D01*
X3847804Y-14092303D01*
X3857328Y-14101827D01*
X3866852Y-14120875D01*
X3876376Y-14158970D01*
X3876376Y-14206589D01*
X3866852Y-14244684D01*
X3857328Y-14263732D01*
X3847804Y-14273255D01*
X3828757Y-14282779D01*
X3809709Y-14282779D01*
X3790661Y-14273255D01*
X3781137Y-14263732D01*
X3771614Y-14244684D01*
X3762090Y-14206589D01*
X3762090Y-14158970D01*
X3771614Y-14120875D01*
X3781137Y-14101827D01*
X3790661Y-14092303D01*
X3809709Y-14082779D01*
X3962090Y-14263732D02*
X3971614Y-14273255D01*
X3962090Y-14282779D01*
X3952566Y-14273255D01*
X3962090Y-14263732D01*
X3962090Y-14282779D01*
X4095423Y-14082779D02*
X4114471Y-14082779D01*
X4133518Y-14092303D01*
X4143042Y-14101827D01*
X4152566Y-14120875D01*
X4162090Y-14158970D01*
X4162090Y-14206589D01*
X4152566Y-14244684D01*
X4143042Y-14263732D01*
X4133518Y-14273255D01*
X4114471Y-14282779D01*
X4095423Y-14282779D01*
X4076376Y-14273255D01*
X4066852Y-14263732D01*
X4057328Y-14244684D01*
X4047804Y-14206589D01*
X4047804Y-14158970D01*
X4057328Y-14120875D01*
X4066852Y-14101827D01*
X4076376Y-14092303D01*
X4095423Y-14082779D01*
X4352566Y-14282779D02*
X4238280Y-14282779D01*
X4295423Y-14282779D02*
X4295423Y-14082779D01*
X4276376Y-14111351D01*
X4257328Y-14130398D01*
X4238280Y-14139922D01*
X4533519Y-14082779D02*
X4438280Y-14082779D01*
X4428757Y-14178017D01*
X4438280Y-14168494D01*
X4457328Y-14158970D01*
X4504947Y-14158970D01*
X4523995Y-14168494D01*
X4533519Y-14178017D01*
X4543042Y-14197065D01*
X4543042Y-14244684D01*
X4533519Y-14263732D01*
X4523995Y-14273255D01*
X4504947Y-14282779D01*
X4457328Y-14282779D01*
X4438280Y-14273255D01*
X4428757Y-14263732D01*
X4609709Y-14082779D02*
X4743042Y-14082779D01*
X4657328Y-14282779D01*
X4809709Y-14082779D02*
X4809709Y-14120875D01*
X4885899Y-14082779D02*
X4885899Y-14120875D01*
X5181138Y-14358970D02*
X5171614Y-14349446D01*
X5152566Y-14320875D01*
X5143042Y-14301827D01*
X5133519Y-14273255D01*
X5123995Y-14225636D01*
X5123995Y-14187541D01*
X5133519Y-14139922D01*
X5143042Y-14111351D01*
X5152566Y-14092303D01*
X5171614Y-14063732D01*
X5181138Y-14054208D01*
X5238280Y-14082779D02*
X5362090Y-14082779D01*
X5295423Y-14158970D01*
X5323995Y-14158970D01*
X5343042Y-14168494D01*
X5352566Y-14178017D01*
X5362090Y-14197065D01*
X5362090Y-14244684D01*
X5352566Y-14263732D01*
X5343042Y-14273255D01*
X5323995Y-14282779D01*
X5266852Y-14282779D01*
X5247804Y-14273255D01*
X5238280Y-14263732D01*
X5476376Y-14168494D02*
X5457328Y-14158970D01*
X5447804Y-14149446D01*
X5438280Y-14130398D01*
X5438280Y-14120875D01*
X5447804Y-14101827D01*
X5457328Y-14092303D01*
X5476376Y-14082779D01*
X5514471Y-14082779D01*
X5533519Y-14092303D01*
X5543042Y-14101827D01*
X5552566Y-14120875D01*
X5552566Y-14130398D01*
X5543042Y-14149446D01*
X5533519Y-14158970D01*
X5514471Y-14168494D01*
X5476376Y-14168494D01*
X5457328Y-14178017D01*
X5447804Y-14187541D01*
X5438280Y-14206589D01*
X5438280Y-14244684D01*
X5447804Y-14263732D01*
X5457328Y-14273255D01*
X5476376Y-14282779D01*
X5514471Y-14282779D01*
X5533519Y-14273255D01*
X5543042Y-14263732D01*
X5552566Y-14244684D01*
X5552566Y-14206589D01*
X5543042Y-14187541D01*
X5533519Y-14178017D01*
X5514471Y-14168494D01*
X5790661Y-14282779D02*
X5790661Y-14082779D01*
X5876376Y-14282779D02*
X5876376Y-14178017D01*
X5866852Y-14158970D01*
X5847804Y-14149446D01*
X5819233Y-14149446D01*
X5800185Y-14158970D01*
X5790661Y-14168494D01*
X6000185Y-14282779D02*
X5981137Y-14273255D01*
X5971614Y-14263732D01*
X5962090Y-14244684D01*
X5962090Y-14187541D01*
X5971614Y-14168494D01*
X5981137Y-14158970D01*
X6000185Y-14149446D01*
X6028757Y-14149446D01*
X6047804Y-14158970D01*
X6057328Y-14168494D01*
X6066852Y-14187541D01*
X6066852Y-14244684D01*
X6057328Y-14263732D01*
X6047804Y-14273255D01*
X6028757Y-14282779D01*
X6000185Y-14282779D01*
X6181137Y-14282779D02*
X6162090Y-14273255D01*
X6152566Y-14254208D01*
X6152566Y-14082779D01*
X6333518Y-14273255D02*
X6314471Y-14282779D01*
X6276376Y-14282779D01*
X6257328Y-14273255D01*
X6247804Y-14254208D01*
X6247804Y-14178017D01*
X6257328Y-14158970D01*
X6276376Y-14149446D01*
X6314471Y-14149446D01*
X6333518Y-14158970D01*
X6343042Y-14178017D01*
X6343042Y-14197065D01*
X6247804Y-14216113D01*
X6419233Y-14273255D02*
X6438280Y-14282779D01*
X6476376Y-14282779D01*
X6495423Y-14273255D01*
X6504947Y-14254208D01*
X6504947Y-14244684D01*
X6495423Y-14225636D01*
X6476376Y-14216113D01*
X6447804Y-14216113D01*
X6428757Y-14206589D01*
X6419233Y-14187541D01*
X6419233Y-14178017D01*
X6428757Y-14158970D01*
X6447804Y-14149446D01*
X6476376Y-14149446D01*
X6495423Y-14158970D01*
X6571614Y-14358970D02*
X6581137Y-14349446D01*
X6600185Y-14320875D01*
X6609709Y-14301827D01*
X6619233Y-14273255D01*
X6628757Y-14225636D01*
X6628757Y-14187541D01*
X6619233Y-14139922D01*
X6609709Y-14111351D01*
X6600185Y-14092303D01*
X6581137Y-14063732D01*
X6571614Y-14054208D01*
D13*
X1609233Y-14456303D02*
G75*
G03*
X1609233Y-14456303I-38100J0D01*
G01*
D11*
X1904947Y-14346779D02*
X1923995Y-14346779D01*
X1943042Y-14356303D01*
X1952566Y-14365827D01*
X1962090Y-14384875D01*
X1971614Y-14422970D01*
X1971614Y-14470589D01*
X1962090Y-14508684D01*
X1952566Y-14527732D01*
X1943042Y-14537255D01*
X1923995Y-14546779D01*
X1904947Y-14546779D01*
X1885899Y-14537255D01*
X1876376Y-14527732D01*
X1866852Y-14508684D01*
X1857328Y-14470589D01*
X1857328Y-14422970D01*
X1866852Y-14384875D01*
X1876376Y-14365827D01*
X1885899Y-14356303D01*
X1904947Y-14346779D01*
X2057328Y-14527732D02*
X2066852Y-14537255D01*
X2057328Y-14546779D01*
X2047804Y-14537255D01*
X2057328Y-14527732D01*
X2057328Y-14546779D01*
X2133519Y-14346779D02*
X2266852Y-14346779D01*
X2181138Y-14546779D01*
X2428757Y-14346779D02*
X2390661Y-14346779D01*
X2371614Y-14356303D01*
X2362090Y-14365827D01*
X2343042Y-14394398D01*
X2333519Y-14432494D01*
X2333519Y-14508684D01*
X2343042Y-14527732D01*
X2352566Y-14537255D01*
X2371614Y-14546779D01*
X2409709Y-14546779D01*
X2428757Y-14537255D01*
X2438280Y-14527732D01*
X2447804Y-14508684D01*
X2447804Y-14461065D01*
X2438280Y-14442017D01*
X2428757Y-14432494D01*
X2409709Y-14422970D01*
X2371614Y-14422970D01*
X2352566Y-14432494D01*
X2343042Y-14442017D01*
X2333519Y-14461065D01*
X2523995Y-14365827D02*
X2533519Y-14356303D01*
X2552566Y-14346779D01*
X2600185Y-14346779D01*
X2619233Y-14356303D01*
X2628757Y-14365827D01*
X2638280Y-14384875D01*
X2638280Y-14403922D01*
X2628757Y-14432494D01*
X2514471Y-14546779D01*
X2638280Y-14546779D01*
X2723995Y-14546779D02*
X2723995Y-14413446D01*
X2723995Y-14432494D02*
X2733519Y-14422970D01*
X2752566Y-14413446D01*
X2781138Y-14413446D01*
X2800185Y-14422970D01*
X2809709Y-14442017D01*
X2809709Y-14546779D01*
X2809709Y-14442017D02*
X2819233Y-14422970D01*
X2838280Y-14413446D01*
X2866852Y-14413446D01*
X2885899Y-14422970D01*
X2895423Y-14442017D01*
X2895423Y-14546779D01*
X2990661Y-14546779D02*
X2990661Y-14413446D01*
X2990661Y-14432494D02*
X3000185Y-14422970D01*
X3019233Y-14413446D01*
X3047804Y-14413446D01*
X3066852Y-14422970D01*
X3076376Y-14442017D01*
X3076376Y-14546779D01*
X3076376Y-14442017D02*
X3085899Y-14422970D01*
X3104947Y-14413446D01*
X3133518Y-14413446D01*
X3152566Y-14422970D01*
X3162090Y-14442017D01*
X3162090Y-14546779D01*
X3552566Y-14337255D02*
X3381137Y-14594398D01*
X3809709Y-14346779D02*
X3828757Y-14346779D01*
X3847804Y-14356303D01*
X3857328Y-14365827D01*
X3866852Y-14384875D01*
X3876376Y-14422970D01*
X3876376Y-14470589D01*
X3866852Y-14508684D01*
X3857328Y-14527732D01*
X3847804Y-14537255D01*
X3828757Y-14546779D01*
X3809709Y-14546779D01*
X3790661Y-14537255D01*
X3781137Y-14527732D01*
X3771614Y-14508684D01*
X3762090Y-14470589D01*
X3762090Y-14422970D01*
X3771614Y-14384875D01*
X3781137Y-14365827D01*
X3790661Y-14356303D01*
X3809709Y-14346779D01*
X3962090Y-14527732D02*
X3971614Y-14537255D01*
X3962090Y-14546779D01*
X3952566Y-14537255D01*
X3962090Y-14527732D01*
X3962090Y-14546779D01*
X4095423Y-14346779D02*
X4114471Y-14346779D01*
X4133518Y-14356303D01*
X4143042Y-14365827D01*
X4152566Y-14384875D01*
X4162090Y-14422970D01*
X4162090Y-14470589D01*
X4152566Y-14508684D01*
X4143042Y-14527732D01*
X4133518Y-14537255D01*
X4114471Y-14546779D01*
X4095423Y-14546779D01*
X4076376Y-14537255D01*
X4066852Y-14527732D01*
X4057328Y-14508684D01*
X4047804Y-14470589D01*
X4047804Y-14422970D01*
X4057328Y-14384875D01*
X4066852Y-14365827D01*
X4076376Y-14356303D01*
X4095423Y-14346779D01*
X4228757Y-14346779D02*
X4352566Y-14346779D01*
X4285899Y-14422970D01*
X4314471Y-14422970D01*
X4333519Y-14432494D01*
X4343042Y-14442017D01*
X4352566Y-14461065D01*
X4352566Y-14508684D01*
X4343042Y-14527732D01*
X4333519Y-14537255D01*
X4314471Y-14546779D01*
X4257328Y-14546779D01*
X4238280Y-14537255D01*
X4228757Y-14527732D01*
X4476376Y-14346779D02*
X4495423Y-14346779D01*
X4514471Y-14356303D01*
X4523995Y-14365827D01*
X4533519Y-14384875D01*
X4543042Y-14422970D01*
X4543042Y-14470589D01*
X4533519Y-14508684D01*
X4523995Y-14527732D01*
X4514471Y-14537255D01*
X4495423Y-14546779D01*
X4476376Y-14546779D01*
X4457328Y-14537255D01*
X4447804Y-14527732D01*
X4438280Y-14508684D01*
X4428757Y-14470589D01*
X4428757Y-14422970D01*
X4438280Y-14384875D01*
X4447804Y-14365827D01*
X4457328Y-14356303D01*
X4476376Y-14346779D01*
X4666852Y-14346779D02*
X4685899Y-14346779D01*
X4704947Y-14356303D01*
X4714471Y-14365827D01*
X4723995Y-14384875D01*
X4733519Y-14422970D01*
X4733519Y-14470589D01*
X4723995Y-14508684D01*
X4714471Y-14527732D01*
X4704947Y-14537255D01*
X4685899Y-14546779D01*
X4666852Y-14546779D01*
X4647804Y-14537255D01*
X4638280Y-14527732D01*
X4628757Y-14508684D01*
X4619233Y-14470589D01*
X4619233Y-14422970D01*
X4628757Y-14384875D01*
X4638280Y-14365827D01*
X4647804Y-14356303D01*
X4666852Y-14346779D01*
X4809709Y-14346779D02*
X4809709Y-14384875D01*
X4885899Y-14346779D02*
X4885899Y-14384875D01*
X5181138Y-14622970D02*
X5171614Y-14613446D01*
X5152566Y-14584875D01*
X5143042Y-14565827D01*
X5133519Y-14537255D01*
X5123995Y-14489636D01*
X5123995Y-14451541D01*
X5133519Y-14403922D01*
X5143042Y-14375351D01*
X5152566Y-14356303D01*
X5171614Y-14327732D01*
X5181138Y-14318208D01*
X5343042Y-14413446D02*
X5343042Y-14546779D01*
X5295423Y-14337255D02*
X5247804Y-14480113D01*
X5371614Y-14480113D01*
X5600185Y-14546779D02*
X5600185Y-14346779D01*
X5685899Y-14546779D02*
X5685899Y-14442017D01*
X5676376Y-14422970D01*
X5657328Y-14413446D01*
X5628757Y-14413446D01*
X5609709Y-14422970D01*
X5600185Y-14432494D01*
X5809709Y-14546779D02*
X5790661Y-14537255D01*
X5781137Y-14527732D01*
X5771614Y-14508684D01*
X5771614Y-14451541D01*
X5781137Y-14432494D01*
X5790661Y-14422970D01*
X5809709Y-14413446D01*
X5838280Y-14413446D01*
X5857328Y-14422970D01*
X5866852Y-14432494D01*
X5876376Y-14451541D01*
X5876376Y-14508684D01*
X5866852Y-14527732D01*
X5857328Y-14537255D01*
X5838280Y-14546779D01*
X5809709Y-14546779D01*
X5990661Y-14546779D02*
X5971614Y-14537255D01*
X5962090Y-14518208D01*
X5962090Y-14346779D01*
X6143042Y-14537255D02*
X6123995Y-14546779D01*
X6085899Y-14546779D01*
X6066852Y-14537255D01*
X6057328Y-14518208D01*
X6057328Y-14442017D01*
X6066852Y-14422970D01*
X6085899Y-14413446D01*
X6123995Y-14413446D01*
X6143042Y-14422970D01*
X6152566Y-14442017D01*
X6152566Y-14461065D01*
X6057328Y-14480113D01*
X6228757Y-14537255D02*
X6247804Y-14546779D01*
X6285899Y-14546779D01*
X6304947Y-14537255D01*
X6314471Y-14518208D01*
X6314471Y-14508684D01*
X6304947Y-14489636D01*
X6285899Y-14480113D01*
X6257328Y-14480113D01*
X6238280Y-14470589D01*
X6228757Y-14451541D01*
X6228757Y-14442017D01*
X6238280Y-14422970D01*
X6257328Y-14413446D01*
X6285899Y-14413446D01*
X6304947Y-14422970D01*
X6381137Y-14622970D02*
X6390661Y-14613446D01*
X6409709Y-14584875D01*
X6419233Y-14565827D01*
X6428757Y-14537255D01*
X6438280Y-14489636D01*
X6438280Y-14451541D01*
X6428757Y-14403922D01*
X6419233Y-14375351D01*
X6409709Y-14356303D01*
X6390661Y-14327732D01*
X6381137Y-14318208D01*
D14*
X1569233Y-14680303D02*
X1569233Y-14760303D01*
X1529233Y-14720303D02*
X1609233Y-14720303D01*
D11*
X1904947Y-14610779D02*
X1923995Y-14610779D01*
X1943042Y-14620303D01*
X1952566Y-14629827D01*
X1962090Y-14648875D01*
X1971614Y-14686970D01*
X1971614Y-14734589D01*
X1962090Y-14772684D01*
X1952566Y-14791732D01*
X1943042Y-14801255D01*
X1923995Y-14810779D01*
X1904947Y-14810779D01*
X1885899Y-14801255D01*
X1876376Y-14791732D01*
X1866852Y-14772684D01*
X1857328Y-14734589D01*
X1857328Y-14686970D01*
X1866852Y-14648875D01*
X1876376Y-14629827D01*
X1885899Y-14620303D01*
X1904947Y-14610779D01*
X2057328Y-14791732D02*
X2066852Y-14801255D01*
X2057328Y-14810779D01*
X2047804Y-14801255D01*
X2057328Y-14791732D01*
X2057328Y-14810779D01*
X2181138Y-14696494D02*
X2162090Y-14686970D01*
X2152566Y-14677446D01*
X2143042Y-14658398D01*
X2143042Y-14648875D01*
X2152566Y-14629827D01*
X2162090Y-14620303D01*
X2181138Y-14610779D01*
X2219233Y-14610779D01*
X2238280Y-14620303D01*
X2247804Y-14629827D01*
X2257328Y-14648875D01*
X2257328Y-14658398D01*
X2247804Y-14677446D01*
X2238280Y-14686970D01*
X2219233Y-14696494D01*
X2181138Y-14696494D01*
X2162090Y-14706017D01*
X2152566Y-14715541D01*
X2143042Y-14734589D01*
X2143042Y-14772684D01*
X2152566Y-14791732D01*
X2162090Y-14801255D01*
X2181138Y-14810779D01*
X2219233Y-14810779D01*
X2238280Y-14801255D01*
X2247804Y-14791732D01*
X2257328Y-14772684D01*
X2257328Y-14734589D01*
X2247804Y-14715541D01*
X2238280Y-14706017D01*
X2219233Y-14696494D01*
X2381138Y-14610779D02*
X2400185Y-14610779D01*
X2419233Y-14620303D01*
X2428757Y-14629827D01*
X2438280Y-14648875D01*
X2447804Y-14686970D01*
X2447804Y-14734589D01*
X2438280Y-14772684D01*
X2428757Y-14791732D01*
X2419233Y-14801255D01*
X2400185Y-14810779D01*
X2381138Y-14810779D01*
X2362090Y-14801255D01*
X2352566Y-14791732D01*
X2343042Y-14772684D01*
X2333519Y-14734589D01*
X2333519Y-14686970D01*
X2343042Y-14648875D01*
X2352566Y-14629827D01*
X2362090Y-14620303D01*
X2381138Y-14610779D01*
X2571614Y-14610779D02*
X2590661Y-14610779D01*
X2609709Y-14620303D01*
X2619233Y-14629827D01*
X2628757Y-14648875D01*
X2638280Y-14686970D01*
X2638280Y-14734589D01*
X2628757Y-14772684D01*
X2619233Y-14791732D01*
X2609709Y-14801255D01*
X2590661Y-14810779D01*
X2571614Y-14810779D01*
X2552566Y-14801255D01*
X2543042Y-14791732D01*
X2533519Y-14772684D01*
X2523995Y-14734589D01*
X2523995Y-14686970D01*
X2533519Y-14648875D01*
X2543042Y-14629827D01*
X2552566Y-14620303D01*
X2571614Y-14610779D01*
X2723995Y-14810779D02*
X2723995Y-14677446D01*
X2723995Y-14696494D02*
X2733519Y-14686970D01*
X2752566Y-14677446D01*
X2781138Y-14677446D01*
X2800185Y-14686970D01*
X2809709Y-14706017D01*
X2809709Y-14810779D01*
X2809709Y-14706017D02*
X2819233Y-14686970D01*
X2838280Y-14677446D01*
X2866852Y-14677446D01*
X2885899Y-14686970D01*
X2895423Y-14706017D01*
X2895423Y-14810779D01*
X2990661Y-14810779D02*
X2990661Y-14677446D01*
X2990661Y-14696494D02*
X3000185Y-14686970D01*
X3019233Y-14677446D01*
X3047804Y-14677446D01*
X3066852Y-14686970D01*
X3076376Y-14706017D01*
X3076376Y-14810779D01*
X3076376Y-14706017D02*
X3085899Y-14686970D01*
X3104947Y-14677446D01*
X3133518Y-14677446D01*
X3152566Y-14686970D01*
X3162090Y-14706017D01*
X3162090Y-14810779D01*
X3552566Y-14601255D02*
X3381137Y-14858398D01*
X3809709Y-14610779D02*
X3828757Y-14610779D01*
X3847804Y-14620303D01*
X3857328Y-14629827D01*
X3866852Y-14648875D01*
X3876376Y-14686970D01*
X3876376Y-14734589D01*
X3866852Y-14772684D01*
X3857328Y-14791732D01*
X3847804Y-14801255D01*
X3828757Y-14810779D01*
X3809709Y-14810779D01*
X3790661Y-14801255D01*
X3781137Y-14791732D01*
X3771614Y-14772684D01*
X3762090Y-14734589D01*
X3762090Y-14686970D01*
X3771614Y-14648875D01*
X3781137Y-14629827D01*
X3790661Y-14620303D01*
X3809709Y-14610779D01*
X3962090Y-14791732D02*
X3971614Y-14801255D01*
X3962090Y-14810779D01*
X3952566Y-14801255D01*
X3962090Y-14791732D01*
X3962090Y-14810779D01*
X4095423Y-14610779D02*
X4114471Y-14610779D01*
X4133518Y-14620303D01*
X4143042Y-14629827D01*
X4152566Y-14648875D01*
X4162090Y-14686970D01*
X4162090Y-14734589D01*
X4152566Y-14772684D01*
X4143042Y-14791732D01*
X4133518Y-14801255D01*
X4114471Y-14810779D01*
X4095423Y-14810779D01*
X4076376Y-14801255D01*
X4066852Y-14791732D01*
X4057328Y-14772684D01*
X4047804Y-14734589D01*
X4047804Y-14686970D01*
X4057328Y-14648875D01*
X4066852Y-14629827D01*
X4076376Y-14620303D01*
X4095423Y-14610779D01*
X4228757Y-14610779D02*
X4352566Y-14610779D01*
X4285899Y-14686970D01*
X4314471Y-14686970D01*
X4333519Y-14696494D01*
X4343042Y-14706017D01*
X4352566Y-14725065D01*
X4352566Y-14772684D01*
X4343042Y-14791732D01*
X4333519Y-14801255D01*
X4314471Y-14810779D01*
X4257328Y-14810779D01*
X4238280Y-14801255D01*
X4228757Y-14791732D01*
X4543042Y-14810779D02*
X4428757Y-14810779D01*
X4485899Y-14810779D02*
X4485899Y-14610779D01*
X4466852Y-14639351D01*
X4447804Y-14658398D01*
X4428757Y-14667922D01*
X4723995Y-14610779D02*
X4628757Y-14610779D01*
X4619233Y-14706017D01*
X4628757Y-14696494D01*
X4647804Y-14686970D01*
X4695423Y-14686970D01*
X4714471Y-14696494D01*
X4723995Y-14706017D01*
X4733519Y-14725065D01*
X4733519Y-14772684D01*
X4723995Y-14791732D01*
X4714471Y-14801255D01*
X4695423Y-14810779D01*
X4647804Y-14810779D01*
X4628757Y-14801255D01*
X4619233Y-14791732D01*
X4809709Y-14610779D02*
X4809709Y-14648875D01*
X4885899Y-14610779D02*
X4885899Y-14648875D01*
X5181138Y-14886970D02*
X5171614Y-14877446D01*
X5152566Y-14848875D01*
X5143042Y-14829827D01*
X5133519Y-14801255D01*
X5123995Y-14753636D01*
X5123995Y-14715541D01*
X5133519Y-14667922D01*
X5143042Y-14639351D01*
X5152566Y-14620303D01*
X5171614Y-14591732D01*
X5181138Y-14582208D01*
X5362090Y-14810779D02*
X5247804Y-14810779D01*
X5304947Y-14810779D02*
X5304947Y-14610779D01*
X5285899Y-14639351D01*
X5266852Y-14658398D01*
X5247804Y-14667922D01*
X5428757Y-14610779D02*
X5552566Y-14610779D01*
X5485899Y-14686970D01*
X5514471Y-14686970D01*
X5533519Y-14696494D01*
X5543042Y-14706017D01*
X5552566Y-14725065D01*
X5552566Y-14772684D01*
X5543042Y-14791732D01*
X5533519Y-14801255D01*
X5514471Y-14810779D01*
X5457328Y-14810779D01*
X5438280Y-14801255D01*
X5428757Y-14791732D01*
X5723995Y-14677446D02*
X5723995Y-14810779D01*
X5676376Y-14601255D02*
X5628757Y-14744113D01*
X5752566Y-14744113D01*
X5981137Y-14810779D02*
X5981137Y-14610779D01*
X6066852Y-14810779D02*
X6066852Y-14706017D01*
X6057328Y-14686970D01*
X6038280Y-14677446D01*
X6009709Y-14677446D01*
X5990661Y-14686970D01*
X5981137Y-14696494D01*
X6190661Y-14810779D02*
X6171614Y-14801255D01*
X6162090Y-14791732D01*
X6152566Y-14772684D01*
X6152566Y-14715541D01*
X6162090Y-14696494D01*
X6171614Y-14686970D01*
X6190661Y-14677446D01*
X6219233Y-14677446D01*
X6238280Y-14686970D01*
X6247804Y-14696494D01*
X6257328Y-14715541D01*
X6257328Y-14772684D01*
X6247804Y-14791732D01*
X6238280Y-14801255D01*
X6219233Y-14810779D01*
X6190661Y-14810779D01*
X6371614Y-14810779D02*
X6352566Y-14801255D01*
X6343042Y-14782208D01*
X6343042Y-14610779D01*
X6523995Y-14801255D02*
X6504947Y-14810779D01*
X6466852Y-14810779D01*
X6447804Y-14801255D01*
X6438280Y-14782208D01*
X6438280Y-14706017D01*
X6447804Y-14686970D01*
X6466852Y-14677446D01*
X6504947Y-14677446D01*
X6523995Y-14686970D01*
X6533518Y-14706017D01*
X6533518Y-14725065D01*
X6438280Y-14744113D01*
X6609709Y-14801255D02*
X6628757Y-14810779D01*
X6666852Y-14810779D01*
X6685899Y-14801255D01*
X6695423Y-14782208D01*
X6695423Y-14772684D01*
X6685899Y-14753636D01*
X6666852Y-14744113D01*
X6638280Y-14744113D01*
X6619233Y-14734589D01*
X6609709Y-14715541D01*
X6609709Y-14706017D01*
X6619233Y-14686970D01*
X6638280Y-14677446D01*
X6666852Y-14677446D01*
X6685899Y-14686970D01*
X6762090Y-14886970D02*
X6771614Y-14877446D01*
X6790661Y-14848875D01*
X6800185Y-14829827D01*
X6809709Y-14801255D01*
X6819233Y-14753636D01*
X6819233Y-14715541D01*
X6809709Y-14667922D01*
X6800185Y-14639351D01*
X6790661Y-14620303D01*
X6771614Y-14591732D01*
X6762090Y-14582208D01*
D10*
X1594588Y-15019659D02*
X1594588Y-14948947D01*
X1523877Y-14948947D01*
X1523877Y-15019659D01*
X1594588Y-15019659D01*
D11*
X1971614Y-15074779D02*
X1857328Y-15074779D01*
X1914471Y-15074779D02*
X1914471Y-14874779D01*
X1895423Y-14903351D01*
X1876376Y-14922398D01*
X1857328Y-14931922D01*
X2057328Y-15055732D02*
X2066852Y-15065255D01*
X2057328Y-15074779D01*
X2047804Y-15065255D01*
X2057328Y-15055732D01*
X2057328Y-15074779D01*
X2190661Y-14874779D02*
X2209709Y-14874779D01*
X2228757Y-14884303D01*
X2238280Y-14893827D01*
X2247804Y-14912875D01*
X2257328Y-14950970D01*
X2257328Y-14998589D01*
X2247804Y-15036684D01*
X2238280Y-15055732D01*
X2228757Y-15065255D01*
X2209709Y-15074779D01*
X2190661Y-15074779D01*
X2171614Y-15065255D01*
X2162090Y-15055732D01*
X2152566Y-15036684D01*
X2143042Y-14998589D01*
X2143042Y-14950970D01*
X2152566Y-14912875D01*
X2162090Y-14893827D01*
X2171614Y-14884303D01*
X2190661Y-14874779D01*
X2381138Y-14874779D02*
X2400185Y-14874779D01*
X2419233Y-14884303D01*
X2428757Y-14893827D01*
X2438280Y-14912875D01*
X2447804Y-14950970D01*
X2447804Y-14998589D01*
X2438280Y-15036684D01*
X2428757Y-15055732D01*
X2419233Y-15065255D01*
X2400185Y-15074779D01*
X2381138Y-15074779D01*
X2362090Y-15065255D01*
X2352566Y-15055732D01*
X2343042Y-15036684D01*
X2333519Y-14998589D01*
X2333519Y-14950970D01*
X2343042Y-14912875D01*
X2352566Y-14893827D01*
X2362090Y-14884303D01*
X2381138Y-14874779D01*
X2571614Y-14874779D02*
X2590661Y-14874779D01*
X2609709Y-14884303D01*
X2619233Y-14893827D01*
X2628757Y-14912875D01*
X2638280Y-14950970D01*
X2638280Y-14998589D01*
X2628757Y-15036684D01*
X2619233Y-15055732D01*
X2609709Y-15065255D01*
X2590661Y-15074779D01*
X2571614Y-15074779D01*
X2552566Y-15065255D01*
X2543042Y-15055732D01*
X2533519Y-15036684D01*
X2523995Y-14998589D01*
X2523995Y-14950970D01*
X2533519Y-14912875D01*
X2543042Y-14893827D01*
X2552566Y-14884303D01*
X2571614Y-14874779D01*
X2723995Y-15074779D02*
X2723995Y-14941446D01*
X2723995Y-14960494D02*
X2733519Y-14950970D01*
X2752566Y-14941446D01*
X2781138Y-14941446D01*
X2800185Y-14950970D01*
X2809709Y-14970017D01*
X2809709Y-15074779D01*
X2809709Y-14970017D02*
X2819233Y-14950970D01*
X2838280Y-14941446D01*
X2866852Y-14941446D01*
X2885899Y-14950970D01*
X2895423Y-14970017D01*
X2895423Y-15074779D01*
X2990661Y-15074779D02*
X2990661Y-14941446D01*
X2990661Y-14960494D02*
X3000185Y-14950970D01*
X3019233Y-14941446D01*
X3047804Y-14941446D01*
X3066852Y-14950970D01*
X3076376Y-14970017D01*
X3076376Y-15074779D01*
X3076376Y-14970017D02*
X3085899Y-14950970D01*
X3104947Y-14941446D01*
X3133518Y-14941446D01*
X3152566Y-14950970D01*
X3162090Y-14970017D01*
X3162090Y-15074779D01*
X3552566Y-14865255D02*
X3381137Y-15122398D01*
X3809709Y-14874779D02*
X3828757Y-14874779D01*
X3847804Y-14884303D01*
X3857328Y-14893827D01*
X3866852Y-14912875D01*
X3876376Y-14950970D01*
X3876376Y-14998589D01*
X3866852Y-15036684D01*
X3857328Y-15055732D01*
X3847804Y-15065255D01*
X3828757Y-15074779D01*
X3809709Y-15074779D01*
X3790661Y-15065255D01*
X3781137Y-15055732D01*
X3771614Y-15036684D01*
X3762090Y-14998589D01*
X3762090Y-14950970D01*
X3771614Y-14912875D01*
X3781137Y-14893827D01*
X3790661Y-14884303D01*
X3809709Y-14874779D01*
X3962090Y-15055732D02*
X3971614Y-15065255D01*
X3962090Y-15074779D01*
X3952566Y-15065255D01*
X3962090Y-15055732D01*
X3962090Y-15074779D01*
X4095423Y-14874779D02*
X4114471Y-14874779D01*
X4133518Y-14884303D01*
X4143042Y-14893827D01*
X4152566Y-14912875D01*
X4162090Y-14950970D01*
X4162090Y-14998589D01*
X4152566Y-15036684D01*
X4143042Y-15055732D01*
X4133518Y-15065255D01*
X4114471Y-15074779D01*
X4095423Y-15074779D01*
X4076376Y-15065255D01*
X4066852Y-15055732D01*
X4057328Y-15036684D01*
X4047804Y-14998589D01*
X4047804Y-14950970D01*
X4057328Y-14912875D01*
X4066852Y-14893827D01*
X4076376Y-14884303D01*
X4095423Y-14874779D01*
X4228757Y-14874779D02*
X4352566Y-14874779D01*
X4285899Y-14950970D01*
X4314471Y-14950970D01*
X4333519Y-14960494D01*
X4343042Y-14970017D01*
X4352566Y-14989065D01*
X4352566Y-15036684D01*
X4343042Y-15055732D01*
X4333519Y-15065255D01*
X4314471Y-15074779D01*
X4257328Y-15074779D01*
X4238280Y-15065255D01*
X4228757Y-15055732D01*
X4447804Y-15074779D02*
X4485899Y-15074779D01*
X4504947Y-15065255D01*
X4514471Y-15055732D01*
X4533519Y-15027160D01*
X4543042Y-14989065D01*
X4543042Y-14912875D01*
X4533519Y-14893827D01*
X4523995Y-14884303D01*
X4504947Y-14874779D01*
X4466852Y-14874779D01*
X4447804Y-14884303D01*
X4438280Y-14893827D01*
X4428757Y-14912875D01*
X4428757Y-14960494D01*
X4438280Y-14979541D01*
X4447804Y-14989065D01*
X4466852Y-14998589D01*
X4504947Y-14998589D01*
X4523995Y-14989065D01*
X4533519Y-14979541D01*
X4543042Y-14960494D01*
X4714471Y-14941446D02*
X4714471Y-15074779D01*
X4666852Y-14865255D02*
X4619233Y-15008113D01*
X4743042Y-15008113D01*
X4809709Y-14874779D02*
X4809709Y-14912875D01*
X4885899Y-14874779D02*
X4885899Y-14912875D01*
X5181138Y-15150970D02*
X5171614Y-15141446D01*
X5152566Y-15112875D01*
X5143042Y-15093827D01*
X5133519Y-15065255D01*
X5123995Y-15017636D01*
X5123995Y-14979541D01*
X5133519Y-14931922D01*
X5143042Y-14903351D01*
X5152566Y-14884303D01*
X5171614Y-14855732D01*
X5181138Y-14846208D01*
X5238280Y-14874779D02*
X5371614Y-14874779D01*
X5285899Y-15074779D01*
X5600185Y-15074779D02*
X5600185Y-14874779D01*
X5685899Y-15074779D02*
X5685899Y-14970017D01*
X5676376Y-14950970D01*
X5657328Y-14941446D01*
X5628757Y-14941446D01*
X5609709Y-14950970D01*
X5600185Y-14960494D01*
X5809709Y-15074779D02*
X5790661Y-15065255D01*
X5781137Y-15055732D01*
X5771614Y-15036684D01*
X5771614Y-14979541D01*
X5781137Y-14960494D01*
X5790661Y-14950970D01*
X5809709Y-14941446D01*
X5838280Y-14941446D01*
X5857328Y-14950970D01*
X5866852Y-14960494D01*
X5876376Y-14979541D01*
X5876376Y-15036684D01*
X5866852Y-15055732D01*
X5857328Y-15065255D01*
X5838280Y-15074779D01*
X5809709Y-15074779D01*
X5990661Y-15074779D02*
X5971614Y-15065255D01*
X5962090Y-15046208D01*
X5962090Y-14874779D01*
X6143042Y-15065255D02*
X6123995Y-15074779D01*
X6085899Y-15074779D01*
X6066852Y-15065255D01*
X6057328Y-15046208D01*
X6057328Y-14970017D01*
X6066852Y-14950970D01*
X6085899Y-14941446D01*
X6123995Y-14941446D01*
X6143042Y-14950970D01*
X6152566Y-14970017D01*
X6152566Y-14989065D01*
X6057328Y-15008113D01*
X6228757Y-15065255D02*
X6247804Y-15074779D01*
X6285899Y-15074779D01*
X6304947Y-15065255D01*
X6314471Y-15046208D01*
X6314471Y-15036684D01*
X6304947Y-15017636D01*
X6285899Y-15008113D01*
X6257328Y-15008113D01*
X6238280Y-14998589D01*
X6228757Y-14979541D01*
X6228757Y-14970017D01*
X6238280Y-14950970D01*
X6257328Y-14941446D01*
X6285899Y-14941446D01*
X6304947Y-14950970D01*
X6381137Y-15150970D02*
X6390661Y-15141446D01*
X6409709Y-15112875D01*
X6419233Y-15093827D01*
X6428757Y-15065255D01*
X6438280Y-15017636D01*
X6438280Y-14979541D01*
X6428757Y-14931922D01*
X6419233Y-14903351D01*
X6409709Y-14884303D01*
X6390661Y-14855732D01*
X6381137Y-14846208D01*
D15*
X1554233Y-15303303D02*
X1609233Y-15248303D01*
X1554233Y-15193303D01*
X1499233Y-15248303D01*
X1554233Y-15303303D01*
D11*
X1971614Y-15338779D02*
X1857328Y-15338779D01*
X1914471Y-15338779D02*
X1914471Y-15138779D01*
X1895423Y-15167351D01*
X1876376Y-15186398D01*
X1857328Y-15195922D01*
X2057328Y-15319732D02*
X2066852Y-15329255D01*
X2057328Y-15338779D01*
X2047804Y-15329255D01*
X2057328Y-15319732D01*
X2057328Y-15338779D01*
X2257328Y-15338779D02*
X2143042Y-15338779D01*
X2200185Y-15338779D02*
X2200185Y-15138779D01*
X2181138Y-15167351D01*
X2162090Y-15186398D01*
X2143042Y-15195922D01*
X2381138Y-15138779D02*
X2400185Y-15138779D01*
X2419233Y-15148303D01*
X2428757Y-15157827D01*
X2438280Y-15176875D01*
X2447804Y-15214970D01*
X2447804Y-15262589D01*
X2438280Y-15300684D01*
X2428757Y-15319732D01*
X2419233Y-15329255D01*
X2400185Y-15338779D01*
X2381138Y-15338779D01*
X2362090Y-15329255D01*
X2352566Y-15319732D01*
X2343042Y-15300684D01*
X2333519Y-15262589D01*
X2333519Y-15214970D01*
X2343042Y-15176875D01*
X2352566Y-15157827D01*
X2362090Y-15148303D01*
X2381138Y-15138779D01*
X2571614Y-15138779D02*
X2590661Y-15138779D01*
X2609709Y-15148303D01*
X2619233Y-15157827D01*
X2628757Y-15176875D01*
X2638280Y-15214970D01*
X2638280Y-15262589D01*
X2628757Y-15300684D01*
X2619233Y-15319732D01*
X2609709Y-15329255D01*
X2590661Y-15338779D01*
X2571614Y-15338779D01*
X2552566Y-15329255D01*
X2543042Y-15319732D01*
X2533519Y-15300684D01*
X2523995Y-15262589D01*
X2523995Y-15214970D01*
X2533519Y-15176875D01*
X2543042Y-15157827D01*
X2552566Y-15148303D01*
X2571614Y-15138779D01*
X2723995Y-15338779D02*
X2723995Y-15205446D01*
X2723995Y-15224494D02*
X2733519Y-15214970D01*
X2752566Y-15205446D01*
X2781138Y-15205446D01*
X2800185Y-15214970D01*
X2809709Y-15234017D01*
X2809709Y-15338779D01*
X2809709Y-15234017D02*
X2819233Y-15214970D01*
X2838280Y-15205446D01*
X2866852Y-15205446D01*
X2885899Y-15214970D01*
X2895423Y-15234017D01*
X2895423Y-15338779D01*
X2990661Y-15338779D02*
X2990661Y-15205446D01*
X2990661Y-15224494D02*
X3000185Y-15214970D01*
X3019233Y-15205446D01*
X3047804Y-15205446D01*
X3066852Y-15214970D01*
X3076376Y-15234017D01*
X3076376Y-15338779D01*
X3076376Y-15234017D02*
X3085899Y-15214970D01*
X3104947Y-15205446D01*
X3133518Y-15205446D01*
X3152566Y-15214970D01*
X3162090Y-15234017D01*
X3162090Y-15338779D01*
X3552566Y-15129255D02*
X3381137Y-15386398D01*
X3809709Y-15138779D02*
X3828757Y-15138779D01*
X3847804Y-15148303D01*
X3857328Y-15157827D01*
X3866852Y-15176875D01*
X3876376Y-15214970D01*
X3876376Y-15262589D01*
X3866852Y-15300684D01*
X3857328Y-15319732D01*
X3847804Y-15329255D01*
X3828757Y-15338779D01*
X3809709Y-15338779D01*
X3790661Y-15329255D01*
X3781137Y-15319732D01*
X3771614Y-15300684D01*
X3762090Y-15262589D01*
X3762090Y-15214970D01*
X3771614Y-15176875D01*
X3781137Y-15157827D01*
X3790661Y-15148303D01*
X3809709Y-15138779D01*
X3962090Y-15319732D02*
X3971614Y-15329255D01*
X3962090Y-15338779D01*
X3952566Y-15329255D01*
X3962090Y-15319732D01*
X3962090Y-15338779D01*
X4095423Y-15138779D02*
X4114471Y-15138779D01*
X4133518Y-15148303D01*
X4143042Y-15157827D01*
X4152566Y-15176875D01*
X4162090Y-15214970D01*
X4162090Y-15262589D01*
X4152566Y-15300684D01*
X4143042Y-15319732D01*
X4133518Y-15329255D01*
X4114471Y-15338779D01*
X4095423Y-15338779D01*
X4076376Y-15329255D01*
X4066852Y-15319732D01*
X4057328Y-15300684D01*
X4047804Y-15262589D01*
X4047804Y-15214970D01*
X4057328Y-15176875D01*
X4066852Y-15157827D01*
X4076376Y-15148303D01*
X4095423Y-15138779D01*
X4333519Y-15205446D02*
X4333519Y-15338779D01*
X4285899Y-15129255D02*
X4238280Y-15272113D01*
X4362090Y-15272113D01*
X4419233Y-15138779D02*
X4543042Y-15138779D01*
X4476376Y-15214970D01*
X4504947Y-15214970D01*
X4523995Y-15224494D01*
X4533519Y-15234017D01*
X4543042Y-15253065D01*
X4543042Y-15300684D01*
X4533519Y-15319732D01*
X4523995Y-15329255D01*
X4504947Y-15338779D01*
X4447804Y-15338779D01*
X4428757Y-15329255D01*
X4419233Y-15319732D01*
X4609709Y-15138779D02*
X4733519Y-15138779D01*
X4666852Y-15214970D01*
X4695423Y-15214970D01*
X4714471Y-15224494D01*
X4723995Y-15234017D01*
X4733519Y-15253065D01*
X4733519Y-15300684D01*
X4723995Y-15319732D01*
X4714471Y-15329255D01*
X4695423Y-15338779D01*
X4638280Y-15338779D01*
X4619233Y-15329255D01*
X4609709Y-15319732D01*
X4809709Y-15138779D02*
X4809709Y-15176875D01*
X4885899Y-15138779D02*
X4885899Y-15176875D01*
X5181138Y-15414970D02*
X5171614Y-15405446D01*
X5152566Y-15376875D01*
X5143042Y-15357827D01*
X5133519Y-15329255D01*
X5123995Y-15281636D01*
X5123995Y-15243541D01*
X5133519Y-15195922D01*
X5143042Y-15167351D01*
X5152566Y-15148303D01*
X5171614Y-15119732D01*
X5181138Y-15110208D01*
X5247804Y-15157827D02*
X5257328Y-15148303D01*
X5276376Y-15138779D01*
X5323995Y-15138779D01*
X5343042Y-15148303D01*
X5352566Y-15157827D01*
X5362090Y-15176875D01*
X5362090Y-15195922D01*
X5352566Y-15224494D01*
X5238280Y-15338779D01*
X5362090Y-15338779D01*
X5533519Y-15205446D02*
X5533519Y-15338779D01*
X5485899Y-15129255D02*
X5438280Y-15272113D01*
X5562090Y-15272113D01*
X5790661Y-15338779D02*
X5790661Y-15138779D01*
X5876376Y-15338779D02*
X5876376Y-15234017D01*
X5866852Y-15214970D01*
X5847804Y-15205446D01*
X5819233Y-15205446D01*
X5800185Y-15214970D01*
X5790661Y-15224494D01*
X6000185Y-15338779D02*
X5981137Y-15329255D01*
X5971614Y-15319732D01*
X5962090Y-15300684D01*
X5962090Y-15243541D01*
X5971614Y-15224494D01*
X5981137Y-15214970D01*
X6000185Y-15205446D01*
X6028757Y-15205446D01*
X6047804Y-15214970D01*
X6057328Y-15224494D01*
X6066852Y-15243541D01*
X6066852Y-15300684D01*
X6057328Y-15319732D01*
X6047804Y-15329255D01*
X6028757Y-15338779D01*
X6000185Y-15338779D01*
X6181137Y-15338779D02*
X6162090Y-15329255D01*
X6152566Y-15310208D01*
X6152566Y-15138779D01*
X6333518Y-15329255D02*
X6314471Y-15338779D01*
X6276376Y-15338779D01*
X6257328Y-15329255D01*
X6247804Y-15310208D01*
X6247804Y-15234017D01*
X6257328Y-15214970D01*
X6276376Y-15205446D01*
X6314471Y-15205446D01*
X6333518Y-15214970D01*
X6343042Y-15234017D01*
X6343042Y-15253065D01*
X6247804Y-15272113D01*
X6419233Y-15329255D02*
X6438280Y-15338779D01*
X6476376Y-15338779D01*
X6495423Y-15329255D01*
X6504947Y-15310208D01*
X6504947Y-15300684D01*
X6495423Y-15281636D01*
X6476376Y-15272113D01*
X6447804Y-15272113D01*
X6428757Y-15262589D01*
X6419233Y-15243541D01*
X6419233Y-15234017D01*
X6428757Y-15214970D01*
X6447804Y-15205446D01*
X6476376Y-15205446D01*
X6495423Y-15214970D01*
X6571614Y-15414970D02*
X6581137Y-15405446D01*
X6600185Y-15376875D01*
X6609709Y-15357827D01*
X6619233Y-15329255D01*
X6628757Y-15281636D01*
X6628757Y-15243541D01*
X6619233Y-15195922D01*
X6609709Y-15167351D01*
X6600185Y-15148303D01*
X6581137Y-15119732D01*
X6571614Y-15110208D01*
D16*
X1462233Y-15438803D02*
X1609233Y-15585803D01*
X1609233Y-15438803D02*
X1462233Y-15585803D01*
X1609233Y-15512303D02*
G75*
G03*
X1609233Y-15512303I-73500J0D01*
G01*
D11*
X1971614Y-15602779D02*
X1857328Y-15602779D01*
X1914471Y-15602779D02*
X1914471Y-15402779D01*
X1895423Y-15431351D01*
X1876376Y-15450398D01*
X1857328Y-15459922D01*
X2057328Y-15583732D02*
X2066852Y-15593255D01*
X2057328Y-15602779D01*
X2047804Y-15593255D01*
X2057328Y-15583732D01*
X2057328Y-15602779D01*
X2238280Y-15469446D02*
X2238280Y-15602779D01*
X2190661Y-15393255D02*
X2143042Y-15536113D01*
X2266852Y-15536113D01*
X2323995Y-15402779D02*
X2457328Y-15402779D01*
X2371614Y-15602779D01*
X2571614Y-15402779D02*
X2590661Y-15402779D01*
X2609709Y-15412303D01*
X2619233Y-15421827D01*
X2628757Y-15440875D01*
X2638280Y-15478970D01*
X2638280Y-15526589D01*
X2628757Y-15564684D01*
X2619233Y-15583732D01*
X2609709Y-15593255D01*
X2590661Y-15602779D01*
X2571614Y-15602779D01*
X2552566Y-15593255D01*
X2543042Y-15583732D01*
X2533519Y-15564684D01*
X2523995Y-15526589D01*
X2523995Y-15478970D01*
X2533519Y-15440875D01*
X2543042Y-15421827D01*
X2552566Y-15412303D01*
X2571614Y-15402779D01*
X2723995Y-15602779D02*
X2723995Y-15469446D01*
X2723995Y-15488494D02*
X2733519Y-15478970D01*
X2752566Y-15469446D01*
X2781138Y-15469446D01*
X2800185Y-15478970D01*
X2809709Y-15498017D01*
X2809709Y-15602779D01*
X2809709Y-15498017D02*
X2819233Y-15478970D01*
X2838280Y-15469446D01*
X2866852Y-15469446D01*
X2885899Y-15478970D01*
X2895423Y-15498017D01*
X2895423Y-15602779D01*
X2990661Y-15602779D02*
X2990661Y-15469446D01*
X2990661Y-15488494D02*
X3000185Y-15478970D01*
X3019233Y-15469446D01*
X3047804Y-15469446D01*
X3066852Y-15478970D01*
X3076376Y-15498017D01*
X3076376Y-15602779D01*
X3076376Y-15498017D02*
X3085899Y-15478970D01*
X3104947Y-15469446D01*
X3133518Y-15469446D01*
X3152566Y-15478970D01*
X3162090Y-15498017D01*
X3162090Y-15602779D01*
X3552566Y-15393255D02*
X3381137Y-15650398D01*
X3809709Y-15402779D02*
X3828757Y-15402779D01*
X3847804Y-15412303D01*
X3857328Y-15421827D01*
X3866852Y-15440875D01*
X3876376Y-15478970D01*
X3876376Y-15526589D01*
X3866852Y-15564684D01*
X3857328Y-15583732D01*
X3847804Y-15593255D01*
X3828757Y-15602779D01*
X3809709Y-15602779D01*
X3790661Y-15593255D01*
X3781137Y-15583732D01*
X3771614Y-15564684D01*
X3762090Y-15526589D01*
X3762090Y-15478970D01*
X3771614Y-15440875D01*
X3781137Y-15421827D01*
X3790661Y-15412303D01*
X3809709Y-15402779D01*
X3962090Y-15583732D02*
X3971614Y-15593255D01*
X3962090Y-15602779D01*
X3952566Y-15593255D01*
X3962090Y-15583732D01*
X3962090Y-15602779D01*
X4095423Y-15402779D02*
X4114471Y-15402779D01*
X4133518Y-15412303D01*
X4143042Y-15421827D01*
X4152566Y-15440875D01*
X4162090Y-15478970D01*
X4162090Y-15526589D01*
X4152566Y-15564684D01*
X4143042Y-15583732D01*
X4133518Y-15593255D01*
X4114471Y-15602779D01*
X4095423Y-15602779D01*
X4076376Y-15593255D01*
X4066852Y-15583732D01*
X4057328Y-15564684D01*
X4047804Y-15526589D01*
X4047804Y-15478970D01*
X4057328Y-15440875D01*
X4066852Y-15421827D01*
X4076376Y-15412303D01*
X4095423Y-15402779D01*
X4343042Y-15402779D02*
X4247804Y-15402779D01*
X4238280Y-15498017D01*
X4247804Y-15488494D01*
X4266852Y-15478970D01*
X4314471Y-15478970D01*
X4333519Y-15488494D01*
X4343042Y-15498017D01*
X4352566Y-15517065D01*
X4352566Y-15564684D01*
X4343042Y-15583732D01*
X4333519Y-15593255D01*
X4314471Y-15602779D01*
X4266852Y-15602779D01*
X4247804Y-15593255D01*
X4238280Y-15583732D01*
X4419233Y-15402779D02*
X4552566Y-15402779D01*
X4466852Y-15602779D01*
X4638280Y-15602779D02*
X4676376Y-15602779D01*
X4695423Y-15593255D01*
X4704947Y-15583732D01*
X4723995Y-15555160D01*
X4733519Y-15517065D01*
X4733519Y-15440875D01*
X4723995Y-15421827D01*
X4714471Y-15412303D01*
X4695423Y-15402779D01*
X4657328Y-15402779D01*
X4638280Y-15412303D01*
X4628757Y-15421827D01*
X4619233Y-15440875D01*
X4619233Y-15488494D01*
X4628757Y-15507541D01*
X4638280Y-15517065D01*
X4657328Y-15526589D01*
X4695423Y-15526589D01*
X4714471Y-15517065D01*
X4723995Y-15507541D01*
X4733519Y-15488494D01*
X4809709Y-15402779D02*
X4809709Y-15440875D01*
X4885899Y-15402779D02*
X4885899Y-15440875D01*
X5181138Y-15678970D02*
X5171614Y-15669446D01*
X5152566Y-15640875D01*
X5143042Y-15621827D01*
X5133519Y-15593255D01*
X5123995Y-15545636D01*
X5123995Y-15507541D01*
X5133519Y-15459922D01*
X5143042Y-15431351D01*
X5152566Y-15412303D01*
X5171614Y-15383732D01*
X5181138Y-15374208D01*
X5362090Y-15602779D02*
X5247804Y-15602779D01*
X5304947Y-15602779D02*
X5304947Y-15402779D01*
X5285899Y-15431351D01*
X5266852Y-15450398D01*
X5247804Y-15459922D01*
X5428757Y-15402779D02*
X5552566Y-15402779D01*
X5485899Y-15478970D01*
X5514471Y-15478970D01*
X5533519Y-15488494D01*
X5543042Y-15498017D01*
X5552566Y-15517065D01*
X5552566Y-15564684D01*
X5543042Y-15583732D01*
X5533519Y-15593255D01*
X5514471Y-15602779D01*
X5457328Y-15602779D01*
X5438280Y-15593255D01*
X5428757Y-15583732D01*
X5723995Y-15469446D02*
X5723995Y-15602779D01*
X5676376Y-15393255D02*
X5628757Y-15536113D01*
X5752566Y-15536113D01*
X5981137Y-15602779D02*
X5981137Y-15402779D01*
X6066852Y-15602779D02*
X6066852Y-15498017D01*
X6057328Y-15478970D01*
X6038280Y-15469446D01*
X6009709Y-15469446D01*
X5990661Y-15478970D01*
X5981137Y-15488494D01*
X6190661Y-15602779D02*
X6171614Y-15593255D01*
X6162090Y-15583732D01*
X6152566Y-15564684D01*
X6152566Y-15507541D01*
X6162090Y-15488494D01*
X6171614Y-15478970D01*
X6190661Y-15469446D01*
X6219233Y-15469446D01*
X6238280Y-15478970D01*
X6247804Y-15488494D01*
X6257328Y-15507541D01*
X6257328Y-15564684D01*
X6247804Y-15583732D01*
X6238280Y-15593255D01*
X6219233Y-15602779D01*
X6190661Y-15602779D01*
X6371614Y-15602779D02*
X6352566Y-15593255D01*
X6343042Y-15574208D01*
X6343042Y-15402779D01*
X6523995Y-15593255D02*
X6504947Y-15602779D01*
X6466852Y-15602779D01*
X6447804Y-15593255D01*
X6438280Y-15574208D01*
X6438280Y-15498017D01*
X6447804Y-15478970D01*
X6466852Y-15469446D01*
X6504947Y-15469446D01*
X6523995Y-15478970D01*
X6533518Y-15498017D01*
X6533518Y-15517065D01*
X6438280Y-15536113D01*
X6609709Y-15593255D02*
X6628757Y-15602779D01*
X6666852Y-15602779D01*
X6685899Y-15593255D01*
X6695423Y-15574208D01*
X6695423Y-15564684D01*
X6685899Y-15545636D01*
X6666852Y-15536113D01*
X6638280Y-15536113D01*
X6619233Y-15526589D01*
X6609709Y-15507541D01*
X6609709Y-15498017D01*
X6619233Y-15478970D01*
X6638280Y-15469446D01*
X6666852Y-15469446D01*
X6685899Y-15478970D01*
X6762090Y-15678970D02*
X6771614Y-15669446D01*
X6790661Y-15640875D01*
X6800185Y-15621827D01*
X6809709Y-15593255D01*
X6819233Y-15545636D01*
X6819233Y-15507541D01*
X6809709Y-15459922D01*
X6800185Y-15431351D01*
X6790661Y-15412303D01*
X6771614Y-15383732D01*
X6762090Y-15374208D01*
D17*
X1459233Y-15704303D02*
X1609233Y-15854303D01*
X1609233Y-15704303D02*
X1459233Y-15854303D01*
X1534233Y-15704303D02*
X1534233Y-15854303D01*
X1459233Y-15779303D02*
X1609233Y-15779303D01*
D11*
X1971614Y-15869779D02*
X1857328Y-15869779D01*
X1914471Y-15869779D02*
X1914471Y-15669779D01*
X1895423Y-15698351D01*
X1876376Y-15717398D01*
X1857328Y-15726922D01*
X2057328Y-15850732D02*
X2066852Y-15860255D01*
X2057328Y-15869779D01*
X2047804Y-15860255D01*
X2057328Y-15850732D01*
X2057328Y-15869779D01*
X2247804Y-15669779D02*
X2152566Y-15669779D01*
X2143042Y-15765017D01*
X2152566Y-15755494D01*
X2171614Y-15745970D01*
X2219233Y-15745970D01*
X2238280Y-15755494D01*
X2247804Y-15765017D01*
X2257328Y-15784065D01*
X2257328Y-15831684D01*
X2247804Y-15850732D01*
X2238280Y-15860255D01*
X2219233Y-15869779D01*
X2171614Y-15869779D01*
X2152566Y-15860255D01*
X2143042Y-15850732D01*
X2381138Y-15669779D02*
X2400185Y-15669779D01*
X2419233Y-15679303D01*
X2428757Y-15688827D01*
X2438280Y-15707875D01*
X2447804Y-15745970D01*
X2447804Y-15793589D01*
X2438280Y-15831684D01*
X2428757Y-15850732D01*
X2419233Y-15860255D01*
X2400185Y-15869779D01*
X2381138Y-15869779D01*
X2362090Y-15860255D01*
X2352566Y-15850732D01*
X2343042Y-15831684D01*
X2333519Y-15793589D01*
X2333519Y-15745970D01*
X2343042Y-15707875D01*
X2352566Y-15688827D01*
X2362090Y-15679303D01*
X2381138Y-15669779D01*
X2571614Y-15669779D02*
X2590661Y-15669779D01*
X2609709Y-15679303D01*
X2619233Y-15688827D01*
X2628757Y-15707875D01*
X2638280Y-15745970D01*
X2638280Y-15793589D01*
X2628757Y-15831684D01*
X2619233Y-15850732D01*
X2609709Y-15860255D01*
X2590661Y-15869779D01*
X2571614Y-15869779D01*
X2552566Y-15860255D01*
X2543042Y-15850732D01*
X2533519Y-15831684D01*
X2523995Y-15793589D01*
X2523995Y-15745970D01*
X2533519Y-15707875D01*
X2543042Y-15688827D01*
X2552566Y-15679303D01*
X2571614Y-15669779D01*
X2723995Y-15869779D02*
X2723995Y-15736446D01*
X2723995Y-15755494D02*
X2733519Y-15745970D01*
X2752566Y-15736446D01*
X2781138Y-15736446D01*
X2800185Y-15745970D01*
X2809709Y-15765017D01*
X2809709Y-15869779D01*
X2809709Y-15765017D02*
X2819233Y-15745970D01*
X2838280Y-15736446D01*
X2866852Y-15736446D01*
X2885899Y-15745970D01*
X2895423Y-15765017D01*
X2895423Y-15869779D01*
X2990661Y-15869779D02*
X2990661Y-15736446D01*
X2990661Y-15755494D02*
X3000185Y-15745970D01*
X3019233Y-15736446D01*
X3047804Y-15736446D01*
X3066852Y-15745970D01*
X3076376Y-15765017D01*
X3076376Y-15869779D01*
X3076376Y-15765017D02*
X3085899Y-15745970D01*
X3104947Y-15736446D01*
X3133518Y-15736446D01*
X3152566Y-15745970D01*
X3162090Y-15765017D01*
X3162090Y-15869779D01*
X3552566Y-15660255D02*
X3381137Y-15917398D01*
X3809709Y-15669779D02*
X3828757Y-15669779D01*
X3847804Y-15679303D01*
X3857328Y-15688827D01*
X3866852Y-15707875D01*
X3876376Y-15745970D01*
X3876376Y-15793589D01*
X3866852Y-15831684D01*
X3857328Y-15850732D01*
X3847804Y-15860255D01*
X3828757Y-15869779D01*
X3809709Y-15869779D01*
X3790661Y-15860255D01*
X3781137Y-15850732D01*
X3771614Y-15831684D01*
X3762090Y-15793589D01*
X3762090Y-15745970D01*
X3771614Y-15707875D01*
X3781137Y-15688827D01*
X3790661Y-15679303D01*
X3809709Y-15669779D01*
X3962090Y-15850732D02*
X3971614Y-15860255D01*
X3962090Y-15869779D01*
X3952566Y-15860255D01*
X3962090Y-15850732D01*
X3962090Y-15869779D01*
X4095423Y-15669779D02*
X4114471Y-15669779D01*
X4133518Y-15679303D01*
X4143042Y-15688827D01*
X4152566Y-15707875D01*
X4162090Y-15745970D01*
X4162090Y-15793589D01*
X4152566Y-15831684D01*
X4143042Y-15850732D01*
X4133518Y-15860255D01*
X4114471Y-15869779D01*
X4095423Y-15869779D01*
X4076376Y-15860255D01*
X4066852Y-15850732D01*
X4057328Y-15831684D01*
X4047804Y-15793589D01*
X4047804Y-15745970D01*
X4057328Y-15707875D01*
X4066852Y-15688827D01*
X4076376Y-15679303D01*
X4095423Y-15669779D01*
X4343042Y-15669779D02*
X4247804Y-15669779D01*
X4238280Y-15765017D01*
X4247804Y-15755494D01*
X4266852Y-15745970D01*
X4314471Y-15745970D01*
X4333519Y-15755494D01*
X4343042Y-15765017D01*
X4352566Y-15784065D01*
X4352566Y-15831684D01*
X4343042Y-15850732D01*
X4333519Y-15860255D01*
X4314471Y-15869779D01*
X4266852Y-15869779D01*
X4247804Y-15860255D01*
X4238280Y-15850732D01*
X4447804Y-15869779D02*
X4485899Y-15869779D01*
X4504947Y-15860255D01*
X4514471Y-15850732D01*
X4533519Y-15822160D01*
X4543042Y-15784065D01*
X4543042Y-15707875D01*
X4533519Y-15688827D01*
X4523995Y-15679303D01*
X4504947Y-15669779D01*
X4466852Y-15669779D01*
X4447804Y-15679303D01*
X4438280Y-15688827D01*
X4428757Y-15707875D01*
X4428757Y-15755494D01*
X4438280Y-15774541D01*
X4447804Y-15784065D01*
X4466852Y-15793589D01*
X4504947Y-15793589D01*
X4523995Y-15784065D01*
X4533519Y-15774541D01*
X4543042Y-15755494D01*
X4733519Y-15869779D02*
X4619233Y-15869779D01*
X4676376Y-15869779D02*
X4676376Y-15669779D01*
X4657328Y-15698351D01*
X4638280Y-15717398D01*
X4619233Y-15726922D01*
X4809709Y-15669779D02*
X4809709Y-15707875D01*
X4885899Y-15669779D02*
X4885899Y-15707875D01*
X5181138Y-15945970D02*
X5171614Y-15936446D01*
X5152566Y-15907875D01*
X5143042Y-15888827D01*
X5133519Y-15860255D01*
X5123995Y-15812636D01*
X5123995Y-15774541D01*
X5133519Y-15726922D01*
X5143042Y-15698351D01*
X5152566Y-15679303D01*
X5171614Y-15650732D01*
X5181138Y-15641208D01*
X5295423Y-15669779D02*
X5314471Y-15669779D01*
X5333519Y-15679303D01*
X5343042Y-15688827D01*
X5352566Y-15707875D01*
X5362090Y-15745970D01*
X5362090Y-15793589D01*
X5352566Y-15831684D01*
X5343042Y-15850732D01*
X5333519Y-15860255D01*
X5314471Y-15869779D01*
X5295423Y-15869779D01*
X5276376Y-15860255D01*
X5266852Y-15850732D01*
X5257328Y-15831684D01*
X5247804Y-15793589D01*
X5247804Y-15745970D01*
X5257328Y-15707875D01*
X5266852Y-15688827D01*
X5276376Y-15679303D01*
X5295423Y-15669779D01*
X5600185Y-15869779D02*
X5600185Y-15669779D01*
X5685899Y-15869779D02*
X5685899Y-15765017D01*
X5676376Y-15745970D01*
X5657328Y-15736446D01*
X5628757Y-15736446D01*
X5609709Y-15745970D01*
X5600185Y-15755494D01*
X5809709Y-15869779D02*
X5790661Y-15860255D01*
X5781137Y-15850732D01*
X5771614Y-15831684D01*
X5771614Y-15774541D01*
X5781137Y-15755494D01*
X5790661Y-15745970D01*
X5809709Y-15736446D01*
X5838280Y-15736446D01*
X5857328Y-15745970D01*
X5866852Y-15755494D01*
X5876376Y-15774541D01*
X5876376Y-15831684D01*
X5866852Y-15850732D01*
X5857328Y-15860255D01*
X5838280Y-15869779D01*
X5809709Y-15869779D01*
X5990661Y-15869779D02*
X5971614Y-15860255D01*
X5962090Y-15841208D01*
X5962090Y-15669779D01*
X6143042Y-15860255D02*
X6123995Y-15869779D01*
X6085899Y-15869779D01*
X6066852Y-15860255D01*
X6057328Y-15841208D01*
X6057328Y-15765017D01*
X6066852Y-15745970D01*
X6085899Y-15736446D01*
X6123995Y-15736446D01*
X6143042Y-15745970D01*
X6152566Y-15765017D01*
X6152566Y-15784065D01*
X6057328Y-15803113D01*
X6228757Y-15860255D02*
X6247804Y-15869779D01*
X6285899Y-15869779D01*
X6304947Y-15860255D01*
X6314471Y-15841208D01*
X6314471Y-15831684D01*
X6304947Y-15812636D01*
X6285899Y-15803113D01*
X6257328Y-15803113D01*
X6238280Y-15793589D01*
X6228757Y-15774541D01*
X6228757Y-15765017D01*
X6238280Y-15745970D01*
X6257328Y-15736446D01*
X6285899Y-15736446D01*
X6304947Y-15745970D01*
X6552566Y-15793589D02*
X6704947Y-15793589D01*
X6628757Y-15869779D02*
X6628757Y-15717398D01*
X6943042Y-15688827D02*
X6952566Y-15679303D01*
X6971614Y-15669779D01*
X7019233Y-15669779D01*
X7038280Y-15679303D01*
X7047804Y-15688827D01*
X7057328Y-15707875D01*
X7057328Y-15726922D01*
X7047804Y-15755494D01*
X6933518Y-15869779D01*
X7057328Y-15869779D01*
X7285899Y-15860255D02*
X7304947Y-15869779D01*
X7343042Y-15869779D01*
X7362090Y-15860255D01*
X7371614Y-15841208D01*
X7371614Y-15831684D01*
X7362090Y-15812636D01*
X7343042Y-15803113D01*
X7314471Y-15803113D01*
X7295423Y-15793589D01*
X7285899Y-15774541D01*
X7285899Y-15765017D01*
X7295423Y-15745970D01*
X7314471Y-15736446D01*
X7343042Y-15736446D01*
X7362090Y-15745970D01*
X7485899Y-15869779D02*
X7466852Y-15860255D01*
X7457328Y-15841208D01*
X7457328Y-15669779D01*
X7590661Y-15869779D02*
X7571614Y-15860255D01*
X7562090Y-15850732D01*
X7552566Y-15831684D01*
X7552566Y-15774541D01*
X7562090Y-15755494D01*
X7571614Y-15745970D01*
X7590661Y-15736446D01*
X7619233Y-15736446D01*
X7638280Y-15745970D01*
X7647804Y-15755494D01*
X7657328Y-15774541D01*
X7657328Y-15831684D01*
X7647804Y-15850732D01*
X7638280Y-15860255D01*
X7619233Y-15869779D01*
X7590661Y-15869779D01*
X7714471Y-15736446D02*
X7790661Y-15736446D01*
X7743042Y-15669779D02*
X7743042Y-15841208D01*
X7752566Y-15860255D01*
X7771614Y-15869779D01*
X7790661Y-15869779D01*
X7847804Y-15860255D02*
X7866852Y-15869779D01*
X7904947Y-15869779D01*
X7923995Y-15860255D01*
X7933518Y-15841208D01*
X7933518Y-15831684D01*
X7923995Y-15812636D01*
X7904947Y-15803113D01*
X7876376Y-15803113D01*
X7857328Y-15793589D01*
X7847804Y-15774541D01*
X7847804Y-15765017D01*
X7857328Y-15745970D01*
X7876376Y-15736446D01*
X7904947Y-15736446D01*
X7923995Y-15745970D01*
X8000185Y-15945970D02*
X8009709Y-15936446D01*
X8028757Y-15907875D01*
X8038280Y-15888827D01*
X8047804Y-15860255D01*
X8057328Y-15812636D01*
X8057328Y-15774541D01*
X8047804Y-15726922D01*
X8038280Y-15698351D01*
X8028757Y-15679303D01*
X8009709Y-15650732D01*
X8000185Y-15641208D01*
D18*
X1434233Y-15961803D02*
X1609233Y-16136803D01*
X1609233Y-15961803D02*
X1434233Y-16136803D01*
X1583605Y-16111176D02*
X1583605Y-15987431D01*
X1459860Y-15987431D01*
X1459860Y-16111176D01*
X1583605Y-16111176D01*
D11*
X1971614Y-16139779D02*
X1857328Y-16139779D01*
X1914471Y-16139779D02*
X1914471Y-15939779D01*
X1895423Y-15968351D01*
X1876376Y-15987398D01*
X1857328Y-15996922D01*
X2057328Y-16120732D02*
X2066852Y-16130255D01*
X2057328Y-16139779D01*
X2047804Y-16130255D01*
X2057328Y-16120732D01*
X2057328Y-16139779D01*
X2133519Y-15939779D02*
X2266852Y-15939779D01*
X2181138Y-16139779D01*
X2438280Y-15939779D02*
X2343042Y-15939779D01*
X2333519Y-16035017D01*
X2343042Y-16025494D01*
X2362090Y-16015970D01*
X2409709Y-16015970D01*
X2428757Y-16025494D01*
X2438280Y-16035017D01*
X2447804Y-16054065D01*
X2447804Y-16101684D01*
X2438280Y-16120732D01*
X2428757Y-16130255D01*
X2409709Y-16139779D01*
X2362090Y-16139779D01*
X2343042Y-16130255D01*
X2333519Y-16120732D01*
X2571614Y-15939779D02*
X2590661Y-15939779D01*
X2609709Y-15949303D01*
X2619233Y-15958827D01*
X2628757Y-15977875D01*
X2638280Y-16015970D01*
X2638280Y-16063589D01*
X2628757Y-16101684D01*
X2619233Y-16120732D01*
X2609709Y-16130255D01*
X2590661Y-16139779D01*
X2571614Y-16139779D01*
X2552566Y-16130255D01*
X2543042Y-16120732D01*
X2533519Y-16101684D01*
X2523995Y-16063589D01*
X2523995Y-16015970D01*
X2533519Y-15977875D01*
X2543042Y-15958827D01*
X2552566Y-15949303D01*
X2571614Y-15939779D01*
X2723995Y-16139779D02*
X2723995Y-16006446D01*
X2723995Y-16025494D02*
X2733519Y-16015970D01*
X2752566Y-16006446D01*
X2781138Y-16006446D01*
X2800185Y-16015970D01*
X2809709Y-16035017D01*
X2809709Y-16139779D01*
X2809709Y-16035017D02*
X2819233Y-16015970D01*
X2838280Y-16006446D01*
X2866852Y-16006446D01*
X2885899Y-16015970D01*
X2895423Y-16035017D01*
X2895423Y-16139779D01*
X2990661Y-16139779D02*
X2990661Y-16006446D01*
X2990661Y-16025494D02*
X3000185Y-16015970D01*
X3019233Y-16006446D01*
X3047804Y-16006446D01*
X3066852Y-16015970D01*
X3076376Y-16035017D01*
X3076376Y-16139779D01*
X3076376Y-16035017D02*
X3085899Y-16015970D01*
X3104947Y-16006446D01*
X3133518Y-16006446D01*
X3152566Y-16015970D01*
X3162090Y-16035017D01*
X3162090Y-16139779D01*
X3552566Y-15930255D02*
X3381137Y-16187398D01*
X3809709Y-15939779D02*
X3828757Y-15939779D01*
X3847804Y-15949303D01*
X3857328Y-15958827D01*
X3866852Y-15977875D01*
X3876376Y-16015970D01*
X3876376Y-16063589D01*
X3866852Y-16101684D01*
X3857328Y-16120732D01*
X3847804Y-16130255D01*
X3828757Y-16139779D01*
X3809709Y-16139779D01*
X3790661Y-16130255D01*
X3781137Y-16120732D01*
X3771614Y-16101684D01*
X3762090Y-16063589D01*
X3762090Y-16015970D01*
X3771614Y-15977875D01*
X3781137Y-15958827D01*
X3790661Y-15949303D01*
X3809709Y-15939779D01*
X3962090Y-16120732D02*
X3971614Y-16130255D01*
X3962090Y-16139779D01*
X3952566Y-16130255D01*
X3962090Y-16120732D01*
X3962090Y-16139779D01*
X4095423Y-15939779D02*
X4114471Y-15939779D01*
X4133518Y-15949303D01*
X4143042Y-15958827D01*
X4152566Y-15977875D01*
X4162090Y-16015970D01*
X4162090Y-16063589D01*
X4152566Y-16101684D01*
X4143042Y-16120732D01*
X4133518Y-16130255D01*
X4114471Y-16139779D01*
X4095423Y-16139779D01*
X4076376Y-16130255D01*
X4066852Y-16120732D01*
X4057328Y-16101684D01*
X4047804Y-16063589D01*
X4047804Y-16015970D01*
X4057328Y-15977875D01*
X4066852Y-15958827D01*
X4076376Y-15949303D01*
X4095423Y-15939779D01*
X4333519Y-15939779D02*
X4295423Y-15939779D01*
X4276376Y-15949303D01*
X4266852Y-15958827D01*
X4247804Y-15987398D01*
X4238280Y-16025494D01*
X4238280Y-16101684D01*
X4247804Y-16120732D01*
X4257328Y-16130255D01*
X4276376Y-16139779D01*
X4314471Y-16139779D01*
X4333519Y-16130255D01*
X4343042Y-16120732D01*
X4352566Y-16101684D01*
X4352566Y-16054065D01*
X4343042Y-16035017D01*
X4333519Y-16025494D01*
X4314471Y-16015970D01*
X4276376Y-16015970D01*
X4257328Y-16025494D01*
X4247804Y-16035017D01*
X4238280Y-16054065D01*
X4466852Y-16025494D02*
X4447804Y-16015970D01*
X4438280Y-16006446D01*
X4428757Y-15987398D01*
X4428757Y-15977875D01*
X4438280Y-15958827D01*
X4447804Y-15949303D01*
X4466852Y-15939779D01*
X4504947Y-15939779D01*
X4523995Y-15949303D01*
X4533519Y-15958827D01*
X4543042Y-15977875D01*
X4543042Y-15987398D01*
X4533519Y-16006446D01*
X4523995Y-16015970D01*
X4504947Y-16025494D01*
X4466852Y-16025494D01*
X4447804Y-16035017D01*
X4438280Y-16044541D01*
X4428757Y-16063589D01*
X4428757Y-16101684D01*
X4438280Y-16120732D01*
X4447804Y-16130255D01*
X4466852Y-16139779D01*
X4504947Y-16139779D01*
X4523995Y-16130255D01*
X4533519Y-16120732D01*
X4543042Y-16101684D01*
X4543042Y-16063589D01*
X4533519Y-16044541D01*
X4523995Y-16035017D01*
X4504947Y-16025494D01*
X4638280Y-16139779D02*
X4676376Y-16139779D01*
X4695423Y-16130255D01*
X4704947Y-16120732D01*
X4723995Y-16092160D01*
X4733519Y-16054065D01*
X4733519Y-15977875D01*
X4723995Y-15958827D01*
X4714471Y-15949303D01*
X4695423Y-15939779D01*
X4657328Y-15939779D01*
X4638280Y-15949303D01*
X4628757Y-15958827D01*
X4619233Y-15977875D01*
X4619233Y-16025494D01*
X4628757Y-16044541D01*
X4638280Y-16054065D01*
X4657328Y-16063589D01*
X4695423Y-16063589D01*
X4714471Y-16054065D01*
X4723995Y-16044541D01*
X4733519Y-16025494D01*
X4809709Y-15939779D02*
X4809709Y-15977875D01*
X4885899Y-15939779D02*
X4885899Y-15977875D01*
X5181138Y-16215970D02*
X5171614Y-16206446D01*
X5152566Y-16177875D01*
X5143042Y-16158827D01*
X5133519Y-16130255D01*
X5123995Y-16082636D01*
X5123995Y-16044541D01*
X5133519Y-15996922D01*
X5143042Y-15968351D01*
X5152566Y-15949303D01*
X5171614Y-15920732D01*
X5181138Y-15911208D01*
X5362090Y-16139779D02*
X5247804Y-16139779D01*
X5304947Y-16139779D02*
X5304947Y-15939779D01*
X5285899Y-15968351D01*
X5266852Y-15987398D01*
X5247804Y-15996922D01*
X5428757Y-15939779D02*
X5552566Y-15939779D01*
X5485899Y-16015970D01*
X5514471Y-16015970D01*
X5533519Y-16025494D01*
X5543042Y-16035017D01*
X5552566Y-16054065D01*
X5552566Y-16101684D01*
X5543042Y-16120732D01*
X5533519Y-16130255D01*
X5514471Y-16139779D01*
X5457328Y-16139779D01*
X5438280Y-16130255D01*
X5428757Y-16120732D01*
X5723995Y-16006446D02*
X5723995Y-16139779D01*
X5676376Y-15930255D02*
X5628757Y-16073113D01*
X5752566Y-16073113D01*
X5981137Y-16139779D02*
X5981137Y-15939779D01*
X6066852Y-16139779D02*
X6066852Y-16035017D01*
X6057328Y-16015970D01*
X6038280Y-16006446D01*
X6009709Y-16006446D01*
X5990661Y-16015970D01*
X5981137Y-16025494D01*
X6190661Y-16139779D02*
X6171614Y-16130255D01*
X6162090Y-16120732D01*
X6152566Y-16101684D01*
X6152566Y-16044541D01*
X6162090Y-16025494D01*
X6171614Y-16015970D01*
X6190661Y-16006446D01*
X6219233Y-16006446D01*
X6238280Y-16015970D01*
X6247804Y-16025494D01*
X6257328Y-16044541D01*
X6257328Y-16101684D01*
X6247804Y-16120732D01*
X6238280Y-16130255D01*
X6219233Y-16139779D01*
X6190661Y-16139779D01*
X6371614Y-16139779D02*
X6352566Y-16130255D01*
X6343042Y-16111208D01*
X6343042Y-15939779D01*
X6523995Y-16130255D02*
X6504947Y-16139779D01*
X6466852Y-16139779D01*
X6447804Y-16130255D01*
X6438280Y-16111208D01*
X6438280Y-16035017D01*
X6447804Y-16015970D01*
X6466852Y-16006446D01*
X6504947Y-16006446D01*
X6523995Y-16015970D01*
X6533518Y-16035017D01*
X6533518Y-16054065D01*
X6438280Y-16073113D01*
X6609709Y-16130255D02*
X6628757Y-16139779D01*
X6666852Y-16139779D01*
X6685899Y-16130255D01*
X6695423Y-16111208D01*
X6695423Y-16101684D01*
X6685899Y-16082636D01*
X6666852Y-16073113D01*
X6638280Y-16073113D01*
X6619233Y-16063589D01*
X6609709Y-16044541D01*
X6609709Y-16035017D01*
X6619233Y-16015970D01*
X6638280Y-16006446D01*
X6666852Y-16006446D01*
X6685899Y-16015970D01*
X6762090Y-16215970D02*
X6771614Y-16206446D01*
X6790661Y-16177875D01*
X6800185Y-16158827D01*
X6809709Y-16130255D01*
X6819233Y-16082636D01*
X6819233Y-16044541D01*
X6809709Y-15996922D01*
X6800185Y-15968351D01*
X6790661Y-15949303D01*
X6771614Y-15920732D01*
X6762090Y-15911208D01*
X7123995Y-16215970D02*
X7114471Y-16206446D01*
X7095423Y-16177875D01*
X7085899Y-16158827D01*
X7076376Y-16130255D01*
X7066852Y-16082636D01*
X7066852Y-16044541D01*
X7076376Y-15996922D01*
X7085899Y-15968351D01*
X7095423Y-15949303D01*
X7114471Y-15920732D01*
X7123995Y-15911208D01*
X7200185Y-16006446D02*
X7200185Y-16139779D01*
X7200185Y-16025494D02*
X7209709Y-16015970D01*
X7228757Y-16006446D01*
X7257328Y-16006446D01*
X7276376Y-16015970D01*
X7285899Y-16035017D01*
X7285899Y-16139779D01*
X7409709Y-16139779D02*
X7390661Y-16130255D01*
X7381137Y-16120732D01*
X7371614Y-16101684D01*
X7371614Y-16044541D01*
X7381137Y-16025494D01*
X7390661Y-16015970D01*
X7409709Y-16006446D01*
X7438280Y-16006446D01*
X7457328Y-16015970D01*
X7466852Y-16025494D01*
X7476376Y-16044541D01*
X7476376Y-16101684D01*
X7466852Y-16120732D01*
X7457328Y-16130255D01*
X7438280Y-16139779D01*
X7409709Y-16139779D01*
X7533518Y-16006446D02*
X7609709Y-16006446D01*
X7562090Y-15939779D02*
X7562090Y-16111208D01*
X7571614Y-16130255D01*
X7590661Y-16139779D01*
X7609709Y-16139779D01*
X7828757Y-16006446D02*
X7828757Y-16206446D01*
X7828757Y-16015970D02*
X7847804Y-16006446D01*
X7885899Y-16006446D01*
X7904947Y-16015970D01*
X7914471Y-16025494D01*
X7923995Y-16044541D01*
X7923995Y-16101684D01*
X7914471Y-16120732D01*
X7904947Y-16130255D01*
X7885899Y-16139779D01*
X7847804Y-16139779D01*
X7828757Y-16130255D01*
X8038280Y-16139779D02*
X8019233Y-16130255D01*
X8009709Y-16111208D01*
X8009709Y-15939779D01*
X8200185Y-16139779D02*
X8200185Y-16035017D01*
X8190661Y-16015970D01*
X8171614Y-16006446D01*
X8133518Y-16006446D01*
X8114471Y-16015970D01*
X8200185Y-16130255D02*
X8181137Y-16139779D01*
X8133518Y-16139779D01*
X8114471Y-16130255D01*
X8104947Y-16111208D01*
X8104947Y-16092160D01*
X8114471Y-16073113D01*
X8133518Y-16063589D01*
X8181137Y-16063589D01*
X8200185Y-16054065D01*
X8266852Y-16006446D02*
X8343042Y-16006446D01*
X8295423Y-15939779D02*
X8295423Y-16111208D01*
X8304947Y-16130255D01*
X8323995Y-16139779D01*
X8343042Y-16139779D01*
X8485899Y-16130255D02*
X8466852Y-16139779D01*
X8428757Y-16139779D01*
X8409709Y-16130255D01*
X8400185Y-16111208D01*
X8400185Y-16035017D01*
X8409709Y-16015970D01*
X8428757Y-16006446D01*
X8466852Y-16006446D01*
X8485899Y-16015970D01*
X8495423Y-16035017D01*
X8495423Y-16054065D01*
X8400185Y-16073113D01*
X8666852Y-16139779D02*
X8666852Y-15939779D01*
X8666852Y-16130255D02*
X8647804Y-16139779D01*
X8609709Y-16139779D01*
X8590661Y-16130255D01*
X8581138Y-16120732D01*
X8571614Y-16101684D01*
X8571614Y-16044541D01*
X8581138Y-16025494D01*
X8590661Y-16015970D01*
X8609709Y-16006446D01*
X8647804Y-16006446D01*
X8666852Y-16015970D01*
X8743042Y-16215970D02*
X8752566Y-16206446D01*
X8771614Y-16177875D01*
X8781138Y-16158827D01*
X8790661Y-16130255D01*
X8800185Y-16082636D01*
X8800185Y-16044541D01*
X8790661Y-15996922D01*
X8781138Y-15968351D01*
X8771614Y-15949303D01*
X8752566Y-15920732D01*
X8743042Y-15911208D01*
X1409233Y-16244303D02*
X1609233Y-16444303D01*
X1609233Y-16244303D02*
X1409233Y-16444303D01*
X1509233Y-16444303D02*
X1609233Y-16344303D01*
X1509233Y-16244303D01*
X1409233Y-16344303D01*
X1509233Y-16444303D01*
X1847804Y-16234779D02*
X1971614Y-16234779D01*
X1904947Y-16310970D01*
X1933518Y-16310970D01*
X1952566Y-16320494D01*
X1962090Y-16330017D01*
X1971614Y-16349065D01*
X1971614Y-16396684D01*
X1962090Y-16415732D01*
X1952566Y-16425255D01*
X1933518Y-16434779D01*
X1876376Y-16434779D01*
X1857328Y-16425255D01*
X1847804Y-16415732D01*
X2057328Y-16415732D02*
X2066852Y-16425255D01*
X2057328Y-16434779D01*
X2047804Y-16425255D01*
X2057328Y-16415732D01*
X2057328Y-16434779D01*
X2190661Y-16234779D02*
X2209709Y-16234779D01*
X2228757Y-16244303D01*
X2238280Y-16253827D01*
X2247804Y-16272875D01*
X2257328Y-16310970D01*
X2257328Y-16358589D01*
X2247804Y-16396684D01*
X2238280Y-16415732D01*
X2228757Y-16425255D01*
X2209709Y-16434779D01*
X2190661Y-16434779D01*
X2171614Y-16425255D01*
X2162090Y-16415732D01*
X2152566Y-16396684D01*
X2143042Y-16358589D01*
X2143042Y-16310970D01*
X2152566Y-16272875D01*
X2162090Y-16253827D01*
X2171614Y-16244303D01*
X2190661Y-16234779D01*
X2428757Y-16301446D02*
X2428757Y-16434779D01*
X2381138Y-16225255D02*
X2333519Y-16368113D01*
X2457328Y-16368113D01*
X2562090Y-16320494D02*
X2543042Y-16310970D01*
X2533519Y-16301446D01*
X2523995Y-16282398D01*
X2523995Y-16272875D01*
X2533519Y-16253827D01*
X2543042Y-16244303D01*
X2562090Y-16234779D01*
X2600185Y-16234779D01*
X2619233Y-16244303D01*
X2628757Y-16253827D01*
X2638280Y-16272875D01*
X2638280Y-16282398D01*
X2628757Y-16301446D01*
X2619233Y-16310970D01*
X2600185Y-16320494D01*
X2562090Y-16320494D01*
X2543042Y-16330017D01*
X2533519Y-16339541D01*
X2523995Y-16358589D01*
X2523995Y-16396684D01*
X2533519Y-16415732D01*
X2543042Y-16425255D01*
X2562090Y-16434779D01*
X2600185Y-16434779D01*
X2619233Y-16425255D01*
X2628757Y-16415732D01*
X2638280Y-16396684D01*
X2638280Y-16358589D01*
X2628757Y-16339541D01*
X2619233Y-16330017D01*
X2600185Y-16320494D01*
X2723995Y-16434779D02*
X2723995Y-16301446D01*
X2723995Y-16320494D02*
X2733519Y-16310970D01*
X2752566Y-16301446D01*
X2781138Y-16301446D01*
X2800185Y-16310970D01*
X2809709Y-16330017D01*
X2809709Y-16434779D01*
X2809709Y-16330017D02*
X2819233Y-16310970D01*
X2838280Y-16301446D01*
X2866852Y-16301446D01*
X2885899Y-16310970D01*
X2895423Y-16330017D01*
X2895423Y-16434779D01*
X2990661Y-16434779D02*
X2990661Y-16301446D01*
X2990661Y-16320494D02*
X3000185Y-16310970D01*
X3019233Y-16301446D01*
X3047804Y-16301446D01*
X3066852Y-16310970D01*
X3076376Y-16330017D01*
X3076376Y-16434779D01*
X3076376Y-16330017D02*
X3085899Y-16310970D01*
X3104947Y-16301446D01*
X3133518Y-16301446D01*
X3152566Y-16310970D01*
X3162090Y-16330017D01*
X3162090Y-16434779D01*
X3552566Y-16225255D02*
X3381137Y-16482398D01*
X3809709Y-16234779D02*
X3828757Y-16234779D01*
X3847804Y-16244303D01*
X3857328Y-16253827D01*
X3866852Y-16272875D01*
X3876376Y-16310970D01*
X3876376Y-16358589D01*
X3866852Y-16396684D01*
X3857328Y-16415732D01*
X3847804Y-16425255D01*
X3828757Y-16434779D01*
X3809709Y-16434779D01*
X3790661Y-16425255D01*
X3781137Y-16415732D01*
X3771614Y-16396684D01*
X3762090Y-16358589D01*
X3762090Y-16310970D01*
X3771614Y-16272875D01*
X3781137Y-16253827D01*
X3790661Y-16244303D01*
X3809709Y-16234779D01*
X3962090Y-16415732D02*
X3971614Y-16425255D01*
X3962090Y-16434779D01*
X3952566Y-16425255D01*
X3962090Y-16415732D01*
X3962090Y-16434779D01*
X4162090Y-16434779D02*
X4047804Y-16434779D01*
X4104947Y-16434779D02*
X4104947Y-16234779D01*
X4085899Y-16263351D01*
X4066852Y-16282398D01*
X4047804Y-16291922D01*
X4238280Y-16253827D02*
X4247804Y-16244303D01*
X4266852Y-16234779D01*
X4314471Y-16234779D01*
X4333519Y-16244303D01*
X4343042Y-16253827D01*
X4352566Y-16272875D01*
X4352566Y-16291922D01*
X4343042Y-16320494D01*
X4228757Y-16434779D01*
X4352566Y-16434779D01*
X4476376Y-16234779D02*
X4495423Y-16234779D01*
X4514471Y-16244303D01*
X4523995Y-16253827D01*
X4533519Y-16272875D01*
X4543042Y-16310970D01*
X4543042Y-16358589D01*
X4533519Y-16396684D01*
X4523995Y-16415732D01*
X4514471Y-16425255D01*
X4495423Y-16434779D01*
X4476376Y-16434779D01*
X4457328Y-16425255D01*
X4447804Y-16415732D01*
X4438280Y-16396684D01*
X4428757Y-16358589D01*
X4428757Y-16310970D01*
X4438280Y-16272875D01*
X4447804Y-16253827D01*
X4457328Y-16244303D01*
X4476376Y-16234779D01*
X4666852Y-16234779D02*
X4685899Y-16234779D01*
X4704947Y-16244303D01*
X4714471Y-16253827D01*
X4723995Y-16272875D01*
X4733519Y-16310970D01*
X4733519Y-16358589D01*
X4723995Y-16396684D01*
X4714471Y-16415732D01*
X4704947Y-16425255D01*
X4685899Y-16434779D01*
X4666852Y-16434779D01*
X4647804Y-16425255D01*
X4638280Y-16415732D01*
X4628757Y-16396684D01*
X4619233Y-16358589D01*
X4619233Y-16310970D01*
X4628757Y-16272875D01*
X4638280Y-16253827D01*
X4647804Y-16244303D01*
X4666852Y-16234779D01*
X4809709Y-16234779D02*
X4809709Y-16272875D01*
X4885899Y-16234779D02*
X4885899Y-16272875D01*
X5181138Y-16510970D02*
X5171614Y-16501446D01*
X5152566Y-16472875D01*
X5143042Y-16453827D01*
X5133519Y-16425255D01*
X5123995Y-16377636D01*
X5123995Y-16339541D01*
X5133519Y-16291922D01*
X5143042Y-16263351D01*
X5152566Y-16244303D01*
X5171614Y-16215732D01*
X5181138Y-16206208D01*
X5285899Y-16320494D02*
X5266852Y-16310970D01*
X5257328Y-16301446D01*
X5247804Y-16282398D01*
X5247804Y-16272875D01*
X5257328Y-16253827D01*
X5266852Y-16244303D01*
X5285899Y-16234779D01*
X5323995Y-16234779D01*
X5343042Y-16244303D01*
X5352566Y-16253827D01*
X5362090Y-16272875D01*
X5362090Y-16282398D01*
X5352566Y-16301446D01*
X5343042Y-16310970D01*
X5323995Y-16320494D01*
X5285899Y-16320494D01*
X5266852Y-16330017D01*
X5257328Y-16339541D01*
X5247804Y-16358589D01*
X5247804Y-16396684D01*
X5257328Y-16415732D01*
X5266852Y-16425255D01*
X5285899Y-16434779D01*
X5323995Y-16434779D01*
X5343042Y-16425255D01*
X5352566Y-16415732D01*
X5362090Y-16396684D01*
X5362090Y-16358589D01*
X5352566Y-16339541D01*
X5343042Y-16330017D01*
X5323995Y-16320494D01*
X5600185Y-16434779D02*
X5600185Y-16234779D01*
X5685899Y-16434779D02*
X5685899Y-16330017D01*
X5676376Y-16310970D01*
X5657328Y-16301446D01*
X5628757Y-16301446D01*
X5609709Y-16310970D01*
X5600185Y-16320494D01*
X5809709Y-16434779D02*
X5790661Y-16425255D01*
X5781137Y-16415732D01*
X5771614Y-16396684D01*
X5771614Y-16339541D01*
X5781137Y-16320494D01*
X5790661Y-16310970D01*
X5809709Y-16301446D01*
X5838280Y-16301446D01*
X5857328Y-16310970D01*
X5866852Y-16320494D01*
X5876376Y-16339541D01*
X5876376Y-16396684D01*
X5866852Y-16415732D01*
X5857328Y-16425255D01*
X5838280Y-16434779D01*
X5809709Y-16434779D01*
X5990661Y-16434779D02*
X5971614Y-16425255D01*
X5962090Y-16406208D01*
X5962090Y-16234779D01*
X6143042Y-16425255D02*
X6123995Y-16434779D01*
X6085899Y-16434779D01*
X6066852Y-16425255D01*
X6057328Y-16406208D01*
X6057328Y-16330017D01*
X6066852Y-16310970D01*
X6085899Y-16301446D01*
X6123995Y-16301446D01*
X6143042Y-16310970D01*
X6152566Y-16330017D01*
X6152566Y-16349065D01*
X6057328Y-16368113D01*
X6228757Y-16425255D02*
X6247804Y-16434779D01*
X6285899Y-16434779D01*
X6304947Y-16425255D01*
X6314471Y-16406208D01*
X6314471Y-16396684D01*
X6304947Y-16377636D01*
X6285899Y-16368113D01*
X6257328Y-16368113D01*
X6238280Y-16358589D01*
X6228757Y-16339541D01*
X6228757Y-16330017D01*
X6238280Y-16310970D01*
X6257328Y-16301446D01*
X6285899Y-16301446D01*
X6304947Y-16310970D01*
X6381137Y-16510970D02*
X6390661Y-16501446D01*
X6409709Y-16472875D01*
X6419233Y-16453827D01*
X6428757Y-16425255D01*
X6438280Y-16377636D01*
X6438280Y-16339541D01*
X6428757Y-16291922D01*
X6419233Y-16263351D01*
X6409709Y-16244303D01*
X6390661Y-16215732D01*
X6381137Y-16206208D01*
X6743042Y-16510970D02*
X6733518Y-16501446D01*
X6714471Y-16472875D01*
X6704947Y-16453827D01*
X6695423Y-16425255D01*
X6685899Y-16377636D01*
X6685899Y-16339541D01*
X6695423Y-16291922D01*
X6704947Y-16263351D01*
X6714471Y-16244303D01*
X6733518Y-16215732D01*
X6743042Y-16206208D01*
X6819233Y-16301446D02*
X6819233Y-16434779D01*
X6819233Y-16320494D02*
X6828757Y-16310970D01*
X6847804Y-16301446D01*
X6876376Y-16301446D01*
X6895423Y-16310970D01*
X6904947Y-16330017D01*
X6904947Y-16434779D01*
X7028757Y-16434779D02*
X7009709Y-16425255D01*
X7000185Y-16415732D01*
X6990661Y-16396684D01*
X6990661Y-16339541D01*
X7000185Y-16320494D01*
X7009709Y-16310970D01*
X7028757Y-16301446D01*
X7057328Y-16301446D01*
X7076376Y-16310970D01*
X7085899Y-16320494D01*
X7095423Y-16339541D01*
X7095423Y-16396684D01*
X7085899Y-16415732D01*
X7076376Y-16425255D01*
X7057328Y-16434779D01*
X7028757Y-16434779D01*
X7152566Y-16301446D02*
X7228757Y-16301446D01*
X7181137Y-16234779D02*
X7181137Y-16406208D01*
X7190661Y-16425255D01*
X7209709Y-16434779D01*
X7228757Y-16434779D01*
X7447804Y-16301446D02*
X7447804Y-16501446D01*
X7447804Y-16310970D02*
X7466852Y-16301446D01*
X7504947Y-16301446D01*
X7523995Y-16310970D01*
X7533518Y-16320494D01*
X7543042Y-16339541D01*
X7543042Y-16396684D01*
X7533518Y-16415732D01*
X7523995Y-16425255D01*
X7504947Y-16434779D01*
X7466852Y-16434779D01*
X7447804Y-16425255D01*
X7657328Y-16434779D02*
X7638280Y-16425255D01*
X7628757Y-16406208D01*
X7628757Y-16234779D01*
X7819233Y-16434779D02*
X7819233Y-16330017D01*
X7809709Y-16310970D01*
X7790661Y-16301446D01*
X7752566Y-16301446D01*
X7733518Y-16310970D01*
X7819233Y-16425255D02*
X7800185Y-16434779D01*
X7752566Y-16434779D01*
X7733518Y-16425255D01*
X7723995Y-16406208D01*
X7723995Y-16387160D01*
X7733518Y-16368113D01*
X7752566Y-16358589D01*
X7800185Y-16358589D01*
X7819233Y-16349065D01*
X7885899Y-16301446D02*
X7962090Y-16301446D01*
X7914471Y-16234779D02*
X7914471Y-16406208D01*
X7923995Y-16425255D01*
X7943042Y-16434779D01*
X7962090Y-16434779D01*
X8104947Y-16425255D02*
X8085899Y-16434779D01*
X8047804Y-16434779D01*
X8028757Y-16425255D01*
X8019233Y-16406208D01*
X8019233Y-16330017D01*
X8028757Y-16310970D01*
X8047804Y-16301446D01*
X8085899Y-16301446D01*
X8104947Y-16310970D01*
X8114471Y-16330017D01*
X8114471Y-16349065D01*
X8019233Y-16368113D01*
X8285899Y-16434779D02*
X8285899Y-16234779D01*
X8285899Y-16425255D02*
X8266852Y-16434779D01*
X8228757Y-16434779D01*
X8209709Y-16425255D01*
X8200185Y-16415732D01*
X8190661Y-16396684D01*
X8190661Y-16339541D01*
X8200185Y-16320494D01*
X8209709Y-16310970D01*
X8228757Y-16301446D01*
X8266852Y-16301446D01*
X8285899Y-16310970D01*
X8362090Y-16510970D02*
X8371614Y-16501446D01*
X8390661Y-16472875D01*
X8400185Y-16453827D01*
X8409709Y-16425255D01*
X8419233Y-16377636D01*
X8419233Y-16339541D01*
X8409709Y-16291922D01*
X8400185Y-16263351D01*
X8390661Y-16244303D01*
X8371614Y-16215732D01*
X8362090Y-16206208D01*
X1509233Y-16564303D02*
X1509233Y-16764303D01*
X1409233Y-16664303D02*
X1609233Y-16664303D01*
X1609233Y-16664303D02*
G75*
G03*
X1609233Y-16664303I-100000J0D01*
G01*
X1847804Y-16554779D02*
X1971614Y-16554779D01*
X1904947Y-16630970D01*
X1933518Y-16630970D01*
X1952566Y-16640494D01*
X1962090Y-16650017D01*
X1971614Y-16669065D01*
X1971614Y-16716684D01*
X1962090Y-16735732D01*
X1952566Y-16745255D01*
X1933518Y-16754779D01*
X1876376Y-16754779D01*
X1857328Y-16745255D01*
X1847804Y-16735732D01*
X2057328Y-16735732D02*
X2066852Y-16745255D01*
X2057328Y-16754779D01*
X2047804Y-16745255D01*
X2057328Y-16735732D01*
X2057328Y-16754779D01*
X2162090Y-16754779D02*
X2200185Y-16754779D01*
X2219233Y-16745255D01*
X2228757Y-16735732D01*
X2247804Y-16707160D01*
X2257328Y-16669065D01*
X2257328Y-16592875D01*
X2247804Y-16573827D01*
X2238280Y-16564303D01*
X2219233Y-16554779D01*
X2181138Y-16554779D01*
X2162090Y-16564303D01*
X2152566Y-16573827D01*
X2143042Y-16592875D01*
X2143042Y-16640494D01*
X2152566Y-16659541D01*
X2162090Y-16669065D01*
X2181138Y-16678589D01*
X2219233Y-16678589D01*
X2238280Y-16669065D01*
X2247804Y-16659541D01*
X2257328Y-16640494D01*
X2371614Y-16640494D02*
X2352566Y-16630970D01*
X2343042Y-16621446D01*
X2333519Y-16602398D01*
X2333519Y-16592875D01*
X2343042Y-16573827D01*
X2352566Y-16564303D01*
X2371614Y-16554779D01*
X2409709Y-16554779D01*
X2428757Y-16564303D01*
X2438280Y-16573827D01*
X2447804Y-16592875D01*
X2447804Y-16602398D01*
X2438280Y-16621446D01*
X2428757Y-16630970D01*
X2409709Y-16640494D01*
X2371614Y-16640494D01*
X2352566Y-16650017D01*
X2343042Y-16659541D01*
X2333519Y-16678589D01*
X2333519Y-16716684D01*
X2343042Y-16735732D01*
X2352566Y-16745255D01*
X2371614Y-16754779D01*
X2409709Y-16754779D01*
X2428757Y-16745255D01*
X2438280Y-16735732D01*
X2447804Y-16716684D01*
X2447804Y-16678589D01*
X2438280Y-16659541D01*
X2428757Y-16650017D01*
X2409709Y-16640494D01*
X2562090Y-16640494D02*
X2543042Y-16630970D01*
X2533519Y-16621446D01*
X2523995Y-16602398D01*
X2523995Y-16592875D01*
X2533519Y-16573827D01*
X2543042Y-16564303D01*
X2562090Y-16554779D01*
X2600185Y-16554779D01*
X2619233Y-16564303D01*
X2628757Y-16573827D01*
X2638280Y-16592875D01*
X2638280Y-16602398D01*
X2628757Y-16621446D01*
X2619233Y-16630970D01*
X2600185Y-16640494D01*
X2562090Y-16640494D01*
X2543042Y-16650017D01*
X2533519Y-16659541D01*
X2523995Y-16678589D01*
X2523995Y-16716684D01*
X2533519Y-16735732D01*
X2543042Y-16745255D01*
X2562090Y-16754779D01*
X2600185Y-16754779D01*
X2619233Y-16745255D01*
X2628757Y-16735732D01*
X2638280Y-16716684D01*
X2638280Y-16678589D01*
X2628757Y-16659541D01*
X2619233Y-16650017D01*
X2600185Y-16640494D01*
X2723995Y-16754779D02*
X2723995Y-16621446D01*
X2723995Y-16640494D02*
X2733519Y-16630970D01*
X2752566Y-16621446D01*
X2781138Y-16621446D01*
X2800185Y-16630970D01*
X2809709Y-16650017D01*
X2809709Y-16754779D01*
X2809709Y-16650017D02*
X2819233Y-16630970D01*
X2838280Y-16621446D01*
X2866852Y-16621446D01*
X2885899Y-16630970D01*
X2895423Y-16650017D01*
X2895423Y-16754779D01*
X2990661Y-16754779D02*
X2990661Y-16621446D01*
X2990661Y-16640494D02*
X3000185Y-16630970D01*
X3019233Y-16621446D01*
X3047804Y-16621446D01*
X3066852Y-16630970D01*
X3076376Y-16650017D01*
X3076376Y-16754779D01*
X3076376Y-16650017D02*
X3085899Y-16630970D01*
X3104947Y-16621446D01*
X3133518Y-16621446D01*
X3152566Y-16630970D01*
X3162090Y-16650017D01*
X3162090Y-16754779D01*
X3552566Y-16545255D02*
X3381137Y-16802398D01*
X3809709Y-16554779D02*
X3828757Y-16554779D01*
X3847804Y-16564303D01*
X3857328Y-16573827D01*
X3866852Y-16592875D01*
X3876376Y-16630970D01*
X3876376Y-16678589D01*
X3866852Y-16716684D01*
X3857328Y-16735732D01*
X3847804Y-16745255D01*
X3828757Y-16754779D01*
X3809709Y-16754779D01*
X3790661Y-16745255D01*
X3781137Y-16735732D01*
X3771614Y-16716684D01*
X3762090Y-16678589D01*
X3762090Y-16630970D01*
X3771614Y-16592875D01*
X3781137Y-16573827D01*
X3790661Y-16564303D01*
X3809709Y-16554779D01*
X3962090Y-16735732D02*
X3971614Y-16745255D01*
X3962090Y-16754779D01*
X3952566Y-16745255D01*
X3962090Y-16735732D01*
X3962090Y-16754779D01*
X4162090Y-16754779D02*
X4047804Y-16754779D01*
X4104947Y-16754779D02*
X4104947Y-16554779D01*
X4085899Y-16583351D01*
X4066852Y-16602398D01*
X4047804Y-16611922D01*
X4343042Y-16554779D02*
X4247804Y-16554779D01*
X4238280Y-16650017D01*
X4247804Y-16640494D01*
X4266852Y-16630970D01*
X4314471Y-16630970D01*
X4333519Y-16640494D01*
X4343042Y-16650017D01*
X4352566Y-16669065D01*
X4352566Y-16716684D01*
X4343042Y-16735732D01*
X4333519Y-16745255D01*
X4314471Y-16754779D01*
X4266852Y-16754779D01*
X4247804Y-16745255D01*
X4238280Y-16735732D01*
X4419233Y-16554779D02*
X4552566Y-16554779D01*
X4466852Y-16754779D01*
X4666852Y-16554779D02*
X4685899Y-16554779D01*
X4704947Y-16564303D01*
X4714471Y-16573827D01*
X4723995Y-16592875D01*
X4733519Y-16630970D01*
X4733519Y-16678589D01*
X4723995Y-16716684D01*
X4714471Y-16735732D01*
X4704947Y-16745255D01*
X4685899Y-16754779D01*
X4666852Y-16754779D01*
X4647804Y-16745255D01*
X4638280Y-16735732D01*
X4628757Y-16716684D01*
X4619233Y-16678589D01*
X4619233Y-16630970D01*
X4628757Y-16592875D01*
X4638280Y-16573827D01*
X4647804Y-16564303D01*
X4666852Y-16554779D01*
X4809709Y-16554779D02*
X4809709Y-16592875D01*
X4885899Y-16554779D02*
X4885899Y-16592875D01*
X5181138Y-16830970D02*
X5171614Y-16821446D01*
X5152566Y-16792875D01*
X5143042Y-16773827D01*
X5133519Y-16745255D01*
X5123995Y-16697636D01*
X5123995Y-16659541D01*
X5133519Y-16611922D01*
X5143042Y-16583351D01*
X5152566Y-16564303D01*
X5171614Y-16535732D01*
X5181138Y-16526208D01*
X5238280Y-16554779D02*
X5371614Y-16554779D01*
X5285899Y-16754779D01*
X5543042Y-16554779D02*
X5447804Y-16554779D01*
X5438280Y-16650017D01*
X5447804Y-16640494D01*
X5466852Y-16630970D01*
X5514471Y-16630970D01*
X5533519Y-16640494D01*
X5543042Y-16650017D01*
X5552566Y-16669065D01*
X5552566Y-16716684D01*
X5543042Y-16735732D01*
X5533519Y-16745255D01*
X5514471Y-16754779D01*
X5466852Y-16754779D01*
X5447804Y-16745255D01*
X5438280Y-16735732D01*
X5790661Y-16754779D02*
X5790661Y-16554779D01*
X5876376Y-16754779D02*
X5876376Y-16650017D01*
X5866852Y-16630970D01*
X5847804Y-16621446D01*
X5819233Y-16621446D01*
X5800185Y-16630970D01*
X5790661Y-16640494D01*
X6000185Y-16754779D02*
X5981137Y-16745255D01*
X5971614Y-16735732D01*
X5962090Y-16716684D01*
X5962090Y-16659541D01*
X5971614Y-16640494D01*
X5981137Y-16630970D01*
X6000185Y-16621446D01*
X6028757Y-16621446D01*
X6047804Y-16630970D01*
X6057328Y-16640494D01*
X6066852Y-16659541D01*
X6066852Y-16716684D01*
X6057328Y-16735732D01*
X6047804Y-16745255D01*
X6028757Y-16754779D01*
X6000185Y-16754779D01*
X6181137Y-16754779D02*
X6162090Y-16745255D01*
X6152566Y-16726208D01*
X6152566Y-16554779D01*
X6333518Y-16745255D02*
X6314471Y-16754779D01*
X6276376Y-16754779D01*
X6257328Y-16745255D01*
X6247804Y-16726208D01*
X6247804Y-16650017D01*
X6257328Y-16630970D01*
X6276376Y-16621446D01*
X6314471Y-16621446D01*
X6333518Y-16630970D01*
X6343042Y-16650017D01*
X6343042Y-16669065D01*
X6247804Y-16688113D01*
X6419233Y-16745255D02*
X6438280Y-16754779D01*
X6476376Y-16754779D01*
X6495423Y-16745255D01*
X6504947Y-16726208D01*
X6504947Y-16716684D01*
X6495423Y-16697636D01*
X6476376Y-16688113D01*
X6447804Y-16688113D01*
X6428757Y-16678589D01*
X6419233Y-16659541D01*
X6419233Y-16650017D01*
X6428757Y-16630970D01*
X6447804Y-16621446D01*
X6476376Y-16621446D01*
X6495423Y-16630970D01*
X6571614Y-16830970D02*
X6581137Y-16821446D01*
X6600185Y-16792875D01*
X6609709Y-16773827D01*
X6619233Y-16745255D01*
X6628757Y-16697636D01*
X6628757Y-16659541D01*
X6619233Y-16611922D01*
X6609709Y-16583351D01*
X6600185Y-16564303D01*
X6581137Y-16535732D01*
X6571614Y-16526208D01*
X6933518Y-16830970D02*
X6923995Y-16821446D01*
X6904947Y-16792875D01*
X6895423Y-16773827D01*
X6885899Y-16745255D01*
X6876376Y-16697636D01*
X6876376Y-16659541D01*
X6885899Y-16611922D01*
X6895423Y-16583351D01*
X6904947Y-16564303D01*
X6923995Y-16535732D01*
X6933518Y-16526208D01*
X7009709Y-16621446D02*
X7009709Y-16754779D01*
X7009709Y-16640494D02*
X7019233Y-16630970D01*
X7038280Y-16621446D01*
X7066852Y-16621446D01*
X7085899Y-16630970D01*
X7095423Y-16650017D01*
X7095423Y-16754779D01*
X7219233Y-16754779D02*
X7200185Y-16745255D01*
X7190661Y-16735732D01*
X7181137Y-16716684D01*
X7181137Y-16659541D01*
X7190661Y-16640494D01*
X7200185Y-16630970D01*
X7219233Y-16621446D01*
X7247804Y-16621446D01*
X7266852Y-16630970D01*
X7276376Y-16640494D01*
X7285899Y-16659541D01*
X7285899Y-16716684D01*
X7276376Y-16735732D01*
X7266852Y-16745255D01*
X7247804Y-16754779D01*
X7219233Y-16754779D01*
X7343042Y-16621446D02*
X7419233Y-16621446D01*
X7371614Y-16554779D02*
X7371614Y-16726208D01*
X7381137Y-16745255D01*
X7400185Y-16754779D01*
X7419233Y-16754779D01*
X7638280Y-16621446D02*
X7638280Y-16821446D01*
X7638280Y-16630970D02*
X7657328Y-16621446D01*
X7695423Y-16621446D01*
X7714471Y-16630970D01*
X7723995Y-16640494D01*
X7733518Y-16659541D01*
X7733518Y-16716684D01*
X7723995Y-16735732D01*
X7714471Y-16745255D01*
X7695423Y-16754779D01*
X7657328Y-16754779D01*
X7638280Y-16745255D01*
X7847804Y-16754779D02*
X7828757Y-16745255D01*
X7819233Y-16726208D01*
X7819233Y-16554779D01*
X8009709Y-16754779D02*
X8009709Y-16650017D01*
X8000185Y-16630970D01*
X7981137Y-16621446D01*
X7943042Y-16621446D01*
X7923995Y-16630970D01*
X8009709Y-16745255D02*
X7990661Y-16754779D01*
X7943042Y-16754779D01*
X7923995Y-16745255D01*
X7914471Y-16726208D01*
X7914471Y-16707160D01*
X7923995Y-16688113D01*
X7943042Y-16678589D01*
X7990661Y-16678589D01*
X8009709Y-16669065D01*
X8076376Y-16621446D02*
X8152566Y-16621446D01*
X8104947Y-16554779D02*
X8104947Y-16726208D01*
X8114471Y-16745255D01*
X8133518Y-16754779D01*
X8152566Y-16754779D01*
X8295423Y-16745255D02*
X8276376Y-16754779D01*
X8238280Y-16754779D01*
X8219233Y-16745255D01*
X8209709Y-16726208D01*
X8209709Y-16650017D01*
X8219233Y-16630970D01*
X8238280Y-16621446D01*
X8276376Y-16621446D01*
X8295423Y-16630970D01*
X8304947Y-16650017D01*
X8304947Y-16669065D01*
X8209709Y-16688113D01*
X8476376Y-16754779D02*
X8476376Y-16554779D01*
X8476376Y-16745255D02*
X8457328Y-16754779D01*
X8419233Y-16754779D01*
X8400185Y-16745255D01*
X8390661Y-16735732D01*
X8381137Y-16716684D01*
X8381137Y-16659541D01*
X8390661Y-16640494D01*
X8400185Y-16630970D01*
X8419233Y-16621446D01*
X8457328Y-16621446D01*
X8476376Y-16630970D01*
X8552566Y-16830970D02*
X8562090Y-16821446D01*
X8581138Y-16792875D01*
X8590661Y-16773827D01*
X8600185Y-16745255D01*
X8609709Y-16697636D01*
X8609709Y-16659541D01*
X8600185Y-16611922D01*
X8590661Y-16583351D01*
X8581138Y-16564303D01*
X8562090Y-16535732D01*
X8552566Y-16526208D01*
M02*
