%TF.GenerationSoftware,KiCad,Pcbnew,(6.0.8)*%
%TF.CreationDate,2023-10-10T00:17:19-07:00*%
%TF.ProjectId,CMKC65_R1,434d4b43-3635-45f5-9231-2e6b69636164,rev?*%
%TF.SameCoordinates,Original*%
%TF.FileFunction,Legend,Top*%
%TF.FilePolarity,Positive*%
%FSLAX46Y46*%
G04 Gerber Fmt 4.6, Leading zero omitted, Abs format (unit mm)*
G04 Created by KiCad (PCBNEW (6.0.8)) date 2023-10-10 00:17:19*
%MOMM*%
%LPD*%
G01*
G04 APERTURE LIST*
%ADD10C,0.300000*%
%ADD11C,0.150000*%
%ADD12C,0.120000*%
%ADD13R,1.600000X1.600000*%
%ADD14O,1.600000X1.600000*%
%ADD15C,3.987800*%
%ADD16C,1.750000*%
%ADD17C,3.048000*%
%ADD18R,2.000000X2.000000*%
%ADD19C,2.000000*%
%ADD20R,2.000000X3.200000*%
%ADD21C,1.524000*%
%ADD22C,1.600000*%
G04 APERTURE END LIST*
D10*
X152495714Y-112255714D02*
X152424285Y-112327142D01*
X152210000Y-112398571D01*
X152067142Y-112398571D01*
X151852857Y-112327142D01*
X151710000Y-112184285D01*
X151638571Y-112041428D01*
X151567142Y-111755714D01*
X151567142Y-111541428D01*
X151638571Y-111255714D01*
X151710000Y-111112857D01*
X151852857Y-110970000D01*
X152067142Y-110898571D01*
X152210000Y-110898571D01*
X152424285Y-110970000D01*
X152495714Y-111041428D01*
X153138571Y-112398571D02*
X153138571Y-110898571D01*
X153638571Y-111970000D01*
X154138571Y-110898571D01*
X154138571Y-112398571D01*
X154852857Y-112398571D02*
X154852857Y-110898571D01*
X155710000Y-112398571D02*
X155067142Y-111541428D01*
X155710000Y-110898571D02*
X154852857Y-111755714D01*
X157210000Y-112255714D02*
X157138571Y-112327142D01*
X156924285Y-112398571D01*
X156781428Y-112398571D01*
X156567142Y-112327142D01*
X156424285Y-112184285D01*
X156352857Y-112041428D01*
X156281428Y-111755714D01*
X156281428Y-111541428D01*
X156352857Y-111255714D01*
X156424285Y-111112857D01*
X156567142Y-110970000D01*
X156781428Y-110898571D01*
X156924285Y-110898571D01*
X157138571Y-110970000D01*
X157210000Y-111041428D01*
X158495714Y-110898571D02*
X158210000Y-110898571D01*
X158067142Y-110970000D01*
X157995714Y-111041428D01*
X157852857Y-111255714D01*
X157781428Y-111541428D01*
X157781428Y-112112857D01*
X157852857Y-112255714D01*
X157924285Y-112327142D01*
X158067142Y-112398571D01*
X158352857Y-112398571D01*
X158495714Y-112327142D01*
X158567142Y-112255714D01*
X158638571Y-112112857D01*
X158638571Y-111755714D01*
X158567142Y-111612857D01*
X158495714Y-111541428D01*
X158352857Y-111470000D01*
X158067142Y-111470000D01*
X157924285Y-111541428D01*
X157852857Y-111612857D01*
X157781428Y-111755714D01*
X159995714Y-110898571D02*
X159281428Y-110898571D01*
X159210000Y-111612857D01*
X159281428Y-111541428D01*
X159424285Y-111470000D01*
X159781428Y-111470000D01*
X159924285Y-111541428D01*
X159995714Y-111612857D01*
X160067142Y-111755714D01*
X160067142Y-112112857D01*
X159995714Y-112255714D01*
X159924285Y-112327142D01*
X159781428Y-112398571D01*
X159424285Y-112398571D01*
X159281428Y-112327142D01*
X159210000Y-112255714D01*
X160710000Y-111827142D02*
X161852857Y-111827142D01*
X163424285Y-112398571D02*
X162924285Y-111684285D01*
X162567142Y-112398571D02*
X162567142Y-110898571D01*
X163138571Y-110898571D01*
X163281428Y-110970000D01*
X163352857Y-111041428D01*
X163424285Y-111184285D01*
X163424285Y-111398571D01*
X163352857Y-111541428D01*
X163281428Y-111612857D01*
X163138571Y-111684285D01*
X162567142Y-111684285D01*
X164852857Y-112398571D02*
X163995714Y-112398571D01*
X164424285Y-112398571D02*
X164424285Y-110898571D01*
X164281428Y-111112857D01*
X164138571Y-111255714D01*
X163995714Y-111327142D01*
D11*
X33257380Y-46140595D02*
X32257380Y-46140595D01*
X32257380Y-45902500D01*
X32305000Y-45759642D01*
X32400238Y-45664404D01*
X32495476Y-45616785D01*
X32685952Y-45569166D01*
X32828809Y-45569166D01*
X33019285Y-45616785D01*
X33114523Y-45664404D01*
X33209761Y-45759642D01*
X33257380Y-45902500D01*
X33257380Y-46140595D01*
X33257380Y-44616785D02*
X33257380Y-45188214D01*
X33257380Y-44902500D02*
X32257380Y-44902500D01*
X32400238Y-44997738D01*
X32495476Y-45092976D01*
X32543095Y-45188214D01*
X33577380Y-49474404D02*
X32577380Y-49474404D01*
X33577380Y-48902976D02*
X33005952Y-49331547D01*
X32577380Y-48902976D02*
X33148809Y-49474404D01*
X52307380Y-46140595D02*
X51307380Y-46140595D01*
X51307380Y-45902500D01*
X51355000Y-45759642D01*
X51450238Y-45664404D01*
X51545476Y-45616785D01*
X51735952Y-45569166D01*
X51878809Y-45569166D01*
X52069285Y-45616785D01*
X52164523Y-45664404D01*
X52259761Y-45759642D01*
X52307380Y-45902500D01*
X52307380Y-46140595D01*
X51402619Y-45188214D02*
X51355000Y-45140595D01*
X51307380Y-45045357D01*
X51307380Y-44807261D01*
X51355000Y-44712023D01*
X51402619Y-44664404D01*
X51497857Y-44616785D01*
X51593095Y-44616785D01*
X51735952Y-44664404D01*
X52307380Y-45235833D01*
X52307380Y-44616785D01*
X52627380Y-49474404D02*
X51627380Y-49474404D01*
X52627380Y-48902976D02*
X52055952Y-49331547D01*
X51627380Y-48902976D02*
X52198809Y-49474404D01*
X71357380Y-46140595D02*
X70357380Y-46140595D01*
X70357380Y-45902500D01*
X70405000Y-45759642D01*
X70500238Y-45664404D01*
X70595476Y-45616785D01*
X70785952Y-45569166D01*
X70928809Y-45569166D01*
X71119285Y-45616785D01*
X71214523Y-45664404D01*
X71309761Y-45759642D01*
X71357380Y-45902500D01*
X71357380Y-46140595D01*
X70357380Y-45235833D02*
X70357380Y-44616785D01*
X70738333Y-44950119D01*
X70738333Y-44807261D01*
X70785952Y-44712023D01*
X70833571Y-44664404D01*
X70928809Y-44616785D01*
X71166904Y-44616785D01*
X71262142Y-44664404D01*
X71309761Y-44712023D01*
X71357380Y-44807261D01*
X71357380Y-45092976D01*
X71309761Y-45188214D01*
X71262142Y-45235833D01*
X71677380Y-49474404D02*
X70677380Y-49474404D01*
X71677380Y-48902976D02*
X71105952Y-49331547D01*
X70677380Y-48902976D02*
X71248809Y-49474404D01*
X90407380Y-46140595D02*
X89407380Y-46140595D01*
X89407380Y-45902500D01*
X89455000Y-45759642D01*
X89550238Y-45664404D01*
X89645476Y-45616785D01*
X89835952Y-45569166D01*
X89978809Y-45569166D01*
X90169285Y-45616785D01*
X90264523Y-45664404D01*
X90359761Y-45759642D01*
X90407380Y-45902500D01*
X90407380Y-46140595D01*
X89740714Y-44712023D02*
X90407380Y-44712023D01*
X89359761Y-44950119D02*
X90074047Y-45188214D01*
X90074047Y-44569166D01*
X90727380Y-49474404D02*
X89727380Y-49474404D01*
X90727380Y-48902976D02*
X90155952Y-49331547D01*
X89727380Y-48902976D02*
X90298809Y-49474404D01*
X109457380Y-46140595D02*
X108457380Y-46140595D01*
X108457380Y-45902500D01*
X108505000Y-45759642D01*
X108600238Y-45664404D01*
X108695476Y-45616785D01*
X108885952Y-45569166D01*
X109028809Y-45569166D01*
X109219285Y-45616785D01*
X109314523Y-45664404D01*
X109409761Y-45759642D01*
X109457380Y-45902500D01*
X109457380Y-46140595D01*
X108457380Y-44664404D02*
X108457380Y-45140595D01*
X108933571Y-45188214D01*
X108885952Y-45140595D01*
X108838333Y-45045357D01*
X108838333Y-44807261D01*
X108885952Y-44712023D01*
X108933571Y-44664404D01*
X109028809Y-44616785D01*
X109266904Y-44616785D01*
X109362142Y-44664404D01*
X109409761Y-44712023D01*
X109457380Y-44807261D01*
X109457380Y-45045357D01*
X109409761Y-45140595D01*
X109362142Y-45188214D01*
X109777380Y-49474404D02*
X108777380Y-49474404D01*
X109777380Y-48902976D02*
X109205952Y-49331547D01*
X108777380Y-48902976D02*
X109348809Y-49474404D01*
X128507380Y-46140595D02*
X127507380Y-46140595D01*
X127507380Y-45902500D01*
X127555000Y-45759642D01*
X127650238Y-45664404D01*
X127745476Y-45616785D01*
X127935952Y-45569166D01*
X128078809Y-45569166D01*
X128269285Y-45616785D01*
X128364523Y-45664404D01*
X128459761Y-45759642D01*
X128507380Y-45902500D01*
X128507380Y-46140595D01*
X127507380Y-44712023D02*
X127507380Y-44902500D01*
X127555000Y-44997738D01*
X127602619Y-45045357D01*
X127745476Y-45140595D01*
X127935952Y-45188214D01*
X128316904Y-45188214D01*
X128412142Y-45140595D01*
X128459761Y-45092976D01*
X128507380Y-44997738D01*
X128507380Y-44807261D01*
X128459761Y-44712023D01*
X128412142Y-44664404D01*
X128316904Y-44616785D01*
X128078809Y-44616785D01*
X127983571Y-44664404D01*
X127935952Y-44712023D01*
X127888333Y-44807261D01*
X127888333Y-44997738D01*
X127935952Y-45092976D01*
X127983571Y-45140595D01*
X128078809Y-45188214D01*
X128827380Y-49474404D02*
X127827380Y-49474404D01*
X128827380Y-48902976D02*
X128255952Y-49331547D01*
X127827380Y-48902976D02*
X128398809Y-49474404D01*
X147557380Y-46140595D02*
X146557380Y-46140595D01*
X146557380Y-45902500D01*
X146605000Y-45759642D01*
X146700238Y-45664404D01*
X146795476Y-45616785D01*
X146985952Y-45569166D01*
X147128809Y-45569166D01*
X147319285Y-45616785D01*
X147414523Y-45664404D01*
X147509761Y-45759642D01*
X147557380Y-45902500D01*
X147557380Y-46140595D01*
X146557380Y-45235833D02*
X146557380Y-44569166D01*
X147557380Y-44997738D01*
X147877380Y-49474404D02*
X146877380Y-49474404D01*
X147877380Y-48902976D02*
X147305952Y-49331547D01*
X146877380Y-48902976D02*
X147448809Y-49474404D01*
X166607380Y-46140595D02*
X165607380Y-46140595D01*
X165607380Y-45902500D01*
X165655000Y-45759642D01*
X165750238Y-45664404D01*
X165845476Y-45616785D01*
X166035952Y-45569166D01*
X166178809Y-45569166D01*
X166369285Y-45616785D01*
X166464523Y-45664404D01*
X166559761Y-45759642D01*
X166607380Y-45902500D01*
X166607380Y-46140595D01*
X166035952Y-44997738D02*
X165988333Y-45092976D01*
X165940714Y-45140595D01*
X165845476Y-45188214D01*
X165797857Y-45188214D01*
X165702619Y-45140595D01*
X165655000Y-45092976D01*
X165607380Y-44997738D01*
X165607380Y-44807261D01*
X165655000Y-44712023D01*
X165702619Y-44664404D01*
X165797857Y-44616785D01*
X165845476Y-44616785D01*
X165940714Y-44664404D01*
X165988333Y-44712023D01*
X166035952Y-44807261D01*
X166035952Y-44997738D01*
X166083571Y-45092976D01*
X166131190Y-45140595D01*
X166226428Y-45188214D01*
X166416904Y-45188214D01*
X166512142Y-45140595D01*
X166559761Y-45092976D01*
X166607380Y-44997738D01*
X166607380Y-44807261D01*
X166559761Y-44712023D01*
X166512142Y-44664404D01*
X166416904Y-44616785D01*
X166226428Y-44616785D01*
X166131190Y-44664404D01*
X166083571Y-44712023D01*
X166035952Y-44807261D01*
X166927380Y-49474404D02*
X165927380Y-49474404D01*
X166927380Y-48902976D02*
X166355952Y-49331547D01*
X165927380Y-48902976D02*
X166498809Y-49474404D01*
X185657380Y-46140595D02*
X184657380Y-46140595D01*
X184657380Y-45902500D01*
X184705000Y-45759642D01*
X184800238Y-45664404D01*
X184895476Y-45616785D01*
X185085952Y-45569166D01*
X185228809Y-45569166D01*
X185419285Y-45616785D01*
X185514523Y-45664404D01*
X185609761Y-45759642D01*
X185657380Y-45902500D01*
X185657380Y-46140595D01*
X185657380Y-45092976D02*
X185657380Y-44902500D01*
X185609761Y-44807261D01*
X185562142Y-44759642D01*
X185419285Y-44664404D01*
X185228809Y-44616785D01*
X184847857Y-44616785D01*
X184752619Y-44664404D01*
X184705000Y-44712023D01*
X184657380Y-44807261D01*
X184657380Y-44997738D01*
X184705000Y-45092976D01*
X184752619Y-45140595D01*
X184847857Y-45188214D01*
X185085952Y-45188214D01*
X185181190Y-45140595D01*
X185228809Y-45092976D01*
X185276428Y-44997738D01*
X185276428Y-44807261D01*
X185228809Y-44712023D01*
X185181190Y-44664404D01*
X185085952Y-44616785D01*
X185977380Y-49474404D02*
X184977380Y-49474404D01*
X185977380Y-48902976D02*
X185405952Y-49331547D01*
X184977380Y-48902976D02*
X185548809Y-49474404D01*
X204707380Y-46616785D02*
X203707380Y-46616785D01*
X203707380Y-46378690D01*
X203755000Y-46235833D01*
X203850238Y-46140595D01*
X203945476Y-46092976D01*
X204135952Y-46045357D01*
X204278809Y-46045357D01*
X204469285Y-46092976D01*
X204564523Y-46140595D01*
X204659761Y-46235833D01*
X204707380Y-46378690D01*
X204707380Y-46616785D01*
X204707380Y-45092976D02*
X204707380Y-45664404D01*
X204707380Y-45378690D02*
X203707380Y-45378690D01*
X203850238Y-45473928D01*
X203945476Y-45569166D01*
X203993095Y-45664404D01*
X203707380Y-44473928D02*
X203707380Y-44378690D01*
X203755000Y-44283452D01*
X203802619Y-44235833D01*
X203897857Y-44188214D01*
X204088333Y-44140595D01*
X204326428Y-44140595D01*
X204516904Y-44188214D01*
X204612142Y-44235833D01*
X204659761Y-44283452D01*
X204707380Y-44378690D01*
X204707380Y-44473928D01*
X204659761Y-44569166D01*
X204612142Y-44616785D01*
X204516904Y-44664404D01*
X204326428Y-44712023D01*
X204088333Y-44712023D01*
X203897857Y-44664404D01*
X203802619Y-44616785D01*
X203755000Y-44569166D01*
X203707380Y-44473928D01*
X205027380Y-49474404D02*
X204027380Y-49474404D01*
X205027380Y-48902976D02*
X204455952Y-49331547D01*
X204027380Y-48902976D02*
X204598809Y-49474404D01*
X223757380Y-46616785D02*
X222757380Y-46616785D01*
X222757380Y-46378690D01*
X222805000Y-46235833D01*
X222900238Y-46140595D01*
X222995476Y-46092976D01*
X223185952Y-46045357D01*
X223328809Y-46045357D01*
X223519285Y-46092976D01*
X223614523Y-46140595D01*
X223709761Y-46235833D01*
X223757380Y-46378690D01*
X223757380Y-46616785D01*
X223757380Y-45092976D02*
X223757380Y-45664404D01*
X223757380Y-45378690D02*
X222757380Y-45378690D01*
X222900238Y-45473928D01*
X222995476Y-45569166D01*
X223043095Y-45664404D01*
X223757380Y-44140595D02*
X223757380Y-44712023D01*
X223757380Y-44426309D02*
X222757380Y-44426309D01*
X222900238Y-44521547D01*
X222995476Y-44616785D01*
X223043095Y-44712023D01*
X224077380Y-49474404D02*
X223077380Y-49474404D01*
X224077380Y-48902976D02*
X223505952Y-49331547D01*
X223077380Y-48902976D02*
X223648809Y-49474404D01*
X242807380Y-46616785D02*
X241807380Y-46616785D01*
X241807380Y-46378690D01*
X241855000Y-46235833D01*
X241950238Y-46140595D01*
X242045476Y-46092976D01*
X242235952Y-46045357D01*
X242378809Y-46045357D01*
X242569285Y-46092976D01*
X242664523Y-46140595D01*
X242759761Y-46235833D01*
X242807380Y-46378690D01*
X242807380Y-46616785D01*
X242807380Y-45092976D02*
X242807380Y-45664404D01*
X242807380Y-45378690D02*
X241807380Y-45378690D01*
X241950238Y-45473928D01*
X242045476Y-45569166D01*
X242093095Y-45664404D01*
X241902619Y-44712023D02*
X241855000Y-44664404D01*
X241807380Y-44569166D01*
X241807380Y-44331071D01*
X241855000Y-44235833D01*
X241902619Y-44188214D01*
X241997857Y-44140595D01*
X242093095Y-44140595D01*
X242235952Y-44188214D01*
X242807380Y-44759642D01*
X242807380Y-44140595D01*
X243127380Y-49474404D02*
X242127380Y-49474404D01*
X243127380Y-48902976D02*
X242555952Y-49331547D01*
X242127380Y-48902976D02*
X242698809Y-49474404D01*
X261857380Y-46616785D02*
X260857380Y-46616785D01*
X260857380Y-46378690D01*
X260905000Y-46235833D01*
X261000238Y-46140595D01*
X261095476Y-46092976D01*
X261285952Y-46045357D01*
X261428809Y-46045357D01*
X261619285Y-46092976D01*
X261714523Y-46140595D01*
X261809761Y-46235833D01*
X261857380Y-46378690D01*
X261857380Y-46616785D01*
X261857380Y-45092976D02*
X261857380Y-45664404D01*
X261857380Y-45378690D02*
X260857380Y-45378690D01*
X261000238Y-45473928D01*
X261095476Y-45569166D01*
X261143095Y-45664404D01*
X260857380Y-44759642D02*
X260857380Y-44140595D01*
X261238333Y-44473928D01*
X261238333Y-44331071D01*
X261285952Y-44235833D01*
X261333571Y-44188214D01*
X261428809Y-44140595D01*
X261666904Y-44140595D01*
X261762142Y-44188214D01*
X261809761Y-44235833D01*
X261857380Y-44331071D01*
X261857380Y-44616785D01*
X261809761Y-44712023D01*
X261762142Y-44759642D01*
X262177380Y-49474404D02*
X261177380Y-49474404D01*
X262177380Y-48902976D02*
X261605952Y-49331547D01*
X261177380Y-48902976D02*
X261748809Y-49474404D01*
X299957380Y-46616785D02*
X298957380Y-46616785D01*
X298957380Y-46378690D01*
X299005000Y-46235833D01*
X299100238Y-46140595D01*
X299195476Y-46092976D01*
X299385952Y-46045357D01*
X299528809Y-46045357D01*
X299719285Y-46092976D01*
X299814523Y-46140595D01*
X299909761Y-46235833D01*
X299957380Y-46378690D01*
X299957380Y-46616785D01*
X299957380Y-45092976D02*
X299957380Y-45664404D01*
X299957380Y-45378690D02*
X298957380Y-45378690D01*
X299100238Y-45473928D01*
X299195476Y-45569166D01*
X299243095Y-45664404D01*
X299290714Y-44235833D02*
X299957380Y-44235833D01*
X298909761Y-44473928D02*
X299624047Y-44712023D01*
X299624047Y-44092976D01*
X300277380Y-49474404D02*
X299277380Y-49474404D01*
X300277380Y-48902976D02*
X299705952Y-49331547D01*
X299277380Y-48902976D02*
X299848809Y-49474404D01*
X40401130Y-65666785D02*
X39401130Y-65666785D01*
X39401130Y-65428690D01*
X39448750Y-65285833D01*
X39543988Y-65190595D01*
X39639226Y-65142976D01*
X39829702Y-65095357D01*
X39972559Y-65095357D01*
X40163035Y-65142976D01*
X40258273Y-65190595D01*
X40353511Y-65285833D01*
X40401130Y-65428690D01*
X40401130Y-65666785D01*
X40401130Y-64142976D02*
X40401130Y-64714404D01*
X40401130Y-64428690D02*
X39401130Y-64428690D01*
X39543988Y-64523928D01*
X39639226Y-64619166D01*
X39686845Y-64714404D01*
X39401130Y-63238214D02*
X39401130Y-63714404D01*
X39877321Y-63762023D01*
X39829702Y-63714404D01*
X39782083Y-63619166D01*
X39782083Y-63381071D01*
X39829702Y-63285833D01*
X39877321Y-63238214D01*
X39972559Y-63190595D01*
X40210654Y-63190595D01*
X40305892Y-63238214D01*
X40353511Y-63285833D01*
X40401130Y-63381071D01*
X40401130Y-63619166D01*
X40353511Y-63714404D01*
X40305892Y-63762023D01*
X40721130Y-68524404D02*
X39721130Y-68524404D01*
X40721130Y-67952976D02*
X40149702Y-68381547D01*
X39721130Y-67952976D02*
X40292559Y-68524404D01*
X61832380Y-65666785D02*
X60832380Y-65666785D01*
X60832380Y-65428690D01*
X60880000Y-65285833D01*
X60975238Y-65190595D01*
X61070476Y-65142976D01*
X61260952Y-65095357D01*
X61403809Y-65095357D01*
X61594285Y-65142976D01*
X61689523Y-65190595D01*
X61784761Y-65285833D01*
X61832380Y-65428690D01*
X61832380Y-65666785D01*
X61832380Y-64142976D02*
X61832380Y-64714404D01*
X61832380Y-64428690D02*
X60832380Y-64428690D01*
X60975238Y-64523928D01*
X61070476Y-64619166D01*
X61118095Y-64714404D01*
X60832380Y-63285833D02*
X60832380Y-63476309D01*
X60880000Y-63571547D01*
X60927619Y-63619166D01*
X61070476Y-63714404D01*
X61260952Y-63762023D01*
X61641904Y-63762023D01*
X61737142Y-63714404D01*
X61784761Y-63666785D01*
X61832380Y-63571547D01*
X61832380Y-63381071D01*
X61784761Y-63285833D01*
X61737142Y-63238214D01*
X61641904Y-63190595D01*
X61403809Y-63190595D01*
X61308571Y-63238214D01*
X61260952Y-63285833D01*
X61213333Y-63381071D01*
X61213333Y-63571547D01*
X61260952Y-63666785D01*
X61308571Y-63714404D01*
X61403809Y-63762023D01*
X62152380Y-68524404D02*
X61152380Y-68524404D01*
X62152380Y-67952976D02*
X61580952Y-68381547D01*
X61152380Y-67952976D02*
X61723809Y-68524404D01*
X80882380Y-65666785D02*
X79882380Y-65666785D01*
X79882380Y-65428690D01*
X79930000Y-65285833D01*
X80025238Y-65190595D01*
X80120476Y-65142976D01*
X80310952Y-65095357D01*
X80453809Y-65095357D01*
X80644285Y-65142976D01*
X80739523Y-65190595D01*
X80834761Y-65285833D01*
X80882380Y-65428690D01*
X80882380Y-65666785D01*
X80882380Y-64142976D02*
X80882380Y-64714404D01*
X80882380Y-64428690D02*
X79882380Y-64428690D01*
X80025238Y-64523928D01*
X80120476Y-64619166D01*
X80168095Y-64714404D01*
X79882380Y-63809642D02*
X79882380Y-63142976D01*
X80882380Y-63571547D01*
X81202380Y-68524404D02*
X80202380Y-68524404D01*
X81202380Y-67952976D02*
X80630952Y-68381547D01*
X80202380Y-67952976D02*
X80773809Y-68524404D01*
X99932380Y-65666785D02*
X98932380Y-65666785D01*
X98932380Y-65428690D01*
X98980000Y-65285833D01*
X99075238Y-65190595D01*
X99170476Y-65142976D01*
X99360952Y-65095357D01*
X99503809Y-65095357D01*
X99694285Y-65142976D01*
X99789523Y-65190595D01*
X99884761Y-65285833D01*
X99932380Y-65428690D01*
X99932380Y-65666785D01*
X99932380Y-64142976D02*
X99932380Y-64714404D01*
X99932380Y-64428690D02*
X98932380Y-64428690D01*
X99075238Y-64523928D01*
X99170476Y-64619166D01*
X99218095Y-64714404D01*
X99360952Y-63571547D02*
X99313333Y-63666785D01*
X99265714Y-63714404D01*
X99170476Y-63762023D01*
X99122857Y-63762023D01*
X99027619Y-63714404D01*
X98980000Y-63666785D01*
X98932380Y-63571547D01*
X98932380Y-63381071D01*
X98980000Y-63285833D01*
X99027619Y-63238214D01*
X99122857Y-63190595D01*
X99170476Y-63190595D01*
X99265714Y-63238214D01*
X99313333Y-63285833D01*
X99360952Y-63381071D01*
X99360952Y-63571547D01*
X99408571Y-63666785D01*
X99456190Y-63714404D01*
X99551428Y-63762023D01*
X99741904Y-63762023D01*
X99837142Y-63714404D01*
X99884761Y-63666785D01*
X99932380Y-63571547D01*
X99932380Y-63381071D01*
X99884761Y-63285833D01*
X99837142Y-63238214D01*
X99741904Y-63190595D01*
X99551428Y-63190595D01*
X99456190Y-63238214D01*
X99408571Y-63285833D01*
X99360952Y-63381071D01*
X100252380Y-68524404D02*
X99252380Y-68524404D01*
X100252380Y-67952976D02*
X99680952Y-68381547D01*
X99252380Y-67952976D02*
X99823809Y-68524404D01*
X118982380Y-65666785D02*
X117982380Y-65666785D01*
X117982380Y-65428690D01*
X118030000Y-65285833D01*
X118125238Y-65190595D01*
X118220476Y-65142976D01*
X118410952Y-65095357D01*
X118553809Y-65095357D01*
X118744285Y-65142976D01*
X118839523Y-65190595D01*
X118934761Y-65285833D01*
X118982380Y-65428690D01*
X118982380Y-65666785D01*
X118982380Y-64142976D02*
X118982380Y-64714404D01*
X118982380Y-64428690D02*
X117982380Y-64428690D01*
X118125238Y-64523928D01*
X118220476Y-64619166D01*
X118268095Y-64714404D01*
X118982380Y-63666785D02*
X118982380Y-63476309D01*
X118934761Y-63381071D01*
X118887142Y-63333452D01*
X118744285Y-63238214D01*
X118553809Y-63190595D01*
X118172857Y-63190595D01*
X118077619Y-63238214D01*
X118030000Y-63285833D01*
X117982380Y-63381071D01*
X117982380Y-63571547D01*
X118030000Y-63666785D01*
X118077619Y-63714404D01*
X118172857Y-63762023D01*
X118410952Y-63762023D01*
X118506190Y-63714404D01*
X118553809Y-63666785D01*
X118601428Y-63571547D01*
X118601428Y-63381071D01*
X118553809Y-63285833D01*
X118506190Y-63238214D01*
X118410952Y-63190595D01*
X119302380Y-68524404D02*
X118302380Y-68524404D01*
X119302380Y-67952976D02*
X118730952Y-68381547D01*
X118302380Y-67952976D02*
X118873809Y-68524404D01*
X138032380Y-65666785D02*
X137032380Y-65666785D01*
X137032380Y-65428690D01*
X137080000Y-65285833D01*
X137175238Y-65190595D01*
X137270476Y-65142976D01*
X137460952Y-65095357D01*
X137603809Y-65095357D01*
X137794285Y-65142976D01*
X137889523Y-65190595D01*
X137984761Y-65285833D01*
X138032380Y-65428690D01*
X138032380Y-65666785D01*
X137127619Y-64714404D02*
X137080000Y-64666785D01*
X137032380Y-64571547D01*
X137032380Y-64333452D01*
X137080000Y-64238214D01*
X137127619Y-64190595D01*
X137222857Y-64142976D01*
X137318095Y-64142976D01*
X137460952Y-64190595D01*
X138032380Y-64762023D01*
X138032380Y-64142976D01*
X137032380Y-63523928D02*
X137032380Y-63428690D01*
X137080000Y-63333452D01*
X137127619Y-63285833D01*
X137222857Y-63238214D01*
X137413333Y-63190595D01*
X137651428Y-63190595D01*
X137841904Y-63238214D01*
X137937142Y-63285833D01*
X137984761Y-63333452D01*
X138032380Y-63428690D01*
X138032380Y-63523928D01*
X137984761Y-63619166D01*
X137937142Y-63666785D01*
X137841904Y-63714404D01*
X137651428Y-63762023D01*
X137413333Y-63762023D01*
X137222857Y-63714404D01*
X137127619Y-63666785D01*
X137080000Y-63619166D01*
X137032380Y-63523928D01*
X138352380Y-68524404D02*
X137352380Y-68524404D01*
X138352380Y-67952976D02*
X137780952Y-68381547D01*
X137352380Y-67952976D02*
X137923809Y-68524404D01*
X157082380Y-65666785D02*
X156082380Y-65666785D01*
X156082380Y-65428690D01*
X156130000Y-65285833D01*
X156225238Y-65190595D01*
X156320476Y-65142976D01*
X156510952Y-65095357D01*
X156653809Y-65095357D01*
X156844285Y-65142976D01*
X156939523Y-65190595D01*
X157034761Y-65285833D01*
X157082380Y-65428690D01*
X157082380Y-65666785D01*
X156177619Y-64714404D02*
X156130000Y-64666785D01*
X156082380Y-64571547D01*
X156082380Y-64333452D01*
X156130000Y-64238214D01*
X156177619Y-64190595D01*
X156272857Y-64142976D01*
X156368095Y-64142976D01*
X156510952Y-64190595D01*
X157082380Y-64762023D01*
X157082380Y-64142976D01*
X157082380Y-63190595D02*
X157082380Y-63762023D01*
X157082380Y-63476309D02*
X156082380Y-63476309D01*
X156225238Y-63571547D01*
X156320476Y-63666785D01*
X156368095Y-63762023D01*
X157402380Y-68524404D02*
X156402380Y-68524404D01*
X157402380Y-67952976D02*
X156830952Y-68381547D01*
X156402380Y-67952976D02*
X156973809Y-68524404D01*
X176132380Y-65666785D02*
X175132380Y-65666785D01*
X175132380Y-65428690D01*
X175180000Y-65285833D01*
X175275238Y-65190595D01*
X175370476Y-65142976D01*
X175560952Y-65095357D01*
X175703809Y-65095357D01*
X175894285Y-65142976D01*
X175989523Y-65190595D01*
X176084761Y-65285833D01*
X176132380Y-65428690D01*
X176132380Y-65666785D01*
X175227619Y-64714404D02*
X175180000Y-64666785D01*
X175132380Y-64571547D01*
X175132380Y-64333452D01*
X175180000Y-64238214D01*
X175227619Y-64190595D01*
X175322857Y-64142976D01*
X175418095Y-64142976D01*
X175560952Y-64190595D01*
X176132380Y-64762023D01*
X176132380Y-64142976D01*
X175227619Y-63762023D02*
X175180000Y-63714404D01*
X175132380Y-63619166D01*
X175132380Y-63381071D01*
X175180000Y-63285833D01*
X175227619Y-63238214D01*
X175322857Y-63190595D01*
X175418095Y-63190595D01*
X175560952Y-63238214D01*
X176132380Y-63809642D01*
X176132380Y-63190595D01*
X176452380Y-68524404D02*
X175452380Y-68524404D01*
X176452380Y-67952976D02*
X175880952Y-68381547D01*
X175452380Y-67952976D02*
X176023809Y-68524404D01*
X195182380Y-65666785D02*
X194182380Y-65666785D01*
X194182380Y-65428690D01*
X194230000Y-65285833D01*
X194325238Y-65190595D01*
X194420476Y-65142976D01*
X194610952Y-65095357D01*
X194753809Y-65095357D01*
X194944285Y-65142976D01*
X195039523Y-65190595D01*
X195134761Y-65285833D01*
X195182380Y-65428690D01*
X195182380Y-65666785D01*
X194277619Y-64714404D02*
X194230000Y-64666785D01*
X194182380Y-64571547D01*
X194182380Y-64333452D01*
X194230000Y-64238214D01*
X194277619Y-64190595D01*
X194372857Y-64142976D01*
X194468095Y-64142976D01*
X194610952Y-64190595D01*
X195182380Y-64762023D01*
X195182380Y-64142976D01*
X194182380Y-63809642D02*
X194182380Y-63190595D01*
X194563333Y-63523928D01*
X194563333Y-63381071D01*
X194610952Y-63285833D01*
X194658571Y-63238214D01*
X194753809Y-63190595D01*
X194991904Y-63190595D01*
X195087142Y-63238214D01*
X195134761Y-63285833D01*
X195182380Y-63381071D01*
X195182380Y-63666785D01*
X195134761Y-63762023D01*
X195087142Y-63809642D01*
X195502380Y-68524404D02*
X194502380Y-68524404D01*
X195502380Y-67952976D02*
X194930952Y-68381547D01*
X194502380Y-67952976D02*
X195073809Y-68524404D01*
X214232380Y-65666785D02*
X213232380Y-65666785D01*
X213232380Y-65428690D01*
X213280000Y-65285833D01*
X213375238Y-65190595D01*
X213470476Y-65142976D01*
X213660952Y-65095357D01*
X213803809Y-65095357D01*
X213994285Y-65142976D01*
X214089523Y-65190595D01*
X214184761Y-65285833D01*
X214232380Y-65428690D01*
X214232380Y-65666785D01*
X213327619Y-64714404D02*
X213280000Y-64666785D01*
X213232380Y-64571547D01*
X213232380Y-64333452D01*
X213280000Y-64238214D01*
X213327619Y-64190595D01*
X213422857Y-64142976D01*
X213518095Y-64142976D01*
X213660952Y-64190595D01*
X214232380Y-64762023D01*
X214232380Y-64142976D01*
X213565714Y-63285833D02*
X214232380Y-63285833D01*
X213184761Y-63523928D02*
X213899047Y-63762023D01*
X213899047Y-63142976D01*
X214552380Y-68524404D02*
X213552380Y-68524404D01*
X214552380Y-67952976D02*
X213980952Y-68381547D01*
X213552380Y-67952976D02*
X214123809Y-68524404D01*
X233282380Y-65666785D02*
X232282380Y-65666785D01*
X232282380Y-65428690D01*
X232330000Y-65285833D01*
X232425238Y-65190595D01*
X232520476Y-65142976D01*
X232710952Y-65095357D01*
X232853809Y-65095357D01*
X233044285Y-65142976D01*
X233139523Y-65190595D01*
X233234761Y-65285833D01*
X233282380Y-65428690D01*
X233282380Y-65666785D01*
X232377619Y-64714404D02*
X232330000Y-64666785D01*
X232282380Y-64571547D01*
X232282380Y-64333452D01*
X232330000Y-64238214D01*
X232377619Y-64190595D01*
X232472857Y-64142976D01*
X232568095Y-64142976D01*
X232710952Y-64190595D01*
X233282380Y-64762023D01*
X233282380Y-64142976D01*
X232282380Y-63238214D02*
X232282380Y-63714404D01*
X232758571Y-63762023D01*
X232710952Y-63714404D01*
X232663333Y-63619166D01*
X232663333Y-63381071D01*
X232710952Y-63285833D01*
X232758571Y-63238214D01*
X232853809Y-63190595D01*
X233091904Y-63190595D01*
X233187142Y-63238214D01*
X233234761Y-63285833D01*
X233282380Y-63381071D01*
X233282380Y-63619166D01*
X233234761Y-63714404D01*
X233187142Y-63762023D01*
X233602380Y-68524404D02*
X232602380Y-68524404D01*
X233602380Y-67952976D02*
X233030952Y-68381547D01*
X232602380Y-67952976D02*
X233173809Y-68524404D01*
X252332380Y-65666785D02*
X251332380Y-65666785D01*
X251332380Y-65428690D01*
X251380000Y-65285833D01*
X251475238Y-65190595D01*
X251570476Y-65142976D01*
X251760952Y-65095357D01*
X251903809Y-65095357D01*
X252094285Y-65142976D01*
X252189523Y-65190595D01*
X252284761Y-65285833D01*
X252332380Y-65428690D01*
X252332380Y-65666785D01*
X251427619Y-64714404D02*
X251380000Y-64666785D01*
X251332380Y-64571547D01*
X251332380Y-64333452D01*
X251380000Y-64238214D01*
X251427619Y-64190595D01*
X251522857Y-64142976D01*
X251618095Y-64142976D01*
X251760952Y-64190595D01*
X252332380Y-64762023D01*
X252332380Y-64142976D01*
X251332380Y-63285833D02*
X251332380Y-63476309D01*
X251380000Y-63571547D01*
X251427619Y-63619166D01*
X251570476Y-63714404D01*
X251760952Y-63762023D01*
X252141904Y-63762023D01*
X252237142Y-63714404D01*
X252284761Y-63666785D01*
X252332380Y-63571547D01*
X252332380Y-63381071D01*
X252284761Y-63285833D01*
X252237142Y-63238214D01*
X252141904Y-63190595D01*
X251903809Y-63190595D01*
X251808571Y-63238214D01*
X251760952Y-63285833D01*
X251713333Y-63381071D01*
X251713333Y-63571547D01*
X251760952Y-63666785D01*
X251808571Y-63714404D01*
X251903809Y-63762023D01*
X252652380Y-68524404D02*
X251652380Y-68524404D01*
X252652380Y-67952976D02*
X252080952Y-68381547D01*
X251652380Y-67952976D02*
X252223809Y-68524404D01*
X271382380Y-65666785D02*
X270382380Y-65666785D01*
X270382380Y-65428690D01*
X270430000Y-65285833D01*
X270525238Y-65190595D01*
X270620476Y-65142976D01*
X270810952Y-65095357D01*
X270953809Y-65095357D01*
X271144285Y-65142976D01*
X271239523Y-65190595D01*
X271334761Y-65285833D01*
X271382380Y-65428690D01*
X271382380Y-65666785D01*
X270477619Y-64714404D02*
X270430000Y-64666785D01*
X270382380Y-64571547D01*
X270382380Y-64333452D01*
X270430000Y-64238214D01*
X270477619Y-64190595D01*
X270572857Y-64142976D01*
X270668095Y-64142976D01*
X270810952Y-64190595D01*
X271382380Y-64762023D01*
X271382380Y-64142976D01*
X270382380Y-63809642D02*
X270382380Y-63142976D01*
X271382380Y-63571547D01*
X271702380Y-68524404D02*
X270702380Y-68524404D01*
X271702380Y-67952976D02*
X271130952Y-68381547D01*
X270702380Y-67952976D02*
X271273809Y-68524404D01*
X299957380Y-65666785D02*
X298957380Y-65666785D01*
X298957380Y-65428690D01*
X299005000Y-65285833D01*
X299100238Y-65190595D01*
X299195476Y-65142976D01*
X299385952Y-65095357D01*
X299528809Y-65095357D01*
X299719285Y-65142976D01*
X299814523Y-65190595D01*
X299909761Y-65285833D01*
X299957380Y-65428690D01*
X299957380Y-65666785D01*
X299052619Y-64714404D02*
X299005000Y-64666785D01*
X298957380Y-64571547D01*
X298957380Y-64333452D01*
X299005000Y-64238214D01*
X299052619Y-64190595D01*
X299147857Y-64142976D01*
X299243095Y-64142976D01*
X299385952Y-64190595D01*
X299957380Y-64762023D01*
X299957380Y-64142976D01*
X299385952Y-63571547D02*
X299338333Y-63666785D01*
X299290714Y-63714404D01*
X299195476Y-63762023D01*
X299147857Y-63762023D01*
X299052619Y-63714404D01*
X299005000Y-63666785D01*
X298957380Y-63571547D01*
X298957380Y-63381071D01*
X299005000Y-63285833D01*
X299052619Y-63238214D01*
X299147857Y-63190595D01*
X299195476Y-63190595D01*
X299290714Y-63238214D01*
X299338333Y-63285833D01*
X299385952Y-63381071D01*
X299385952Y-63571547D01*
X299433571Y-63666785D01*
X299481190Y-63714404D01*
X299576428Y-63762023D01*
X299766904Y-63762023D01*
X299862142Y-63714404D01*
X299909761Y-63666785D01*
X299957380Y-63571547D01*
X299957380Y-63381071D01*
X299909761Y-63285833D01*
X299862142Y-63238214D01*
X299766904Y-63190595D01*
X299576428Y-63190595D01*
X299481190Y-63238214D01*
X299433571Y-63285833D01*
X299385952Y-63381071D01*
X300277380Y-68524404D02*
X299277380Y-68524404D01*
X300277380Y-67952976D02*
X299705952Y-68381547D01*
X299277380Y-67952976D02*
X299848809Y-68524404D01*
X309482380Y-65666785D02*
X308482380Y-65666785D01*
X308482380Y-65428690D01*
X308530000Y-65285833D01*
X308625238Y-65190595D01*
X308720476Y-65142976D01*
X308910952Y-65095357D01*
X309053809Y-65095357D01*
X309244285Y-65142976D01*
X309339523Y-65190595D01*
X309434761Y-65285833D01*
X309482380Y-65428690D01*
X309482380Y-65666785D01*
X308577619Y-64714404D02*
X308530000Y-64666785D01*
X308482380Y-64571547D01*
X308482380Y-64333452D01*
X308530000Y-64238214D01*
X308577619Y-64190595D01*
X308672857Y-64142976D01*
X308768095Y-64142976D01*
X308910952Y-64190595D01*
X309482380Y-64762023D01*
X309482380Y-64142976D01*
X309482380Y-63666785D02*
X309482380Y-63476309D01*
X309434761Y-63381071D01*
X309387142Y-63333452D01*
X309244285Y-63238214D01*
X309053809Y-63190595D01*
X308672857Y-63190595D01*
X308577619Y-63238214D01*
X308530000Y-63285833D01*
X308482380Y-63381071D01*
X308482380Y-63571547D01*
X308530000Y-63666785D01*
X308577619Y-63714404D01*
X308672857Y-63762023D01*
X308910952Y-63762023D01*
X309006190Y-63714404D01*
X309053809Y-63666785D01*
X309101428Y-63571547D01*
X309101428Y-63381071D01*
X309053809Y-63285833D01*
X309006190Y-63238214D01*
X308910952Y-63190595D01*
X309802380Y-68524404D02*
X308802380Y-68524404D01*
X309802380Y-67952976D02*
X309230952Y-68381547D01*
X308802380Y-67952976D02*
X309373809Y-68524404D01*
X42782380Y-84716785D02*
X41782380Y-84716785D01*
X41782380Y-84478690D01*
X41830000Y-84335833D01*
X41925238Y-84240595D01*
X42020476Y-84192976D01*
X42210952Y-84145357D01*
X42353809Y-84145357D01*
X42544285Y-84192976D01*
X42639523Y-84240595D01*
X42734761Y-84335833D01*
X42782380Y-84478690D01*
X42782380Y-84716785D01*
X41782380Y-83812023D02*
X41782380Y-83192976D01*
X42163333Y-83526309D01*
X42163333Y-83383452D01*
X42210952Y-83288214D01*
X42258571Y-83240595D01*
X42353809Y-83192976D01*
X42591904Y-83192976D01*
X42687142Y-83240595D01*
X42734761Y-83288214D01*
X42782380Y-83383452D01*
X42782380Y-83669166D01*
X42734761Y-83764404D01*
X42687142Y-83812023D01*
X41782380Y-82573928D02*
X41782380Y-82478690D01*
X41830000Y-82383452D01*
X41877619Y-82335833D01*
X41972857Y-82288214D01*
X42163333Y-82240595D01*
X42401428Y-82240595D01*
X42591904Y-82288214D01*
X42687142Y-82335833D01*
X42734761Y-82383452D01*
X42782380Y-82478690D01*
X42782380Y-82573928D01*
X42734761Y-82669166D01*
X42687142Y-82716785D01*
X42591904Y-82764404D01*
X42401428Y-82812023D01*
X42163333Y-82812023D01*
X41972857Y-82764404D01*
X41877619Y-82716785D01*
X41830000Y-82669166D01*
X41782380Y-82573928D01*
X43102380Y-87574404D02*
X42102380Y-87574404D01*
X43102380Y-87002976D02*
X42530952Y-87431547D01*
X42102380Y-87002976D02*
X42673809Y-87574404D01*
X66594880Y-84716785D02*
X65594880Y-84716785D01*
X65594880Y-84478690D01*
X65642500Y-84335833D01*
X65737738Y-84240595D01*
X65832976Y-84192976D01*
X66023452Y-84145357D01*
X66166309Y-84145357D01*
X66356785Y-84192976D01*
X66452023Y-84240595D01*
X66547261Y-84335833D01*
X66594880Y-84478690D01*
X66594880Y-84716785D01*
X65594880Y-83812023D02*
X65594880Y-83192976D01*
X65975833Y-83526309D01*
X65975833Y-83383452D01*
X66023452Y-83288214D01*
X66071071Y-83240595D01*
X66166309Y-83192976D01*
X66404404Y-83192976D01*
X66499642Y-83240595D01*
X66547261Y-83288214D01*
X66594880Y-83383452D01*
X66594880Y-83669166D01*
X66547261Y-83764404D01*
X66499642Y-83812023D01*
X66594880Y-82240595D02*
X66594880Y-82812023D01*
X66594880Y-82526309D02*
X65594880Y-82526309D01*
X65737738Y-82621547D01*
X65832976Y-82716785D01*
X65880595Y-82812023D01*
X66914880Y-87574404D02*
X65914880Y-87574404D01*
X66914880Y-87002976D02*
X66343452Y-87431547D01*
X65914880Y-87002976D02*
X66486309Y-87574404D01*
X85644880Y-84716785D02*
X84644880Y-84716785D01*
X84644880Y-84478690D01*
X84692500Y-84335833D01*
X84787738Y-84240595D01*
X84882976Y-84192976D01*
X85073452Y-84145357D01*
X85216309Y-84145357D01*
X85406785Y-84192976D01*
X85502023Y-84240595D01*
X85597261Y-84335833D01*
X85644880Y-84478690D01*
X85644880Y-84716785D01*
X84644880Y-83812023D02*
X84644880Y-83192976D01*
X85025833Y-83526309D01*
X85025833Y-83383452D01*
X85073452Y-83288214D01*
X85121071Y-83240595D01*
X85216309Y-83192976D01*
X85454404Y-83192976D01*
X85549642Y-83240595D01*
X85597261Y-83288214D01*
X85644880Y-83383452D01*
X85644880Y-83669166D01*
X85597261Y-83764404D01*
X85549642Y-83812023D01*
X84740119Y-82812023D02*
X84692500Y-82764404D01*
X84644880Y-82669166D01*
X84644880Y-82431071D01*
X84692500Y-82335833D01*
X84740119Y-82288214D01*
X84835357Y-82240595D01*
X84930595Y-82240595D01*
X85073452Y-82288214D01*
X85644880Y-82859642D01*
X85644880Y-82240595D01*
X85964880Y-87574404D02*
X84964880Y-87574404D01*
X85964880Y-87002976D02*
X85393452Y-87431547D01*
X84964880Y-87002976D02*
X85536309Y-87574404D01*
X104694880Y-84716785D02*
X103694880Y-84716785D01*
X103694880Y-84478690D01*
X103742500Y-84335833D01*
X103837738Y-84240595D01*
X103932976Y-84192976D01*
X104123452Y-84145357D01*
X104266309Y-84145357D01*
X104456785Y-84192976D01*
X104552023Y-84240595D01*
X104647261Y-84335833D01*
X104694880Y-84478690D01*
X104694880Y-84716785D01*
X103694880Y-83812023D02*
X103694880Y-83192976D01*
X104075833Y-83526309D01*
X104075833Y-83383452D01*
X104123452Y-83288214D01*
X104171071Y-83240595D01*
X104266309Y-83192976D01*
X104504404Y-83192976D01*
X104599642Y-83240595D01*
X104647261Y-83288214D01*
X104694880Y-83383452D01*
X104694880Y-83669166D01*
X104647261Y-83764404D01*
X104599642Y-83812023D01*
X103694880Y-82859642D02*
X103694880Y-82240595D01*
X104075833Y-82573928D01*
X104075833Y-82431071D01*
X104123452Y-82335833D01*
X104171071Y-82288214D01*
X104266309Y-82240595D01*
X104504404Y-82240595D01*
X104599642Y-82288214D01*
X104647261Y-82335833D01*
X104694880Y-82431071D01*
X104694880Y-82716785D01*
X104647261Y-82812023D01*
X104599642Y-82859642D01*
X105014880Y-87574404D02*
X104014880Y-87574404D01*
X105014880Y-87002976D02*
X104443452Y-87431547D01*
X104014880Y-87002976D02*
X104586309Y-87574404D01*
X123744880Y-84716785D02*
X122744880Y-84716785D01*
X122744880Y-84478690D01*
X122792500Y-84335833D01*
X122887738Y-84240595D01*
X122982976Y-84192976D01*
X123173452Y-84145357D01*
X123316309Y-84145357D01*
X123506785Y-84192976D01*
X123602023Y-84240595D01*
X123697261Y-84335833D01*
X123744880Y-84478690D01*
X123744880Y-84716785D01*
X122744880Y-83812023D02*
X122744880Y-83192976D01*
X123125833Y-83526309D01*
X123125833Y-83383452D01*
X123173452Y-83288214D01*
X123221071Y-83240595D01*
X123316309Y-83192976D01*
X123554404Y-83192976D01*
X123649642Y-83240595D01*
X123697261Y-83288214D01*
X123744880Y-83383452D01*
X123744880Y-83669166D01*
X123697261Y-83764404D01*
X123649642Y-83812023D01*
X123078214Y-82335833D02*
X123744880Y-82335833D01*
X122697261Y-82573928D02*
X123411547Y-82812023D01*
X123411547Y-82192976D01*
X124064880Y-87574404D02*
X123064880Y-87574404D01*
X124064880Y-87002976D02*
X123493452Y-87431547D01*
X123064880Y-87002976D02*
X123636309Y-87574404D01*
X142794880Y-84716785D02*
X141794880Y-84716785D01*
X141794880Y-84478690D01*
X141842500Y-84335833D01*
X141937738Y-84240595D01*
X142032976Y-84192976D01*
X142223452Y-84145357D01*
X142366309Y-84145357D01*
X142556785Y-84192976D01*
X142652023Y-84240595D01*
X142747261Y-84335833D01*
X142794880Y-84478690D01*
X142794880Y-84716785D01*
X141794880Y-83812023D02*
X141794880Y-83192976D01*
X142175833Y-83526309D01*
X142175833Y-83383452D01*
X142223452Y-83288214D01*
X142271071Y-83240595D01*
X142366309Y-83192976D01*
X142604404Y-83192976D01*
X142699642Y-83240595D01*
X142747261Y-83288214D01*
X142794880Y-83383452D01*
X142794880Y-83669166D01*
X142747261Y-83764404D01*
X142699642Y-83812023D01*
X141794880Y-82288214D02*
X141794880Y-82764404D01*
X142271071Y-82812023D01*
X142223452Y-82764404D01*
X142175833Y-82669166D01*
X142175833Y-82431071D01*
X142223452Y-82335833D01*
X142271071Y-82288214D01*
X142366309Y-82240595D01*
X142604404Y-82240595D01*
X142699642Y-82288214D01*
X142747261Y-82335833D01*
X142794880Y-82431071D01*
X142794880Y-82669166D01*
X142747261Y-82764404D01*
X142699642Y-82812023D01*
X143114880Y-87574404D02*
X142114880Y-87574404D01*
X143114880Y-87002976D02*
X142543452Y-87431547D01*
X142114880Y-87002976D02*
X142686309Y-87574404D01*
X161844880Y-84716785D02*
X160844880Y-84716785D01*
X160844880Y-84478690D01*
X160892500Y-84335833D01*
X160987738Y-84240595D01*
X161082976Y-84192976D01*
X161273452Y-84145357D01*
X161416309Y-84145357D01*
X161606785Y-84192976D01*
X161702023Y-84240595D01*
X161797261Y-84335833D01*
X161844880Y-84478690D01*
X161844880Y-84716785D01*
X160844880Y-83812023D02*
X160844880Y-83192976D01*
X161225833Y-83526309D01*
X161225833Y-83383452D01*
X161273452Y-83288214D01*
X161321071Y-83240595D01*
X161416309Y-83192976D01*
X161654404Y-83192976D01*
X161749642Y-83240595D01*
X161797261Y-83288214D01*
X161844880Y-83383452D01*
X161844880Y-83669166D01*
X161797261Y-83764404D01*
X161749642Y-83812023D01*
X160844880Y-82335833D02*
X160844880Y-82526309D01*
X160892500Y-82621547D01*
X160940119Y-82669166D01*
X161082976Y-82764404D01*
X161273452Y-82812023D01*
X161654404Y-82812023D01*
X161749642Y-82764404D01*
X161797261Y-82716785D01*
X161844880Y-82621547D01*
X161844880Y-82431071D01*
X161797261Y-82335833D01*
X161749642Y-82288214D01*
X161654404Y-82240595D01*
X161416309Y-82240595D01*
X161321071Y-82288214D01*
X161273452Y-82335833D01*
X161225833Y-82431071D01*
X161225833Y-82621547D01*
X161273452Y-82716785D01*
X161321071Y-82764404D01*
X161416309Y-82812023D01*
X162164880Y-87574404D02*
X161164880Y-87574404D01*
X162164880Y-87002976D02*
X161593452Y-87431547D01*
X161164880Y-87002976D02*
X161736309Y-87574404D01*
X180894880Y-84716785D02*
X179894880Y-84716785D01*
X179894880Y-84478690D01*
X179942500Y-84335833D01*
X180037738Y-84240595D01*
X180132976Y-84192976D01*
X180323452Y-84145357D01*
X180466309Y-84145357D01*
X180656785Y-84192976D01*
X180752023Y-84240595D01*
X180847261Y-84335833D01*
X180894880Y-84478690D01*
X180894880Y-84716785D01*
X179894880Y-83812023D02*
X179894880Y-83192976D01*
X180275833Y-83526309D01*
X180275833Y-83383452D01*
X180323452Y-83288214D01*
X180371071Y-83240595D01*
X180466309Y-83192976D01*
X180704404Y-83192976D01*
X180799642Y-83240595D01*
X180847261Y-83288214D01*
X180894880Y-83383452D01*
X180894880Y-83669166D01*
X180847261Y-83764404D01*
X180799642Y-83812023D01*
X179894880Y-82859642D02*
X179894880Y-82192976D01*
X180894880Y-82621547D01*
X181214880Y-87574404D02*
X180214880Y-87574404D01*
X181214880Y-87002976D02*
X180643452Y-87431547D01*
X180214880Y-87002976D02*
X180786309Y-87574404D01*
X199944880Y-84716785D02*
X198944880Y-84716785D01*
X198944880Y-84478690D01*
X198992500Y-84335833D01*
X199087738Y-84240595D01*
X199182976Y-84192976D01*
X199373452Y-84145357D01*
X199516309Y-84145357D01*
X199706785Y-84192976D01*
X199802023Y-84240595D01*
X199897261Y-84335833D01*
X199944880Y-84478690D01*
X199944880Y-84716785D01*
X198944880Y-83812023D02*
X198944880Y-83192976D01*
X199325833Y-83526309D01*
X199325833Y-83383452D01*
X199373452Y-83288214D01*
X199421071Y-83240595D01*
X199516309Y-83192976D01*
X199754404Y-83192976D01*
X199849642Y-83240595D01*
X199897261Y-83288214D01*
X199944880Y-83383452D01*
X199944880Y-83669166D01*
X199897261Y-83764404D01*
X199849642Y-83812023D01*
X199373452Y-82621547D02*
X199325833Y-82716785D01*
X199278214Y-82764404D01*
X199182976Y-82812023D01*
X199135357Y-82812023D01*
X199040119Y-82764404D01*
X198992500Y-82716785D01*
X198944880Y-82621547D01*
X198944880Y-82431071D01*
X198992500Y-82335833D01*
X199040119Y-82288214D01*
X199135357Y-82240595D01*
X199182976Y-82240595D01*
X199278214Y-82288214D01*
X199325833Y-82335833D01*
X199373452Y-82431071D01*
X199373452Y-82621547D01*
X199421071Y-82716785D01*
X199468690Y-82764404D01*
X199563928Y-82812023D01*
X199754404Y-82812023D01*
X199849642Y-82764404D01*
X199897261Y-82716785D01*
X199944880Y-82621547D01*
X199944880Y-82431071D01*
X199897261Y-82335833D01*
X199849642Y-82288214D01*
X199754404Y-82240595D01*
X199563928Y-82240595D01*
X199468690Y-82288214D01*
X199421071Y-82335833D01*
X199373452Y-82431071D01*
X200264880Y-87574404D02*
X199264880Y-87574404D01*
X200264880Y-87002976D02*
X199693452Y-87431547D01*
X199264880Y-87002976D02*
X199836309Y-87574404D01*
X218994880Y-84716785D02*
X217994880Y-84716785D01*
X217994880Y-84478690D01*
X218042500Y-84335833D01*
X218137738Y-84240595D01*
X218232976Y-84192976D01*
X218423452Y-84145357D01*
X218566309Y-84145357D01*
X218756785Y-84192976D01*
X218852023Y-84240595D01*
X218947261Y-84335833D01*
X218994880Y-84478690D01*
X218994880Y-84716785D01*
X217994880Y-83812023D02*
X217994880Y-83192976D01*
X218375833Y-83526309D01*
X218375833Y-83383452D01*
X218423452Y-83288214D01*
X218471071Y-83240595D01*
X218566309Y-83192976D01*
X218804404Y-83192976D01*
X218899642Y-83240595D01*
X218947261Y-83288214D01*
X218994880Y-83383452D01*
X218994880Y-83669166D01*
X218947261Y-83764404D01*
X218899642Y-83812023D01*
X218994880Y-82716785D02*
X218994880Y-82526309D01*
X218947261Y-82431071D01*
X218899642Y-82383452D01*
X218756785Y-82288214D01*
X218566309Y-82240595D01*
X218185357Y-82240595D01*
X218090119Y-82288214D01*
X218042500Y-82335833D01*
X217994880Y-82431071D01*
X217994880Y-82621547D01*
X218042500Y-82716785D01*
X218090119Y-82764404D01*
X218185357Y-82812023D01*
X218423452Y-82812023D01*
X218518690Y-82764404D01*
X218566309Y-82716785D01*
X218613928Y-82621547D01*
X218613928Y-82431071D01*
X218566309Y-82335833D01*
X218518690Y-82288214D01*
X218423452Y-82240595D01*
X219314880Y-87574404D02*
X218314880Y-87574404D01*
X219314880Y-87002976D02*
X218743452Y-87431547D01*
X218314880Y-87002976D02*
X218886309Y-87574404D01*
X238044880Y-84716785D02*
X237044880Y-84716785D01*
X237044880Y-84478690D01*
X237092500Y-84335833D01*
X237187738Y-84240595D01*
X237282976Y-84192976D01*
X237473452Y-84145357D01*
X237616309Y-84145357D01*
X237806785Y-84192976D01*
X237902023Y-84240595D01*
X237997261Y-84335833D01*
X238044880Y-84478690D01*
X238044880Y-84716785D01*
X237378214Y-83288214D02*
X238044880Y-83288214D01*
X236997261Y-83526309D02*
X237711547Y-83764404D01*
X237711547Y-83145357D01*
X237044880Y-82573928D02*
X237044880Y-82478690D01*
X237092500Y-82383452D01*
X237140119Y-82335833D01*
X237235357Y-82288214D01*
X237425833Y-82240595D01*
X237663928Y-82240595D01*
X237854404Y-82288214D01*
X237949642Y-82335833D01*
X237997261Y-82383452D01*
X238044880Y-82478690D01*
X238044880Y-82573928D01*
X237997261Y-82669166D01*
X237949642Y-82716785D01*
X237854404Y-82764404D01*
X237663928Y-82812023D01*
X237425833Y-82812023D01*
X237235357Y-82764404D01*
X237140119Y-82716785D01*
X237092500Y-82669166D01*
X237044880Y-82573928D01*
X238364880Y-87574404D02*
X237364880Y-87574404D01*
X238364880Y-87002976D02*
X237793452Y-87431547D01*
X237364880Y-87002976D02*
X237936309Y-87574404D01*
X257094880Y-84716785D02*
X256094880Y-84716785D01*
X256094880Y-84478690D01*
X256142500Y-84335833D01*
X256237738Y-84240595D01*
X256332976Y-84192976D01*
X256523452Y-84145357D01*
X256666309Y-84145357D01*
X256856785Y-84192976D01*
X256952023Y-84240595D01*
X257047261Y-84335833D01*
X257094880Y-84478690D01*
X257094880Y-84716785D01*
X256428214Y-83288214D02*
X257094880Y-83288214D01*
X256047261Y-83526309D02*
X256761547Y-83764404D01*
X256761547Y-83145357D01*
X257094880Y-82240595D02*
X257094880Y-82812023D01*
X257094880Y-82526309D02*
X256094880Y-82526309D01*
X256237738Y-82621547D01*
X256332976Y-82716785D01*
X256380595Y-82812023D01*
X257414880Y-87574404D02*
X256414880Y-87574404D01*
X257414880Y-87002976D02*
X256843452Y-87431547D01*
X256414880Y-87002976D02*
X256986309Y-87574404D01*
X299957380Y-84716785D02*
X298957380Y-84716785D01*
X298957380Y-84478690D01*
X299005000Y-84335833D01*
X299100238Y-84240595D01*
X299195476Y-84192976D01*
X299385952Y-84145357D01*
X299528809Y-84145357D01*
X299719285Y-84192976D01*
X299814523Y-84240595D01*
X299909761Y-84335833D01*
X299957380Y-84478690D01*
X299957380Y-84716785D01*
X299290714Y-83288214D02*
X299957380Y-83288214D01*
X298909761Y-83526309D02*
X299624047Y-83764404D01*
X299624047Y-83145357D01*
X299052619Y-82812023D02*
X299005000Y-82764404D01*
X298957380Y-82669166D01*
X298957380Y-82431071D01*
X299005000Y-82335833D01*
X299052619Y-82288214D01*
X299147857Y-82240595D01*
X299243095Y-82240595D01*
X299385952Y-82288214D01*
X299957380Y-82859642D01*
X299957380Y-82240595D01*
X300277380Y-87574404D02*
X299277380Y-87574404D01*
X300277380Y-87002976D02*
X299705952Y-87431547D01*
X299277380Y-87002976D02*
X299848809Y-87574404D01*
X309482380Y-84716785D02*
X308482380Y-84716785D01*
X308482380Y-84478690D01*
X308530000Y-84335833D01*
X308625238Y-84240595D01*
X308720476Y-84192976D01*
X308910952Y-84145357D01*
X309053809Y-84145357D01*
X309244285Y-84192976D01*
X309339523Y-84240595D01*
X309434761Y-84335833D01*
X309482380Y-84478690D01*
X309482380Y-84716785D01*
X308815714Y-83288214D02*
X309482380Y-83288214D01*
X308434761Y-83526309D02*
X309149047Y-83764404D01*
X309149047Y-83145357D01*
X308482380Y-82859642D02*
X308482380Y-82240595D01*
X308863333Y-82573928D01*
X308863333Y-82431071D01*
X308910952Y-82335833D01*
X308958571Y-82288214D01*
X309053809Y-82240595D01*
X309291904Y-82240595D01*
X309387142Y-82288214D01*
X309434761Y-82335833D01*
X309482380Y-82431071D01*
X309482380Y-82716785D01*
X309434761Y-82812023D01*
X309387142Y-82859642D01*
X309802380Y-87574404D02*
X308802380Y-87574404D01*
X309802380Y-87002976D02*
X309230952Y-87431547D01*
X308802380Y-87002976D02*
X309373809Y-87574404D01*
X54688630Y-103766785D02*
X53688630Y-103766785D01*
X53688630Y-103528690D01*
X53736250Y-103385833D01*
X53831488Y-103290595D01*
X53926726Y-103242976D01*
X54117202Y-103195357D01*
X54260059Y-103195357D01*
X54450535Y-103242976D01*
X54545773Y-103290595D01*
X54641011Y-103385833D01*
X54688630Y-103528690D01*
X54688630Y-103766785D01*
X54021964Y-102338214D02*
X54688630Y-102338214D01*
X53641011Y-102576309D02*
X54355297Y-102814404D01*
X54355297Y-102195357D01*
X54021964Y-101385833D02*
X54688630Y-101385833D01*
X53641011Y-101623928D02*
X54355297Y-101862023D01*
X54355297Y-101242976D01*
X55008630Y-106624404D02*
X54008630Y-106624404D01*
X55008630Y-106052976D02*
X54437202Y-106481547D01*
X54008630Y-106052976D02*
X54580059Y-106624404D01*
X76119880Y-103766785D02*
X75119880Y-103766785D01*
X75119880Y-103528690D01*
X75167500Y-103385833D01*
X75262738Y-103290595D01*
X75357976Y-103242976D01*
X75548452Y-103195357D01*
X75691309Y-103195357D01*
X75881785Y-103242976D01*
X75977023Y-103290595D01*
X76072261Y-103385833D01*
X76119880Y-103528690D01*
X76119880Y-103766785D01*
X75453214Y-102338214D02*
X76119880Y-102338214D01*
X75072261Y-102576309D02*
X75786547Y-102814404D01*
X75786547Y-102195357D01*
X75119880Y-101338214D02*
X75119880Y-101814404D01*
X75596071Y-101862023D01*
X75548452Y-101814404D01*
X75500833Y-101719166D01*
X75500833Y-101481071D01*
X75548452Y-101385833D01*
X75596071Y-101338214D01*
X75691309Y-101290595D01*
X75929404Y-101290595D01*
X76024642Y-101338214D01*
X76072261Y-101385833D01*
X76119880Y-101481071D01*
X76119880Y-101719166D01*
X76072261Y-101814404D01*
X76024642Y-101862023D01*
X76439880Y-106624404D02*
X75439880Y-106624404D01*
X76439880Y-106052976D02*
X75868452Y-106481547D01*
X75439880Y-106052976D02*
X76011309Y-106624404D01*
X95169880Y-103766785D02*
X94169880Y-103766785D01*
X94169880Y-103528690D01*
X94217500Y-103385833D01*
X94312738Y-103290595D01*
X94407976Y-103242976D01*
X94598452Y-103195357D01*
X94741309Y-103195357D01*
X94931785Y-103242976D01*
X95027023Y-103290595D01*
X95122261Y-103385833D01*
X95169880Y-103528690D01*
X95169880Y-103766785D01*
X94503214Y-102338214D02*
X95169880Y-102338214D01*
X94122261Y-102576309D02*
X94836547Y-102814404D01*
X94836547Y-102195357D01*
X94169880Y-101385833D02*
X94169880Y-101576309D01*
X94217500Y-101671547D01*
X94265119Y-101719166D01*
X94407976Y-101814404D01*
X94598452Y-101862023D01*
X94979404Y-101862023D01*
X95074642Y-101814404D01*
X95122261Y-101766785D01*
X95169880Y-101671547D01*
X95169880Y-101481071D01*
X95122261Y-101385833D01*
X95074642Y-101338214D01*
X94979404Y-101290595D01*
X94741309Y-101290595D01*
X94646071Y-101338214D01*
X94598452Y-101385833D01*
X94550833Y-101481071D01*
X94550833Y-101671547D01*
X94598452Y-101766785D01*
X94646071Y-101814404D01*
X94741309Y-101862023D01*
X95489880Y-106624404D02*
X94489880Y-106624404D01*
X95489880Y-106052976D02*
X94918452Y-106481547D01*
X94489880Y-106052976D02*
X95061309Y-106624404D01*
X114219880Y-103766785D02*
X113219880Y-103766785D01*
X113219880Y-103528690D01*
X113267500Y-103385833D01*
X113362738Y-103290595D01*
X113457976Y-103242976D01*
X113648452Y-103195357D01*
X113791309Y-103195357D01*
X113981785Y-103242976D01*
X114077023Y-103290595D01*
X114172261Y-103385833D01*
X114219880Y-103528690D01*
X114219880Y-103766785D01*
X113553214Y-102338214D02*
X114219880Y-102338214D01*
X113172261Y-102576309D02*
X113886547Y-102814404D01*
X113886547Y-102195357D01*
X113219880Y-101909642D02*
X113219880Y-101242976D01*
X114219880Y-101671547D01*
X114539880Y-106624404D02*
X113539880Y-106624404D01*
X114539880Y-106052976D02*
X113968452Y-106481547D01*
X113539880Y-106052976D02*
X114111309Y-106624404D01*
X133269880Y-103766785D02*
X132269880Y-103766785D01*
X132269880Y-103528690D01*
X132317500Y-103385833D01*
X132412738Y-103290595D01*
X132507976Y-103242976D01*
X132698452Y-103195357D01*
X132841309Y-103195357D01*
X133031785Y-103242976D01*
X133127023Y-103290595D01*
X133222261Y-103385833D01*
X133269880Y-103528690D01*
X133269880Y-103766785D01*
X132603214Y-102338214D02*
X133269880Y-102338214D01*
X132222261Y-102576309D02*
X132936547Y-102814404D01*
X132936547Y-102195357D01*
X132698452Y-101671547D02*
X132650833Y-101766785D01*
X132603214Y-101814404D01*
X132507976Y-101862023D01*
X132460357Y-101862023D01*
X132365119Y-101814404D01*
X132317500Y-101766785D01*
X132269880Y-101671547D01*
X132269880Y-101481071D01*
X132317500Y-101385833D01*
X132365119Y-101338214D01*
X132460357Y-101290595D01*
X132507976Y-101290595D01*
X132603214Y-101338214D01*
X132650833Y-101385833D01*
X132698452Y-101481071D01*
X132698452Y-101671547D01*
X132746071Y-101766785D01*
X132793690Y-101814404D01*
X132888928Y-101862023D01*
X133079404Y-101862023D01*
X133174642Y-101814404D01*
X133222261Y-101766785D01*
X133269880Y-101671547D01*
X133269880Y-101481071D01*
X133222261Y-101385833D01*
X133174642Y-101338214D01*
X133079404Y-101290595D01*
X132888928Y-101290595D01*
X132793690Y-101338214D01*
X132746071Y-101385833D01*
X132698452Y-101481071D01*
X133589880Y-106624404D02*
X132589880Y-106624404D01*
X133589880Y-106052976D02*
X133018452Y-106481547D01*
X132589880Y-106052976D02*
X133161309Y-106624404D01*
X152319880Y-103766785D02*
X151319880Y-103766785D01*
X151319880Y-103528690D01*
X151367500Y-103385833D01*
X151462738Y-103290595D01*
X151557976Y-103242976D01*
X151748452Y-103195357D01*
X151891309Y-103195357D01*
X152081785Y-103242976D01*
X152177023Y-103290595D01*
X152272261Y-103385833D01*
X152319880Y-103528690D01*
X152319880Y-103766785D01*
X151653214Y-102338214D02*
X152319880Y-102338214D01*
X151272261Y-102576309D02*
X151986547Y-102814404D01*
X151986547Y-102195357D01*
X152319880Y-101766785D02*
X152319880Y-101576309D01*
X152272261Y-101481071D01*
X152224642Y-101433452D01*
X152081785Y-101338214D01*
X151891309Y-101290595D01*
X151510357Y-101290595D01*
X151415119Y-101338214D01*
X151367500Y-101385833D01*
X151319880Y-101481071D01*
X151319880Y-101671547D01*
X151367500Y-101766785D01*
X151415119Y-101814404D01*
X151510357Y-101862023D01*
X151748452Y-101862023D01*
X151843690Y-101814404D01*
X151891309Y-101766785D01*
X151938928Y-101671547D01*
X151938928Y-101481071D01*
X151891309Y-101385833D01*
X151843690Y-101338214D01*
X151748452Y-101290595D01*
X152639880Y-106624404D02*
X151639880Y-106624404D01*
X152639880Y-106052976D02*
X152068452Y-106481547D01*
X151639880Y-106052976D02*
X152211309Y-106624404D01*
X171369880Y-103766785D02*
X170369880Y-103766785D01*
X170369880Y-103528690D01*
X170417500Y-103385833D01*
X170512738Y-103290595D01*
X170607976Y-103242976D01*
X170798452Y-103195357D01*
X170941309Y-103195357D01*
X171131785Y-103242976D01*
X171227023Y-103290595D01*
X171322261Y-103385833D01*
X171369880Y-103528690D01*
X171369880Y-103766785D01*
X170369880Y-102290595D02*
X170369880Y-102766785D01*
X170846071Y-102814404D01*
X170798452Y-102766785D01*
X170750833Y-102671547D01*
X170750833Y-102433452D01*
X170798452Y-102338214D01*
X170846071Y-102290595D01*
X170941309Y-102242976D01*
X171179404Y-102242976D01*
X171274642Y-102290595D01*
X171322261Y-102338214D01*
X171369880Y-102433452D01*
X171369880Y-102671547D01*
X171322261Y-102766785D01*
X171274642Y-102814404D01*
X170369880Y-101623928D02*
X170369880Y-101528690D01*
X170417500Y-101433452D01*
X170465119Y-101385833D01*
X170560357Y-101338214D01*
X170750833Y-101290595D01*
X170988928Y-101290595D01*
X171179404Y-101338214D01*
X171274642Y-101385833D01*
X171322261Y-101433452D01*
X171369880Y-101528690D01*
X171369880Y-101623928D01*
X171322261Y-101719166D01*
X171274642Y-101766785D01*
X171179404Y-101814404D01*
X170988928Y-101862023D01*
X170750833Y-101862023D01*
X170560357Y-101814404D01*
X170465119Y-101766785D01*
X170417500Y-101719166D01*
X170369880Y-101623928D01*
X171689880Y-106624404D02*
X170689880Y-106624404D01*
X171689880Y-106052976D02*
X171118452Y-106481547D01*
X170689880Y-106052976D02*
X171261309Y-106624404D01*
X190419880Y-103766785D02*
X189419880Y-103766785D01*
X189419880Y-103528690D01*
X189467500Y-103385833D01*
X189562738Y-103290595D01*
X189657976Y-103242976D01*
X189848452Y-103195357D01*
X189991309Y-103195357D01*
X190181785Y-103242976D01*
X190277023Y-103290595D01*
X190372261Y-103385833D01*
X190419880Y-103528690D01*
X190419880Y-103766785D01*
X189419880Y-102290595D02*
X189419880Y-102766785D01*
X189896071Y-102814404D01*
X189848452Y-102766785D01*
X189800833Y-102671547D01*
X189800833Y-102433452D01*
X189848452Y-102338214D01*
X189896071Y-102290595D01*
X189991309Y-102242976D01*
X190229404Y-102242976D01*
X190324642Y-102290595D01*
X190372261Y-102338214D01*
X190419880Y-102433452D01*
X190419880Y-102671547D01*
X190372261Y-102766785D01*
X190324642Y-102814404D01*
X190419880Y-101290595D02*
X190419880Y-101862023D01*
X190419880Y-101576309D02*
X189419880Y-101576309D01*
X189562738Y-101671547D01*
X189657976Y-101766785D01*
X189705595Y-101862023D01*
X190739880Y-106624404D02*
X189739880Y-106624404D01*
X190739880Y-106052976D02*
X190168452Y-106481547D01*
X189739880Y-106052976D02*
X190311309Y-106624404D01*
X209469880Y-103766785D02*
X208469880Y-103766785D01*
X208469880Y-103528690D01*
X208517500Y-103385833D01*
X208612738Y-103290595D01*
X208707976Y-103242976D01*
X208898452Y-103195357D01*
X209041309Y-103195357D01*
X209231785Y-103242976D01*
X209327023Y-103290595D01*
X209422261Y-103385833D01*
X209469880Y-103528690D01*
X209469880Y-103766785D01*
X208469880Y-102290595D02*
X208469880Y-102766785D01*
X208946071Y-102814404D01*
X208898452Y-102766785D01*
X208850833Y-102671547D01*
X208850833Y-102433452D01*
X208898452Y-102338214D01*
X208946071Y-102290595D01*
X209041309Y-102242976D01*
X209279404Y-102242976D01*
X209374642Y-102290595D01*
X209422261Y-102338214D01*
X209469880Y-102433452D01*
X209469880Y-102671547D01*
X209422261Y-102766785D01*
X209374642Y-102814404D01*
X208565119Y-101862023D02*
X208517500Y-101814404D01*
X208469880Y-101719166D01*
X208469880Y-101481071D01*
X208517500Y-101385833D01*
X208565119Y-101338214D01*
X208660357Y-101290595D01*
X208755595Y-101290595D01*
X208898452Y-101338214D01*
X209469880Y-101909642D01*
X209469880Y-101290595D01*
X209789880Y-106624404D02*
X208789880Y-106624404D01*
X209789880Y-106052976D02*
X209218452Y-106481547D01*
X208789880Y-106052976D02*
X209361309Y-106624404D01*
X228519880Y-103766785D02*
X227519880Y-103766785D01*
X227519880Y-103528690D01*
X227567500Y-103385833D01*
X227662738Y-103290595D01*
X227757976Y-103242976D01*
X227948452Y-103195357D01*
X228091309Y-103195357D01*
X228281785Y-103242976D01*
X228377023Y-103290595D01*
X228472261Y-103385833D01*
X228519880Y-103528690D01*
X228519880Y-103766785D01*
X227519880Y-102290595D02*
X227519880Y-102766785D01*
X227996071Y-102814404D01*
X227948452Y-102766785D01*
X227900833Y-102671547D01*
X227900833Y-102433452D01*
X227948452Y-102338214D01*
X227996071Y-102290595D01*
X228091309Y-102242976D01*
X228329404Y-102242976D01*
X228424642Y-102290595D01*
X228472261Y-102338214D01*
X228519880Y-102433452D01*
X228519880Y-102671547D01*
X228472261Y-102766785D01*
X228424642Y-102814404D01*
X227519880Y-101909642D02*
X227519880Y-101290595D01*
X227900833Y-101623928D01*
X227900833Y-101481071D01*
X227948452Y-101385833D01*
X227996071Y-101338214D01*
X228091309Y-101290595D01*
X228329404Y-101290595D01*
X228424642Y-101338214D01*
X228472261Y-101385833D01*
X228519880Y-101481071D01*
X228519880Y-101766785D01*
X228472261Y-101862023D01*
X228424642Y-101909642D01*
X228839880Y-106624404D02*
X227839880Y-106624404D01*
X228839880Y-106052976D02*
X228268452Y-106481547D01*
X227839880Y-106052976D02*
X228411309Y-106624404D01*
X247569880Y-103766785D02*
X246569880Y-103766785D01*
X246569880Y-103528690D01*
X246617500Y-103385833D01*
X246712738Y-103290595D01*
X246807976Y-103242976D01*
X246998452Y-103195357D01*
X247141309Y-103195357D01*
X247331785Y-103242976D01*
X247427023Y-103290595D01*
X247522261Y-103385833D01*
X247569880Y-103528690D01*
X247569880Y-103766785D01*
X246569880Y-102290595D02*
X246569880Y-102766785D01*
X247046071Y-102814404D01*
X246998452Y-102766785D01*
X246950833Y-102671547D01*
X246950833Y-102433452D01*
X246998452Y-102338214D01*
X247046071Y-102290595D01*
X247141309Y-102242976D01*
X247379404Y-102242976D01*
X247474642Y-102290595D01*
X247522261Y-102338214D01*
X247569880Y-102433452D01*
X247569880Y-102671547D01*
X247522261Y-102766785D01*
X247474642Y-102814404D01*
X246903214Y-101385833D02*
X247569880Y-101385833D01*
X246522261Y-101623928D02*
X247236547Y-101862023D01*
X247236547Y-101242976D01*
X247889880Y-106624404D02*
X246889880Y-106624404D01*
X247889880Y-106052976D02*
X247318452Y-106481547D01*
X246889880Y-106052976D02*
X247461309Y-106624404D01*
X276144880Y-103766785D02*
X275144880Y-103766785D01*
X275144880Y-103528690D01*
X275192500Y-103385833D01*
X275287738Y-103290595D01*
X275382976Y-103242976D01*
X275573452Y-103195357D01*
X275716309Y-103195357D01*
X275906785Y-103242976D01*
X276002023Y-103290595D01*
X276097261Y-103385833D01*
X276144880Y-103528690D01*
X276144880Y-103766785D01*
X275144880Y-102290595D02*
X275144880Y-102766785D01*
X275621071Y-102814404D01*
X275573452Y-102766785D01*
X275525833Y-102671547D01*
X275525833Y-102433452D01*
X275573452Y-102338214D01*
X275621071Y-102290595D01*
X275716309Y-102242976D01*
X275954404Y-102242976D01*
X276049642Y-102290595D01*
X276097261Y-102338214D01*
X276144880Y-102433452D01*
X276144880Y-102671547D01*
X276097261Y-102766785D01*
X276049642Y-102814404D01*
X275144880Y-101338214D02*
X275144880Y-101814404D01*
X275621071Y-101862023D01*
X275573452Y-101814404D01*
X275525833Y-101719166D01*
X275525833Y-101481071D01*
X275573452Y-101385833D01*
X275621071Y-101338214D01*
X275716309Y-101290595D01*
X275954404Y-101290595D01*
X276049642Y-101338214D01*
X276097261Y-101385833D01*
X276144880Y-101481071D01*
X276144880Y-101719166D01*
X276097261Y-101814404D01*
X276049642Y-101862023D01*
X276464880Y-106624404D02*
X275464880Y-106624404D01*
X276464880Y-106052976D02*
X275893452Y-106481547D01*
X275464880Y-106052976D02*
X276036309Y-106624404D01*
X304719880Y-103766785D02*
X303719880Y-103766785D01*
X303719880Y-103528690D01*
X303767500Y-103385833D01*
X303862738Y-103290595D01*
X303957976Y-103242976D01*
X304148452Y-103195357D01*
X304291309Y-103195357D01*
X304481785Y-103242976D01*
X304577023Y-103290595D01*
X304672261Y-103385833D01*
X304719880Y-103528690D01*
X304719880Y-103766785D01*
X303719880Y-102290595D02*
X303719880Y-102766785D01*
X304196071Y-102814404D01*
X304148452Y-102766785D01*
X304100833Y-102671547D01*
X304100833Y-102433452D01*
X304148452Y-102338214D01*
X304196071Y-102290595D01*
X304291309Y-102242976D01*
X304529404Y-102242976D01*
X304624642Y-102290595D01*
X304672261Y-102338214D01*
X304719880Y-102433452D01*
X304719880Y-102671547D01*
X304672261Y-102766785D01*
X304624642Y-102814404D01*
X303719880Y-101385833D02*
X303719880Y-101576309D01*
X303767500Y-101671547D01*
X303815119Y-101719166D01*
X303957976Y-101814404D01*
X304148452Y-101862023D01*
X304529404Y-101862023D01*
X304624642Y-101814404D01*
X304672261Y-101766785D01*
X304719880Y-101671547D01*
X304719880Y-101481071D01*
X304672261Y-101385833D01*
X304624642Y-101338214D01*
X304529404Y-101290595D01*
X304291309Y-101290595D01*
X304196071Y-101338214D01*
X304148452Y-101385833D01*
X304100833Y-101481071D01*
X304100833Y-101671547D01*
X304148452Y-101766785D01*
X304196071Y-101814404D01*
X304291309Y-101862023D01*
X305039880Y-106624404D02*
X304039880Y-106624404D01*
X305039880Y-106052976D02*
X304468452Y-106481547D01*
X304039880Y-106052976D02*
X304611309Y-106624404D01*
X309482380Y-103766785D02*
X308482380Y-103766785D01*
X308482380Y-103528690D01*
X308530000Y-103385833D01*
X308625238Y-103290595D01*
X308720476Y-103242976D01*
X308910952Y-103195357D01*
X309053809Y-103195357D01*
X309244285Y-103242976D01*
X309339523Y-103290595D01*
X309434761Y-103385833D01*
X309482380Y-103528690D01*
X309482380Y-103766785D01*
X308482380Y-102290595D02*
X308482380Y-102766785D01*
X308958571Y-102814404D01*
X308910952Y-102766785D01*
X308863333Y-102671547D01*
X308863333Y-102433452D01*
X308910952Y-102338214D01*
X308958571Y-102290595D01*
X309053809Y-102242976D01*
X309291904Y-102242976D01*
X309387142Y-102290595D01*
X309434761Y-102338214D01*
X309482380Y-102433452D01*
X309482380Y-102671547D01*
X309434761Y-102766785D01*
X309387142Y-102814404D01*
X308482380Y-101909642D02*
X308482380Y-101242976D01*
X309482380Y-101671547D01*
X309802380Y-106624404D02*
X308802380Y-106624404D01*
X309802380Y-106052976D02*
X309230952Y-106481547D01*
X308802380Y-106052976D02*
X309373809Y-106624404D01*
X38019880Y-122816785D02*
X37019880Y-122816785D01*
X37019880Y-122578690D01*
X37067500Y-122435833D01*
X37162738Y-122340595D01*
X37257976Y-122292976D01*
X37448452Y-122245357D01*
X37591309Y-122245357D01*
X37781785Y-122292976D01*
X37877023Y-122340595D01*
X37972261Y-122435833D01*
X38019880Y-122578690D01*
X38019880Y-122816785D01*
X37019880Y-121340595D02*
X37019880Y-121816785D01*
X37496071Y-121864404D01*
X37448452Y-121816785D01*
X37400833Y-121721547D01*
X37400833Y-121483452D01*
X37448452Y-121388214D01*
X37496071Y-121340595D01*
X37591309Y-121292976D01*
X37829404Y-121292976D01*
X37924642Y-121340595D01*
X37972261Y-121388214D01*
X38019880Y-121483452D01*
X38019880Y-121721547D01*
X37972261Y-121816785D01*
X37924642Y-121864404D01*
X37448452Y-120721547D02*
X37400833Y-120816785D01*
X37353214Y-120864404D01*
X37257976Y-120912023D01*
X37210357Y-120912023D01*
X37115119Y-120864404D01*
X37067500Y-120816785D01*
X37019880Y-120721547D01*
X37019880Y-120531071D01*
X37067500Y-120435833D01*
X37115119Y-120388214D01*
X37210357Y-120340595D01*
X37257976Y-120340595D01*
X37353214Y-120388214D01*
X37400833Y-120435833D01*
X37448452Y-120531071D01*
X37448452Y-120721547D01*
X37496071Y-120816785D01*
X37543690Y-120864404D01*
X37638928Y-120912023D01*
X37829404Y-120912023D01*
X37924642Y-120864404D01*
X37972261Y-120816785D01*
X38019880Y-120721547D01*
X38019880Y-120531071D01*
X37972261Y-120435833D01*
X37924642Y-120388214D01*
X37829404Y-120340595D01*
X37638928Y-120340595D01*
X37543690Y-120388214D01*
X37496071Y-120435833D01*
X37448452Y-120531071D01*
X38339880Y-125674404D02*
X37339880Y-125674404D01*
X38339880Y-125102976D02*
X37768452Y-125531547D01*
X37339880Y-125102976D02*
X37911309Y-125674404D01*
X61832380Y-122816785D02*
X60832380Y-122816785D01*
X60832380Y-122578690D01*
X60880000Y-122435833D01*
X60975238Y-122340595D01*
X61070476Y-122292976D01*
X61260952Y-122245357D01*
X61403809Y-122245357D01*
X61594285Y-122292976D01*
X61689523Y-122340595D01*
X61784761Y-122435833D01*
X61832380Y-122578690D01*
X61832380Y-122816785D01*
X60832380Y-121340595D02*
X60832380Y-121816785D01*
X61308571Y-121864404D01*
X61260952Y-121816785D01*
X61213333Y-121721547D01*
X61213333Y-121483452D01*
X61260952Y-121388214D01*
X61308571Y-121340595D01*
X61403809Y-121292976D01*
X61641904Y-121292976D01*
X61737142Y-121340595D01*
X61784761Y-121388214D01*
X61832380Y-121483452D01*
X61832380Y-121721547D01*
X61784761Y-121816785D01*
X61737142Y-121864404D01*
X61832380Y-120816785D02*
X61832380Y-120626309D01*
X61784761Y-120531071D01*
X61737142Y-120483452D01*
X61594285Y-120388214D01*
X61403809Y-120340595D01*
X61022857Y-120340595D01*
X60927619Y-120388214D01*
X60880000Y-120435833D01*
X60832380Y-120531071D01*
X60832380Y-120721547D01*
X60880000Y-120816785D01*
X60927619Y-120864404D01*
X61022857Y-120912023D01*
X61260952Y-120912023D01*
X61356190Y-120864404D01*
X61403809Y-120816785D01*
X61451428Y-120721547D01*
X61451428Y-120531071D01*
X61403809Y-120435833D01*
X61356190Y-120388214D01*
X61260952Y-120340595D01*
X62152380Y-125674404D02*
X61152380Y-125674404D01*
X62152380Y-125102976D02*
X61580952Y-125531547D01*
X61152380Y-125102976D02*
X61723809Y-125674404D01*
X85644880Y-122816785D02*
X84644880Y-122816785D01*
X84644880Y-122578690D01*
X84692500Y-122435833D01*
X84787738Y-122340595D01*
X84882976Y-122292976D01*
X85073452Y-122245357D01*
X85216309Y-122245357D01*
X85406785Y-122292976D01*
X85502023Y-122340595D01*
X85597261Y-122435833D01*
X85644880Y-122578690D01*
X85644880Y-122816785D01*
X84644880Y-121388214D02*
X84644880Y-121578690D01*
X84692500Y-121673928D01*
X84740119Y-121721547D01*
X84882976Y-121816785D01*
X85073452Y-121864404D01*
X85454404Y-121864404D01*
X85549642Y-121816785D01*
X85597261Y-121769166D01*
X85644880Y-121673928D01*
X85644880Y-121483452D01*
X85597261Y-121388214D01*
X85549642Y-121340595D01*
X85454404Y-121292976D01*
X85216309Y-121292976D01*
X85121071Y-121340595D01*
X85073452Y-121388214D01*
X85025833Y-121483452D01*
X85025833Y-121673928D01*
X85073452Y-121769166D01*
X85121071Y-121816785D01*
X85216309Y-121864404D01*
X84644880Y-120673928D02*
X84644880Y-120578690D01*
X84692500Y-120483452D01*
X84740119Y-120435833D01*
X84835357Y-120388214D01*
X85025833Y-120340595D01*
X85263928Y-120340595D01*
X85454404Y-120388214D01*
X85549642Y-120435833D01*
X85597261Y-120483452D01*
X85644880Y-120578690D01*
X85644880Y-120673928D01*
X85597261Y-120769166D01*
X85549642Y-120816785D01*
X85454404Y-120864404D01*
X85263928Y-120912023D01*
X85025833Y-120912023D01*
X84835357Y-120864404D01*
X84740119Y-120816785D01*
X84692500Y-120769166D01*
X84644880Y-120673928D01*
X85964880Y-125674404D02*
X84964880Y-125674404D01*
X85964880Y-125102976D02*
X85393452Y-125531547D01*
X84964880Y-125102976D02*
X85536309Y-125674404D01*
X157082380Y-122816785D02*
X156082380Y-122816785D01*
X156082380Y-122578690D01*
X156130000Y-122435833D01*
X156225238Y-122340595D01*
X156320476Y-122292976D01*
X156510952Y-122245357D01*
X156653809Y-122245357D01*
X156844285Y-122292976D01*
X156939523Y-122340595D01*
X157034761Y-122435833D01*
X157082380Y-122578690D01*
X157082380Y-122816785D01*
X156082380Y-121388214D02*
X156082380Y-121578690D01*
X156130000Y-121673928D01*
X156177619Y-121721547D01*
X156320476Y-121816785D01*
X156510952Y-121864404D01*
X156891904Y-121864404D01*
X156987142Y-121816785D01*
X157034761Y-121769166D01*
X157082380Y-121673928D01*
X157082380Y-121483452D01*
X157034761Y-121388214D01*
X156987142Y-121340595D01*
X156891904Y-121292976D01*
X156653809Y-121292976D01*
X156558571Y-121340595D01*
X156510952Y-121388214D01*
X156463333Y-121483452D01*
X156463333Y-121673928D01*
X156510952Y-121769166D01*
X156558571Y-121816785D01*
X156653809Y-121864404D01*
X157082380Y-120340595D02*
X157082380Y-120912023D01*
X157082380Y-120626309D02*
X156082380Y-120626309D01*
X156225238Y-120721547D01*
X156320476Y-120816785D01*
X156368095Y-120912023D01*
X157402380Y-125674404D02*
X156402380Y-125674404D01*
X157402380Y-125102976D02*
X156830952Y-125531547D01*
X156402380Y-125102976D02*
X156973809Y-125674404D01*
X223757380Y-122816785D02*
X222757380Y-122816785D01*
X222757380Y-122578690D01*
X222805000Y-122435833D01*
X222900238Y-122340595D01*
X222995476Y-122292976D01*
X223185952Y-122245357D01*
X223328809Y-122245357D01*
X223519285Y-122292976D01*
X223614523Y-122340595D01*
X223709761Y-122435833D01*
X223757380Y-122578690D01*
X223757380Y-122816785D01*
X222757380Y-121388214D02*
X222757380Y-121578690D01*
X222805000Y-121673928D01*
X222852619Y-121721547D01*
X222995476Y-121816785D01*
X223185952Y-121864404D01*
X223566904Y-121864404D01*
X223662142Y-121816785D01*
X223709761Y-121769166D01*
X223757380Y-121673928D01*
X223757380Y-121483452D01*
X223709761Y-121388214D01*
X223662142Y-121340595D01*
X223566904Y-121292976D01*
X223328809Y-121292976D01*
X223233571Y-121340595D01*
X223185952Y-121388214D01*
X223138333Y-121483452D01*
X223138333Y-121673928D01*
X223185952Y-121769166D01*
X223233571Y-121816785D01*
X223328809Y-121864404D01*
X222852619Y-120912023D02*
X222805000Y-120864404D01*
X222757380Y-120769166D01*
X222757380Y-120531071D01*
X222805000Y-120435833D01*
X222852619Y-120388214D01*
X222947857Y-120340595D01*
X223043095Y-120340595D01*
X223185952Y-120388214D01*
X223757380Y-120959642D01*
X223757380Y-120340595D01*
X224077380Y-125674404D02*
X223077380Y-125674404D01*
X224077380Y-125102976D02*
X223505952Y-125531547D01*
X223077380Y-125102976D02*
X223648809Y-125674404D01*
X242807380Y-122816785D02*
X241807380Y-122816785D01*
X241807380Y-122578690D01*
X241855000Y-122435833D01*
X241950238Y-122340595D01*
X242045476Y-122292976D01*
X242235952Y-122245357D01*
X242378809Y-122245357D01*
X242569285Y-122292976D01*
X242664523Y-122340595D01*
X242759761Y-122435833D01*
X242807380Y-122578690D01*
X242807380Y-122816785D01*
X241807380Y-121388214D02*
X241807380Y-121578690D01*
X241855000Y-121673928D01*
X241902619Y-121721547D01*
X242045476Y-121816785D01*
X242235952Y-121864404D01*
X242616904Y-121864404D01*
X242712142Y-121816785D01*
X242759761Y-121769166D01*
X242807380Y-121673928D01*
X242807380Y-121483452D01*
X242759761Y-121388214D01*
X242712142Y-121340595D01*
X242616904Y-121292976D01*
X242378809Y-121292976D01*
X242283571Y-121340595D01*
X242235952Y-121388214D01*
X242188333Y-121483452D01*
X242188333Y-121673928D01*
X242235952Y-121769166D01*
X242283571Y-121816785D01*
X242378809Y-121864404D01*
X241807380Y-120959642D02*
X241807380Y-120340595D01*
X242188333Y-120673928D01*
X242188333Y-120531071D01*
X242235952Y-120435833D01*
X242283571Y-120388214D01*
X242378809Y-120340595D01*
X242616904Y-120340595D01*
X242712142Y-120388214D01*
X242759761Y-120435833D01*
X242807380Y-120531071D01*
X242807380Y-120816785D01*
X242759761Y-120912023D01*
X242712142Y-120959642D01*
X243127380Y-125674404D02*
X242127380Y-125674404D01*
X243127380Y-125102976D02*
X242555952Y-125531547D01*
X242127380Y-125102976D02*
X242698809Y-125674404D01*
X261857380Y-122816785D02*
X260857380Y-122816785D01*
X260857380Y-122578690D01*
X260905000Y-122435833D01*
X261000238Y-122340595D01*
X261095476Y-122292976D01*
X261285952Y-122245357D01*
X261428809Y-122245357D01*
X261619285Y-122292976D01*
X261714523Y-122340595D01*
X261809761Y-122435833D01*
X261857380Y-122578690D01*
X261857380Y-122816785D01*
X260857380Y-121388214D02*
X260857380Y-121578690D01*
X260905000Y-121673928D01*
X260952619Y-121721547D01*
X261095476Y-121816785D01*
X261285952Y-121864404D01*
X261666904Y-121864404D01*
X261762142Y-121816785D01*
X261809761Y-121769166D01*
X261857380Y-121673928D01*
X261857380Y-121483452D01*
X261809761Y-121388214D01*
X261762142Y-121340595D01*
X261666904Y-121292976D01*
X261428809Y-121292976D01*
X261333571Y-121340595D01*
X261285952Y-121388214D01*
X261238333Y-121483452D01*
X261238333Y-121673928D01*
X261285952Y-121769166D01*
X261333571Y-121816785D01*
X261428809Y-121864404D01*
X261190714Y-120435833D02*
X261857380Y-120435833D01*
X260809761Y-120673928D02*
X261524047Y-120912023D01*
X261524047Y-120292976D01*
X262177380Y-125674404D02*
X261177380Y-125674404D01*
X262177380Y-125102976D02*
X261605952Y-125531547D01*
X261177380Y-125102976D02*
X261748809Y-125674404D01*
X285669880Y-127579285D02*
X284669880Y-127579285D01*
X284669880Y-127341190D01*
X284717500Y-127198333D01*
X284812738Y-127103095D01*
X284907976Y-127055476D01*
X285098452Y-127007857D01*
X285241309Y-127007857D01*
X285431785Y-127055476D01*
X285527023Y-127103095D01*
X285622261Y-127198333D01*
X285669880Y-127341190D01*
X285669880Y-127579285D01*
X284669880Y-126150714D02*
X284669880Y-126341190D01*
X284717500Y-126436428D01*
X284765119Y-126484047D01*
X284907976Y-126579285D01*
X285098452Y-126626904D01*
X285479404Y-126626904D01*
X285574642Y-126579285D01*
X285622261Y-126531666D01*
X285669880Y-126436428D01*
X285669880Y-126245952D01*
X285622261Y-126150714D01*
X285574642Y-126103095D01*
X285479404Y-126055476D01*
X285241309Y-126055476D01*
X285146071Y-126103095D01*
X285098452Y-126150714D01*
X285050833Y-126245952D01*
X285050833Y-126436428D01*
X285098452Y-126531666D01*
X285146071Y-126579285D01*
X285241309Y-126626904D01*
X284669880Y-125150714D02*
X284669880Y-125626904D01*
X285146071Y-125674523D01*
X285098452Y-125626904D01*
X285050833Y-125531666D01*
X285050833Y-125293571D01*
X285098452Y-125198333D01*
X285146071Y-125150714D01*
X285241309Y-125103095D01*
X285479404Y-125103095D01*
X285574642Y-125150714D01*
X285622261Y-125198333D01*
X285669880Y-125293571D01*
X285669880Y-125531666D01*
X285622261Y-125626904D01*
X285574642Y-125674523D01*
X285989880Y-130436904D02*
X284989880Y-130436904D01*
X285989880Y-129865476D02*
X285418452Y-130294047D01*
X284989880Y-129865476D02*
X285561309Y-130436904D01*
X304719880Y-127579285D02*
X303719880Y-127579285D01*
X303719880Y-127341190D01*
X303767500Y-127198333D01*
X303862738Y-127103095D01*
X303957976Y-127055476D01*
X304148452Y-127007857D01*
X304291309Y-127007857D01*
X304481785Y-127055476D01*
X304577023Y-127103095D01*
X304672261Y-127198333D01*
X304719880Y-127341190D01*
X304719880Y-127579285D01*
X303719880Y-126150714D02*
X303719880Y-126341190D01*
X303767500Y-126436428D01*
X303815119Y-126484047D01*
X303957976Y-126579285D01*
X304148452Y-126626904D01*
X304529404Y-126626904D01*
X304624642Y-126579285D01*
X304672261Y-126531666D01*
X304719880Y-126436428D01*
X304719880Y-126245952D01*
X304672261Y-126150714D01*
X304624642Y-126103095D01*
X304529404Y-126055476D01*
X304291309Y-126055476D01*
X304196071Y-126103095D01*
X304148452Y-126150714D01*
X304100833Y-126245952D01*
X304100833Y-126436428D01*
X304148452Y-126531666D01*
X304196071Y-126579285D01*
X304291309Y-126626904D01*
X303719880Y-125198333D02*
X303719880Y-125388809D01*
X303767500Y-125484047D01*
X303815119Y-125531666D01*
X303957976Y-125626904D01*
X304148452Y-125674523D01*
X304529404Y-125674523D01*
X304624642Y-125626904D01*
X304672261Y-125579285D01*
X304719880Y-125484047D01*
X304719880Y-125293571D01*
X304672261Y-125198333D01*
X304624642Y-125150714D01*
X304529404Y-125103095D01*
X304291309Y-125103095D01*
X304196071Y-125150714D01*
X304148452Y-125198333D01*
X304100833Y-125293571D01*
X304100833Y-125484047D01*
X304148452Y-125579285D01*
X304196071Y-125626904D01*
X304291309Y-125674523D01*
X305039880Y-130436904D02*
X304039880Y-130436904D01*
X305039880Y-129865476D02*
X304468452Y-130294047D01*
X304039880Y-129865476D02*
X304611309Y-130436904D01*
X323769880Y-127579285D02*
X322769880Y-127579285D01*
X322769880Y-127341190D01*
X322817500Y-127198333D01*
X322912738Y-127103095D01*
X323007976Y-127055476D01*
X323198452Y-127007857D01*
X323341309Y-127007857D01*
X323531785Y-127055476D01*
X323627023Y-127103095D01*
X323722261Y-127198333D01*
X323769880Y-127341190D01*
X323769880Y-127579285D01*
X322769880Y-126150714D02*
X322769880Y-126341190D01*
X322817500Y-126436428D01*
X322865119Y-126484047D01*
X323007976Y-126579285D01*
X323198452Y-126626904D01*
X323579404Y-126626904D01*
X323674642Y-126579285D01*
X323722261Y-126531666D01*
X323769880Y-126436428D01*
X323769880Y-126245952D01*
X323722261Y-126150714D01*
X323674642Y-126103095D01*
X323579404Y-126055476D01*
X323341309Y-126055476D01*
X323246071Y-126103095D01*
X323198452Y-126150714D01*
X323150833Y-126245952D01*
X323150833Y-126436428D01*
X323198452Y-126531666D01*
X323246071Y-126579285D01*
X323341309Y-126626904D01*
X322769880Y-125722142D02*
X322769880Y-125055476D01*
X323769880Y-125484047D01*
X324089880Y-130436904D02*
X323089880Y-130436904D01*
X324089880Y-129865476D02*
X323518452Y-130294047D01*
X323089880Y-129865476D02*
X323661309Y-130436904D01*
X313712761Y-46285333D02*
X313760380Y-46142476D01*
X313760380Y-45904380D01*
X313712761Y-45809142D01*
X313665142Y-45761523D01*
X313569904Y-45713904D01*
X313474666Y-45713904D01*
X313379428Y-45761523D01*
X313331809Y-45809142D01*
X313284190Y-45904380D01*
X313236571Y-46094857D01*
X313188952Y-46190095D01*
X313141333Y-46237714D01*
X313046095Y-46285333D01*
X312950857Y-46285333D01*
X312855619Y-46237714D01*
X312808000Y-46190095D01*
X312760380Y-46094857D01*
X312760380Y-45856761D01*
X312808000Y-45713904D01*
X312760380Y-45380571D02*
X313760380Y-45142476D01*
X313046095Y-44952000D01*
X313760380Y-44761523D01*
X312760380Y-44523428D01*
X313760380Y-43618666D02*
X313760380Y-44190095D01*
X313760380Y-43904380D02*
X312760380Y-43904380D01*
X312903238Y-43999619D01*
X312998476Y-44094857D01*
X313046095Y-44190095D01*
X19838095Y-18452380D02*
X19838095Y-19261904D01*
X19885714Y-19357142D01*
X19933333Y-19404761D01*
X20028571Y-19452380D01*
X20219047Y-19452380D01*
X20314285Y-19404761D01*
X20361904Y-19357142D01*
X20409523Y-19261904D01*
X20409523Y-18452380D01*
X20790476Y-18452380D02*
X21409523Y-18452380D01*
X21076190Y-18833333D01*
X21219047Y-18833333D01*
X21314285Y-18880952D01*
X21361904Y-18928571D01*
X21409523Y-19023809D01*
X21409523Y-19261904D01*
X21361904Y-19357142D01*
X21314285Y-19404761D01*
X21219047Y-19452380D01*
X20933333Y-19452380D01*
X20838095Y-19404761D01*
X20790476Y-19357142D01*
D10*
X100093444Y-133262754D02*
X100020873Y-133335326D01*
X99803159Y-133407897D01*
X99658016Y-133407897D01*
X99440301Y-133335326D01*
X99295159Y-133190183D01*
X99222587Y-133045040D01*
X99150016Y-132754754D01*
X99150016Y-132537040D01*
X99222587Y-132246754D01*
X99295159Y-132101611D01*
X99440301Y-131956469D01*
X99658016Y-131883897D01*
X99803159Y-131883897D01*
X100020873Y-131956469D01*
X100093444Y-132029040D01*
X100746587Y-133407897D02*
X100746587Y-131883897D01*
X101399730Y-133407897D02*
X101399730Y-132609611D01*
X101327159Y-132464469D01*
X101182016Y-132391897D01*
X100964301Y-132391897D01*
X100819159Y-132464469D01*
X100746587Y-132537040D01*
X102125444Y-133407897D02*
X102125444Y-132391897D01*
X102125444Y-131883897D02*
X102052873Y-131956469D01*
X102125444Y-132029040D01*
X102198016Y-131956469D01*
X102125444Y-131883897D01*
X102125444Y-132029040D01*
X103504301Y-133335326D02*
X103359159Y-133407897D01*
X103068873Y-133407897D01*
X102923730Y-133335326D01*
X102851159Y-133262754D01*
X102778587Y-133117611D01*
X102778587Y-132682183D01*
X102851159Y-132537040D01*
X102923730Y-132464469D01*
X103068873Y-132391897D01*
X103359159Y-132391897D01*
X103504301Y-132464469D01*
X104375159Y-133407897D02*
X104230016Y-133335326D01*
X104157444Y-133262754D01*
X104084873Y-133117611D01*
X104084873Y-132682183D01*
X104157444Y-132537040D01*
X104230016Y-132464469D01*
X104375159Y-132391897D01*
X104592873Y-132391897D01*
X104738016Y-132464469D01*
X104810587Y-132537040D01*
X104883159Y-132682183D01*
X104883159Y-133117611D01*
X104810587Y-133262754D01*
X104738016Y-133335326D01*
X104592873Y-133407897D01*
X104375159Y-133407897D01*
X106624873Y-133335326D02*
X106842587Y-133407897D01*
X107205444Y-133407897D01*
X107350587Y-133335326D01*
X107423159Y-133262754D01*
X107495730Y-133117611D01*
X107495730Y-132972469D01*
X107423159Y-132827326D01*
X107350587Y-132754754D01*
X107205444Y-132682183D01*
X106915159Y-132609611D01*
X106770016Y-132537040D01*
X106697444Y-132464469D01*
X106624873Y-132319326D01*
X106624873Y-132174183D01*
X106697444Y-132029040D01*
X106770016Y-131956469D01*
X106915159Y-131883897D01*
X107278016Y-131883897D01*
X107495730Y-131956469D01*
X107931159Y-132391897D02*
X108511730Y-132391897D01*
X108148873Y-131883897D02*
X108148873Y-133190183D01*
X108221444Y-133335326D01*
X108366587Y-133407897D01*
X108511730Y-133407897D01*
X109672873Y-133407897D02*
X109672873Y-132609611D01*
X109600301Y-132464469D01*
X109455159Y-132391897D01*
X109164873Y-132391897D01*
X109019730Y-132464469D01*
X109672873Y-133335326D02*
X109527730Y-133407897D01*
X109164873Y-133407897D01*
X109019730Y-133335326D01*
X108947159Y-133190183D01*
X108947159Y-133045040D01*
X109019730Y-132899897D01*
X109164873Y-132827326D01*
X109527730Y-132827326D01*
X109672873Y-132754754D01*
X110180873Y-132391897D02*
X110761444Y-132391897D01*
X110398587Y-131883897D02*
X110398587Y-133190183D01*
X110471159Y-133335326D01*
X110616301Y-133407897D01*
X110761444Y-133407897D01*
X111850016Y-133335326D02*
X111704873Y-133407897D01*
X111414587Y-133407897D01*
X111269444Y-133335326D01*
X111196873Y-133190183D01*
X111196873Y-132609611D01*
X111269444Y-132464469D01*
X111414587Y-132391897D01*
X111704873Y-132391897D01*
X111850016Y-132464469D01*
X111922587Y-132609611D01*
X111922587Y-132754754D01*
X111196873Y-132899897D01*
X113736873Y-133407897D02*
X113736873Y-131883897D01*
X114244873Y-132972469D01*
X114752873Y-131883897D01*
X114752873Y-133407897D01*
X116059159Y-133335326D02*
X115914016Y-133407897D01*
X115623730Y-133407897D01*
X115478587Y-133335326D01*
X115406016Y-133190183D01*
X115406016Y-132609611D01*
X115478587Y-132464469D01*
X115623730Y-132391897D01*
X115914016Y-132391897D01*
X116059159Y-132464469D01*
X116131730Y-132609611D01*
X116131730Y-132754754D01*
X115406016Y-132899897D01*
X117438016Y-133335326D02*
X117292873Y-133407897D01*
X117002587Y-133407897D01*
X116857444Y-133335326D01*
X116784873Y-133262754D01*
X116712301Y-133117611D01*
X116712301Y-132682183D01*
X116784873Y-132537040D01*
X116857444Y-132464469D01*
X117002587Y-132391897D01*
X117292873Y-132391897D01*
X117438016Y-132464469D01*
X118091159Y-133407897D02*
X118091159Y-131883897D01*
X118744301Y-133407897D02*
X118744301Y-132609611D01*
X118671730Y-132464469D01*
X118526587Y-132391897D01*
X118308873Y-132391897D01*
X118163730Y-132464469D01*
X118091159Y-132537040D01*
X120123159Y-133407897D02*
X120123159Y-132609611D01*
X120050587Y-132464469D01*
X119905444Y-132391897D01*
X119615159Y-132391897D01*
X119470016Y-132464469D01*
X120123159Y-133335326D02*
X119978016Y-133407897D01*
X119615159Y-133407897D01*
X119470016Y-133335326D01*
X119397444Y-133190183D01*
X119397444Y-133045040D01*
X119470016Y-132899897D01*
X119615159Y-132827326D01*
X119978016Y-132827326D01*
X120123159Y-132754754D01*
X120848873Y-132391897D02*
X120848873Y-133407897D01*
X120848873Y-132537040D02*
X120921444Y-132464469D01*
X121066587Y-132391897D01*
X121284301Y-132391897D01*
X121429444Y-132464469D01*
X121502016Y-132609611D01*
X121502016Y-133407897D01*
X122227730Y-133407897D02*
X122227730Y-132391897D01*
X122227730Y-131883897D02*
X122155159Y-131956469D01*
X122227730Y-132029040D01*
X122300301Y-131956469D01*
X122227730Y-131883897D01*
X122227730Y-132029040D01*
X123606587Y-133335326D02*
X123461444Y-133407897D01*
X123171159Y-133407897D01*
X123026016Y-133335326D01*
X122953444Y-133262754D01*
X122880873Y-133117611D01*
X122880873Y-132682183D01*
X122953444Y-132537040D01*
X123026016Y-132464469D01*
X123171159Y-132391897D01*
X123461444Y-132391897D01*
X123606587Y-132464469D01*
X124912873Y-133407897D02*
X124912873Y-132609611D01*
X124840301Y-132464469D01*
X124695159Y-132391897D01*
X124404873Y-132391897D01*
X124259730Y-132464469D01*
X124912873Y-133335326D02*
X124767730Y-133407897D01*
X124404873Y-133407897D01*
X124259730Y-133335326D01*
X124187159Y-133190183D01*
X124187159Y-133045040D01*
X124259730Y-132899897D01*
X124404873Y-132827326D01*
X124767730Y-132827326D01*
X124912873Y-132754754D01*
X125856301Y-133407897D02*
X125711159Y-133335326D01*
X125638587Y-133190183D01*
X125638587Y-131883897D01*
X127598016Y-133407897D02*
X127598016Y-131883897D01*
X128468873Y-133407897D02*
X127815730Y-132537040D01*
X128468873Y-131883897D02*
X127598016Y-132754754D01*
X129702587Y-133335326D02*
X129557444Y-133407897D01*
X129267159Y-133407897D01*
X129122016Y-133335326D01*
X129049444Y-133190183D01*
X129049444Y-132609611D01*
X129122016Y-132464469D01*
X129267159Y-132391897D01*
X129557444Y-132391897D01*
X129702587Y-132464469D01*
X129775159Y-132609611D01*
X129775159Y-132754754D01*
X129049444Y-132899897D01*
X130283159Y-132391897D02*
X130646016Y-133407897D01*
X131008873Y-132391897D02*
X130646016Y-133407897D01*
X130500873Y-133770754D01*
X130428301Y-133843326D01*
X130283159Y-133915897D01*
X131589444Y-133407897D02*
X131589444Y-131883897D01*
X131589444Y-132464469D02*
X131734587Y-132391897D01*
X132024873Y-132391897D01*
X132170016Y-132464469D01*
X132242587Y-132537040D01*
X132315159Y-132682183D01*
X132315159Y-133117611D01*
X132242587Y-133262754D01*
X132170016Y-133335326D01*
X132024873Y-133407897D01*
X131734587Y-133407897D01*
X131589444Y-133335326D01*
X133186016Y-133407897D02*
X133040873Y-133335326D01*
X132968301Y-133262754D01*
X132895730Y-133117611D01*
X132895730Y-132682183D01*
X132968301Y-132537040D01*
X133040873Y-132464469D01*
X133186016Y-132391897D01*
X133403730Y-132391897D01*
X133548873Y-132464469D01*
X133621444Y-132537040D01*
X133694016Y-132682183D01*
X133694016Y-133117611D01*
X133621444Y-133262754D01*
X133548873Y-133335326D01*
X133403730Y-133407897D01*
X133186016Y-133407897D01*
X135000301Y-133407897D02*
X135000301Y-132609611D01*
X134927730Y-132464469D01*
X134782587Y-132391897D01*
X134492301Y-132391897D01*
X134347159Y-132464469D01*
X135000301Y-133335326D02*
X134855159Y-133407897D01*
X134492301Y-133407897D01*
X134347159Y-133335326D01*
X134274587Y-133190183D01*
X134274587Y-133045040D01*
X134347159Y-132899897D01*
X134492301Y-132827326D01*
X134855159Y-132827326D01*
X135000301Y-132754754D01*
X135726016Y-133407897D02*
X135726016Y-132391897D01*
X135726016Y-132682183D02*
X135798587Y-132537040D01*
X135871159Y-132464469D01*
X136016301Y-132391897D01*
X136161444Y-132391897D01*
X137322587Y-133407897D02*
X137322587Y-131883897D01*
X137322587Y-133335326D02*
X137177444Y-133407897D01*
X136887159Y-133407897D01*
X136742016Y-133335326D01*
X136669444Y-133262754D01*
X136596873Y-133117611D01*
X136596873Y-132682183D01*
X136669444Y-132537040D01*
X136742016Y-132464469D01*
X136887159Y-132391897D01*
X137177444Y-132391897D01*
X137322587Y-132464469D01*
X140080301Y-133262754D02*
X140007730Y-133335326D01*
X139790016Y-133407897D01*
X139644873Y-133407897D01*
X139427159Y-133335326D01*
X139282016Y-133190183D01*
X139209444Y-133045040D01*
X139136873Y-132754754D01*
X139136873Y-132537040D01*
X139209444Y-132246754D01*
X139282016Y-132101611D01*
X139427159Y-131956469D01*
X139644873Y-131883897D01*
X139790016Y-131883897D01*
X140007730Y-131956469D01*
X140080301Y-132029040D01*
X140951159Y-133407897D02*
X140806016Y-133335326D01*
X140733444Y-133190183D01*
X140733444Y-131883897D01*
X142184873Y-132391897D02*
X142184873Y-133407897D01*
X141531730Y-132391897D02*
X141531730Y-133190183D01*
X141604301Y-133335326D01*
X141749444Y-133407897D01*
X141967159Y-133407897D01*
X142112301Y-133335326D01*
X142184873Y-133262754D01*
X142910587Y-133407897D02*
X142910587Y-131883897D01*
X142910587Y-132464469D02*
X143055730Y-132391897D01*
X143346016Y-132391897D01*
X143491159Y-132464469D01*
X143563730Y-132537040D01*
X143636301Y-132682183D01*
X143636301Y-133117611D01*
X143563730Y-133262754D01*
X143491159Y-133335326D01*
X143346016Y-133407897D01*
X143055730Y-133407897D01*
X142910587Y-133335326D01*
X171800269Y-128299356D02*
X171655126Y-128371927D01*
X171364840Y-128371927D01*
X171219698Y-128299356D01*
X171147126Y-128226784D01*
X171074555Y-128081641D01*
X171074555Y-127646213D01*
X171147126Y-127501070D01*
X171219698Y-127428499D01*
X171364840Y-127355927D01*
X171655126Y-127355927D01*
X171800269Y-127428499D01*
X172453412Y-128371927D02*
X172453412Y-127355927D01*
X172453412Y-126847927D02*
X172380840Y-126920499D01*
X172453412Y-126993070D01*
X172525983Y-126920499D01*
X172453412Y-126847927D01*
X172453412Y-126993070D01*
X173179126Y-128371927D02*
X173179126Y-127355927D01*
X173179126Y-127646213D02*
X173251698Y-127501070D01*
X173324269Y-127428499D01*
X173469412Y-127355927D01*
X173614555Y-127355927D01*
X174775698Y-128299356D02*
X174630555Y-128371927D01*
X174340269Y-128371927D01*
X174195126Y-128299356D01*
X174122555Y-128226784D01*
X174049983Y-128081641D01*
X174049983Y-127646213D01*
X174122555Y-127501070D01*
X174195126Y-127428499D01*
X174340269Y-127355927D01*
X174630555Y-127355927D01*
X174775698Y-127428499D01*
X176081983Y-127355927D02*
X176081983Y-128371927D01*
X175428840Y-127355927D02*
X175428840Y-128154213D01*
X175501412Y-128299356D01*
X175646555Y-128371927D01*
X175864269Y-128371927D01*
X176009412Y-128299356D01*
X176081983Y-128226784D01*
X176807698Y-128371927D02*
X176807698Y-127355927D01*
X176807698Y-126847927D02*
X176735126Y-126920499D01*
X176807698Y-126993070D01*
X176880269Y-126920499D01*
X176807698Y-126847927D01*
X176807698Y-126993070D01*
X177315698Y-127355927D02*
X177896269Y-127355927D01*
X177533412Y-126847927D02*
X177533412Y-128154213D01*
X177605983Y-128299356D01*
X177751126Y-128371927D01*
X177896269Y-128371927D01*
X178404269Y-127791356D02*
X179565412Y-127791356D01*
X180944269Y-128371927D02*
X180944269Y-126847927D01*
X180944269Y-128299356D02*
X180799126Y-128371927D01*
X180508840Y-128371927D01*
X180363698Y-128299356D01*
X180291126Y-128226784D01*
X180218555Y-128081641D01*
X180218555Y-127646213D01*
X180291126Y-127501070D01*
X180363698Y-127428499D01*
X180508840Y-127355927D01*
X180799126Y-127355927D01*
X180944269Y-127428499D01*
X182323126Y-127355927D02*
X182323126Y-128371927D01*
X181669983Y-127355927D02*
X181669983Y-128154213D01*
X181742555Y-128299356D01*
X181887698Y-128371927D01*
X182105412Y-128371927D01*
X182250555Y-128299356D01*
X182323126Y-128226784D01*
X183701983Y-128371927D02*
X183701983Y-126847927D01*
X183701983Y-128299356D02*
X183556840Y-128371927D01*
X183266555Y-128371927D01*
X183121412Y-128299356D01*
X183048840Y-128226784D01*
X182976269Y-128081641D01*
X182976269Y-127646213D01*
X183048840Y-127501070D01*
X183121412Y-127428499D01*
X183266555Y-127355927D01*
X183556840Y-127355927D01*
X183701983Y-127428499D01*
X185008269Y-128299356D02*
X184863126Y-128371927D01*
X184572840Y-128371927D01*
X184427698Y-128299356D01*
X184355126Y-128154213D01*
X184355126Y-127573641D01*
X184427698Y-127428499D01*
X184572840Y-127355927D01*
X184863126Y-127355927D01*
X185008269Y-127428499D01*
X185080840Y-127573641D01*
X185080840Y-127718784D01*
X184355126Y-127863927D01*
D12*
X34925000Y-42632500D02*
X34925000Y-43282500D01*
X34925000Y-48172500D02*
X34925000Y-47522500D01*
X36045000Y-47522500D02*
X36045000Y-43282500D01*
X36045000Y-43282500D02*
X33805000Y-43282500D01*
X33805000Y-47522500D02*
X36045000Y-47522500D01*
X33805000Y-46802500D02*
X36045000Y-46802500D01*
X33805000Y-43282500D02*
X33805000Y-47522500D01*
X33805000Y-46682500D02*
X36045000Y-46682500D01*
X33805000Y-46922500D02*
X36045000Y-46922500D01*
X52855000Y-47522500D02*
X55095000Y-47522500D01*
X55095000Y-43282500D02*
X52855000Y-43282500D01*
X52855000Y-46922500D02*
X55095000Y-46922500D01*
X52855000Y-46802500D02*
X55095000Y-46802500D01*
X52855000Y-43282500D02*
X52855000Y-47522500D01*
X52855000Y-46682500D02*
X55095000Y-46682500D01*
X53975000Y-42632500D02*
X53975000Y-43282500D01*
X53975000Y-48172500D02*
X53975000Y-47522500D01*
X55095000Y-47522500D02*
X55095000Y-43282500D01*
X73025000Y-48172500D02*
X73025000Y-47522500D01*
X71905000Y-46922500D02*
X74145000Y-46922500D01*
X73025000Y-42632500D02*
X73025000Y-43282500D01*
X74145000Y-43282500D02*
X71905000Y-43282500D01*
X74145000Y-47522500D02*
X74145000Y-43282500D01*
X71905000Y-47522500D02*
X74145000Y-47522500D01*
X71905000Y-43282500D02*
X71905000Y-47522500D01*
X71905000Y-46802500D02*
X74145000Y-46802500D01*
X71905000Y-46682500D02*
X74145000Y-46682500D01*
X90955000Y-46682500D02*
X93195000Y-46682500D01*
X90955000Y-46802500D02*
X93195000Y-46802500D01*
X90955000Y-46922500D02*
X93195000Y-46922500D01*
X90955000Y-47522500D02*
X93195000Y-47522500D01*
X92075000Y-42632500D02*
X92075000Y-43282500D01*
X93195000Y-47522500D02*
X93195000Y-43282500D01*
X93195000Y-43282500D02*
X90955000Y-43282500D01*
X92075000Y-48172500D02*
X92075000Y-47522500D01*
X90955000Y-43282500D02*
X90955000Y-47522500D01*
X110005000Y-43282500D02*
X110005000Y-47522500D01*
X112245000Y-43282500D02*
X110005000Y-43282500D01*
X110005000Y-46922500D02*
X112245000Y-46922500D01*
X112245000Y-47522500D02*
X112245000Y-43282500D01*
X110005000Y-46802500D02*
X112245000Y-46802500D01*
X111125000Y-42632500D02*
X111125000Y-43282500D01*
X110005000Y-46682500D02*
X112245000Y-46682500D01*
X111125000Y-48172500D02*
X111125000Y-47522500D01*
X110005000Y-47522500D02*
X112245000Y-47522500D01*
X130175000Y-48172500D02*
X130175000Y-47522500D01*
X129055000Y-46802500D02*
X131295000Y-46802500D01*
X129055000Y-46922500D02*
X131295000Y-46922500D01*
X129055000Y-43282500D02*
X129055000Y-47522500D01*
X131295000Y-43282500D02*
X129055000Y-43282500D01*
X131295000Y-47522500D02*
X131295000Y-43282500D01*
X129055000Y-46682500D02*
X131295000Y-46682500D01*
X129055000Y-47522500D02*
X131295000Y-47522500D01*
X130175000Y-42632500D02*
X130175000Y-43282500D01*
X149225000Y-42632500D02*
X149225000Y-43282500D01*
X148105000Y-46682500D02*
X150345000Y-46682500D01*
X148105000Y-43282500D02*
X148105000Y-47522500D01*
X150345000Y-43282500D02*
X148105000Y-43282500D01*
X148105000Y-46922500D02*
X150345000Y-46922500D01*
X148105000Y-46802500D02*
X150345000Y-46802500D01*
X148105000Y-47522500D02*
X150345000Y-47522500D01*
X149225000Y-48172500D02*
X149225000Y-47522500D01*
X150345000Y-47522500D02*
X150345000Y-43282500D01*
X168275000Y-42632500D02*
X168275000Y-43282500D01*
X167155000Y-47522500D02*
X169395000Y-47522500D01*
X167155000Y-43282500D02*
X167155000Y-47522500D01*
X169395000Y-43282500D02*
X167155000Y-43282500D01*
X167155000Y-46682500D02*
X169395000Y-46682500D01*
X167155000Y-46922500D02*
X169395000Y-46922500D01*
X168275000Y-48172500D02*
X168275000Y-47522500D01*
X167155000Y-46802500D02*
X169395000Y-46802500D01*
X169395000Y-47522500D02*
X169395000Y-43282500D01*
X186205000Y-46802500D02*
X188445000Y-46802500D01*
X186205000Y-46682500D02*
X188445000Y-46682500D01*
X187325000Y-48172500D02*
X187325000Y-47522500D01*
X186205000Y-47522500D02*
X188445000Y-47522500D01*
X188445000Y-43282500D02*
X186205000Y-43282500D01*
X186205000Y-46922500D02*
X188445000Y-46922500D01*
X188445000Y-47522500D02*
X188445000Y-43282500D01*
X186205000Y-43282500D02*
X186205000Y-47522500D01*
X187325000Y-42632500D02*
X187325000Y-43282500D01*
X205255000Y-47522500D02*
X207495000Y-47522500D01*
X207495000Y-47522500D02*
X207495000Y-43282500D01*
X205255000Y-46922500D02*
X207495000Y-46922500D01*
X205255000Y-46802500D02*
X207495000Y-46802500D01*
X206375000Y-42632500D02*
X206375000Y-43282500D01*
X207495000Y-43282500D02*
X205255000Y-43282500D01*
X205255000Y-46682500D02*
X207495000Y-46682500D01*
X205255000Y-43282500D02*
X205255000Y-47522500D01*
X206375000Y-48172500D02*
X206375000Y-47522500D01*
X224305000Y-46682500D02*
X226545000Y-46682500D01*
X226545000Y-47522500D02*
X226545000Y-43282500D01*
X224305000Y-47522500D02*
X226545000Y-47522500D01*
X226545000Y-43282500D02*
X224305000Y-43282500D01*
X224305000Y-43282500D02*
X224305000Y-47522500D01*
X224305000Y-46802500D02*
X226545000Y-46802500D01*
X225425000Y-42632500D02*
X225425000Y-43282500D01*
X225425000Y-48172500D02*
X225425000Y-47522500D01*
X224305000Y-46922500D02*
X226545000Y-46922500D01*
X245595000Y-47522500D02*
X245595000Y-43282500D01*
X243355000Y-46802500D02*
X245595000Y-46802500D01*
X244475000Y-48172500D02*
X244475000Y-47522500D01*
X244475000Y-42632500D02*
X244475000Y-43282500D01*
X243355000Y-47522500D02*
X245595000Y-47522500D01*
X243355000Y-46922500D02*
X245595000Y-46922500D01*
X245595000Y-43282500D02*
X243355000Y-43282500D01*
X243355000Y-43282500D02*
X243355000Y-47522500D01*
X243355000Y-46682500D02*
X245595000Y-46682500D01*
X262405000Y-46802500D02*
X264645000Y-46802500D01*
X263525000Y-48172500D02*
X263525000Y-47522500D01*
X262405000Y-46922500D02*
X264645000Y-46922500D01*
X263525000Y-42632500D02*
X263525000Y-43282500D01*
X264645000Y-43282500D02*
X262405000Y-43282500D01*
X264645000Y-47522500D02*
X264645000Y-43282500D01*
X262405000Y-46682500D02*
X264645000Y-46682500D01*
X262405000Y-43282500D02*
X262405000Y-47522500D01*
X262405000Y-47522500D02*
X264645000Y-47522500D01*
X300505000Y-46802500D02*
X302745000Y-46802500D01*
X301625000Y-48172500D02*
X301625000Y-47522500D01*
X300505000Y-43282500D02*
X300505000Y-47522500D01*
X301625000Y-42632500D02*
X301625000Y-43282500D01*
X300505000Y-47522500D02*
X302745000Y-47522500D01*
X300505000Y-46922500D02*
X302745000Y-46922500D01*
X302745000Y-43282500D02*
X300505000Y-43282500D01*
X302745000Y-47522500D02*
X302745000Y-43282500D01*
X300505000Y-46682500D02*
X302745000Y-46682500D01*
X40948750Y-65972500D02*
X43188750Y-65972500D01*
X40948750Y-65852500D02*
X43188750Y-65852500D01*
X40948750Y-62332500D02*
X40948750Y-66572500D01*
X43188750Y-66572500D02*
X43188750Y-62332500D01*
X40948750Y-65732500D02*
X43188750Y-65732500D01*
X42068750Y-61682500D02*
X42068750Y-62332500D01*
X40948750Y-66572500D02*
X43188750Y-66572500D01*
X43188750Y-62332500D02*
X40948750Y-62332500D01*
X42068750Y-67222500D02*
X42068750Y-66572500D01*
X62380000Y-65972500D02*
X64620000Y-65972500D01*
X64620000Y-66572500D02*
X64620000Y-62332500D01*
X62380000Y-65852500D02*
X64620000Y-65852500D01*
X63500000Y-67222500D02*
X63500000Y-66572500D01*
X62380000Y-62332500D02*
X62380000Y-66572500D01*
X62380000Y-66572500D02*
X64620000Y-66572500D01*
X62380000Y-65732500D02*
X64620000Y-65732500D01*
X63500000Y-61682500D02*
X63500000Y-62332500D01*
X64620000Y-62332500D02*
X62380000Y-62332500D01*
X83670000Y-62332500D02*
X81430000Y-62332500D01*
X81430000Y-66572500D02*
X83670000Y-66572500D01*
X81430000Y-65852500D02*
X83670000Y-65852500D01*
X81430000Y-65972500D02*
X83670000Y-65972500D01*
X81430000Y-65732500D02*
X83670000Y-65732500D01*
X82550000Y-67222500D02*
X82550000Y-66572500D01*
X83670000Y-66572500D02*
X83670000Y-62332500D01*
X82550000Y-61682500D02*
X82550000Y-62332500D01*
X81430000Y-62332500D02*
X81430000Y-66572500D01*
X100480000Y-65732500D02*
X102720000Y-65732500D01*
X101600000Y-67222500D02*
X101600000Y-66572500D01*
X100480000Y-65852500D02*
X102720000Y-65852500D01*
X102720000Y-66572500D02*
X102720000Y-62332500D01*
X100480000Y-62332500D02*
X100480000Y-66572500D01*
X100480000Y-65972500D02*
X102720000Y-65972500D01*
X102720000Y-62332500D02*
X100480000Y-62332500D01*
X101600000Y-61682500D02*
X101600000Y-62332500D01*
X100480000Y-66572500D02*
X102720000Y-66572500D01*
X119530000Y-65972500D02*
X121770000Y-65972500D01*
X119530000Y-62332500D02*
X119530000Y-66572500D01*
X121770000Y-62332500D02*
X119530000Y-62332500D01*
X121770000Y-66572500D02*
X121770000Y-62332500D01*
X120650000Y-67222500D02*
X120650000Y-66572500D01*
X119530000Y-66572500D02*
X121770000Y-66572500D01*
X120650000Y-61682500D02*
X120650000Y-62332500D01*
X119530000Y-65852500D02*
X121770000Y-65852500D01*
X119530000Y-65732500D02*
X121770000Y-65732500D01*
X138580000Y-65732500D02*
X140820000Y-65732500D01*
X138580000Y-62332500D02*
X138580000Y-66572500D01*
X138580000Y-66572500D02*
X140820000Y-66572500D01*
X139700000Y-61682500D02*
X139700000Y-62332500D01*
X138580000Y-65852500D02*
X140820000Y-65852500D01*
X139700000Y-67222500D02*
X139700000Y-66572500D01*
X138580000Y-65972500D02*
X140820000Y-65972500D01*
X140820000Y-66572500D02*
X140820000Y-62332500D01*
X140820000Y-62332500D02*
X138580000Y-62332500D01*
X159870000Y-62332500D02*
X157630000Y-62332500D01*
X157630000Y-66572500D02*
X159870000Y-66572500D01*
X158750000Y-67222500D02*
X158750000Y-66572500D01*
X157630000Y-65732500D02*
X159870000Y-65732500D01*
X157630000Y-65852500D02*
X159870000Y-65852500D01*
X157630000Y-62332500D02*
X157630000Y-66572500D01*
X159870000Y-66572500D02*
X159870000Y-62332500D01*
X157630000Y-65972500D02*
X159870000Y-65972500D01*
X158750000Y-61682500D02*
X158750000Y-62332500D01*
X176680000Y-65852500D02*
X178920000Y-65852500D01*
X178920000Y-62332500D02*
X176680000Y-62332500D01*
X176680000Y-65972500D02*
X178920000Y-65972500D01*
X176680000Y-65732500D02*
X178920000Y-65732500D01*
X176680000Y-62332500D02*
X176680000Y-66572500D01*
X178920000Y-66572500D02*
X178920000Y-62332500D01*
X177800000Y-61682500D02*
X177800000Y-62332500D01*
X176680000Y-66572500D02*
X178920000Y-66572500D01*
X177800000Y-67222500D02*
X177800000Y-66572500D01*
X195730000Y-62332500D02*
X195730000Y-66572500D01*
X195730000Y-65972500D02*
X197970000Y-65972500D01*
X195730000Y-65732500D02*
X197970000Y-65732500D01*
X195730000Y-66572500D02*
X197970000Y-66572500D01*
X197970000Y-66572500D02*
X197970000Y-62332500D01*
X195730000Y-65852500D02*
X197970000Y-65852500D01*
X196850000Y-61682500D02*
X196850000Y-62332500D01*
X196850000Y-67222500D02*
X196850000Y-66572500D01*
X197970000Y-62332500D02*
X195730000Y-62332500D01*
X214780000Y-66572500D02*
X217020000Y-66572500D01*
X215900000Y-67222500D02*
X215900000Y-66572500D01*
X214780000Y-65852500D02*
X217020000Y-65852500D01*
X215900000Y-61682500D02*
X215900000Y-62332500D01*
X217020000Y-62332500D02*
X214780000Y-62332500D01*
X214780000Y-62332500D02*
X214780000Y-66572500D01*
X217020000Y-66572500D02*
X217020000Y-62332500D01*
X214780000Y-65972500D02*
X217020000Y-65972500D01*
X214780000Y-65732500D02*
X217020000Y-65732500D01*
X233830000Y-62332500D02*
X233830000Y-66572500D01*
X236070000Y-66572500D02*
X236070000Y-62332500D01*
X233830000Y-66572500D02*
X236070000Y-66572500D01*
X233830000Y-65852500D02*
X236070000Y-65852500D01*
X236070000Y-62332500D02*
X233830000Y-62332500D01*
X234950000Y-61682500D02*
X234950000Y-62332500D01*
X233830000Y-65732500D02*
X236070000Y-65732500D01*
X234950000Y-67222500D02*
X234950000Y-66572500D01*
X233830000Y-65972500D02*
X236070000Y-65972500D01*
X252880000Y-65972500D02*
X255120000Y-65972500D01*
X252880000Y-65852500D02*
X255120000Y-65852500D01*
X252880000Y-66572500D02*
X255120000Y-66572500D01*
X254000000Y-67222500D02*
X254000000Y-66572500D01*
X252880000Y-62332500D02*
X252880000Y-66572500D01*
X254000000Y-61682500D02*
X254000000Y-62332500D01*
X252880000Y-65732500D02*
X255120000Y-65732500D01*
X255120000Y-62332500D02*
X252880000Y-62332500D01*
X255120000Y-66572500D02*
X255120000Y-62332500D01*
X271930000Y-65972500D02*
X274170000Y-65972500D01*
X271930000Y-65732500D02*
X274170000Y-65732500D01*
X273050000Y-67222500D02*
X273050000Y-66572500D01*
X274170000Y-62332500D02*
X271930000Y-62332500D01*
X273050000Y-61682500D02*
X273050000Y-62332500D01*
X271930000Y-65852500D02*
X274170000Y-65852500D01*
X274170000Y-66572500D02*
X274170000Y-62332500D01*
X271930000Y-62332500D02*
X271930000Y-66572500D01*
X271930000Y-66572500D02*
X274170000Y-66572500D01*
X300505000Y-65972500D02*
X302745000Y-65972500D01*
X302745000Y-62332500D02*
X300505000Y-62332500D01*
X300505000Y-65732500D02*
X302745000Y-65732500D01*
X300505000Y-65852500D02*
X302745000Y-65852500D01*
X300505000Y-66572500D02*
X302745000Y-66572500D01*
X301625000Y-61682500D02*
X301625000Y-62332500D01*
X301625000Y-67222500D02*
X301625000Y-66572500D01*
X300505000Y-62332500D02*
X300505000Y-66572500D01*
X302745000Y-66572500D02*
X302745000Y-62332500D01*
X311150000Y-67222500D02*
X311150000Y-66572500D01*
X312270000Y-62332500D02*
X310030000Y-62332500D01*
X310030000Y-65972500D02*
X312270000Y-65972500D01*
X312270000Y-66572500D02*
X312270000Y-62332500D01*
X310030000Y-66572500D02*
X312270000Y-66572500D01*
X310030000Y-65732500D02*
X312270000Y-65732500D01*
X310030000Y-65852500D02*
X312270000Y-65852500D01*
X310030000Y-62332500D02*
X310030000Y-66572500D01*
X311150000Y-61682500D02*
X311150000Y-62332500D01*
X43330000Y-81382500D02*
X43330000Y-85622500D01*
X45570000Y-85622500D02*
X45570000Y-81382500D01*
X43330000Y-84782500D02*
X45570000Y-84782500D01*
X43330000Y-84902500D02*
X45570000Y-84902500D01*
X43330000Y-85622500D02*
X45570000Y-85622500D01*
X44450000Y-80732500D02*
X44450000Y-81382500D01*
X43330000Y-85022500D02*
X45570000Y-85022500D01*
X44450000Y-86272500D02*
X44450000Y-85622500D01*
X45570000Y-81382500D02*
X43330000Y-81382500D01*
X69382500Y-85622500D02*
X69382500Y-81382500D01*
X67142500Y-84902500D02*
X69382500Y-84902500D01*
X68262500Y-80732500D02*
X68262500Y-81382500D01*
X67142500Y-84782500D02*
X69382500Y-84782500D01*
X68262500Y-86272500D02*
X68262500Y-85622500D01*
X67142500Y-85622500D02*
X69382500Y-85622500D01*
X67142500Y-81382500D02*
X67142500Y-85622500D01*
X69382500Y-81382500D02*
X67142500Y-81382500D01*
X67142500Y-85022500D02*
X69382500Y-85022500D01*
X87312500Y-80732500D02*
X87312500Y-81382500D01*
X88432500Y-85622500D02*
X88432500Y-81382500D01*
X86192500Y-84902500D02*
X88432500Y-84902500D01*
X88432500Y-81382500D02*
X86192500Y-81382500D01*
X87312500Y-86272500D02*
X87312500Y-85622500D01*
X86192500Y-85622500D02*
X88432500Y-85622500D01*
X86192500Y-85022500D02*
X88432500Y-85022500D01*
X86192500Y-84782500D02*
X88432500Y-84782500D01*
X86192500Y-81382500D02*
X86192500Y-85622500D01*
X106362500Y-80732500D02*
X106362500Y-81382500D01*
X106362500Y-86272500D02*
X106362500Y-85622500D01*
X107482500Y-81382500D02*
X105242500Y-81382500D01*
X107482500Y-85622500D02*
X107482500Y-81382500D01*
X105242500Y-85022500D02*
X107482500Y-85022500D01*
X105242500Y-85622500D02*
X107482500Y-85622500D01*
X105242500Y-84902500D02*
X107482500Y-84902500D01*
X105242500Y-84782500D02*
X107482500Y-84782500D01*
X105242500Y-81382500D02*
X105242500Y-85622500D01*
X124292500Y-84782500D02*
X126532500Y-84782500D01*
X125412500Y-86272500D02*
X125412500Y-85622500D01*
X126532500Y-85622500D02*
X126532500Y-81382500D01*
X125412500Y-80732500D02*
X125412500Y-81382500D01*
X124292500Y-85622500D02*
X126532500Y-85622500D01*
X126532500Y-81382500D02*
X124292500Y-81382500D01*
X124292500Y-85022500D02*
X126532500Y-85022500D01*
X124292500Y-84902500D02*
X126532500Y-84902500D01*
X124292500Y-81382500D02*
X124292500Y-85622500D01*
X143342500Y-85622500D02*
X145582500Y-85622500D01*
X145582500Y-85622500D02*
X145582500Y-81382500D01*
X145582500Y-81382500D02*
X143342500Y-81382500D01*
X143342500Y-81382500D02*
X143342500Y-85622500D01*
X143342500Y-84782500D02*
X145582500Y-84782500D01*
X143342500Y-84902500D02*
X145582500Y-84902500D01*
X144462500Y-86272500D02*
X144462500Y-85622500D01*
X144462500Y-80732500D02*
X144462500Y-81382500D01*
X143342500Y-85022500D02*
X145582500Y-85022500D01*
X162392500Y-81382500D02*
X162392500Y-85622500D01*
X164632500Y-81382500D02*
X162392500Y-81382500D01*
X162392500Y-84902500D02*
X164632500Y-84902500D01*
X163512500Y-80732500D02*
X163512500Y-81382500D01*
X162392500Y-85022500D02*
X164632500Y-85022500D01*
X164632500Y-85622500D02*
X164632500Y-81382500D01*
X162392500Y-84782500D02*
X164632500Y-84782500D01*
X163512500Y-86272500D02*
X163512500Y-85622500D01*
X162392500Y-85622500D02*
X164632500Y-85622500D01*
X183682500Y-85622500D02*
X183682500Y-81382500D01*
X183682500Y-81382500D02*
X181442500Y-81382500D01*
X182562500Y-80732500D02*
X182562500Y-81382500D01*
X181442500Y-81382500D02*
X181442500Y-85622500D01*
X181442500Y-85022500D02*
X183682500Y-85022500D01*
X181442500Y-84902500D02*
X183682500Y-84902500D01*
X181442500Y-84782500D02*
X183682500Y-84782500D01*
X182562500Y-86272500D02*
X182562500Y-85622500D01*
X181442500Y-85622500D02*
X183682500Y-85622500D01*
X200492500Y-85622500D02*
X202732500Y-85622500D01*
X200492500Y-84902500D02*
X202732500Y-84902500D01*
X200492500Y-84782500D02*
X202732500Y-84782500D01*
X202732500Y-81382500D02*
X200492500Y-81382500D01*
X201612500Y-86272500D02*
X201612500Y-85622500D01*
X202732500Y-85622500D02*
X202732500Y-81382500D01*
X201612500Y-80732500D02*
X201612500Y-81382500D01*
X200492500Y-85022500D02*
X202732500Y-85022500D01*
X200492500Y-81382500D02*
X200492500Y-85622500D01*
X220662500Y-80732500D02*
X220662500Y-81382500D01*
X219542500Y-84902500D02*
X221782500Y-84902500D01*
X221782500Y-85622500D02*
X221782500Y-81382500D01*
X219542500Y-84782500D02*
X221782500Y-84782500D01*
X219542500Y-81382500D02*
X219542500Y-85622500D01*
X219542500Y-85622500D02*
X221782500Y-85622500D01*
X219542500Y-85022500D02*
X221782500Y-85022500D01*
X221782500Y-81382500D02*
X219542500Y-81382500D01*
X220662500Y-86272500D02*
X220662500Y-85622500D01*
X238592500Y-85622500D02*
X240832500Y-85622500D01*
X238592500Y-85022500D02*
X240832500Y-85022500D01*
X238592500Y-84782500D02*
X240832500Y-84782500D01*
X240832500Y-85622500D02*
X240832500Y-81382500D01*
X238592500Y-81382500D02*
X238592500Y-85622500D01*
X239712500Y-86272500D02*
X239712500Y-85622500D01*
X238592500Y-84902500D02*
X240832500Y-84902500D01*
X239712500Y-80732500D02*
X239712500Y-81382500D01*
X240832500Y-81382500D02*
X238592500Y-81382500D01*
X258762500Y-86272500D02*
X258762500Y-85622500D01*
X257642500Y-85622500D02*
X259882500Y-85622500D01*
X259882500Y-85622500D02*
X259882500Y-81382500D01*
X258762500Y-80732500D02*
X258762500Y-81382500D01*
X257642500Y-84782500D02*
X259882500Y-84782500D01*
X257642500Y-85022500D02*
X259882500Y-85022500D01*
X257642500Y-81382500D02*
X257642500Y-85622500D01*
X259882500Y-81382500D02*
X257642500Y-81382500D01*
X257642500Y-84902500D02*
X259882500Y-84902500D01*
X302745000Y-85622500D02*
X302745000Y-81382500D01*
X300505000Y-85622500D02*
X302745000Y-85622500D01*
X302745000Y-81382500D02*
X300505000Y-81382500D01*
X301625000Y-86272500D02*
X301625000Y-85622500D01*
X300505000Y-84902500D02*
X302745000Y-84902500D01*
X300505000Y-84782500D02*
X302745000Y-84782500D01*
X301625000Y-80732500D02*
X301625000Y-81382500D01*
X300505000Y-81382500D02*
X300505000Y-85622500D01*
X300505000Y-85022500D02*
X302745000Y-85022500D01*
X310030000Y-85622500D02*
X312270000Y-85622500D01*
X312270000Y-81382500D02*
X310030000Y-81382500D01*
X310030000Y-84902500D02*
X312270000Y-84902500D01*
X310030000Y-81382500D02*
X310030000Y-85622500D01*
X310030000Y-85022500D02*
X312270000Y-85022500D01*
X311150000Y-80732500D02*
X311150000Y-81382500D01*
X310030000Y-84782500D02*
X312270000Y-84782500D01*
X312270000Y-85622500D02*
X312270000Y-81382500D01*
X311150000Y-86272500D02*
X311150000Y-85622500D01*
X56356250Y-105322500D02*
X56356250Y-104672500D01*
X57476250Y-104672500D02*
X57476250Y-100432500D01*
X55236250Y-103832500D02*
X57476250Y-103832500D01*
X55236250Y-100432500D02*
X55236250Y-104672500D01*
X55236250Y-104672500D02*
X57476250Y-104672500D01*
X55236250Y-103952500D02*
X57476250Y-103952500D01*
X57476250Y-100432500D02*
X55236250Y-100432500D01*
X55236250Y-104072500D02*
X57476250Y-104072500D01*
X56356250Y-99782500D02*
X56356250Y-100432500D01*
X76667500Y-100432500D02*
X76667500Y-104672500D01*
X78907500Y-100432500D02*
X76667500Y-100432500D01*
X76667500Y-103952500D02*
X78907500Y-103952500D01*
X78907500Y-104672500D02*
X78907500Y-100432500D01*
X77787500Y-105322500D02*
X77787500Y-104672500D01*
X76667500Y-103832500D02*
X78907500Y-103832500D01*
X76667500Y-104672500D02*
X78907500Y-104672500D01*
X76667500Y-104072500D02*
X78907500Y-104072500D01*
X77787500Y-99782500D02*
X77787500Y-100432500D01*
X95717500Y-103832500D02*
X97957500Y-103832500D01*
X97957500Y-104672500D02*
X97957500Y-100432500D01*
X96837500Y-105322500D02*
X96837500Y-104672500D01*
X97957500Y-100432500D02*
X95717500Y-100432500D01*
X95717500Y-104072500D02*
X97957500Y-104072500D01*
X95717500Y-103952500D02*
X97957500Y-103952500D01*
X95717500Y-100432500D02*
X95717500Y-104672500D01*
X95717500Y-104672500D02*
X97957500Y-104672500D01*
X96837500Y-99782500D02*
X96837500Y-100432500D01*
X114767500Y-103832500D02*
X117007500Y-103832500D01*
X117007500Y-100432500D02*
X114767500Y-100432500D01*
X115887500Y-105322500D02*
X115887500Y-104672500D01*
X117007500Y-104672500D02*
X117007500Y-100432500D01*
X115887500Y-99782500D02*
X115887500Y-100432500D01*
X114767500Y-103952500D02*
X117007500Y-103952500D01*
X114767500Y-104072500D02*
X117007500Y-104072500D01*
X114767500Y-100432500D02*
X114767500Y-104672500D01*
X114767500Y-104672500D02*
X117007500Y-104672500D01*
X133817500Y-100432500D02*
X133817500Y-104672500D01*
X133817500Y-103952500D02*
X136057500Y-103952500D01*
X136057500Y-100432500D02*
X133817500Y-100432500D01*
X134937500Y-105322500D02*
X134937500Y-104672500D01*
X136057500Y-104672500D02*
X136057500Y-100432500D01*
X133817500Y-103832500D02*
X136057500Y-103832500D01*
X133817500Y-104072500D02*
X136057500Y-104072500D01*
X133817500Y-104672500D02*
X136057500Y-104672500D01*
X134937500Y-99782500D02*
X134937500Y-100432500D01*
X153987500Y-99782500D02*
X153987500Y-100432500D01*
X152867500Y-103952500D02*
X155107500Y-103952500D01*
X152867500Y-100432500D02*
X152867500Y-104672500D01*
X155107500Y-104672500D02*
X155107500Y-100432500D01*
X155107500Y-100432500D02*
X152867500Y-100432500D01*
X152867500Y-104672500D02*
X155107500Y-104672500D01*
X152867500Y-104072500D02*
X155107500Y-104072500D01*
X152867500Y-103832500D02*
X155107500Y-103832500D01*
X153987500Y-105322500D02*
X153987500Y-104672500D01*
X174157500Y-104672500D02*
X174157500Y-100432500D01*
X171917500Y-103952500D02*
X174157500Y-103952500D01*
X171917500Y-103832500D02*
X174157500Y-103832500D01*
X173037500Y-99782500D02*
X173037500Y-100432500D01*
X171917500Y-104072500D02*
X174157500Y-104072500D01*
X171917500Y-100432500D02*
X171917500Y-104672500D01*
X174157500Y-100432500D02*
X171917500Y-100432500D01*
X173037500Y-105322500D02*
X173037500Y-104672500D01*
X171917500Y-104672500D02*
X174157500Y-104672500D01*
X190967500Y-100432500D02*
X190967500Y-104672500D01*
X190967500Y-103832500D02*
X193207500Y-103832500D01*
X192087500Y-105322500D02*
X192087500Y-104672500D01*
X190967500Y-104672500D02*
X193207500Y-104672500D01*
X190967500Y-103952500D02*
X193207500Y-103952500D01*
X192087500Y-99782500D02*
X192087500Y-100432500D01*
X190967500Y-104072500D02*
X193207500Y-104072500D01*
X193207500Y-100432500D02*
X190967500Y-100432500D01*
X193207500Y-104672500D02*
X193207500Y-100432500D01*
X210017500Y-103832500D02*
X212257500Y-103832500D01*
X212257500Y-100432500D02*
X210017500Y-100432500D01*
X211137500Y-105322500D02*
X211137500Y-104672500D01*
X210017500Y-100432500D02*
X210017500Y-104672500D01*
X210017500Y-103952500D02*
X212257500Y-103952500D01*
X210017500Y-104672500D02*
X212257500Y-104672500D01*
X210017500Y-104072500D02*
X212257500Y-104072500D01*
X211137500Y-99782500D02*
X211137500Y-100432500D01*
X212257500Y-104672500D02*
X212257500Y-100432500D01*
X229067500Y-103952500D02*
X231307500Y-103952500D01*
X229067500Y-103832500D02*
X231307500Y-103832500D01*
X231307500Y-104672500D02*
X231307500Y-100432500D01*
X229067500Y-104072500D02*
X231307500Y-104072500D01*
X230187500Y-105322500D02*
X230187500Y-104672500D01*
X231307500Y-100432500D02*
X229067500Y-100432500D01*
X230187500Y-99782500D02*
X230187500Y-100432500D01*
X229067500Y-104672500D02*
X231307500Y-104672500D01*
X229067500Y-100432500D02*
X229067500Y-104672500D01*
X248117500Y-103952500D02*
X250357500Y-103952500D01*
X248117500Y-103832500D02*
X250357500Y-103832500D01*
X249237500Y-99782500D02*
X249237500Y-100432500D01*
X248117500Y-104672500D02*
X250357500Y-104672500D01*
X250357500Y-100432500D02*
X248117500Y-100432500D01*
X248117500Y-104072500D02*
X250357500Y-104072500D01*
X250357500Y-104672500D02*
X250357500Y-100432500D01*
X249237500Y-105322500D02*
X249237500Y-104672500D01*
X248117500Y-100432500D02*
X248117500Y-104672500D01*
X277812500Y-99782500D02*
X277812500Y-100432500D01*
X277812500Y-105322500D02*
X277812500Y-104672500D01*
X276692500Y-100432500D02*
X276692500Y-104672500D01*
X276692500Y-103952500D02*
X278932500Y-103952500D01*
X278932500Y-104672500D02*
X278932500Y-100432500D01*
X278932500Y-100432500D02*
X276692500Y-100432500D01*
X276692500Y-104672500D02*
X278932500Y-104672500D01*
X276692500Y-104072500D02*
X278932500Y-104072500D01*
X276692500Y-103832500D02*
X278932500Y-103832500D01*
X306387500Y-105322500D02*
X306387500Y-104672500D01*
X305267500Y-103832500D02*
X307507500Y-103832500D01*
X305267500Y-103952500D02*
X307507500Y-103952500D01*
X307507500Y-104672500D02*
X307507500Y-100432500D01*
X306387500Y-99782500D02*
X306387500Y-100432500D01*
X305267500Y-100432500D02*
X305267500Y-104672500D01*
X305267500Y-104672500D02*
X307507500Y-104672500D01*
X307507500Y-100432500D02*
X305267500Y-100432500D01*
X305267500Y-104072500D02*
X307507500Y-104072500D01*
X311150000Y-105322500D02*
X311150000Y-104672500D01*
X310030000Y-103832500D02*
X312270000Y-103832500D01*
X310030000Y-100432500D02*
X310030000Y-104672500D01*
X312270000Y-104672500D02*
X312270000Y-100432500D01*
X310030000Y-104672500D02*
X312270000Y-104672500D01*
X310030000Y-103952500D02*
X312270000Y-103952500D01*
X312270000Y-100432500D02*
X310030000Y-100432500D01*
X310030000Y-104072500D02*
X312270000Y-104072500D01*
X311150000Y-99782500D02*
X311150000Y-100432500D01*
X40807500Y-119482500D02*
X38567500Y-119482500D01*
X38567500Y-119482500D02*
X38567500Y-123722500D01*
X40807500Y-123722500D02*
X40807500Y-119482500D01*
X39687500Y-124372500D02*
X39687500Y-123722500D01*
X38567500Y-122882500D02*
X40807500Y-122882500D01*
X38567500Y-123002500D02*
X40807500Y-123002500D01*
X38567500Y-123122500D02*
X40807500Y-123122500D01*
X38567500Y-123722500D02*
X40807500Y-123722500D01*
X39687500Y-118832500D02*
X39687500Y-119482500D01*
X63500000Y-124372500D02*
X63500000Y-123722500D01*
X62380000Y-123722500D02*
X64620000Y-123722500D01*
X64620000Y-123722500D02*
X64620000Y-119482500D01*
X62380000Y-122882500D02*
X64620000Y-122882500D01*
X62380000Y-123122500D02*
X64620000Y-123122500D01*
X62380000Y-123002500D02*
X64620000Y-123002500D01*
X63500000Y-118832500D02*
X63500000Y-119482500D01*
X64620000Y-119482500D02*
X62380000Y-119482500D01*
X62380000Y-119482500D02*
X62380000Y-123722500D01*
X86192500Y-122882500D02*
X88432500Y-122882500D01*
X86192500Y-123722500D02*
X88432500Y-123722500D01*
X86192500Y-123122500D02*
X88432500Y-123122500D01*
X87312500Y-124372500D02*
X87312500Y-123722500D01*
X88432500Y-123722500D02*
X88432500Y-119482500D01*
X86192500Y-119482500D02*
X86192500Y-123722500D01*
X87312500Y-118832500D02*
X87312500Y-119482500D01*
X88432500Y-119482500D02*
X86192500Y-119482500D01*
X86192500Y-123002500D02*
X88432500Y-123002500D01*
X159870000Y-123722500D02*
X159870000Y-119482500D01*
X158750000Y-118832500D02*
X158750000Y-119482500D01*
X157630000Y-119482500D02*
X157630000Y-123722500D01*
X157630000Y-122882500D02*
X159870000Y-122882500D01*
X157630000Y-123122500D02*
X159870000Y-123122500D01*
X157630000Y-123002500D02*
X159870000Y-123002500D01*
X159870000Y-119482500D02*
X157630000Y-119482500D01*
X157630000Y-123722500D02*
X159870000Y-123722500D01*
X158750000Y-124372500D02*
X158750000Y-123722500D01*
X224305000Y-122882500D02*
X226545000Y-122882500D01*
X225425000Y-124372500D02*
X225425000Y-123722500D01*
X224305000Y-123122500D02*
X226545000Y-123122500D01*
X225425000Y-118832500D02*
X225425000Y-119482500D01*
X226545000Y-123722500D02*
X226545000Y-119482500D01*
X224305000Y-123722500D02*
X226545000Y-123722500D01*
X224305000Y-119482500D02*
X224305000Y-123722500D01*
X226545000Y-119482500D02*
X224305000Y-119482500D01*
X224305000Y-123002500D02*
X226545000Y-123002500D01*
X243355000Y-123122500D02*
X245595000Y-123122500D01*
X245595000Y-119482500D02*
X243355000Y-119482500D01*
X244475000Y-118832500D02*
X244475000Y-119482500D01*
X243355000Y-123002500D02*
X245595000Y-123002500D01*
X243355000Y-123722500D02*
X245595000Y-123722500D01*
X245595000Y-123722500D02*
X245595000Y-119482500D01*
X243355000Y-122882500D02*
X245595000Y-122882500D01*
X243355000Y-119482500D02*
X243355000Y-123722500D01*
X244475000Y-124372500D02*
X244475000Y-123722500D01*
X263525000Y-118832500D02*
X263525000Y-119482500D01*
X262405000Y-119482500D02*
X262405000Y-123722500D01*
X262405000Y-123722500D02*
X264645000Y-123722500D01*
X262405000Y-123002500D02*
X264645000Y-123002500D01*
X264645000Y-123722500D02*
X264645000Y-119482500D01*
X263525000Y-124372500D02*
X263525000Y-123722500D01*
X264645000Y-119482500D02*
X262405000Y-119482500D01*
X262405000Y-123122500D02*
X264645000Y-123122500D01*
X262405000Y-122882500D02*
X264645000Y-122882500D01*
X287337500Y-123595000D02*
X287337500Y-124245000D01*
X286217500Y-128485000D02*
X288457500Y-128485000D01*
X287337500Y-129135000D02*
X287337500Y-128485000D01*
X286217500Y-127765000D02*
X288457500Y-127765000D01*
X288457500Y-128485000D02*
X288457500Y-124245000D01*
X286217500Y-127885000D02*
X288457500Y-127885000D01*
X286217500Y-127645000D02*
X288457500Y-127645000D01*
X286217500Y-124245000D02*
X286217500Y-128485000D01*
X288457500Y-124245000D02*
X286217500Y-124245000D01*
X305267500Y-124245000D02*
X305267500Y-128485000D01*
X306387500Y-129135000D02*
X306387500Y-128485000D01*
X305267500Y-127765000D02*
X307507500Y-127765000D01*
X307507500Y-128485000D02*
X307507500Y-124245000D01*
X305267500Y-127645000D02*
X307507500Y-127645000D01*
X306387500Y-123595000D02*
X306387500Y-124245000D01*
X305267500Y-128485000D02*
X307507500Y-128485000D01*
X307507500Y-124245000D02*
X305267500Y-124245000D01*
X305267500Y-127885000D02*
X307507500Y-127885000D01*
X326557500Y-124245000D02*
X324317500Y-124245000D01*
X325437500Y-129135000D02*
X325437500Y-128485000D01*
X324317500Y-127765000D02*
X326557500Y-127765000D01*
X324317500Y-124245000D02*
X324317500Y-128485000D01*
X326557500Y-128485000D02*
X326557500Y-124245000D01*
X324317500Y-127885000D02*
X326557500Y-127885000D01*
X324317500Y-127645000D02*
X326557500Y-127645000D01*
X324317500Y-128485000D02*
X326557500Y-128485000D01*
X325437500Y-123595000D02*
X325437500Y-124245000D01*
X324008000Y-34152000D02*
X326408000Y-34152000D01*
X320008000Y-40252000D02*
X321008000Y-40252000D01*
X326408000Y-42252000D02*
X326408000Y-46352000D01*
X314608000Y-42252000D02*
X314608000Y-46352000D01*
X319208000Y-34152000D02*
X321808000Y-34152000D01*
X314608000Y-38252000D02*
X314608000Y-34152000D01*
X326408000Y-34152000D02*
X326408000Y-38252000D01*
X320508000Y-40752000D02*
X320508000Y-39752000D01*
X316408000Y-47452000D02*
X316708000Y-47752000D01*
X316408000Y-48052000D02*
X316408000Y-47452000D01*
X316708000Y-47752000D02*
X316408000Y-48052000D01*
X314608000Y-34152000D02*
X317008000Y-34152000D01*
X314608000Y-46352000D02*
X326408000Y-46352000D01*
X323508000Y-40252000D02*
G75*
G03*
X323508000Y-40252000I-3000000J0D01*
G01*
X46850000Y-19800000D02*
X46850000Y-25500000D01*
X16850000Y-17700000D02*
X54850000Y-17700000D01*
X46850000Y-25500000D02*
X23650000Y-25500000D01*
X54850000Y-29900000D02*
X16850000Y-29900000D01*
X23650000Y-19800000D02*
X46850000Y-19800000D01*
X54850000Y-17700000D02*
X54850000Y-29900000D01*
X16850000Y-29900000D02*
X16850000Y-17700000D01*
X23650000Y-25500000D02*
X23650000Y-19800000D01*
G36*
X125532637Y-116666929D02*
G01*
X125532493Y-116741227D01*
X125525276Y-116852594D01*
X125524069Y-116866289D01*
X125518746Y-116959578D01*
X125513883Y-117110796D01*
X125509649Y-117309502D01*
X125506211Y-117545252D01*
X125503738Y-117807606D01*
X125502397Y-118086121D01*
X125502204Y-118225172D01*
X125501394Y-118493910D01*
X125499207Y-118739321D01*
X125495828Y-118953436D01*
X125491441Y-119128283D01*
X125486232Y-119255891D01*
X125480384Y-119328289D01*
X125476322Y-119341966D01*
X125430960Y-119327223D01*
X125351217Y-119294290D01*
X125331033Y-119285326D01*
X125235292Y-119249282D01*
X125102655Y-119207988D01*
X124972082Y-119172999D01*
X124831516Y-119132611D01*
X124756203Y-119095673D01*
X124741026Y-119067256D01*
X124754305Y-119018007D01*
X124785535Y-118914558D01*
X124831861Y-118765728D01*
X124890424Y-118580338D01*
X124958368Y-118367209D01*
X125032836Y-118135160D01*
X125110970Y-117893013D01*
X125189914Y-117649587D01*
X125266810Y-117413703D01*
X125338801Y-117194181D01*
X125403030Y-116999841D01*
X125456640Y-116839505D01*
X125496774Y-116721991D01*
X125520575Y-116656122D01*
X125525599Y-116645157D01*
X125532637Y-116666929D01*
G37*
G36*
X114078594Y-113568570D02*
G01*
X114234878Y-113177890D01*
X114444514Y-112823820D01*
X114702412Y-112511288D01*
X115003480Y-112245219D01*
X115342626Y-112030540D01*
X115714759Y-111872176D01*
X115882890Y-111822815D01*
X115918566Y-111814059D01*
X115956082Y-111806097D01*
X115998692Y-111798891D01*
X116049647Y-111792404D01*
X116112196Y-111786597D01*
X116189592Y-111781434D01*
X116285086Y-111776876D01*
X116401930Y-111772886D01*
X116543373Y-111769426D01*
X116712668Y-111766459D01*
X116913066Y-111763946D01*
X117147818Y-111761849D01*
X117420175Y-111760133D01*
X117733389Y-111758757D01*
X118090710Y-111757686D01*
X118495390Y-111756880D01*
X118950680Y-111756303D01*
X119459831Y-111755917D01*
X120026095Y-111755683D01*
X120652723Y-111755565D01*
X121342965Y-111755525D01*
X121684990Y-111755522D01*
X122419894Y-111755437D01*
X123089698Y-111755274D01*
X123697674Y-111755172D01*
X124247092Y-111755267D01*
X124741224Y-111755699D01*
X125183341Y-111756603D01*
X125576715Y-111758119D01*
X125924616Y-111760383D01*
X126230316Y-111763535D01*
X126497086Y-111767710D01*
X126728198Y-111773048D01*
X126926922Y-111779687D01*
X127096530Y-111787762D01*
X127240294Y-111797414D01*
X127361484Y-111808779D01*
X127463371Y-111821994D01*
X127549228Y-111837199D01*
X127622324Y-111854530D01*
X127685932Y-111874126D01*
X127743323Y-111896124D01*
X127797768Y-111920662D01*
X127852537Y-111947878D01*
X127910904Y-111977909D01*
X127976138Y-112010893D01*
X127997520Y-112021377D01*
X128152338Y-112100758D01*
X128278874Y-112178018D01*
X128396925Y-112267719D01*
X128526286Y-112384419D01*
X128632869Y-112488674D01*
X128777471Y-112637161D01*
X128884925Y-112760844D01*
X128969900Y-112879521D01*
X129047067Y-113012990D01*
X129102886Y-113122951D01*
X129138515Y-113193438D01*
X129170997Y-113255325D01*
X129200478Y-113311888D01*
X129227100Y-113366400D01*
X129251010Y-113422136D01*
X129272351Y-113482373D01*
X129291268Y-113550384D01*
X129307905Y-113629445D01*
X129322408Y-113722830D01*
X129334921Y-113833814D01*
X129345588Y-113965673D01*
X129354554Y-114121681D01*
X129361963Y-114305114D01*
X129367960Y-114519246D01*
X129372689Y-114767351D01*
X129376296Y-115052706D01*
X129378924Y-115378585D01*
X129380719Y-115748262D01*
X129381824Y-116165014D01*
X129382385Y-116632114D01*
X129382545Y-117152838D01*
X129382450Y-117730461D01*
X129382243Y-118368257D01*
X129382071Y-119069501D01*
X129382042Y-119447312D01*
X129382042Y-125002493D01*
X129303415Y-125274045D01*
X129174948Y-125633322D01*
X129006743Y-125948695D01*
X128788249Y-126238090D01*
X128647964Y-126387549D01*
X128390454Y-126621370D01*
X128133616Y-126802919D01*
X127857250Y-126945034D01*
X127638570Y-127028873D01*
X127365084Y-127122009D01*
X121758623Y-127126150D01*
X121143571Y-127126517D01*
X120546365Y-127126703D01*
X119970653Y-127126715D01*
X119420080Y-127126559D01*
X118898295Y-127126242D01*
X118408944Y-127125770D01*
X117955673Y-127125150D01*
X117542130Y-127124388D01*
X117171962Y-127123491D01*
X116848815Y-127122466D01*
X116576336Y-127121320D01*
X116358173Y-127120058D01*
X116197972Y-127118687D01*
X116099380Y-127117214D01*
X116066699Y-127115880D01*
X115908401Y-127078213D01*
X115715520Y-127015945D01*
X115513026Y-126938057D01*
X115325891Y-126853532D01*
X115297520Y-126839210D01*
X115087390Y-126706958D01*
X114868124Y-126527029D01*
X114655304Y-126315493D01*
X114464512Y-126088419D01*
X114311329Y-125861877D01*
X114262411Y-125771672D01*
X114228872Y-125706202D01*
X114198284Y-125648641D01*
X114170511Y-125595745D01*
X114145418Y-125544269D01*
X114122870Y-125490970D01*
X114102732Y-125432604D01*
X114084869Y-125365925D01*
X114069146Y-125287691D01*
X114055429Y-125194656D01*
X114043581Y-125083577D01*
X114033468Y-124951209D01*
X114024955Y-124794308D01*
X114017906Y-124609630D01*
X114012188Y-124393930D01*
X114007664Y-124143965D01*
X114004200Y-123856490D01*
X114001661Y-123528261D01*
X113999911Y-123156034D01*
X113998817Y-122736565D01*
X113998241Y-122266609D01*
X113998050Y-121742922D01*
X113998109Y-121162261D01*
X113998283Y-120521380D01*
X113998435Y-119817035D01*
X113998462Y-119430219D01*
X113998462Y-117130058D01*
X116380700Y-117130058D01*
X116406328Y-117507697D01*
X116484035Y-117877059D01*
X116614811Y-118229624D01*
X116799646Y-118556877D01*
X116861315Y-118642935D01*
X117087259Y-118899771D01*
X117346514Y-119121206D01*
X117618065Y-119289895D01*
X117802475Y-119383198D01*
X117828123Y-120004959D01*
X117833201Y-120171326D01*
X117837350Y-120395566D01*
X117840511Y-120667186D01*
X117842626Y-120975695D01*
X117843638Y-121310598D01*
X117843487Y-121661405D01*
X117842117Y-122017621D01*
X117840517Y-122250542D01*
X117827264Y-123874364D01*
X118519525Y-123883618D01*
X119211786Y-123892873D01*
X119211786Y-122615705D01*
X119490918Y-122245997D01*
X119697487Y-122547395D01*
X119789119Y-122681758D01*
X119906701Y-122855160D01*
X120038193Y-123049792D01*
X120171557Y-123247846D01*
X120243337Y-123354757D01*
X120355167Y-123519043D01*
X120456245Y-123662881D01*
X120539653Y-123776795D01*
X120598474Y-123851306D01*
X120624295Y-123876715D01*
X120668911Y-123880811D01*
X120771962Y-123883766D01*
X120923516Y-123885504D01*
X121113646Y-123885946D01*
X121332421Y-123885015D01*
X121494380Y-123883536D01*
X122322789Y-123874364D01*
X120375279Y-121147814D01*
X120515092Y-120972731D01*
X120576310Y-120895719D01*
X120671854Y-120775087D01*
X120793746Y-120620927D01*
X120934009Y-120443333D01*
X121084667Y-120252398D01*
X121172579Y-120140900D01*
X121690252Y-119484152D01*
X122089917Y-119482825D01*
X122248217Y-119479993D01*
X122380046Y-119473284D01*
X122471217Y-119463716D01*
X122507276Y-119452867D01*
X122512892Y-119410533D01*
X122517752Y-119309084D01*
X122521843Y-119157774D01*
X122525154Y-118965853D01*
X122527672Y-118742575D01*
X122529385Y-118497193D01*
X122530280Y-118238959D01*
X122530347Y-117977126D01*
X122529572Y-117720946D01*
X122527943Y-117479672D01*
X122525449Y-117262557D01*
X122522076Y-117078852D01*
X122517813Y-116937811D01*
X122512649Y-116848687D01*
X122510723Y-116832103D01*
X122501262Y-116741283D01*
X122504742Y-116691483D01*
X122514027Y-116688813D01*
X122531486Y-116726278D01*
X122568684Y-116821151D01*
X122622991Y-116966229D01*
X122691777Y-117154313D01*
X122772414Y-117378201D01*
X122862271Y-117630691D01*
X122958718Y-117904583D01*
X122975557Y-117952691D01*
X123407918Y-119188929D01*
X123179411Y-119277835D01*
X122836733Y-119447005D01*
X122532720Y-119671468D01*
X122271097Y-119947748D01*
X122055586Y-120272369D01*
X122000731Y-120378149D01*
X121871147Y-120688737D01*
X121788420Y-121001651D01*
X121747748Y-121338780D01*
X121741531Y-121559107D01*
X121760749Y-121937156D01*
X121821488Y-122274531D01*
X121928372Y-122588123D01*
X122086024Y-122894819D01*
X122124372Y-122957323D01*
X122310847Y-123200548D01*
X122549522Y-123429449D01*
X122824256Y-123631831D01*
X123118912Y-123795505D01*
X123360574Y-123891164D01*
X123674299Y-123966353D01*
X124024679Y-124007217D01*
X124388949Y-124013256D01*
X124744344Y-123983969D01*
X125034094Y-123927954D01*
X125387486Y-123803651D01*
X125700597Y-123624533D01*
X125971680Y-123392261D01*
X126198988Y-123108497D01*
X126380772Y-122774903D01*
X126460705Y-122570819D01*
X126497273Y-122451272D01*
X126521547Y-122346507D01*
X126527533Y-122295775D01*
X126527533Y-122214969D01*
X125114679Y-122233449D01*
X125060313Y-122396036D01*
X124956255Y-122609559D01*
X124806955Y-122776212D01*
X124620305Y-122892149D01*
X124404200Y-122953527D01*
X124166532Y-122956500D01*
X123984870Y-122919848D01*
X123765081Y-122825034D01*
X123586013Y-122679495D01*
X123447011Y-122481958D01*
X123347421Y-122231146D01*
X123286588Y-121925785D01*
X123263857Y-121564601D01*
X123263662Y-121515548D01*
X123275207Y-121212792D01*
X123310794Y-120963472D01*
X123373795Y-120755850D01*
X123467582Y-120578190D01*
X123571210Y-120445092D01*
X123751702Y-120285768D01*
X123953650Y-120189504D01*
X124186090Y-120152359D01*
X124243507Y-120151745D01*
X124485322Y-120183961D01*
X124694891Y-120270520D01*
X124865032Y-120406358D01*
X124988561Y-120586406D01*
X125036618Y-120711137D01*
X125081756Y-120866020D01*
X125787552Y-120875260D01*
X126032639Y-120878896D01*
X126216824Y-120880217D01*
X126347569Y-120875762D01*
X126432332Y-120862069D01*
X126478576Y-120835677D01*
X126493759Y-120793124D01*
X126485342Y-120730948D01*
X126460786Y-120645689D01*
X126438775Y-120573099D01*
X126320994Y-120269360D01*
X126154865Y-119978752D01*
X125954894Y-119726083D01*
X125925781Y-119695914D01*
X125714918Y-119483009D01*
X126334198Y-119473707D01*
X126953477Y-119464404D01*
X126953078Y-117122682D01*
X126952678Y-114780959D01*
X126064937Y-114772616D01*
X125824115Y-114771312D01*
X125605142Y-114771954D01*
X125417525Y-114774368D01*
X125270770Y-114778377D01*
X125174384Y-114783806D01*
X125138638Y-114789709D01*
X125120290Y-114826754D01*
X125083763Y-114922103D01*
X125031420Y-115068847D01*
X124965622Y-115260077D01*
X124888731Y-115488883D01*
X124803106Y-115748357D01*
X124711111Y-116031589D01*
X124662624Y-116182574D01*
X124569061Y-116474565D01*
X124481823Y-116745904D01*
X124403127Y-116989766D01*
X124335187Y-117199328D01*
X124280219Y-117367768D01*
X124240437Y-117488260D01*
X124218059Y-117553983D01*
X124214035Y-117564247D01*
X124187142Y-117562730D01*
X124172713Y-117528178D01*
X124137938Y-117435893D01*
X124085257Y-117292608D01*
X124017109Y-117105054D01*
X123935936Y-116879960D01*
X123844176Y-116624059D01*
X123744270Y-116344082D01*
X123686302Y-116181056D01*
X123582306Y-115890060D01*
X123484197Y-115619060D01*
X123394529Y-115374859D01*
X123315860Y-115164262D01*
X123250744Y-114994071D01*
X123201739Y-114871092D01*
X123171399Y-114802127D01*
X123163638Y-114789714D01*
X123120605Y-114783228D01*
X123018597Y-114777977D01*
X122867000Y-114774132D01*
X122675202Y-114771862D01*
X122452592Y-114771338D01*
X122220131Y-114772621D01*
X121314209Y-114780959D01*
X121325768Y-115891995D01*
X121328000Y-116235332D01*
X121328262Y-116622968D01*
X121326685Y-117031668D01*
X121323400Y-117438198D01*
X121318539Y-117819321D01*
X121313274Y-118105522D01*
X121289220Y-119208011D01*
X120848754Y-119208011D01*
X120684218Y-119206966D01*
X120547626Y-119204108D01*
X120451727Y-119199853D01*
X120409272Y-119194615D01*
X120408287Y-119193653D01*
X120430731Y-119164561D01*
X120490460Y-119099713D01*
X120576075Y-119011358D01*
X120607203Y-118979993D01*
X120828182Y-118713217D01*
X121007111Y-118402134D01*
X121123164Y-118101921D01*
X121158420Y-117982086D01*
X121183933Y-117887539D01*
X121194512Y-117837594D01*
X121194559Y-117836301D01*
X121161730Y-117826756D01*
X121068613Y-117819491D01*
X120923259Y-117814752D01*
X120733721Y-117812783D01*
X120508052Y-117813832D01*
X120471671Y-117814263D01*
X119748784Y-117823489D01*
X119700662Y-117988602D01*
X119610534Y-118183657D01*
X119469706Y-118338319D01*
X119285574Y-118448245D01*
X119065534Y-118509092D01*
X118816981Y-118516518D01*
X118803581Y-118515377D01*
X118566859Y-118466392D01*
X118367640Y-118364159D01*
X118202858Y-118205991D01*
X118069443Y-117989196D01*
X117994894Y-117806396D01*
X117961955Y-117665542D01*
X117939448Y-117475762D01*
X117927448Y-117255714D01*
X117926028Y-117024054D01*
X117935263Y-116799439D01*
X117955227Y-116600528D01*
X117985996Y-116445976D01*
X117989421Y-116434480D01*
X118098154Y-116180430D01*
X118248133Y-115978705D01*
X118434427Y-115832069D01*
X118652107Y-115743285D01*
X118896244Y-115715116D01*
X119161908Y-115750325D01*
X119194693Y-115758857D01*
X119328300Y-115822976D01*
X119463887Y-115933496D01*
X119583207Y-116071506D01*
X119668010Y-116218095D01*
X119686264Y-116268274D01*
X119721525Y-116365260D01*
X119757633Y-116432843D01*
X119771083Y-116446990D01*
X119815944Y-116454742D01*
X119918071Y-116461576D01*
X120066356Y-116467094D01*
X120249695Y-116470896D01*
X120456982Y-116472586D01*
X120485205Y-116472629D01*
X120720450Y-116472119D01*
X120895566Y-116469776D01*
X121018783Y-116465001D01*
X121098334Y-116457199D01*
X121142448Y-116445771D01*
X121159358Y-116430120D01*
X121160373Y-116423639D01*
X121150525Y-116369307D01*
X121124385Y-116269194D01*
X121087056Y-116142455D01*
X121076121Y-116107421D01*
X120931358Y-115751868D01*
X120737136Y-115442471D01*
X120495331Y-115181153D01*
X120207818Y-114969840D01*
X119876475Y-114810456D01*
X119778531Y-114776183D01*
X119541971Y-114718445D01*
X119261892Y-114680312D01*
X118960563Y-114662769D01*
X118660251Y-114666800D01*
X118383225Y-114693389D01*
X118285708Y-114710204D01*
X117996673Y-114789235D01*
X117702778Y-114907617D01*
X117430888Y-115053316D01*
X117265175Y-115167337D01*
X116999110Y-115415786D01*
X116779187Y-115707060D01*
X116606395Y-116032641D01*
X116481723Y-116384013D01*
X116406161Y-116752657D01*
X116380700Y-117130058D01*
X113998462Y-117130058D01*
X113998462Y-113823758D01*
X114078594Y-113568570D01*
G37*
G36*
X110914023Y-119303614D02*
G01*
X110915328Y-118541773D01*
X110916627Y-117842705D01*
X110917947Y-117203611D01*
X110919313Y-116621690D01*
X110920753Y-116094144D01*
X110922292Y-115618173D01*
X110923957Y-115190977D01*
X110925775Y-114809758D01*
X110927772Y-114471716D01*
X110929975Y-114174051D01*
X110932409Y-113913965D01*
X110935102Y-113688657D01*
X110938080Y-113495328D01*
X110941369Y-113331180D01*
X110944996Y-113193412D01*
X110948986Y-113079225D01*
X110953368Y-112985820D01*
X110958167Y-112910398D01*
X110963409Y-112850158D01*
X110969122Y-112802303D01*
X110975330Y-112764031D01*
X110982062Y-112732544D01*
X110982619Y-112730254D01*
X111120394Y-112256154D01*
X111290773Y-111833408D01*
X111500040Y-111450269D01*
X111754481Y-111094986D01*
X112013017Y-110804007D01*
X112363390Y-110477461D01*
X112730642Y-110206887D01*
X113126613Y-109985422D01*
X113563140Y-109806204D01*
X113927041Y-109694643D01*
X114203576Y-109620197D01*
X121502230Y-109609541D01*
X122341595Y-109608351D01*
X123115376Y-109607343D01*
X123826359Y-109606532D01*
X124477333Y-109605934D01*
X125071083Y-109605566D01*
X125610397Y-109605444D01*
X126098062Y-109605584D01*
X126536865Y-109606001D01*
X126929593Y-109606713D01*
X127279033Y-109607734D01*
X127587972Y-109609082D01*
X127859198Y-109610773D01*
X128095497Y-109612822D01*
X128299655Y-109615245D01*
X128474462Y-109618060D01*
X128622702Y-109621281D01*
X128747164Y-109624926D01*
X128850634Y-109629009D01*
X128935899Y-109633548D01*
X129005747Y-109638558D01*
X129062965Y-109644056D01*
X129110339Y-109650057D01*
X129133862Y-109653686D01*
X129640072Y-109770751D01*
X130119163Y-109949570D01*
X130567139Y-110187557D01*
X130980003Y-110482122D01*
X131353759Y-110830677D01*
X131684409Y-111230635D01*
X131778763Y-111366501D01*
X131996969Y-111741385D01*
X132175150Y-112153052D01*
X132296130Y-112529276D01*
X132390387Y-112866558D01*
X132390387Y-127839909D01*
X132317234Y-128113395D01*
X132147065Y-128627874D01*
X131923059Y-129101182D01*
X131645894Y-129532261D01*
X131316246Y-129920054D01*
X130947115Y-130253749D01*
X130601061Y-130502494D01*
X130241911Y-130705583D01*
X129851441Y-130872154D01*
X129467506Y-130995771D01*
X129142742Y-131087554D01*
X121775716Y-131093322D01*
X120911831Y-131093932D01*
X120113815Y-131094348D01*
X119379167Y-131094557D01*
X118705383Y-131094547D01*
X118089964Y-131094304D01*
X117530405Y-131093814D01*
X117024206Y-131093066D01*
X116568864Y-131092046D01*
X116161878Y-131090742D01*
X115800745Y-131089139D01*
X115482964Y-131087225D01*
X115206032Y-131084988D01*
X114967448Y-131082414D01*
X114764710Y-131079490D01*
X114595315Y-131076203D01*
X114456762Y-131072540D01*
X114346548Y-131068488D01*
X114262172Y-131064035D01*
X114201132Y-131059167D01*
X114160926Y-131053871D01*
X114160326Y-131053762D01*
X113665583Y-130934960D01*
X113211900Y-130764752D01*
X112790769Y-130538767D01*
X112393678Y-130252630D01*
X112112010Y-130001242D01*
X111758410Y-129614213D01*
X111465628Y-129196205D01*
X111234175Y-128748252D01*
X111064561Y-128271386D01*
X110957297Y-127766640D01*
X110939699Y-127631094D01*
X110934851Y-127564846D01*
X110930449Y-127454481D01*
X110926485Y-127298412D01*
X110922954Y-127095049D01*
X110919851Y-126842805D01*
X110917169Y-126540093D01*
X110914903Y-126185323D01*
X110913048Y-125776910D01*
X110911597Y-125313264D01*
X110910545Y-124792797D01*
X110909886Y-124213922D01*
X110909614Y-123575051D01*
X110909725Y-122874596D01*
X110910211Y-122110969D01*
X110911067Y-121282583D01*
X110912288Y-120387848D01*
X110912342Y-120353234D01*
X111896937Y-120353234D01*
X111896951Y-121176478D01*
X111897010Y-121934206D01*
X111897138Y-122629274D01*
X111897361Y-123264537D01*
X111897706Y-123842850D01*
X111898196Y-124367071D01*
X111898859Y-124840053D01*
X111899718Y-125264652D01*
X111900799Y-125643725D01*
X111902128Y-125980126D01*
X111903731Y-126276712D01*
X111905632Y-126536337D01*
X111907857Y-126761858D01*
X111910432Y-126956129D01*
X111913381Y-127122007D01*
X111916731Y-127262347D01*
X111920507Y-127380005D01*
X111924733Y-127477835D01*
X111929436Y-127558695D01*
X111934641Y-127625439D01*
X111940373Y-127680922D01*
X111946658Y-127728001D01*
X111953521Y-127769531D01*
X111960988Y-127808368D01*
X111963379Y-127820067D01*
X112081521Y-128228833D01*
X112259545Y-128614747D01*
X112491492Y-128970725D01*
X112771398Y-129289688D01*
X113093303Y-129564553D01*
X113451243Y-129788240D01*
X113724976Y-129912488D01*
X113780405Y-129934498D01*
X113830290Y-129954802D01*
X113877444Y-129973465D01*
X113924680Y-129990554D01*
X113974813Y-130006136D01*
X114030655Y-130020278D01*
X114095020Y-130033045D01*
X114170722Y-130044506D01*
X114260573Y-130054725D01*
X114367387Y-130063770D01*
X114493977Y-130071708D01*
X114643157Y-130078604D01*
X114817741Y-130084526D01*
X115020541Y-130089540D01*
X115254371Y-130093712D01*
X115522044Y-130097110D01*
X115826375Y-130099800D01*
X116170175Y-130101848D01*
X116556260Y-130103320D01*
X116987441Y-130104285D01*
X117466532Y-130104807D01*
X117996348Y-130104954D01*
X118579700Y-130104793D01*
X119219404Y-130104389D01*
X119918271Y-130103809D01*
X120679115Y-130103121D01*
X121504751Y-130102390D01*
X121741531Y-130102192D01*
X122577382Y-130101483D01*
X123347623Y-130100770D01*
X124055015Y-130100028D01*
X124702321Y-130099231D01*
X125292302Y-130098357D01*
X125827719Y-130097381D01*
X126311334Y-130096277D01*
X126745908Y-130095022D01*
X127134203Y-130093591D01*
X127478981Y-130091960D01*
X127783003Y-130090104D01*
X128049030Y-130087999D01*
X128279825Y-130085620D01*
X128478149Y-130082944D01*
X128646762Y-130079944D01*
X128788428Y-130076598D01*
X128905907Y-130072880D01*
X129001961Y-130068767D01*
X129079351Y-130064233D01*
X129140840Y-130059254D01*
X129189188Y-130053806D01*
X129227158Y-130047865D01*
X129257510Y-130041405D01*
X129279485Y-130035458D01*
X129708425Y-129874762D01*
X130099597Y-129659739D01*
X130449078Y-129394508D01*
X130752949Y-129083186D01*
X131007287Y-128729892D01*
X131208172Y-128338744D01*
X131351684Y-127913862D01*
X131369783Y-127839909D01*
X131377061Y-127806458D01*
X131383760Y-127769570D01*
X131389905Y-127726425D01*
X131395519Y-127674205D01*
X131400627Y-127610090D01*
X131405253Y-127531263D01*
X131409419Y-127434902D01*
X131413151Y-127318191D01*
X131416471Y-127178308D01*
X131419404Y-127012437D01*
X131421974Y-126817756D01*
X131424205Y-126591448D01*
X131426120Y-126330694D01*
X131427743Y-126032674D01*
X131429099Y-125694569D01*
X131430210Y-125313560D01*
X131431102Y-124886828D01*
X131431797Y-124411555D01*
X131432320Y-123884921D01*
X131432695Y-123304107D01*
X131432945Y-122666294D01*
X131433094Y-121968664D01*
X131433166Y-121208396D01*
X131433186Y-120382672D01*
X131433186Y-120353234D01*
X131433166Y-119524754D01*
X131433089Y-118761832D01*
X131432932Y-118061656D01*
X131432672Y-117421412D01*
X131432286Y-116838288D01*
X131431750Y-116309469D01*
X131431041Y-115832144D01*
X131430135Y-115403498D01*
X131429010Y-115020719D01*
X131427641Y-114680995D01*
X131426006Y-114381511D01*
X131424080Y-114119455D01*
X131421842Y-113892013D01*
X131419266Y-113696373D01*
X131416331Y-113529722D01*
X131413012Y-113389246D01*
X131409287Y-113272132D01*
X131405131Y-113175568D01*
X131400522Y-113096740D01*
X131395437Y-113032835D01*
X131389851Y-112981040D01*
X131383741Y-112938542D01*
X131377085Y-112902529D01*
X131371105Y-112875447D01*
X131235703Y-112438325D01*
X131044503Y-112038279D01*
X130800050Y-111678526D01*
X130504887Y-111362283D01*
X130161556Y-111092769D01*
X129798083Y-110885343D01*
X129736375Y-110854404D01*
X129682847Y-110825877D01*
X129634677Y-110799659D01*
X129589041Y-110775652D01*
X129543119Y-110753753D01*
X129494086Y-110733862D01*
X129439121Y-110715878D01*
X129375402Y-110699701D01*
X129300105Y-110685230D01*
X129210408Y-110672364D01*
X129103490Y-110661003D01*
X128976527Y-110651045D01*
X128826696Y-110642390D01*
X128651177Y-110634938D01*
X128447145Y-110628587D01*
X128211779Y-110623236D01*
X127942255Y-110618786D01*
X127635753Y-110615136D01*
X127289449Y-110612183D01*
X126900520Y-110609829D01*
X126466145Y-110607972D01*
X125983500Y-110606511D01*
X125449764Y-110605346D01*
X124862113Y-110604377D01*
X124217726Y-110603501D01*
X123513780Y-110602619D01*
X122747452Y-110601630D01*
X121915921Y-110600432D01*
X121809902Y-110600267D01*
X120923555Y-110598970D01*
X120103500Y-110597976D01*
X119347659Y-110597295D01*
X118653953Y-110596933D01*
X118020305Y-110596900D01*
X117444636Y-110597202D01*
X116924867Y-110597849D01*
X116458920Y-110598848D01*
X116044716Y-110600207D01*
X115680178Y-110601934D01*
X115363227Y-110604038D01*
X115091783Y-110606526D01*
X114863770Y-110609406D01*
X114677108Y-110612686D01*
X114529720Y-110616375D01*
X114419526Y-110620481D01*
X114344448Y-110625011D01*
X114306133Y-110629294D01*
X113897041Y-110732186D01*
X113503027Y-110896986D01*
X113134466Y-111117393D01*
X112801731Y-111387107D01*
X112515195Y-111699827D01*
X112490119Y-111732381D01*
X112319964Y-111991634D01*
X112166710Y-112290782D01*
X112042825Y-112602415D01*
X111961816Y-112894032D01*
X111954337Y-112932078D01*
X111947456Y-112972667D01*
X111941147Y-113018649D01*
X111935385Y-113072876D01*
X111930146Y-113138200D01*
X111925406Y-113217472D01*
X111921138Y-113313544D01*
X111917318Y-113429268D01*
X111913922Y-113567495D01*
X111910925Y-113731077D01*
X111908302Y-113922864D01*
X111906027Y-114145710D01*
X111904077Y-114402465D01*
X111902427Y-114695980D01*
X111901051Y-115029108D01*
X111899925Y-115404701D01*
X111899024Y-115825609D01*
X111898324Y-116294684D01*
X111897799Y-116814777D01*
X111897424Y-117388742D01*
X111897176Y-118019428D01*
X111897028Y-118709687D01*
X111896957Y-119462372D01*
X111896938Y-120280333D01*
X111896937Y-120353234D01*
X110912342Y-120353234D01*
X110912685Y-120131026D01*
X110914023Y-119303614D01*
G37*
G36*
X120176189Y-119337318D02*
G01*
X120131374Y-119411455D01*
X120060293Y-119523812D01*
X119969024Y-119665222D01*
X119863644Y-119826516D01*
X119750230Y-119998527D01*
X119634861Y-120172088D01*
X119523613Y-120338031D01*
X119422565Y-120487188D01*
X119337793Y-120610392D01*
X119275376Y-120698476D01*
X119241391Y-120742271D01*
X119237426Y-120745443D01*
X119229003Y-120713427D01*
X119221743Y-120624133D01*
X119216138Y-120488653D01*
X119212679Y-120318077D01*
X119211786Y-120166761D01*
X119211786Y-119587153D01*
X119339983Y-119565663D01*
X119558508Y-119521799D01*
X119773273Y-119465959D01*
X119957997Y-119405333D01*
X120024290Y-119378419D01*
X120115075Y-119339163D01*
X120175654Y-119314664D01*
X120188660Y-119310569D01*
X120176189Y-119337318D01*
G37*
G36*
X176617681Y-117265909D02*
G01*
X176581071Y-117448246D01*
X176483402Y-117610630D01*
X176391888Y-117691790D01*
X176312374Y-117740547D01*
X176269756Y-117760545D01*
X176263704Y-117723532D01*
X176268108Y-117629810D01*
X176273713Y-117572861D01*
X176281640Y-117454898D01*
X176267182Y-117398876D01*
X176227879Y-117385176D01*
X176166290Y-117419096D01*
X176099412Y-117502879D01*
X176086904Y-117524920D01*
X176007850Y-117640219D01*
X175898370Y-117761723D01*
X175858368Y-117798714D01*
X175703817Y-117932764D01*
X175765391Y-117809335D01*
X175827477Y-117706451D01*
X175888662Y-117634704D01*
X175941098Y-117565349D01*
X175950358Y-117529073D01*
X175982957Y-117464924D01*
X176060686Y-117389295D01*
X176153441Y-117326735D01*
X176229097Y-117301760D01*
X176301335Y-117284511D01*
X176411453Y-117241298D01*
X176452865Y-117222130D01*
X176617681Y-117142499D01*
X176617681Y-117265909D01*
G37*
G36*
X177910621Y-118115061D02*
G01*
X177889767Y-118135915D01*
X177868913Y-118115061D01*
X177889767Y-118094207D01*
X177910621Y-118115061D01*
G37*
G36*
X178160867Y-116738706D02*
G01*
X178140013Y-116759560D01*
X178119159Y-116738706D01*
X178140013Y-116717852D01*
X178160867Y-116738706D01*
G37*
G36*
X177430859Y-117277777D02*
G01*
X177527404Y-117286866D01*
X177575600Y-117305150D01*
X177576836Y-117308776D01*
X177590302Y-117368128D01*
X177602275Y-117402619D01*
X177598144Y-117455550D01*
X177543985Y-117468395D01*
X177461867Y-117443015D01*
X177376285Y-117383551D01*
X177311694Y-117319855D01*
X177285005Y-117286580D01*
X177321709Y-117279474D01*
X177411939Y-117277472D01*
X177430859Y-117277777D01*
G37*
G36*
X177347271Y-118553470D02*
G01*
X177302662Y-118588044D01*
X177254857Y-118593846D01*
X177243297Y-118578308D01*
X177276013Y-118551522D01*
X177308025Y-118537078D01*
X177351079Y-118534163D01*
X177347271Y-118553470D01*
G37*
G36*
X177354518Y-120443742D02*
G01*
X177359509Y-120493239D01*
X177354518Y-120499352D01*
X177329723Y-120493627D01*
X177326713Y-120471547D01*
X177341973Y-120437217D01*
X177354518Y-120443742D01*
G37*
G36*
X176725035Y-120024830D02*
G01*
X176701097Y-120043162D01*
X176626079Y-120091855D01*
X176607893Y-120112858D01*
X176582491Y-120123150D01*
X176576612Y-120085751D01*
X176607680Y-120026500D01*
X176669816Y-120016055D01*
X176725035Y-120024830D01*
G37*
G36*
X176784512Y-117739691D02*
G01*
X176763658Y-117760545D01*
X176742805Y-117739691D01*
X176763658Y-117718838D01*
X176784512Y-117739691D01*
G37*
G36*
X173479929Y-119965358D02*
G01*
X173611573Y-119811841D01*
X173617326Y-119806542D01*
X173710683Y-119706348D01*
X173770178Y-119613943D01*
X173781557Y-119573173D01*
X173804243Y-119488093D01*
X173861048Y-119375333D01*
X173885826Y-119336479D01*
X173949503Y-119233568D01*
X173986397Y-119156130D01*
X173990095Y-119139113D01*
X173948634Y-119120603D01*
X173824946Y-119107079D01*
X173620075Y-119098606D01*
X173335065Y-119095250D01*
X173285585Y-119095192D01*
X172581076Y-119095192D01*
X172555645Y-118993868D01*
X172521651Y-118935666D01*
X172446317Y-118889253D01*
X172320855Y-118852647D01*
X172136478Y-118823862D01*
X171884397Y-118800916D01*
X171633609Y-118785716D01*
X171235008Y-118749812D01*
X170878444Y-118681280D01*
X170534189Y-118571907D01*
X170172512Y-118413475D01*
X170033819Y-118343625D01*
X169800485Y-118213410D01*
X169541910Y-118053357D01*
X169272313Y-117873804D01*
X169005912Y-117685092D01*
X168756924Y-117497561D01*
X168539567Y-117321549D01*
X168368059Y-117167397D01*
X168266789Y-117058589D01*
X168151307Y-116898498D01*
X168095341Y-116767702D01*
X168095874Y-116640290D01*
X168149888Y-116490352D01*
X168191041Y-116408241D01*
X168257690Y-116266071D01*
X168303617Y-116138527D01*
X168317846Y-116064248D01*
X168346910Y-115893222D01*
X168429964Y-115675032D01*
X168560797Y-115420255D01*
X168733199Y-115139470D01*
X168940961Y-114843255D01*
X169177872Y-114542186D01*
X169285842Y-114415379D01*
X169545728Y-114106001D01*
X169761909Y-113820910D01*
X169955174Y-113531483D01*
X170087865Y-113311135D01*
X170183008Y-113153570D01*
X170271287Y-113018342D01*
X170339091Y-112925860D01*
X170360248Y-112902750D01*
X170470904Y-112838748D01*
X170648444Y-112778949D01*
X170876339Y-112726995D01*
X171138060Y-112686528D01*
X171417078Y-112661188D01*
X171469191Y-112658453D01*
X171930389Y-112637140D01*
X172077024Y-112775481D01*
X172169655Y-112882079D01*
X172243065Y-113017476D01*
X172310550Y-113207007D01*
X172319991Y-113238320D01*
X172370773Y-113419096D01*
X172389249Y-113544318D01*
X172366099Y-113633347D01*
X172292004Y-113705545D01*
X172157645Y-113780272D01*
X172029832Y-113841131D01*
X171988857Y-113891313D01*
X171977975Y-113998939D01*
X171980804Y-114056101D01*
X171970804Y-114208715D01*
X171922661Y-114297608D01*
X171849654Y-114324740D01*
X171765062Y-114292071D01*
X171682163Y-114201563D01*
X171614236Y-114055174D01*
X171598518Y-113999664D01*
X171549244Y-113908538D01*
X171442406Y-113847358D01*
X171414662Y-113837825D01*
X171303245Y-113797907D01*
X171225623Y-113762935D01*
X171216532Y-113757220D01*
X171150004Y-113723564D01*
X171047000Y-113684065D01*
X171043565Y-113682906D01*
X170947859Y-113660543D01*
X170878747Y-113683514D01*
X170808156Y-113749843D01*
X170709209Y-113882390D01*
X170602298Y-114069314D01*
X170500529Y-114284279D01*
X170417007Y-114500952D01*
X170388602Y-114592939D01*
X170356418Y-114763503D01*
X170332171Y-115015602D01*
X170315986Y-115347722D01*
X170310997Y-115541167D01*
X170296854Y-116262183D01*
X170399606Y-116287972D01*
X170482578Y-116290209D01*
X170559821Y-116239881D01*
X170611006Y-116183618D01*
X170786068Y-116036788D01*
X171009746Y-115948707D01*
X171216532Y-115925406D01*
X171415905Y-115946276D01*
X171604292Y-116015060D01*
X171802472Y-116141020D01*
X171928918Y-116242921D01*
X172156640Y-116437470D01*
X172437325Y-116308463D01*
X172795886Y-116178832D01*
X173142178Y-116128613D01*
X173488244Y-116157429D01*
X173844118Y-116264099D01*
X174094364Y-116363634D01*
X174106172Y-116834240D01*
X174117979Y-117304846D01*
X174245619Y-117230314D01*
X174313164Y-117176412D01*
X174424696Y-117071045D01*
X174569132Y-116925400D01*
X174735385Y-116750661D01*
X174912371Y-116558017D01*
X174918016Y-116551761D01*
X175166086Y-116279576D01*
X175370641Y-116064206D01*
X175541845Y-115898615D01*
X175689862Y-115775767D01*
X175824855Y-115688627D01*
X175956989Y-115630159D01*
X176096426Y-115593329D01*
X176253329Y-115571099D01*
X176346581Y-115562868D01*
X176602982Y-115558834D01*
X176823058Y-115596117D01*
X177036204Y-115683041D01*
X177264081Y-115822616D01*
X177398094Y-115910586D01*
X177508480Y-115976144D01*
X177575306Y-116007626D01*
X177582285Y-116008821D01*
X177639405Y-115983218D01*
X177729357Y-115918669D01*
X177770724Y-115883954D01*
X177997187Y-115714882D01*
X178220396Y-115615548D01*
X178463572Y-115576586D01*
X178536236Y-115575205D01*
X178746661Y-115590754D01*
X178939468Y-115639304D01*
X179124164Y-115727704D01*
X179310255Y-115862798D01*
X179507247Y-116051433D01*
X179724649Y-116300454D01*
X179959388Y-116600046D01*
X180097837Y-116779228D01*
X180226378Y-116938416D01*
X180333239Y-117063535D01*
X180406649Y-117140515D01*
X180422447Y-117153611D01*
X180517353Y-117220220D01*
X180538207Y-116666782D01*
X180559061Y-116113343D01*
X180809307Y-116013830D01*
X181167125Y-115906803D01*
X181513169Y-115878428D01*
X181859494Y-115929088D01*
X182216100Y-116058217D01*
X182496785Y-116187224D01*
X182724507Y-115992675D01*
X182937726Y-115829649D01*
X183129204Y-115729125D01*
X183319721Y-115681841D01*
X183436893Y-115675159D01*
X183687653Y-115709910D01*
X183903673Y-115809329D01*
X184042419Y-115933372D01*
X184128720Y-116019168D01*
X184205023Y-116044634D01*
X184253819Y-116037726D01*
X184356571Y-116011937D01*
X184342428Y-115290921D01*
X184330277Y-114919769D01*
X184310004Y-114627889D01*
X184281731Y-114416796D01*
X184264823Y-114342693D01*
X184193936Y-114133958D01*
X184098842Y-113914951D01*
X183992645Y-113712008D01*
X183888451Y-113551462D01*
X183845270Y-113499597D01*
X183766069Y-113427501D01*
X183695852Y-113410854D01*
X183609860Y-113432660D01*
X183506401Y-113472037D01*
X183438024Y-113506172D01*
X183436893Y-113506974D01*
X183372297Y-113538663D01*
X183265302Y-113578798D01*
X183238763Y-113587579D01*
X183118938Y-113645302D01*
X183060654Y-113729470D01*
X183054907Y-113749418D01*
X182994194Y-113912471D01*
X182914457Y-114020243D01*
X182828973Y-114070773D01*
X182751023Y-114062101D01*
X182693884Y-113992266D01*
X182670834Y-113859308D01*
X182672621Y-113805855D01*
X182671867Y-113673067D01*
X182642374Y-113603666D01*
X182623593Y-113590885D01*
X182443828Y-113503696D01*
X182330547Y-113431959D01*
X182274431Y-113356312D01*
X182266161Y-113257394D01*
X182296416Y-113115844D01*
X182333434Y-112988074D01*
X182401141Y-112789236D01*
X182472965Y-112647972D01*
X182562205Y-112538949D01*
X182576401Y-112525235D01*
X182723036Y-112386894D01*
X183184234Y-112408207D01*
X183464638Y-112430354D01*
X183730799Y-112468301D01*
X183966187Y-112518407D01*
X184154272Y-112577031D01*
X184278527Y-112640531D01*
X184293177Y-112652504D01*
X184346429Y-112717429D01*
X184426646Y-112834828D01*
X184520216Y-112984291D01*
X184565560Y-113060889D01*
X184755150Y-113370360D01*
X184953116Y-113655476D01*
X185180245Y-113944857D01*
X185367583Y-114165133D01*
X185615000Y-114465061D01*
X185835906Y-114764631D01*
X186024091Y-115053265D01*
X186173346Y-115320385D01*
X186277461Y-115555414D01*
X186330225Y-115747773D01*
X186335580Y-115814002D01*
X186354636Y-115904330D01*
X186404200Y-116035835D01*
X186462384Y-116157995D01*
X186539580Y-116326617D01*
X186564659Y-116461001D01*
X186534604Y-116587058D01*
X186446396Y-116730699D01*
X186386636Y-116808342D01*
X186266899Y-116934891D01*
X186088876Y-117092345D01*
X185866782Y-117270364D01*
X185614836Y-117458610D01*
X185347257Y-117646741D01*
X185078261Y-117824420D01*
X184822067Y-117981305D01*
X184619606Y-118093379D01*
X184244541Y-118271272D01*
X183897489Y-118397180D01*
X183548719Y-118479319D01*
X183168502Y-118525904D01*
X183019816Y-118535470D01*
X182708486Y-118555225D01*
X182471752Y-118579263D01*
X182300826Y-118609567D01*
X182186920Y-118648121D01*
X182121246Y-118696909D01*
X182097780Y-118743622D01*
X182072349Y-118844946D01*
X181430401Y-118844946D01*
X181178377Y-118846288D01*
X180999021Y-118850953D01*
X180881622Y-118859900D01*
X180815467Y-118874087D01*
X180789843Y-118894474D01*
X180788453Y-118902401D01*
X180826366Y-118986483D01*
X180925178Y-119046894D01*
X180972682Y-119059423D01*
X181053594Y-119099268D01*
X181059000Y-119173806D01*
X181003936Y-119263805D01*
X180888170Y-119343902D01*
X180713767Y-119381458D01*
X180493899Y-119376371D01*
X180241742Y-119328543D01*
X180057053Y-119271014D01*
X179873181Y-119196563D01*
X179694577Y-119110461D01*
X179555692Y-119029535D01*
X179539474Y-119018203D01*
X179436376Y-118947416D01*
X179364316Y-118905247D01*
X179343608Y-118899534D01*
X179343280Y-118944266D01*
X179355757Y-119047588D01*
X179375757Y-119171939D01*
X179418021Y-119347964D01*
X179476102Y-119450671D01*
X179561077Y-119490022D01*
X179684023Y-119475977D01*
X179706908Y-119469743D01*
X179863688Y-119457995D01*
X179985693Y-119518582D01*
X180069267Y-119646448D01*
X180110755Y-119836533D01*
X180111242Y-120029233D01*
X180094950Y-120178087D01*
X180062418Y-120276995D01*
X179999428Y-120359403D01*
X179951200Y-120405663D01*
X179839297Y-120503091D01*
X179733812Y-120587419D01*
X179707910Y-120606258D01*
X179607499Y-120676287D01*
X179756993Y-120841759D01*
X179853986Y-120966950D01*
X179887125Y-121061129D01*
X179883557Y-121094910D01*
X179833330Y-121183618D01*
X179744782Y-121272672D01*
X179648836Y-121334633D01*
X179599017Y-121347409D01*
X179563980Y-121388719D01*
X179539156Y-121512281D01*
X179529356Y-121623551D01*
X179506614Y-121809334D01*
X179458400Y-121926806D01*
X179371818Y-121990115D01*
X179233972Y-122013412D01*
X179172839Y-122014732D01*
X179027015Y-122030876D01*
X178919515Y-122089302D01*
X178884470Y-122121492D01*
X178820934Y-122199453D01*
X178798532Y-122280464D01*
X178816662Y-122388131D01*
X178873706Y-122543566D01*
X178901667Y-122689019D01*
X178856825Y-122822081D01*
X178734993Y-122951968D01*
X178663999Y-123004935D01*
X178566204Y-123082069D01*
X178505593Y-123148082D01*
X178496112Y-123170670D01*
X178520852Y-123230135D01*
X178585276Y-123322290D01*
X178623972Y-123368782D01*
X178740329Y-123475134D01*
X178851284Y-123515082D01*
X178875686Y-123516210D01*
X178958430Y-123522298D01*
X178973817Y-123553337D01*
X178949929Y-123605950D01*
X178922558Y-123669294D01*
X178943927Y-123677935D01*
X178958888Y-123672513D01*
X179069169Y-123632285D01*
X179112206Y-123631637D01*
X179088804Y-123674716D01*
X178999771Y-123765665D01*
X178980559Y-123783925D01*
X178778412Y-123974995D01*
X178897144Y-123977927D01*
X178973126Y-123983017D01*
X178972641Y-123997604D01*
X178932460Y-124016703D01*
X178771907Y-124052657D01*
X178593365Y-124024062D01*
X178430655Y-123955571D01*
X178294078Y-123894129D01*
X178219370Y-123877370D01*
X178209894Y-123903932D01*
X178269014Y-123972455D01*
X178306293Y-124005892D01*
X178430865Y-124113107D01*
X178264585Y-124082683D01*
X178121143Y-124046664D01*
X177989879Y-123998739D01*
X177976839Y-123992592D01*
X177875180Y-123953960D01*
X177832154Y-123963232D01*
X177853631Y-124018036D01*
X177868076Y-124036549D01*
X177896376Y-124089662D01*
X177868943Y-124103505D01*
X177801516Y-124081822D01*
X177709831Y-124028355D01*
X177653147Y-123985422D01*
X177490925Y-123838167D01*
X177398290Y-123720589D01*
X177369808Y-123630907D01*
X177351309Y-123568940D01*
X177331819Y-123557918D01*
X177265267Y-123593523D01*
X177219252Y-123675923D01*
X177214209Y-123768502D01*
X177214239Y-123768618D01*
X177222397Y-123826587D01*
X177190863Y-123816172D01*
X177177454Y-123805441D01*
X177125452Y-123711748D01*
X177131278Y-123578645D01*
X177193598Y-123425529D01*
X177204893Y-123406596D01*
X177291612Y-123266281D01*
X177194466Y-123140313D01*
X177065503Y-122974169D01*
X176978165Y-122864915D01*
X176924005Y-122802728D01*
X176894576Y-122777785D01*
X176883044Y-122778160D01*
X176887181Y-122822963D01*
X176917489Y-122914467D01*
X176929942Y-122945413D01*
X176970666Y-123052721D01*
X176992089Y-123128369D01*
X176993051Y-123137877D01*
X176959777Y-123205339D01*
X176880917Y-123279508D01*
X176787915Y-123335083D01*
X176730206Y-123349379D01*
X176674986Y-123364907D01*
X176662888Y-123426722D01*
X176668137Y-123473491D01*
X176674132Y-123554620D01*
X176653231Y-123567203D01*
X176631163Y-123551800D01*
X176576436Y-123460010D01*
X176585950Y-123350267D01*
X176653970Y-123250024D01*
X176701360Y-123215769D01*
X176785988Y-123150966D01*
X176825781Y-123087716D01*
X176826220Y-123082223D01*
X176794088Y-123026104D01*
X176711094Y-122946316D01*
X176628108Y-122883451D01*
X176440615Y-122741371D01*
X176311306Y-122614878D01*
X176247695Y-122511820D01*
X176242312Y-122480542D01*
X176269179Y-122406013D01*
X176331004Y-122321924D01*
X176390060Y-122224951D01*
X176384219Y-122144832D01*
X176317579Y-122101198D01*
X176284296Y-122098148D01*
X176199677Y-122059850D01*
X176158896Y-121993879D01*
X176098023Y-121910829D01*
X176037785Y-121889609D01*
X175926276Y-121853861D01*
X175843006Y-121764377D01*
X175800305Y-121647798D01*
X175810498Y-121530766D01*
X175845231Y-121473480D01*
X175892237Y-121386928D01*
X175862663Y-121327247D01*
X175765425Y-121305701D01*
X175688453Y-121283321D01*
X175648538Y-121202424D01*
X175644392Y-121183506D01*
X175606173Y-121089404D01*
X175525643Y-121051038D01*
X175503991Y-121047955D01*
X175436288Y-121032792D01*
X175396541Y-120992799D01*
X175371628Y-120906492D01*
X175355733Y-120805209D01*
X175321805Y-120650985D01*
X175274014Y-120546064D01*
X175252128Y-120522637D01*
X175211767Y-120467896D01*
X175182324Y-120364128D01*
X175160305Y-120196903D01*
X175153156Y-120113680D01*
X175138757Y-119950665D01*
X175124202Y-119822591D01*
X175111927Y-119749752D01*
X175108374Y-119740784D01*
X175065053Y-119748503D01*
X174971548Y-119786477D01*
X174888123Y-119826507D01*
X174753652Y-119885287D01*
X174633190Y-119922510D01*
X174583332Y-119929347D01*
X174481675Y-119929347D01*
X174500162Y-120565389D01*
X174519539Y-120936609D01*
X174558886Y-121252280D01*
X174625343Y-121530593D01*
X174726051Y-121789734D01*
X174868150Y-122047893D01*
X175058783Y-122323258D01*
X175305088Y-122634018D01*
X175318805Y-122650584D01*
X175368102Y-122713955D01*
X175362363Y-122718276D01*
X175303690Y-122665271D01*
X175194184Y-122556662D01*
X175151974Y-122513740D01*
X174866489Y-122191134D01*
X174651614Y-121871846D01*
X174500413Y-121538727D01*
X174405950Y-121174628D01*
X174361289Y-120762398D01*
X174355515Y-120544535D01*
X174352111Y-120344924D01*
X174344788Y-120179486D01*
X174334572Y-120063858D01*
X174322492Y-120013678D01*
X174320597Y-120012762D01*
X174271002Y-120037373D01*
X174187047Y-120098671D01*
X174159739Y-120121065D01*
X174014363Y-120206986D01*
X173833304Y-120240048D01*
X173692800Y-120253244D01*
X173573584Y-120273778D01*
X173542244Y-120282454D01*
X173460184Y-120290287D01*
X173423050Y-120246793D01*
X173415401Y-120117238D01*
X173497486Y-120117238D01*
X173498843Y-120164057D01*
X173561736Y-120165177D01*
X173583445Y-120158869D01*
X173687184Y-120133409D01*
X173821023Y-120110160D01*
X173844118Y-120107036D01*
X173986853Y-120066883D01*
X174115965Y-119996847D01*
X174128860Y-119986636D01*
X174240862Y-119911540D01*
X174352197Y-119864050D01*
X174358252Y-119862590D01*
X174632738Y-119794515D01*
X174846292Y-119723475D01*
X175021051Y-119638920D01*
X175179153Y-119530301D01*
X175328951Y-119400027D01*
X175585904Y-119111308D01*
X175778391Y-118790807D01*
X175864517Y-118570652D01*
X175936172Y-118339062D01*
X175932838Y-118823839D01*
X175931056Y-119029808D01*
X175927726Y-119162050D01*
X175920797Y-119230255D01*
X175908216Y-119244110D01*
X175887932Y-119213304D01*
X175862222Y-119157262D01*
X175794939Y-119005908D01*
X175640182Y-119216730D01*
X175534373Y-119347252D01*
X175424146Y-119462289D01*
X175358385Y-119518012D01*
X175286844Y-119573853D01*
X175252665Y-119627738D01*
X175247576Y-119707827D01*
X175263253Y-119841898D01*
X175280432Y-120005505D01*
X175288693Y-120162621D01*
X175288266Y-120229329D01*
X175308002Y-120378771D01*
X175362731Y-120459131D01*
X175428092Y-120569304D01*
X175457405Y-120720541D01*
X175472795Y-120839645D01*
X175505970Y-120900683D01*
X175571129Y-120928925D01*
X175574988Y-120929818D01*
X175676715Y-120992442D01*
X175738919Y-121087884D01*
X175805652Y-121189661D01*
X175891651Y-121222221D01*
X175896632Y-121222286D01*
X175989869Y-121251105D01*
X176023193Y-121329328D01*
X175992768Y-121444605D01*
X175975567Y-121476390D01*
X175931619Y-121602516D01*
X175965562Y-121702416D01*
X176078380Y-121777689D01*
X176181657Y-121811025D01*
X176362302Y-121887816D01*
X176472286Y-121981323D01*
X176549474Y-122087158D01*
X176568684Y-122171616D01*
X176534225Y-122268803D01*
X176513412Y-122306686D01*
X176460908Y-122424475D01*
X176468176Y-122512605D01*
X176534266Y-122598641D01*
X176616282Y-122667799D01*
X176661390Y-122665249D01*
X176678889Y-122586666D01*
X176680243Y-122530740D01*
X176691474Y-122425771D01*
X176738891Y-122351792D01*
X176836647Y-122279859D01*
X176993051Y-122180349D01*
X176993051Y-122326933D01*
X176999979Y-122425292D01*
X177035022Y-122465742D01*
X177117280Y-122473517D01*
X177201459Y-122479825D01*
X177219438Y-122512057D01*
X177198213Y-122568542D01*
X177178895Y-122704112D01*
X177237502Y-122841710D01*
X177369373Y-122971633D01*
X177403237Y-122995254D01*
X177512545Y-123081489D01*
X177567921Y-123172967D01*
X177589183Y-123272158D01*
X177627681Y-123408707D01*
X177693083Y-123526201D01*
X177705779Y-123540999D01*
X177781111Y-123612871D01*
X177811474Y-123616758D01*
X177799519Y-123550254D01*
X177774345Y-123478762D01*
X177746522Y-123387779D01*
X177758920Y-123325929D01*
X177822778Y-123258610D01*
X177854726Y-123231266D01*
X177981341Y-123133434D01*
X178113974Y-123043577D01*
X178125826Y-123036354D01*
X178241586Y-122939914D01*
X178336029Y-122817631D01*
X178341892Y-122806962D01*
X178418648Y-122661202D01*
X178393534Y-122838460D01*
X178386703Y-122962829D01*
X178410940Y-123012487D01*
X178464836Y-122985766D01*
X178492471Y-122955635D01*
X178559792Y-122914680D01*
X178596826Y-122916463D01*
X178656445Y-122900511D01*
X178729380Y-122834932D01*
X178793611Y-122745658D01*
X178827114Y-122658623D01*
X178828190Y-122644004D01*
X178805282Y-122561060D01*
X178757015Y-122473876D01*
X178703029Y-122361702D01*
X178684026Y-122266484D01*
X178649791Y-122178455D01*
X178554039Y-122142424D01*
X178401355Y-122159513D01*
X178329937Y-122179980D01*
X178218213Y-122205409D01*
X178120589Y-122191721D01*
X178019530Y-122148220D01*
X177922737Y-122098043D01*
X177893949Y-122070288D01*
X177925526Y-122052223D01*
X177956968Y-122043967D01*
X178105049Y-122013615D01*
X178297273Y-121982507D01*
X178512331Y-121953133D01*
X178728910Y-121927984D01*
X178925698Y-121909550D01*
X179081386Y-121900319D01*
X179170603Y-121902177D01*
X179316331Y-121901375D01*
X179405324Y-121846680D01*
X179444438Y-121730633D01*
X179445458Y-121603223D01*
X179432952Y-121410367D01*
X179203560Y-121373390D01*
X179046554Y-121358472D01*
X178874670Y-121366138D01*
X178659675Y-121398134D01*
X178589543Y-121411371D01*
X178286395Y-121454930D01*
X178035365Y-121451426D01*
X177824312Y-121394433D01*
X177641095Y-121277525D01*
X177473574Y-121094276D01*
X177309610Y-120838259D01*
X177230972Y-120692226D01*
X177143811Y-120530828D01*
X177065457Y-120398975D01*
X177006356Y-120313550D01*
X176982420Y-120290563D01*
X176954001Y-120271503D01*
X176980677Y-120266301D01*
X177037406Y-120295163D01*
X177104471Y-120369343D01*
X177105800Y-120371251D01*
X177185784Y-120478138D01*
X177253724Y-120558936D01*
X177309994Y-120638467D01*
X177327768Y-120690512D01*
X177356472Y-120771996D01*
X177428932Y-120889029D01*
X177528102Y-121020052D01*
X177636938Y-121143505D01*
X177738396Y-121237830D01*
X177785958Y-121270066D01*
X177947009Y-121322858D01*
X178160877Y-121345530D01*
X178402434Y-121337677D01*
X178646555Y-121298892D01*
X178703067Y-121284847D01*
X178865335Y-121253353D01*
X179066187Y-121230983D01*
X179252979Y-121222781D01*
X179505683Y-121210477D01*
X179678717Y-121174256D01*
X179772418Y-121113799D01*
X179787126Y-121028784D01*
X179723178Y-120918893D01*
X179651918Y-120845238D01*
X179551835Y-120765005D01*
X179462064Y-120735636D01*
X179349537Y-120741654D01*
X179265121Y-120751616D01*
X179236130Y-120747976D01*
X179268218Y-120724145D01*
X179367038Y-120673533D01*
X179437762Y-120638807D01*
X179604804Y-120540320D01*
X179769863Y-120416391D01*
X179865266Y-120326833D01*
X179963167Y-120213315D01*
X180014897Y-120122871D01*
X180034881Y-120021250D01*
X180037714Y-119917396D01*
X180025333Y-119734142D01*
X179982353Y-119620906D01*
X179900019Y-119567203D01*
X179769576Y-119562547D01*
X179743986Y-119565609D01*
X179588861Y-119570435D01*
X179460438Y-119532357D01*
X179346869Y-119441919D01*
X179236307Y-119289665D01*
X179116905Y-119066138D01*
X179116073Y-119064429D01*
X179030501Y-118906202D01*
X178915388Y-118716462D01*
X178899852Y-118692963D01*
X178983388Y-118692963D01*
X179008659Y-118737088D01*
X179061156Y-118822155D01*
X179135085Y-118945963D01*
X179183889Y-119029234D01*
X179258969Y-119146095D01*
X179303194Y-119186162D01*
X179316280Y-119150253D01*
X179297942Y-119039186D01*
X179247896Y-118853780D01*
X179246520Y-118849150D01*
X179200458Y-118699397D01*
X179166544Y-118615490D01*
X179133723Y-118583156D01*
X179090943Y-118588117D01*
X179055946Y-118603034D01*
X178985777Y-118644662D01*
X178983388Y-118692963D01*
X178899852Y-118692963D01*
X178792008Y-118529845D01*
X178764213Y-118490430D01*
X178869898Y-118490430D01*
X178897935Y-118544239D01*
X178980289Y-118537103D01*
X179078437Y-118490430D01*
X179182397Y-118439565D01*
X179231595Y-118435085D01*
X179223910Y-118470392D01*
X179218498Y-118535629D01*
X179240589Y-118637440D01*
X179243988Y-118647650D01*
X179309003Y-118745060D01*
X179432149Y-118858009D01*
X179593416Y-118972850D01*
X179772793Y-119075937D01*
X179950268Y-119153625D01*
X180016860Y-119174700D01*
X180138654Y-119213616D01*
X180232008Y-119253098D01*
X180246253Y-119261373D01*
X180327342Y-119286352D01*
X180457785Y-119299726D01*
X180609474Y-119301825D01*
X180754298Y-119292975D01*
X180864148Y-119273506D01*
X180905235Y-119253682D01*
X180951645Y-119183685D01*
X180934342Y-119141850D01*
X180906433Y-119136900D01*
X180823860Y-119103086D01*
X180746389Y-119024361D01*
X180705941Y-118934802D01*
X180705038Y-118921897D01*
X180672617Y-118857030D01*
X180621622Y-118844946D01*
X180561109Y-118825827D01*
X180539300Y-118754126D01*
X180538207Y-118716911D01*
X180511524Y-118596904D01*
X180440791Y-118450901D01*
X180406964Y-118398120D01*
X180318640Y-118248360D01*
X180231917Y-118067349D01*
X180186669Y-117952675D01*
X180097371Y-117750675D01*
X179973256Y-117539496D01*
X179831810Y-117344577D01*
X179690521Y-117191359D01*
X179628316Y-117140397D01*
X179494508Y-117065742D01*
X179340513Y-117009733D01*
X179193239Y-116979193D01*
X179079595Y-116980945D01*
X179047898Y-116993243D01*
X178985492Y-117046220D01*
X178973842Y-117107419D01*
X179015786Y-117194571D01*
X179097817Y-117304967D01*
X179189526Y-117435533D01*
X179233542Y-117549582D01*
X179244863Y-117682450D01*
X179229201Y-117836015D01*
X179184092Y-117926115D01*
X179181317Y-117928529D01*
X179142965Y-117973783D01*
X179159812Y-118023202D01*
X179202171Y-118071874D01*
X179264337Y-118162734D01*
X179286975Y-118238909D01*
X179281175Y-118290546D01*
X179249573Y-118280342D01*
X179210703Y-118246648D01*
X179130879Y-118188419D01*
X179087916Y-118185411D01*
X179090179Y-118229757D01*
X179085931Y-118322458D01*
X179027237Y-118400460D01*
X178951846Y-118427869D01*
X178885048Y-118454299D01*
X178869898Y-118490430D01*
X178764213Y-118490430D01*
X178759030Y-118483081D01*
X178641554Y-118311517D01*
X178597408Y-118232760D01*
X178664674Y-118232760D01*
X178689791Y-118275567D01*
X178729596Y-118271592D01*
X178770737Y-118221081D01*
X178785844Y-118167196D01*
X178752555Y-118139424D01*
X178723921Y-118135915D01*
X178671375Y-118166831D01*
X178664674Y-118232760D01*
X178597408Y-118232760D01*
X178567561Y-118179512D01*
X178525971Y-118063531D01*
X178506342Y-117946366D01*
X178507024Y-117725019D01*
X178553004Y-117535723D01*
X178638618Y-117397189D01*
X178684101Y-117359250D01*
X178783716Y-117322996D01*
X178852110Y-117345287D01*
X178873377Y-117406629D01*
X178831613Y-117487525D01*
X178807337Y-117510299D01*
X178750371Y-117580132D01*
X178766216Y-117626262D01*
X178817763Y-117638066D01*
X178855754Y-117646279D01*
X178817758Y-117669779D01*
X178796910Y-117678430D01*
X178724402Y-117729152D01*
X178703067Y-117774948D01*
X178673586Y-117849261D01*
X178640506Y-117885668D01*
X178587496Y-117956871D01*
X178577944Y-117995409D01*
X178613405Y-118029778D01*
X178703786Y-118040492D01*
X178825080Y-118030896D01*
X178953283Y-118004335D01*
X179064389Y-117964157D01*
X179130571Y-117918386D01*
X179192972Y-117788047D01*
X179193685Y-117628852D01*
X179137152Y-117462795D01*
X179027811Y-117311868D01*
X179003421Y-117288509D01*
X178939080Y-117196279D01*
X178893733Y-117072319D01*
X178891054Y-117059310D01*
X178852659Y-116930033D01*
X178785612Y-116864689D01*
X178667766Y-116844053D01*
X178642591Y-116843614D01*
X178562637Y-116836175D01*
X178554809Y-116810221D01*
X178569603Y-116792926D01*
X178601782Y-116721314D01*
X178618832Y-116606490D01*
X178619652Y-116575507D01*
X178612853Y-116481689D01*
X178583540Y-116403466D01*
X178518343Y-116318419D01*
X178403887Y-116204129D01*
X178390639Y-116191573D01*
X178161626Y-115975009D01*
X178292593Y-115929353D01*
X178492437Y-115887867D01*
X178693989Y-115909450D01*
X178898867Y-115985385D01*
X179149930Y-116137673D01*
X179402929Y-116357126D01*
X179641776Y-116629463D01*
X179676979Y-116676145D01*
X179877371Y-116929817D01*
X180071538Y-117142180D01*
X180248290Y-117301884D01*
X180380776Y-117389971D01*
X180479365Y-117437790D01*
X180524821Y-117446955D01*
X180537632Y-117418031D01*
X180538207Y-117394308D01*
X180509517Y-117327177D01*
X180434843Y-117228503D01*
X180345767Y-117134923D01*
X180240660Y-117025000D01*
X180105766Y-116870054D01*
X179960221Y-116692621D01*
X179850619Y-116551800D01*
X179605832Y-116248045D01*
X179376998Y-116002921D01*
X179169537Y-115821504D01*
X178988869Y-115708865D01*
X178922940Y-115683483D01*
X178701288Y-115641307D01*
X178466997Y-115636520D01*
X178252454Y-115667891D01*
X178125134Y-115713819D01*
X178015564Y-115779300D01*
X177925609Y-115849366D01*
X177873519Y-115907850D01*
X177873396Y-115936841D01*
X177916827Y-115959350D01*
X178010770Y-116007037D01*
X178088614Y-116046288D01*
X178256646Y-116151140D01*
X178404377Y-116280068D01*
X178515392Y-116415273D01*
X178573274Y-116538952D01*
X178577944Y-116576884D01*
X178546967Y-116678011D01*
X178450906Y-116809539D01*
X178369405Y-116896663D01*
X178267012Y-117001712D01*
X178192616Y-117081039D01*
X178161093Y-117118747D01*
X178160867Y-117119541D01*
X178187728Y-117153324D01*
X178247723Y-117212599D01*
X178305995Y-117303235D01*
X178318465Y-117403149D01*
X178284719Y-117480841D01*
X178251522Y-117501143D01*
X178217753Y-117502825D01*
X178234746Y-117458386D01*
X178250024Y-117433188D01*
X178279446Y-117363582D01*
X178256279Y-117300833D01*
X178211504Y-117248704D01*
X178139881Y-117157176D01*
X178130370Y-117083629D01*
X178186761Y-117005758D01*
X178264032Y-116939474D01*
X178406732Y-116799063D01*
X178470093Y-116664745D01*
X178456917Y-116528101D01*
X178424066Y-116458932D01*
X178330079Y-116347818D01*
X178186654Y-116231803D01*
X178023580Y-116132081D01*
X177881332Y-116072808D01*
X177835941Y-116065894D01*
X177842519Y-116092292D01*
X177905458Y-116161893D01*
X177933467Y-116190157D01*
X178024535Y-116293894D01*
X178066422Y-116390479D01*
X178076814Y-116522632D01*
X178076813Y-116536424D01*
X178071751Y-116653384D01*
X178056302Y-116693783D01*
X178035744Y-116676145D01*
X178006507Y-116590862D01*
X177994675Y-116481741D01*
X177962588Y-116364219D01*
X177882701Y-116254601D01*
X177777918Y-116174650D01*
X177671139Y-116146127D01*
X177645492Y-116149921D01*
X177570223Y-116141509D01*
X177467386Y-116077483D01*
X177360763Y-115984841D01*
X177135458Y-115805459D01*
X176906035Y-115694432D01*
X176646370Y-115641538D01*
X176462659Y-115633452D01*
X176277962Y-115637668D01*
X176119206Y-115654722D01*
X175976430Y-115691215D01*
X175839672Y-115753754D01*
X175698973Y-115848941D01*
X175544370Y-115983382D01*
X175365905Y-116163680D01*
X175153615Y-116396439D01*
X174932707Y-116647846D01*
X174753170Y-116848268D01*
X174584417Y-117025986D01*
X174438214Y-117169262D01*
X174326324Y-117266360D01*
X174282452Y-117296523D01*
X174169038Y-117374580D01*
X174120353Y-117451605D01*
X174115218Y-117494520D01*
X174115218Y-117598526D01*
X174332863Y-117481424D01*
X174475683Y-117388889D01*
X174650115Y-117246754D01*
X174860771Y-117050731D01*
X175112260Y-116796531D01*
X175408158Y-116480988D01*
X175682607Y-116226716D01*
X175971958Y-116040694D01*
X176267787Y-115926198D01*
X176561674Y-115886505D01*
X176840823Y-115923656D01*
X176981433Y-115984150D01*
X177140100Y-116083974D01*
X177232696Y-116157253D01*
X177340065Y-116247104D01*
X177420665Y-116306938D01*
X177456830Y-116323766D01*
X177465918Y-116352831D01*
X177473474Y-116444197D01*
X177477250Y-116553044D01*
X177496007Y-116749935D01*
X177552917Y-116895448D01*
X177661729Y-117009040D01*
X177836195Y-117110170D01*
X177887850Y-117134069D01*
X178023902Y-117199427D01*
X178128105Y-117257496D01*
X178178013Y-117295762D01*
X178178099Y-117295901D01*
X178193805Y-117371054D01*
X178175132Y-117455017D01*
X178134307Y-117515001D01*
X178093255Y-117523444D01*
X178058772Y-117496929D01*
X178092393Y-117454845D01*
X178107506Y-117442777D01*
X178153954Y-117398050D01*
X178143832Y-117357748D01*
X178083930Y-117302277D01*
X177975912Y-117234927D01*
X177842700Y-117181017D01*
X177828840Y-117177078D01*
X177688740Y-117116599D01*
X177564491Y-117024273D01*
X177478385Y-116920193D01*
X177451836Y-116837288D01*
X177419150Y-116776238D01*
X177329864Y-116760746D01*
X177197131Y-116790630D01*
X177077433Y-116842482D01*
X176975069Y-116884873D01*
X176856950Y-116909777D01*
X176699102Y-116920630D01*
X176526468Y-116921491D01*
X176235939Y-116930533D01*
X176019751Y-116964696D01*
X175955541Y-116984546D01*
X175807869Y-117026751D01*
X175663176Y-117049964D01*
X175627936Y-117051514D01*
X175476146Y-117078797D01*
X175288180Y-117152148D01*
X175087016Y-117258819D01*
X174895629Y-117386063D01*
X174736995Y-117521134D01*
X174690127Y-117571808D01*
X174557680Y-117761314D01*
X174425166Y-118008849D01*
X174302877Y-118289677D01*
X174201108Y-118579058D01*
X174130153Y-118852253D01*
X174110970Y-118963674D01*
X174069404Y-119182667D01*
X174015951Y-119327671D01*
X173987469Y-119368297D01*
X173923475Y-119469994D01*
X173880135Y-119595925D01*
X173879785Y-119597690D01*
X173813966Y-119745974D01*
X173675675Y-119906627D01*
X173670605Y-119911408D01*
X173555470Y-120030946D01*
X173497486Y-120117238D01*
X173415401Y-120117238D01*
X173415241Y-120114528D01*
X173479929Y-119965358D01*
G37*
G36*
X175992066Y-119366292D02*
G01*
X175971212Y-119387146D01*
X175950358Y-119366292D01*
X175971212Y-119345439D01*
X175992066Y-119366292D01*
G37*
G36*
X177230207Y-117663814D02*
G01*
X177292377Y-117743003D01*
X177326837Y-117844422D01*
X177361235Y-117966398D01*
X177390194Y-118059572D01*
X177396046Y-118075962D01*
X177387838Y-118122778D01*
X177316105Y-118135915D01*
X177242205Y-118148537D01*
X177227463Y-118203381D01*
X177233135Y-118240424D01*
X177223437Y-118363069D01*
X177152420Y-118445674D01*
X177058847Y-118469576D01*
X176942964Y-118436417D01*
X176876431Y-118349239D01*
X176867928Y-118294404D01*
X176840902Y-118231449D01*
X176808777Y-118219330D01*
X176710704Y-118235520D01*
X176636670Y-118273674D01*
X176617681Y-118305583D01*
X176651578Y-118369574D01*
X176735859Y-118446297D01*
X176844407Y-118515229D01*
X176929184Y-118550401D01*
X176996573Y-118575340D01*
X176986254Y-118587099D01*
X176972197Y-118587645D01*
X176869329Y-118576417D01*
X176826220Y-118564606D01*
X176669598Y-118479593D01*
X176567353Y-118369407D01*
X176534266Y-118259665D01*
X176548503Y-118172120D01*
X176599889Y-118110685D01*
X176701437Y-118068686D01*
X176866161Y-118039444D01*
X176989074Y-118026317D01*
X177143374Y-118009754D01*
X177232220Y-117991007D01*
X177273412Y-117962691D01*
X177284749Y-117917419D01*
X177285005Y-117903512D01*
X177252099Y-117778505D01*
X177157102Y-117706085D01*
X177005589Y-117690064D01*
X176976939Y-117692932D01*
X176805366Y-117714145D01*
X176980163Y-117669377D01*
X177132564Y-117642518D01*
X177230207Y-117663814D01*
G37*
G36*
X177410128Y-120367278D02*
G01*
X177389274Y-120388131D01*
X177368420Y-120367278D01*
X177389274Y-120346424D01*
X177410128Y-120367278D01*
G37*
G36*
X178140968Y-119815953D02*
G01*
X178269290Y-119870901D01*
X178316506Y-119905475D01*
X178401666Y-119995619D01*
X178474687Y-120103740D01*
X178522351Y-120205542D01*
X178531439Y-120276726D01*
X178524805Y-120288343D01*
X178496670Y-120273641D01*
X178475254Y-120226276D01*
X178428917Y-120149766D01*
X178346176Y-120059161D01*
X178253005Y-119978746D01*
X178175377Y-119932804D01*
X178157667Y-119929347D01*
X178126371Y-119964307D01*
X178119159Y-120012762D01*
X178089814Y-120082770D01*
X178046171Y-120095539D01*
X177930723Y-120065969D01*
X177876600Y-119985390D01*
X177875691Y-119924630D01*
X177922177Y-119843773D01*
X178017933Y-119807228D01*
X178140968Y-119815953D01*
G37*
G36*
X177728338Y-117708347D02*
G01*
X177779534Y-117780708D01*
X177786113Y-117790570D01*
X177840258Y-117896560D01*
X177859554Y-117986374D01*
X177857924Y-117999108D01*
X177840454Y-118040236D01*
X177815610Y-118010348D01*
X177797631Y-117969084D01*
X177752021Y-117844512D01*
X177725820Y-117760545D01*
X177712920Y-117702865D01*
X177728338Y-117708347D01*
G37*
G36*
X177522166Y-118705056D02*
G01*
X177514397Y-118719823D01*
X177475100Y-118759654D01*
X177467767Y-118761530D01*
X177464921Y-118734589D01*
X177472690Y-118719823D01*
X177511987Y-118679992D01*
X177519320Y-118678115D01*
X177522166Y-118705056D01*
G37*
G36*
X178091011Y-119278757D02*
G01*
X178166530Y-119306812D01*
X178282324Y-119366078D01*
X178425051Y-119447875D01*
X178581371Y-119543522D01*
X178737942Y-119644338D01*
X178881423Y-119741642D01*
X178998475Y-119826755D01*
X179075755Y-119890994D01*
X179099923Y-119925679D01*
X179090862Y-119929347D01*
X179034571Y-119906912D01*
X178939296Y-119850029D01*
X178886583Y-119814177D01*
X178635952Y-119642072D01*
X178434948Y-119517927D01*
X178269968Y-119435293D01*
X178127409Y-119387722D01*
X177993668Y-119368766D01*
X177944717Y-119367707D01*
X177746157Y-119390700D01*
X177609889Y-119454594D01*
X177541954Y-119555833D01*
X177535251Y-119608613D01*
X177540936Y-119665241D01*
X177572177Y-119656974D01*
X177611524Y-119623003D01*
X177702848Y-119573469D01*
X177811556Y-119554979D01*
X177901981Y-119570632D01*
X177931179Y-119595207D01*
X177924602Y-119619271D01*
X177895192Y-119612849D01*
X177802150Y-119613197D01*
X177712706Y-119663012D01*
X177662584Y-119739979D01*
X177660374Y-119759521D01*
X177631175Y-119836452D01*
X177598516Y-119860744D01*
X177556836Y-119912944D01*
X177561270Y-119948622D01*
X177577289Y-120010376D01*
X177560805Y-120013453D01*
X177524307Y-119969416D01*
X177480287Y-119889827D01*
X177468196Y-119862464D01*
X177429654Y-119682531D01*
X177463579Y-119523305D01*
X177559770Y-119394346D01*
X177708028Y-119305215D01*
X177898152Y-119265472D01*
X178091011Y-119278757D01*
G37*
G36*
X177702082Y-117614568D02*
G01*
X177681228Y-117635422D01*
X177660374Y-117614568D01*
X177681228Y-117593714D01*
X177702082Y-117614568D01*
G37*
G36*
X177660374Y-117531153D02*
G01*
X177639520Y-117552007D01*
X177618667Y-117531153D01*
X177639520Y-117510299D01*
X177660374Y-117531153D01*
G37*
D11*
X18790000Y-52920000D02*
X49270000Y-52920000D01*
X16250000Y-47840000D02*
X18790000Y-47840000D01*
X18790000Y-47840000D02*
X18790000Y-52920000D01*
X49270000Y-52920000D02*
X49270000Y-35140000D01*
X18790000Y-35140000D02*
X18790000Y-40220000D01*
X16250000Y-40220000D02*
X16250000Y-47840000D01*
X49270000Y-35140000D02*
X18790000Y-35140000D01*
X18790000Y-40220000D02*
X16250000Y-40220000D01*
%LPC*%
D13*
X34925000Y-49212500D03*
D14*
X34925000Y-41592500D03*
D13*
X53975000Y-49212500D03*
D14*
X53975000Y-41592500D03*
D13*
X73025000Y-49212500D03*
D14*
X73025000Y-41592500D03*
D13*
X92075000Y-49212500D03*
D14*
X92075000Y-41592500D03*
D13*
X111125000Y-49212500D03*
D14*
X111125000Y-41592500D03*
D13*
X130175000Y-49212500D03*
D14*
X130175000Y-41592500D03*
D13*
X149225000Y-49212500D03*
D14*
X149225000Y-41592500D03*
D13*
X168275000Y-49212500D03*
D14*
X168275000Y-41592500D03*
D13*
X187325000Y-49212500D03*
D14*
X187325000Y-41592500D03*
D13*
X206375000Y-49212500D03*
D14*
X206375000Y-41592500D03*
D13*
X225425000Y-49212500D03*
D14*
X225425000Y-41592500D03*
D13*
X244475000Y-49212500D03*
D14*
X244475000Y-41592500D03*
D13*
X263525000Y-49212500D03*
D14*
X263525000Y-41592500D03*
D13*
X301625000Y-49212500D03*
D14*
X301625000Y-41592500D03*
D13*
X42068750Y-68262500D03*
D14*
X42068750Y-60642500D03*
D13*
X63500000Y-68262500D03*
D14*
X63500000Y-60642500D03*
D13*
X82550000Y-68262500D03*
D14*
X82550000Y-60642500D03*
D13*
X101600000Y-68262500D03*
D14*
X101600000Y-60642500D03*
D13*
X120650000Y-68262500D03*
D14*
X120650000Y-60642500D03*
D13*
X139700000Y-68262500D03*
D14*
X139700000Y-60642500D03*
D13*
X158750000Y-68262500D03*
D14*
X158750000Y-60642500D03*
D13*
X177800000Y-68262500D03*
D14*
X177800000Y-60642500D03*
D13*
X196850000Y-68262500D03*
D14*
X196850000Y-60642500D03*
D13*
X215900000Y-68262500D03*
D14*
X215900000Y-60642500D03*
D13*
X234950000Y-68262500D03*
D14*
X234950000Y-60642500D03*
D13*
X254000000Y-68262500D03*
D14*
X254000000Y-60642500D03*
D13*
X273050000Y-68262500D03*
D14*
X273050000Y-60642500D03*
D13*
X301625000Y-68262500D03*
D14*
X301625000Y-60642500D03*
D13*
X311150000Y-68262500D03*
D14*
X311150000Y-60642500D03*
D13*
X44450000Y-87312500D03*
D14*
X44450000Y-79692500D03*
D13*
X68262500Y-87312500D03*
D14*
X68262500Y-79692500D03*
D13*
X87312500Y-87312500D03*
D14*
X87312500Y-79692500D03*
D13*
X106362500Y-87312500D03*
D14*
X106362500Y-79692500D03*
D13*
X125412500Y-87312500D03*
D14*
X125412500Y-79692500D03*
D13*
X144462500Y-87312500D03*
D14*
X144462500Y-79692500D03*
D13*
X163512500Y-87312500D03*
D14*
X163512500Y-79692500D03*
D13*
X182562500Y-87312500D03*
D14*
X182562500Y-79692500D03*
D13*
X201612500Y-87312500D03*
D14*
X201612500Y-79692500D03*
D13*
X220662500Y-87312500D03*
D14*
X220662500Y-79692500D03*
D13*
X239712500Y-87312500D03*
D14*
X239712500Y-79692500D03*
D13*
X258762500Y-87312500D03*
D14*
X258762500Y-79692500D03*
D13*
X301625000Y-87312500D03*
D14*
X301625000Y-79692500D03*
D13*
X311150000Y-87312500D03*
D14*
X311150000Y-79692500D03*
D13*
X56356250Y-106362500D03*
D14*
X56356250Y-98742500D03*
D13*
X77787500Y-106362500D03*
D14*
X77787500Y-98742500D03*
D13*
X96837500Y-106362500D03*
D14*
X96837500Y-98742500D03*
D13*
X115887500Y-106362500D03*
D14*
X115887500Y-98742500D03*
D13*
X134937500Y-106362500D03*
D14*
X134937500Y-98742500D03*
D13*
X153987500Y-106362500D03*
D14*
X153987500Y-98742500D03*
D13*
X173037500Y-106362500D03*
D14*
X173037500Y-98742500D03*
D13*
X192087500Y-106362500D03*
D14*
X192087500Y-98742500D03*
D13*
X211137500Y-106362500D03*
D14*
X211137500Y-98742500D03*
D13*
X230187500Y-106362500D03*
D14*
X230187500Y-98742500D03*
D13*
X249237500Y-106362500D03*
D14*
X249237500Y-98742500D03*
D13*
X277812500Y-106362500D03*
D14*
X277812500Y-98742500D03*
D13*
X306387500Y-106362500D03*
D14*
X306387500Y-98742500D03*
D13*
X311150000Y-106362500D03*
D14*
X311150000Y-98742500D03*
D13*
X39687500Y-125412500D03*
D14*
X39687500Y-117792500D03*
D13*
X63500000Y-125412500D03*
D14*
X63500000Y-117792500D03*
D13*
X87312500Y-125412500D03*
D14*
X87312500Y-117792500D03*
D13*
X158750000Y-125412500D03*
D14*
X158750000Y-117792500D03*
D13*
X225425000Y-125412500D03*
D14*
X225425000Y-117792500D03*
D13*
X244475000Y-125412500D03*
D14*
X244475000Y-117792500D03*
D13*
X263525000Y-125412500D03*
D14*
X263525000Y-117792500D03*
D13*
X287337500Y-130175000D03*
D14*
X287337500Y-122555000D03*
D13*
X306387500Y-130175000D03*
D14*
X306387500Y-122555000D03*
D13*
X325437500Y-130175000D03*
D14*
X325437500Y-122555000D03*
D15*
X201612500Y-102393750D03*
D16*
X206692500Y-102393750D03*
X196532500Y-102393750D03*
D15*
X220662500Y-102393750D03*
D16*
X225742500Y-102393750D03*
X215582500Y-102393750D03*
D15*
X215900000Y-45243750D03*
D16*
X220980000Y-45243750D03*
X210820000Y-45243750D03*
X49530000Y-45243750D03*
D15*
X44450000Y-45243750D03*
D16*
X39370000Y-45243750D03*
D15*
X63500000Y-45243750D03*
D16*
X58420000Y-45243750D03*
X68580000Y-45243750D03*
X77470000Y-45243750D03*
X87630000Y-45243750D03*
D15*
X82550000Y-45243750D03*
D16*
X96520000Y-45243750D03*
X106680000Y-45243750D03*
D15*
X101600000Y-45243750D03*
X120650000Y-45243750D03*
D16*
X115570000Y-45243750D03*
X125730000Y-45243750D03*
X134620000Y-45243750D03*
D15*
X139700000Y-45243750D03*
D16*
X144780000Y-45243750D03*
D15*
X158750000Y-45243750D03*
D16*
X163830000Y-45243750D03*
X153670000Y-45243750D03*
X172720000Y-45243750D03*
D15*
X177800000Y-45243750D03*
D16*
X182880000Y-45243750D03*
X191770000Y-45243750D03*
X201930000Y-45243750D03*
D15*
X196850000Y-45243750D03*
D16*
X254317500Y-83343750D03*
X244157500Y-83343750D03*
D15*
X249237500Y-83343750D03*
X234950000Y-45243750D03*
D16*
X229870000Y-45243750D03*
X240030000Y-45243750D03*
X234632500Y-102393750D03*
D15*
X239712500Y-102393750D03*
D16*
X244792500Y-102393750D03*
D15*
X230187500Y-83343750D03*
D16*
X235267500Y-83343750D03*
X225107500Y-83343750D03*
X259080000Y-45243750D03*
D15*
X254000000Y-45243750D03*
D16*
X248920000Y-45243750D03*
X239395000Y-64293750D03*
X249555000Y-64293750D03*
D15*
X244475000Y-64293750D03*
X287337500Y-64293750D03*
D16*
X292417500Y-64293750D03*
X282257500Y-64293750D03*
D15*
X263525000Y-64293750D03*
D16*
X258445000Y-64293750D03*
X268605000Y-64293750D03*
D15*
X58737500Y-83343750D03*
D16*
X63817500Y-83343750D03*
X53657500Y-83343750D03*
X139382500Y-102393750D03*
D15*
X144462500Y-102393750D03*
D16*
X149542500Y-102393750D03*
D17*
X294481250Y-38258750D03*
D16*
X277495000Y-45243750D03*
D17*
X270668750Y-38258750D03*
D15*
X282575000Y-45243750D03*
X270668750Y-53498750D03*
D16*
X287655000Y-45243750D03*
D15*
X294481250Y-53498750D03*
D16*
X111442500Y-102393750D03*
X101282500Y-102393750D03*
D15*
X106362500Y-102393750D03*
D16*
X37623750Y-83343750D03*
D15*
X32543750Y-83343750D03*
D16*
X27463750Y-83343750D03*
X101917500Y-83343750D03*
X91757500Y-83343750D03*
D15*
X96837500Y-83343750D03*
D16*
X315595000Y-64293750D03*
X325755000Y-64293750D03*
D15*
X320675000Y-64293750D03*
X296862500Y-126206250D03*
D16*
X301942500Y-126206250D03*
X291782500Y-126206250D03*
X97155000Y-64293750D03*
X86995000Y-64293750D03*
D15*
X92075000Y-64293750D03*
X320675000Y-102393750D03*
D16*
X325755000Y-102393750D03*
X315595000Y-102393750D03*
D15*
X280193750Y-83343750D03*
X292100000Y-91598750D03*
D16*
X285273750Y-83343750D03*
D17*
X268287500Y-76358750D03*
D16*
X275113750Y-83343750D03*
D17*
X292100000Y-76358750D03*
D15*
X268287500Y-91598750D03*
X25400000Y-45243750D03*
D16*
X20320000Y-45243750D03*
X30480000Y-45243750D03*
X110807500Y-83343750D03*
D15*
X115887500Y-83343750D03*
D16*
X120967500Y-83343750D03*
X229870000Y-121443750D03*
D15*
X234950000Y-121443750D03*
D16*
X240030000Y-121443750D03*
X140017500Y-83343750D03*
D15*
X134937500Y-83343750D03*
D16*
X129857500Y-83343750D03*
X159067500Y-83343750D03*
X148907500Y-83343750D03*
D15*
X153987500Y-83343750D03*
D16*
X325755000Y-83343750D03*
X315595000Y-83343750D03*
D15*
X320675000Y-83343750D03*
D16*
X182245000Y-64293750D03*
X192405000Y-64293750D03*
D15*
X187325000Y-64293750D03*
D16*
X167957500Y-83343750D03*
X178117500Y-83343750D03*
D15*
X173037500Y-83343750D03*
X192087500Y-83343750D03*
D16*
X197167500Y-83343750D03*
X187007500Y-83343750D03*
X216217500Y-83343750D03*
D15*
X211137500Y-83343750D03*
D16*
X206057500Y-83343750D03*
X70326250Y-121443750D03*
D15*
X75406250Y-121443750D03*
D16*
X80486250Y-121443750D03*
X32861250Y-121443750D03*
X22701250Y-121443750D03*
D15*
X27781250Y-121443750D03*
D16*
X272732500Y-126206250D03*
X282892500Y-126206250D03*
D15*
X277812500Y-126206250D03*
D16*
X32226250Y-102393750D03*
D15*
X25400000Y-110648750D03*
D17*
X49212500Y-95408750D03*
D16*
X42386250Y-102393750D03*
D15*
X37306250Y-102393750D03*
D17*
X25400000Y-95408750D03*
D15*
X49212500Y-110648750D03*
X182562500Y-102393750D03*
D16*
X177482500Y-102393750D03*
X187642500Y-102393750D03*
X158432500Y-102393750D03*
D15*
X163512500Y-102393750D03*
D16*
X168592500Y-102393750D03*
D15*
X206375000Y-64293750D03*
D16*
X201295000Y-64293750D03*
X211455000Y-64293750D03*
D15*
X225425000Y-64293750D03*
D16*
X220345000Y-64293750D03*
X230505000Y-64293750D03*
X48895000Y-64293750D03*
D15*
X53975000Y-64293750D03*
D16*
X59055000Y-64293750D03*
X116205000Y-64293750D03*
D15*
X111125000Y-64293750D03*
D16*
X106045000Y-64293750D03*
X210820000Y-121443750D03*
X220980000Y-121443750D03*
D15*
X215900000Y-121443750D03*
X254000000Y-121443750D03*
D16*
X248920000Y-121443750D03*
X259080000Y-121443750D03*
X310832500Y-126206250D03*
D15*
X315912500Y-126206250D03*
D16*
X320992500Y-126206250D03*
X260826250Y-102393750D03*
D15*
X265906250Y-102393750D03*
D16*
X270986250Y-102393750D03*
D15*
X77787500Y-83343750D03*
D16*
X82867500Y-83343750D03*
X72707500Y-83343750D03*
D15*
X96843850Y-113188750D03*
D17*
X96843850Y-128428750D03*
D16*
X141763750Y-121443750D03*
D15*
X196843650Y-113188750D03*
D17*
X196843650Y-128428750D03*
D16*
X151923750Y-121443750D03*
D15*
X146843750Y-121443750D03*
X130175000Y-64293750D03*
D16*
X135255000Y-64293750D03*
X125095000Y-64293750D03*
D15*
X30162500Y-64293750D03*
D16*
X25082500Y-64293750D03*
X35242500Y-64293750D03*
X173355000Y-64293750D03*
D15*
X168275000Y-64293750D03*
D16*
X163195000Y-64293750D03*
X301942500Y-107156250D03*
D15*
X296862500Y-107156250D03*
D16*
X291782500Y-107156250D03*
X130492500Y-102393750D03*
D15*
X125412500Y-102393750D03*
D16*
X120332500Y-102393750D03*
D15*
X73025000Y-64293750D03*
D16*
X67945000Y-64293750D03*
X78105000Y-64293750D03*
X46513750Y-121443750D03*
D15*
X51593750Y-121443750D03*
D16*
X56673750Y-121443750D03*
X82232500Y-102393750D03*
X92392500Y-102393750D03*
D15*
X87312500Y-102393750D03*
D16*
X154305000Y-64293750D03*
X144145000Y-64293750D03*
D15*
X149225000Y-64293750D03*
D16*
X63182500Y-102393750D03*
X73342500Y-102393750D03*
D15*
X68262500Y-102393750D03*
D18*
X318008000Y-47752000D03*
D19*
X323008000Y-47752000D03*
X320508000Y-47752000D03*
D20*
X326108000Y-40252000D03*
X314908000Y-40252000D03*
D19*
X323008000Y-33252000D03*
X318008000Y-33252000D03*
D21*
X18250000Y-20090000D03*
X18250000Y-22630000D03*
X18250000Y-25170000D03*
X18250000Y-27710000D03*
D19*
X51780000Y-19900000D03*
X58280000Y-19900000D03*
X51780000Y-24400000D03*
X58280000Y-24400000D03*
D13*
X20060000Y-36410000D03*
D22*
X22600000Y-36410000D03*
X25140000Y-36410000D03*
X27680000Y-36410000D03*
X30220000Y-36410000D03*
X32760000Y-36410000D03*
X35300000Y-36410000D03*
X37840000Y-36410000D03*
X40380000Y-36410000D03*
X42920000Y-36410000D03*
X45460000Y-36410000D03*
X48000000Y-36410000D03*
X48000000Y-51650000D03*
X45460000Y-51650000D03*
X42920000Y-51650000D03*
X40380000Y-51650000D03*
X37840000Y-51650000D03*
X35300000Y-51650000D03*
X32760000Y-51650000D03*
X30220000Y-51650000D03*
X27680000Y-51650000D03*
X25140000Y-51650000D03*
X22600000Y-51650000D03*
X20060000Y-51650000D03*
M02*
