%TF.GenerationSoftware,KiCad,Pcbnew,(6.0.8)*%
%TF.CreationDate,2023-10-10T00:17:19-07:00*%
%TF.ProjectId,CMKC65_R1,434d4b43-3635-45f5-9231-2e6b69636164,rev?*%
%TF.SameCoordinates,Original*%
%TF.FileFunction,Copper,L2,Bot*%
%TF.FilePolarity,Positive*%
%FSLAX46Y46*%
G04 Gerber Fmt 4.6, Leading zero omitted, Abs format (unit mm)*
G04 Created by KiCad (PCBNEW (6.0.8)) date 2023-10-10 00:17:19*
%MOMM*%
%LPD*%
G01*
G04 APERTURE LIST*
%TA.AperFunction,ComponentPad*%
%ADD10R,1.600000X1.600000*%
%TD*%
%TA.AperFunction,ComponentPad*%
%ADD11O,1.600000X1.600000*%
%TD*%
%TA.AperFunction,ComponentPad*%
%ADD12C,2.250000*%
%TD*%
%TA.AperFunction,ComponentPad*%
%ADD13R,2.000000X2.000000*%
%TD*%
%TA.AperFunction,ComponentPad*%
%ADD14C,2.000000*%
%TD*%
%TA.AperFunction,ComponentPad*%
%ADD15R,2.000000X3.200000*%
%TD*%
%TA.AperFunction,ComponentPad*%
%ADD16C,1.524000*%
%TD*%
%TA.AperFunction,SMDPad,CuDef*%
%ADD17R,0.600000X2.000000*%
%TD*%
%TA.AperFunction,ComponentPad*%
%ADD18C,1.600000*%
%TD*%
%TA.AperFunction,ViaPad*%
%ADD19C,0.800000*%
%TD*%
%TA.AperFunction,Conductor*%
%ADD20C,0.254000*%
%TD*%
%TA.AperFunction,Conductor*%
%ADD21C,0.381000*%
%TD*%
G04 APERTURE END LIST*
D10*
X34925000Y-49212500D03*
D11*
X34925000Y-41592500D03*
D10*
X53975000Y-49212500D03*
D11*
X53975000Y-41592500D03*
D10*
X73025000Y-49212500D03*
D11*
X73025000Y-41592500D03*
D10*
X92075000Y-49212500D03*
D11*
X92075000Y-41592500D03*
D10*
X111125000Y-49212500D03*
D11*
X111125000Y-41592500D03*
D10*
X130175000Y-49212500D03*
D11*
X130175000Y-41592500D03*
D10*
X149225000Y-49212500D03*
D11*
X149225000Y-41592500D03*
D10*
X168275000Y-49212500D03*
D11*
X168275000Y-41592500D03*
D10*
X187325000Y-49212500D03*
D11*
X187325000Y-41592500D03*
D10*
X206375000Y-49212500D03*
D11*
X206375000Y-41592500D03*
D10*
X225425000Y-49212500D03*
D11*
X225425000Y-41592500D03*
D10*
X244475000Y-49212500D03*
D11*
X244475000Y-41592500D03*
D10*
X263525000Y-49212500D03*
D11*
X263525000Y-41592500D03*
D10*
X301625000Y-49212500D03*
D11*
X301625000Y-41592500D03*
D10*
X42068750Y-68262500D03*
D11*
X42068750Y-60642500D03*
D10*
X63500000Y-68262500D03*
D11*
X63500000Y-60642500D03*
D10*
X82550000Y-68262500D03*
D11*
X82550000Y-60642500D03*
D10*
X101600000Y-68262500D03*
D11*
X101600000Y-60642500D03*
D10*
X120650000Y-68262500D03*
D11*
X120650000Y-60642500D03*
D10*
X139700000Y-68262500D03*
D11*
X139700000Y-60642500D03*
D10*
X158750000Y-68262500D03*
D11*
X158750000Y-60642500D03*
D10*
X177800000Y-68262500D03*
D11*
X177800000Y-60642500D03*
D10*
X196850000Y-68262500D03*
D11*
X196850000Y-60642500D03*
D10*
X215900000Y-68262500D03*
D11*
X215900000Y-60642500D03*
D10*
X234950000Y-68262500D03*
D11*
X234950000Y-60642500D03*
D10*
X254000000Y-68262500D03*
D11*
X254000000Y-60642500D03*
D10*
X273050000Y-68262500D03*
D11*
X273050000Y-60642500D03*
D10*
X301625000Y-68262500D03*
D11*
X301625000Y-60642500D03*
D10*
X311150000Y-68262500D03*
D11*
X311150000Y-60642500D03*
D10*
X44450000Y-87312500D03*
D11*
X44450000Y-79692500D03*
D10*
X68262500Y-87312500D03*
D11*
X68262500Y-79692500D03*
D10*
X87312500Y-87312500D03*
D11*
X87312500Y-79692500D03*
D10*
X106362500Y-87312500D03*
D11*
X106362500Y-79692500D03*
D10*
X125412500Y-87312500D03*
D11*
X125412500Y-79692500D03*
D10*
X144462500Y-87312500D03*
D11*
X144462500Y-79692500D03*
D10*
X163512500Y-87312500D03*
D11*
X163512500Y-79692500D03*
D10*
X182562500Y-87312500D03*
D11*
X182562500Y-79692500D03*
D10*
X201612500Y-87312500D03*
D11*
X201612500Y-79692500D03*
D10*
X220662500Y-87312500D03*
D11*
X220662500Y-79692500D03*
D10*
X239712500Y-87312500D03*
D11*
X239712500Y-79692500D03*
D10*
X258762500Y-87312500D03*
D11*
X258762500Y-79692500D03*
D10*
X301625000Y-87312500D03*
D11*
X301625000Y-79692500D03*
D10*
X311150000Y-87312500D03*
D11*
X311150000Y-79692500D03*
D10*
X56356250Y-106362500D03*
D11*
X56356250Y-98742500D03*
D10*
X77787500Y-106362500D03*
D11*
X77787500Y-98742500D03*
D10*
X96837500Y-106362500D03*
D11*
X96837500Y-98742500D03*
D10*
X115887500Y-106362500D03*
D11*
X115887500Y-98742500D03*
D10*
X134937500Y-106362500D03*
D11*
X134937500Y-98742500D03*
D10*
X153987500Y-106362500D03*
D11*
X153987500Y-98742500D03*
D10*
X173037500Y-106362500D03*
D11*
X173037500Y-98742500D03*
D10*
X192087500Y-106362500D03*
D11*
X192087500Y-98742500D03*
D10*
X211137500Y-106362500D03*
D11*
X211137500Y-98742500D03*
D10*
X230187500Y-106362500D03*
D11*
X230187500Y-98742500D03*
D10*
X249237500Y-106362500D03*
D11*
X249237500Y-98742500D03*
D10*
X277812500Y-106362500D03*
D11*
X277812500Y-98742500D03*
D10*
X306387500Y-106362500D03*
D11*
X306387500Y-98742500D03*
D10*
X311150000Y-106362500D03*
D11*
X311150000Y-98742500D03*
D10*
X39687500Y-125412500D03*
D11*
X39687500Y-117792500D03*
D10*
X63500000Y-125412500D03*
D11*
X63500000Y-117792500D03*
D10*
X87312500Y-125412500D03*
D11*
X87312500Y-117792500D03*
D10*
X158750000Y-125412500D03*
D11*
X158750000Y-117792500D03*
D10*
X225425000Y-125412500D03*
D11*
X225425000Y-117792500D03*
D10*
X244475000Y-125412500D03*
D11*
X244475000Y-117792500D03*
D10*
X263525000Y-125412500D03*
D11*
X263525000Y-117792500D03*
D10*
X287337500Y-130175000D03*
D11*
X287337500Y-122555000D03*
D10*
X306387500Y-130175000D03*
D11*
X306387500Y-122555000D03*
D10*
X325437500Y-130175000D03*
D11*
X325437500Y-122555000D03*
D12*
X197802500Y-99853750D03*
X204152500Y-97313750D03*
X216852500Y-99853750D03*
X223202500Y-97313750D03*
X212090000Y-42703750D03*
X218440000Y-40163750D03*
X40640000Y-42703750D03*
X46990000Y-40163750D03*
X59690000Y-42703750D03*
X66040000Y-40163750D03*
X78740000Y-42703750D03*
X85090000Y-40163750D03*
X97790000Y-42703750D03*
X104140000Y-40163750D03*
X116840000Y-42703750D03*
X123190000Y-40163750D03*
X135890000Y-42703750D03*
X142240000Y-40163750D03*
X154940000Y-42703750D03*
X161290000Y-40163750D03*
X173990000Y-42703750D03*
X180340000Y-40163750D03*
X193040000Y-42703750D03*
X199390000Y-40163750D03*
X245427500Y-80803750D03*
X251777500Y-78263750D03*
X231140000Y-42703750D03*
X237490000Y-40163750D03*
X235902500Y-99853750D03*
X242252500Y-97313750D03*
X226377500Y-80803750D03*
X232727500Y-78263750D03*
X250190000Y-42703750D03*
X256540000Y-40163750D03*
X240665000Y-61753750D03*
X247015000Y-59213750D03*
X283527500Y-61753750D03*
X289877500Y-59213750D03*
X259715000Y-61753750D03*
X266065000Y-59213750D03*
X54927500Y-80803750D03*
X61277500Y-78263750D03*
X140652500Y-99853750D03*
X147002500Y-97313750D03*
X278765000Y-42703750D03*
X285115000Y-40163750D03*
X102552500Y-99853750D03*
X108902500Y-97313750D03*
X28733750Y-80803750D03*
X35083750Y-78263750D03*
X93027500Y-80803750D03*
X99377500Y-78263750D03*
X316865000Y-61753750D03*
X323215000Y-59213750D03*
X293052500Y-123666250D03*
X299402500Y-121126250D03*
X88265000Y-61753750D03*
X94615000Y-59213750D03*
X316865000Y-99853750D03*
X323215000Y-97313750D03*
X276383750Y-80803750D03*
X282733750Y-78263750D03*
X21590000Y-42703750D03*
X27940000Y-40163750D03*
X112077500Y-80803750D03*
X118427500Y-78263750D03*
X231140000Y-118903750D03*
X237490000Y-116363750D03*
X131127500Y-80803750D03*
X137477500Y-78263750D03*
X150177500Y-80803750D03*
X156527500Y-78263750D03*
X316865000Y-80803750D03*
X323215000Y-78263750D03*
X183515000Y-61753750D03*
X189865000Y-59213750D03*
X169227500Y-80803750D03*
X175577500Y-78263750D03*
X188277500Y-80803750D03*
X194627500Y-78263750D03*
X207327500Y-80803750D03*
X213677500Y-78263750D03*
X71596250Y-118903750D03*
X77946250Y-116363750D03*
X23971250Y-118903750D03*
X30321250Y-116363750D03*
X274002500Y-123666250D03*
X280352500Y-121126250D03*
X33496250Y-99853750D03*
X39846250Y-97313750D03*
X178752500Y-99853750D03*
X185102500Y-97313750D03*
X159702500Y-99853750D03*
X166052500Y-97313750D03*
X202565000Y-61753750D03*
X208915000Y-59213750D03*
X221615000Y-61753750D03*
X227965000Y-59213750D03*
X50165000Y-61753750D03*
X56515000Y-59213750D03*
X107315000Y-61753750D03*
X113665000Y-59213750D03*
X212090000Y-118903750D03*
X218440000Y-116363750D03*
X250190000Y-118903750D03*
X256540000Y-116363750D03*
X312102500Y-123666250D03*
X318452500Y-121126250D03*
X262096250Y-99853750D03*
X268446250Y-97313750D03*
X73977500Y-80803750D03*
X80327500Y-78263750D03*
X143033750Y-118903750D03*
X149383750Y-116363750D03*
X126365000Y-61753750D03*
X132715000Y-59213750D03*
X26352500Y-61753750D03*
X32702500Y-59213750D03*
X164465000Y-61753750D03*
X170815000Y-59213750D03*
X293052500Y-104616250D03*
X299402500Y-102076250D03*
X121602500Y-99853750D03*
X127952500Y-97313750D03*
X69215000Y-61753750D03*
X75565000Y-59213750D03*
X47783750Y-118903750D03*
X54133750Y-116363750D03*
X83502500Y-99853750D03*
X89852500Y-97313750D03*
X145415000Y-61753750D03*
X151765000Y-59213750D03*
X64452500Y-99853750D03*
X70802500Y-97313750D03*
D13*
X318008000Y-47752000D03*
D14*
X323008000Y-47752000D03*
X320508000Y-47752000D03*
D15*
X326108000Y-40252000D03*
X314908000Y-40252000D03*
D14*
X323008000Y-33252000D03*
X318008000Y-33252000D03*
D16*
X18250000Y-20090000D03*
X18250000Y-22630000D03*
X18250000Y-25170000D03*
X18250000Y-27710000D03*
D14*
X51780000Y-19900000D03*
X58280000Y-19900000D03*
X51780000Y-24400000D03*
X58280000Y-24400000D03*
D17*
X34163000Y-19812000D03*
X35433000Y-19812000D03*
X36703000Y-19812000D03*
X37973000Y-19812000D03*
X39243000Y-19812000D03*
X40513000Y-19812000D03*
X41783000Y-19812000D03*
X43053000Y-19812000D03*
X44323000Y-19812000D03*
X45593000Y-19812000D03*
X46863000Y-19812000D03*
X48133000Y-19812000D03*
X48133000Y-29212000D03*
X46863000Y-29212000D03*
X45593000Y-29212000D03*
X44323000Y-29212000D03*
X43053000Y-29212000D03*
X41783000Y-29212000D03*
X40513000Y-29212000D03*
X39243000Y-29212000D03*
X37973000Y-29212000D03*
X36703000Y-29212000D03*
X35433000Y-29212000D03*
X34163000Y-29212000D03*
D10*
X20060000Y-36410000D03*
D18*
X22600000Y-36410000D03*
X25140000Y-36410000D03*
X27680000Y-36410000D03*
X30220000Y-36410000D03*
X32760000Y-36410000D03*
X35300000Y-36410000D03*
X37840000Y-36410000D03*
X40380000Y-36410000D03*
X42920000Y-36410000D03*
X45460000Y-36410000D03*
X48000000Y-36410000D03*
X48000000Y-51650000D03*
X45460000Y-51650000D03*
X42920000Y-51650000D03*
X40380000Y-51650000D03*
X37840000Y-51650000D03*
X35300000Y-51650000D03*
X32760000Y-51650000D03*
X30220000Y-51650000D03*
X27680000Y-51650000D03*
X25140000Y-51650000D03*
X22600000Y-51650000D03*
X20060000Y-51650000D03*
D19*
X41668134Y-31229866D03*
X173863000Y-36137970D03*
X42799000Y-31238960D03*
X192913000Y-36137970D03*
X39370000Y-30988000D03*
X211836000Y-37045990D03*
X45593000Y-25415959D03*
X59690000Y-27153370D03*
X42968999Y-25869969D03*
X78740000Y-32052380D03*
X97663000Y-32505890D03*
X41783000Y-26323979D03*
X116586000Y-32959900D03*
X40513000Y-26777989D03*
X39243000Y-27231999D03*
X135763000Y-33413910D03*
X37973000Y-27559000D03*
X154813000Y-33867920D03*
X231013000Y-37045990D03*
X40519067Y-31108933D03*
X250063000Y-36137970D03*
X50673000Y-29845000D03*
X49276000Y-30330940D03*
X278638000Y-34305980D03*
X309499000Y-34759990D03*
X44422999Y-30784950D03*
X70612000Y-31597870D03*
X46941767Y-17592633D03*
X70739000Y-54737000D03*
X51770000Y-53900000D03*
X24765000Y-25146000D03*
X35438714Y-24861286D03*
X34160000Y-24610000D03*
X48000000Y-56870000D03*
X17440000Y-57050000D03*
X18380000Y-55840000D03*
X47010000Y-55840000D03*
D20*
X32760000Y-49590000D02*
X33150000Y-49200000D01*
X32760000Y-51650000D02*
X32760000Y-49590000D01*
X33162500Y-49212500D02*
X34925000Y-49212500D01*
X33150000Y-49200000D02*
X33162500Y-49212500D01*
X35300000Y-55700000D02*
X39060000Y-59460000D01*
X39682500Y-68262500D02*
X42068750Y-68262500D01*
X39060000Y-67640000D02*
X39682500Y-68262500D01*
X35300000Y-51650000D02*
X35300000Y-55700000D01*
X39060000Y-59460000D02*
X39060000Y-67640000D01*
X46030000Y-61330000D02*
X46030000Y-85732500D01*
X46030000Y-85732500D02*
X44450000Y-87312500D01*
X37840000Y-51650000D02*
X37840000Y-53140000D01*
X37840000Y-53140000D02*
X46030000Y-61330000D01*
X46880000Y-60540000D02*
X46880000Y-89640000D01*
X54622500Y-106362500D02*
X56356250Y-106362500D01*
X40380000Y-54040000D02*
X46880000Y-60540000D01*
X52420000Y-95180000D02*
X52420000Y-104160000D01*
X46880000Y-89640000D02*
X52420000Y-95180000D01*
X40380000Y-51650000D02*
X40380000Y-54040000D01*
X52420000Y-104160000D02*
X54622500Y-106362500D01*
X67860000Y-122920000D02*
X65367500Y-125412500D01*
X51690000Y-58000000D02*
X57150000Y-63460000D01*
X61880000Y-92360000D02*
X70980000Y-101460000D01*
X57150000Y-77460000D02*
X61880000Y-82190000D01*
X65367500Y-125412500D02*
X63500000Y-125412500D01*
X70980000Y-101460000D02*
X70980000Y-115830000D01*
X67860000Y-118950000D02*
X67860000Y-122920000D01*
X42920000Y-51650000D02*
X42920000Y-53230000D01*
X61880000Y-82190000D02*
X61880000Y-92360000D01*
X47690000Y-58000000D02*
X51690000Y-58000000D01*
X70980000Y-115830000D02*
X67860000Y-118950000D01*
X42920000Y-53230000D02*
X47690000Y-58000000D01*
X57150000Y-63460000D02*
X57150000Y-77460000D01*
X41783000Y-29212000D02*
X41783000Y-31115000D01*
X197802500Y-99853750D02*
X197802500Y-104616250D01*
X188277500Y-80803750D02*
X188277500Y-90328750D01*
X173863000Y-36137970D02*
X173863000Y-42576750D01*
X197802500Y-104616250D02*
X212090000Y-118903750D01*
X173990000Y-52228750D02*
X183515000Y-61753750D01*
X183515000Y-76041250D02*
X188277500Y-80803750D01*
X183515000Y-61753750D02*
X183515000Y-76041250D01*
X173990000Y-42703750D02*
X173990000Y-52228750D01*
X173863000Y-42576750D02*
X173990000Y-42703750D01*
X41783000Y-31115000D02*
X41668134Y-31229866D01*
X188277500Y-90328750D02*
X197802500Y-99853750D01*
X216852500Y-104616250D02*
X231140000Y-118903750D01*
X207327500Y-90328750D02*
X216852500Y-99853750D01*
X43053000Y-29212000D02*
X43053000Y-30984960D01*
X202565000Y-76041250D02*
X207327500Y-80803750D01*
X207327500Y-80803750D02*
X207327500Y-90328750D01*
X193040000Y-42703750D02*
X193040000Y-52228750D01*
X193040000Y-52228750D02*
X202565000Y-61753750D01*
X43053000Y-30984960D02*
X42799000Y-31238960D01*
X192913000Y-42576750D02*
X193040000Y-42703750D01*
X192913000Y-36137970D02*
X192913000Y-42576750D01*
X216852500Y-99853750D02*
X216852500Y-104616250D01*
X202565000Y-61753750D02*
X202565000Y-76041250D01*
X211836000Y-42449750D02*
X212090000Y-42703750D01*
X212090000Y-52228750D02*
X221615000Y-61753750D01*
X226377500Y-90328750D02*
X235902500Y-99853750D01*
X221615000Y-76041250D02*
X226377500Y-80803750D01*
X226377500Y-80803750D02*
X226377500Y-90328750D01*
X221615000Y-61753750D02*
X221615000Y-76041250D01*
X211836000Y-37045990D02*
X211836000Y-42449750D01*
X235902500Y-99853750D02*
X235902500Y-104616250D01*
X235902500Y-104616250D02*
X250190000Y-118903750D01*
X39243000Y-29212000D02*
X39243000Y-30861000D01*
X212090000Y-42703750D02*
X212090000Y-52228750D01*
X39243000Y-30861000D02*
X39370000Y-30988000D01*
X41630000Y-48020000D02*
X41630000Y-54160000D01*
X40640000Y-47030000D02*
X41630000Y-48020000D01*
X50165000Y-76041250D02*
X54991000Y-80867250D01*
X44323000Y-19812000D02*
X44323000Y-21777000D01*
X54927500Y-80803750D02*
X54927500Y-90328750D01*
X64452500Y-99853750D02*
X64452500Y-103314500D01*
X49223750Y-61753750D02*
X50165000Y-61753750D01*
X54927500Y-90328750D02*
X64452500Y-99853750D01*
X41630000Y-54160000D02*
X49223750Y-61753750D01*
X44323000Y-21777000D02*
X43695999Y-22404001D01*
X41670000Y-40200000D02*
X40640000Y-41230000D01*
X40640000Y-42703750D02*
X40640000Y-47030000D01*
X43695999Y-22404001D02*
X43695999Y-32914001D01*
X48863250Y-118903750D02*
X47783750Y-118903750D01*
X64452500Y-103314500D02*
X48863250Y-118903750D01*
X40640000Y-41230000D02*
X40640000Y-42703750D01*
X41670000Y-34940000D02*
X41670000Y-40200000D01*
X43695999Y-32914001D02*
X41670000Y-34940000D01*
X50165000Y-61753750D02*
X50165000Y-76041250D01*
X69215000Y-61753750D02*
X69215000Y-76041250D01*
X73977500Y-90328750D02*
X83502500Y-99853750D01*
X73977500Y-80803750D02*
X73977500Y-90328750D01*
X59690000Y-27153370D02*
X59690000Y-42703750D01*
X59690000Y-42703750D02*
X59690000Y-52228750D01*
X59690000Y-52228750D02*
X69215000Y-61753750D01*
X45593000Y-19812000D02*
X45593000Y-25415959D01*
X83502500Y-99853750D02*
X83502500Y-106997500D01*
X69215000Y-76041250D02*
X73977500Y-80803750D01*
X83502500Y-106997500D02*
X71596250Y-118903750D01*
X43053000Y-19812000D02*
X43053000Y-25785968D01*
X78740000Y-32052380D02*
X78740000Y-42703750D01*
X94152499Y-91453749D02*
X102552500Y-99853750D01*
X78740000Y-42703750D02*
X78740000Y-52228750D01*
X88265000Y-61753750D02*
X88265000Y-76041250D01*
X94152499Y-81928749D02*
X94152499Y-91453749D01*
X43053000Y-25785968D02*
X42968999Y-25869969D01*
X88265000Y-76041250D02*
X93027500Y-80803750D01*
X78740000Y-52228750D02*
X88265000Y-61753750D01*
X93027500Y-80803750D02*
X94152499Y-81928749D01*
X97663000Y-32505890D02*
X97663000Y-42576750D01*
X107315000Y-61753750D02*
X107315000Y-76041250D01*
X112077500Y-90328750D02*
X121602500Y-99853750D01*
X97790000Y-42703750D02*
X97790000Y-52228750D01*
X112077500Y-80803750D02*
X112077500Y-90328750D01*
X97790000Y-52228750D02*
X107315000Y-61753750D01*
X41783000Y-19812000D02*
X41783000Y-26323979D01*
X107315000Y-76041250D02*
X112077500Y-80803750D01*
X97663000Y-42576750D02*
X97790000Y-42703750D01*
X126365000Y-61753750D02*
X126365000Y-76041250D01*
X116840000Y-42703750D02*
X116840000Y-52228750D01*
X140652500Y-99853750D02*
X140652500Y-116522500D01*
X140652500Y-116522500D02*
X143033750Y-118903750D01*
X131127500Y-90328750D02*
X140652500Y-99853750D01*
X116586000Y-32959900D02*
X116586000Y-42449750D01*
X131127500Y-80803750D02*
X131127500Y-90328750D01*
X116840000Y-52228750D02*
X126365000Y-61753750D01*
X40513000Y-19812000D02*
X40513000Y-26777989D01*
X116586000Y-42449750D02*
X116840000Y-42703750D01*
X126365000Y-76041250D02*
X131127500Y-80803750D01*
X145415000Y-61753750D02*
X145415000Y-76041250D01*
X150177500Y-80803750D02*
X150177500Y-90328750D01*
X39243000Y-19812000D02*
X39243000Y-27231999D01*
X135763000Y-33413910D02*
X135763000Y-42576750D01*
X135890000Y-42703750D02*
X135890000Y-52228750D01*
X145415000Y-76041250D02*
X150177500Y-80803750D01*
X135763000Y-42576750D02*
X135890000Y-42703750D01*
X135890000Y-52228750D02*
X145415000Y-61753750D01*
X150177500Y-90328750D02*
X159702500Y-99853750D01*
X169227500Y-80803750D02*
X169227500Y-90328750D01*
X154940000Y-42703750D02*
X154940000Y-52228750D01*
X164465000Y-76041250D02*
X169227500Y-80803750D01*
X154940000Y-52228750D02*
X164465000Y-61753750D01*
X164465000Y-61753750D02*
X164465000Y-76041250D01*
X169227500Y-90328750D02*
X178752500Y-99853750D01*
X154813000Y-42576750D02*
X154940000Y-42703750D01*
X154813000Y-33867920D02*
X154813000Y-42576750D01*
X37973000Y-19812000D02*
X37973000Y-27559000D01*
X40513000Y-31102866D02*
X40519067Y-31108933D01*
X245427500Y-80803750D02*
X245427500Y-83185000D01*
X240665000Y-61753750D02*
X240665000Y-76041250D01*
X231140000Y-52228750D02*
X240665000Y-61753750D01*
X231140000Y-42703750D02*
X231140000Y-52228750D01*
X231013000Y-42576750D02*
X231140000Y-42703750D01*
X40513000Y-29212000D02*
X40513000Y-31102866D01*
X262096250Y-99853750D02*
X262096250Y-111760000D01*
X240665000Y-76041250D02*
X245427500Y-80803750D01*
X262096250Y-111760000D02*
X274002500Y-123666250D01*
X231013000Y-37045990D02*
X231013000Y-42576750D01*
X245427500Y-83185000D02*
X262096250Y-99853750D01*
X47490001Y-27884999D02*
X48712999Y-27884999D01*
X250190000Y-42703750D02*
X250190000Y-52228750D01*
X250063000Y-36137970D02*
X250063000Y-42576750D01*
X48712999Y-27884999D02*
X50673000Y-29845000D01*
X250190000Y-52228750D02*
X259715000Y-61753750D01*
X250063000Y-42576750D02*
X250190000Y-42703750D01*
X46863000Y-28512000D02*
X47490001Y-27884999D01*
X46863000Y-29212000D02*
X46863000Y-28512000D01*
X276383750Y-87947500D02*
X293052500Y-104616250D01*
X283527500Y-61753750D02*
X283527500Y-73660000D01*
X48157060Y-29212000D02*
X49276000Y-30330940D01*
X278638000Y-34305980D02*
X278638000Y-42576750D01*
X293052500Y-123666250D02*
X293052500Y-104616250D01*
X48133000Y-29212000D02*
X48157060Y-29212000D01*
X283527500Y-73660000D02*
X276383750Y-80803750D01*
X276383750Y-80803750D02*
X276383750Y-87947500D01*
X278638000Y-42576750D02*
X278765000Y-42703750D01*
X278765000Y-56991250D02*
X283527500Y-61753750D01*
X278765000Y-42703750D02*
X278765000Y-56991250D01*
X33496250Y-99853750D02*
X33496250Y-109378750D01*
X21270000Y-47800000D02*
X21270000Y-56671250D01*
X28733750Y-80803750D02*
X28733750Y-95091250D01*
X21590000Y-42703750D02*
X21590000Y-47480000D01*
X21330000Y-42443750D02*
X21590000Y-42703750D01*
X46863000Y-19812000D02*
X46863000Y-18883000D01*
X33496250Y-109378750D02*
X23971250Y-118903750D01*
X21590000Y-47480000D02*
X21270000Y-47800000D01*
X22810000Y-17990000D02*
X21330000Y-19470000D01*
X21330000Y-19470000D02*
X21330000Y-42443750D01*
X21270000Y-56671250D02*
X26352500Y-61753750D01*
X26352500Y-61753750D02*
X26352500Y-78422500D01*
X26352500Y-78422500D02*
X28733750Y-80803750D01*
X28733750Y-95091250D02*
X33496250Y-99853750D01*
X46863000Y-18883000D02*
X45970000Y-17990000D01*
X45970000Y-17990000D02*
X22810000Y-17990000D01*
X316865000Y-61753750D02*
X316865000Y-118903750D01*
X309499000Y-54387750D02*
X316865000Y-61753750D01*
X44323000Y-29212000D02*
X44323000Y-30684951D01*
X309499000Y-34759990D02*
X309499000Y-54387750D01*
X316865000Y-118903750D02*
X312102500Y-123666250D01*
X44323000Y-30684951D02*
X44422999Y-30784950D01*
D21*
X320508000Y-47752000D02*
X320508000Y-35752000D01*
X70612000Y-31597870D02*
X70612000Y-54610000D01*
X70612000Y-54610000D02*
X70739000Y-54737000D01*
X46941767Y-17592633D02*
X48133000Y-18783866D01*
X320508000Y-35752000D02*
X318008000Y-33252000D01*
X48133000Y-18783866D02*
X48133000Y-19812000D01*
D20*
X57960000Y-24080000D02*
X55880000Y-26160000D01*
X54980000Y-53900000D02*
X51770000Y-53900000D01*
X55880000Y-26160000D02*
X55880000Y-53000000D01*
X55880000Y-53000000D02*
X54980000Y-53900000D01*
D21*
X27860000Y-51470000D02*
X27680000Y-51650000D01*
X27510000Y-33920000D02*
X26370000Y-35060000D01*
X27510000Y-29020000D02*
X27702000Y-29212000D01*
X27702000Y-29212000D02*
X34163000Y-29212000D01*
X27510000Y-29020000D02*
X27510000Y-33920000D01*
X24765000Y-25146000D02*
X24765000Y-26275000D01*
X27860000Y-44090000D02*
X27860000Y-51470000D01*
X26370000Y-38870000D02*
X25870000Y-39370000D01*
X25870000Y-42100000D02*
X27860000Y-44090000D01*
X25870000Y-39370000D02*
X25870000Y-42100000D01*
X24765000Y-26275000D02*
X27510000Y-29020000D01*
X26370000Y-35060000D02*
X26370000Y-38870000D01*
D20*
X35433000Y-29212000D02*
X35433000Y-30527000D01*
X32050000Y-47250000D02*
X30220000Y-49080000D01*
X31540000Y-34420000D02*
X31540000Y-43020000D01*
X31540000Y-43020000D02*
X32050000Y-43530000D01*
X35433000Y-30527000D02*
X31540000Y-34420000D01*
X30220000Y-49080000D02*
X30220000Y-51650000D01*
X32050000Y-43530000D02*
X32050000Y-47250000D01*
X36703000Y-29212000D02*
X36703000Y-31069053D01*
X36703000Y-31069053D02*
X32760000Y-35012053D01*
X32760000Y-35012053D02*
X32760000Y-36410000D01*
X37973000Y-32017000D02*
X35300000Y-34690000D01*
X37973000Y-29212000D02*
X37973000Y-32017000D01*
X35300000Y-34690000D02*
X35300000Y-36410000D01*
X34790000Y-30360000D02*
X30490000Y-34660000D01*
X30490000Y-34660000D02*
X30480000Y-34660000D01*
X34790000Y-27770000D02*
X34790000Y-30360000D01*
X30220000Y-34920000D02*
X30220000Y-36410000D01*
X30480000Y-34660000D02*
X30220000Y-34920000D01*
X36703000Y-19812000D02*
X36703000Y-25857000D01*
X36703000Y-25857000D02*
X34790000Y-27770000D01*
X35433000Y-24855572D02*
X35433000Y-19812000D01*
X35438714Y-24861286D02*
X35433000Y-24855572D01*
X34163000Y-19812000D02*
X34163000Y-24607000D01*
X34163000Y-24607000D02*
X34160000Y-24610000D01*
X17440000Y-34020000D02*
X17440000Y-57050000D01*
X17350000Y-33930000D02*
X17440000Y-34020000D01*
X18250000Y-22630000D02*
X19730000Y-24110000D01*
X19730000Y-31550000D02*
X17350000Y-33930000D01*
X19730000Y-24110000D02*
X19730000Y-31550000D01*
X48000000Y-51650000D02*
X48000000Y-56870000D01*
X45460000Y-53490000D02*
X47010000Y-55040000D01*
X18370000Y-55820000D02*
X18370000Y-55830000D01*
X18370000Y-55830000D02*
X18380000Y-55840000D01*
X45460000Y-51650000D02*
X45460000Y-53490000D01*
X20490000Y-22330000D02*
X20490000Y-32220000D01*
X18370000Y-34340000D02*
X18370000Y-55820000D01*
X47010000Y-55040000D02*
X47010000Y-55840000D01*
X20490000Y-32220000D02*
X18370000Y-34340000D01*
X18250000Y-20090000D02*
X20490000Y-22330000D01*
M02*
