M48
; DRILL file {KiCad (6.0.8)} date Tue Oct 10 00:18:54 2023
; FORMAT={-:-/ absolute / metric / decimal}
; #@! TF.CreationDate,2023-10-10T00:18:54-07:00
; #@! TF.GenerationSoftware,Kicad,Pcbnew,(6.0.8)
; #@! TF.FileFunction,MixedPlating,1,2
FMAT,2
METRIC
; #@! TA.AperFunction,Plated,PTH,ViaDrill
T1C0.400
; #@! TA.AperFunction,Plated,PTH,ComponentDrill
T2C0.762
; #@! TA.AperFunction,Plated,PTH,ComponentDrill
T3C0.800
; #@! TA.AperFunction,Plated,PTH,ComponentDrill
T4C1.000
; #@! TA.AperFunction,Plated,PTH,ComponentDrill
T5C1.100
; #@! TA.AperFunction,Plated,PTH,ComponentDrill
T6C1.470
; #@! TA.AperFunction,Plated,PTH,ComponentDrill
T7C1.500
; #@! TA.AperFunction,NonPlated,NPTH,ComponentDrill
T8C1.750
; #@! TA.AperFunction,NonPlated,NPTH,ComponentDrill
T9C3.048
; #@! TA.AperFunction,NonPlated,NPTH,ComponentDrill
T10C3.988
%
G90
G05
T1
X17.44Y-57.05
X18.38Y-55.84
X24.765Y-25.146
X34.16Y-24.61
X35.439Y-24.861
X37.973Y-27.559
X39.243Y-27.232
X39.37Y-30.988
X40.513Y-26.778
X40.519Y-31.109
X41.668Y-31.23
X41.783Y-26.324
X42.799Y-31.239
X42.969Y-25.87
X44.423Y-30.785
X45.593Y-25.416
X46.942Y-17.593
X47.01Y-55.84
X48.0Y-56.87
X49.276Y-30.331
X50.673Y-29.845
X51.77Y-53.9
X59.69Y-27.153
X70.612Y-31.598
X70.739Y-54.737
X78.74Y-32.052
X97.663Y-32.506
X116.586Y-32.96
X135.763Y-33.414
X154.813Y-33.868
X173.863Y-36.138
X192.913Y-36.138
X211.836Y-37.046
X231.013Y-37.046
X250.063Y-36.138
X278.638Y-34.306
X309.499Y-34.76
T2
X18.25Y-20.09
X18.25Y-22.63
X18.25Y-25.17
X18.25Y-27.71
T3
X34.925Y-41.593
X34.925Y-49.212
X39.688Y-117.792
X39.688Y-125.412
X42.069Y-60.642
X42.069Y-68.263
X44.45Y-79.692
X44.45Y-87.312
X53.975Y-41.593
X53.975Y-49.212
X56.356Y-98.742
X56.356Y-106.362
X63.5Y-60.642
X63.5Y-68.263
X63.5Y-117.792
X63.5Y-125.412
X68.263Y-79.692
X68.263Y-87.312
X73.025Y-41.593
X73.025Y-49.212
X77.787Y-98.742
X77.787Y-106.362
X82.55Y-60.642
X82.55Y-68.263
X87.312Y-79.692
X87.312Y-87.312
X87.312Y-117.792
X87.312Y-125.412
X92.075Y-41.593
X92.075Y-49.212
X96.837Y-98.742
X96.837Y-106.362
X101.6Y-60.642
X101.6Y-68.263
X106.362Y-79.692
X106.362Y-87.312
X111.125Y-41.593
X111.125Y-49.212
X115.887Y-98.742
X115.887Y-106.362
X120.65Y-60.642
X120.65Y-68.263
X125.412Y-79.692
X125.412Y-87.312
X130.175Y-41.593
X130.175Y-49.212
X134.938Y-98.742
X134.938Y-106.362
X139.7Y-60.642
X139.7Y-68.263
X144.463Y-79.692
X144.463Y-87.312
X149.225Y-41.593
X149.225Y-49.212
X153.987Y-98.742
X153.987Y-106.362
X158.75Y-60.642
X158.75Y-68.263
X158.75Y-117.792
X158.75Y-125.412
X163.512Y-79.692
X163.512Y-87.312
X168.275Y-41.593
X168.275Y-49.212
X173.037Y-98.742
X173.037Y-106.362
X177.8Y-60.642
X177.8Y-68.263
X182.562Y-79.692
X182.562Y-87.312
X187.325Y-41.593
X187.325Y-49.212
X192.087Y-98.742
X192.087Y-106.362
X196.85Y-60.642
X196.85Y-68.263
X201.612Y-79.692
X201.612Y-87.312
X206.375Y-41.593
X206.375Y-49.212
X211.137Y-98.742
X211.137Y-106.362
X215.9Y-60.642
X215.9Y-68.263
X220.662Y-79.692
X220.662Y-87.312
X225.425Y-41.593
X225.425Y-49.212
X225.425Y-117.792
X225.425Y-125.412
X230.188Y-98.742
X230.188Y-106.362
X234.95Y-60.642
X234.95Y-68.263
X239.712Y-79.692
X239.712Y-87.312
X244.475Y-41.593
X244.475Y-49.212
X244.475Y-117.792
X244.475Y-125.412
X249.237Y-98.742
X249.237Y-106.362
X254.0Y-60.642
X254.0Y-68.263
X258.762Y-79.692
X258.762Y-87.312
X263.525Y-41.593
X263.525Y-49.212
X263.525Y-117.792
X263.525Y-125.412
X273.05Y-60.642
X273.05Y-68.263
X277.812Y-98.742
X277.812Y-106.362
X287.337Y-122.555
X287.337Y-130.175
X301.625Y-41.593
X301.625Y-49.212
X301.625Y-60.642
X301.625Y-68.263
X301.625Y-79.692
X301.625Y-87.312
X306.387Y-98.742
X306.387Y-106.362
X306.387Y-122.555
X306.387Y-130.175
X311.15Y-60.642
X311.15Y-68.263
X311.15Y-79.692
X311.15Y-87.312
X311.15Y-98.742
X311.15Y-106.362
X325.438Y-122.555
X325.438Y-130.175
T4
X318.008Y-33.252
X318.008Y-47.752
X320.508Y-47.752
X323.008Y-33.252
X323.008Y-47.752
T5
X20.06Y-36.41
X20.06Y-51.65
X22.6Y-36.41
X22.6Y-51.65
X25.14Y-36.41
X25.14Y-51.65
X27.68Y-36.41
X27.68Y-51.65
X30.22Y-36.41
X30.22Y-51.65
X32.76Y-36.41
X32.76Y-51.65
X35.3Y-36.41
X35.3Y-51.65
X37.84Y-36.41
X37.84Y-51.65
X40.38Y-36.41
X40.38Y-51.65
X42.92Y-36.41
X42.92Y-51.65
X45.46Y-36.41
X45.46Y-51.65
X48.0Y-36.41
X48.0Y-51.65
X51.78Y-19.9
X51.78Y-24.4
X58.28Y-19.9
X58.28Y-24.4
T6
X21.59Y-42.704
X23.971Y-118.904
X26.352Y-61.754
X27.94Y-40.164
X28.734Y-80.804
X30.321Y-116.364
X32.703Y-59.214
X33.496Y-99.854
X35.084Y-78.264
X39.846Y-97.314
X40.64Y-42.704
X46.99Y-40.164
X47.784Y-118.904
X50.165Y-61.754
X54.134Y-116.364
X54.927Y-80.804
X56.515Y-59.214
X59.69Y-42.704
X61.277Y-78.264
X64.453Y-99.854
X66.04Y-40.164
X69.215Y-61.754
X70.802Y-97.314
X71.596Y-118.904
X73.977Y-80.804
X75.565Y-59.214
X77.946Y-116.364
X78.74Y-42.704
X80.328Y-78.264
X83.502Y-99.854
X85.09Y-40.164
X88.265Y-61.754
X89.852Y-97.314
X93.027Y-80.804
X94.615Y-59.214
X97.79Y-42.704
X99.377Y-78.264
X102.552Y-99.854
X104.14Y-40.164
X107.315Y-61.754
X108.902Y-97.314
X112.078Y-80.804
X113.665Y-59.214
X116.84Y-42.704
X118.427Y-78.264
X121.602Y-99.854
X123.19Y-40.164
X126.365Y-61.754
X127.953Y-97.314
X131.127Y-80.804
X132.715Y-59.214
X135.89Y-42.704
X137.477Y-78.264
X140.653Y-99.854
X142.24Y-40.164
X143.034Y-118.904
X145.415Y-61.754
X147.002Y-97.314
X149.384Y-116.364
X150.177Y-80.804
X151.765Y-59.214
X154.94Y-42.704
X156.528Y-78.264
X159.702Y-99.854
X161.29Y-40.164
X164.465Y-61.754
X166.052Y-97.314
X169.227Y-80.804
X170.815Y-59.214
X173.99Y-42.704
X175.577Y-78.264
X178.752Y-99.854
X180.34Y-40.164
X183.515Y-61.754
X185.102Y-97.314
X188.278Y-80.804
X189.865Y-59.214
X193.04Y-42.704
X194.627Y-78.264
X197.802Y-99.854
X199.39Y-40.164
X202.565Y-61.754
X204.153Y-97.314
X207.327Y-80.804
X208.915Y-59.214
X212.09Y-42.704
X212.09Y-118.904
X213.677Y-78.264
X216.852Y-99.854
X218.44Y-40.164
X218.44Y-116.364
X221.615Y-61.754
X223.202Y-97.314
X226.377Y-80.804
X227.965Y-59.214
X231.14Y-42.704
X231.14Y-118.904
X232.727Y-78.264
X235.903Y-99.854
X237.49Y-40.164
X237.49Y-116.364
X240.665Y-61.754
X242.252Y-97.314
X245.427Y-80.804
X247.015Y-59.214
X250.19Y-42.704
X250.19Y-118.904
X251.777Y-78.264
X256.54Y-40.164
X256.54Y-116.364
X259.715Y-61.754
X262.096Y-99.854
X266.065Y-59.214
X268.446Y-97.314
X274.002Y-123.666
X276.384Y-80.804
X278.765Y-42.704
X280.352Y-121.126
X282.734Y-78.264
X283.527Y-61.754
X285.115Y-40.164
X289.877Y-59.214
X293.053Y-104.616
X293.053Y-123.666
X299.402Y-102.076
X299.402Y-121.126
X312.102Y-123.666
X316.865Y-61.754
X316.865Y-80.804
X316.865Y-99.854
X318.452Y-121.126
X323.215Y-59.214
X323.215Y-78.264
X323.215Y-97.314
T8
X20.32Y-45.244
X22.701Y-121.444
X25.082Y-64.294
X27.464Y-83.344
X30.48Y-45.244
X32.226Y-102.394
X32.861Y-121.444
X35.242Y-64.294
X37.624Y-83.344
X39.37Y-45.244
X42.386Y-102.394
X46.514Y-121.444
X48.895Y-64.294
X49.53Y-45.244
X53.657Y-83.344
X56.674Y-121.444
X58.42Y-45.244
X59.055Y-64.294
X63.182Y-102.394
X63.817Y-83.344
X67.945Y-64.294
X68.58Y-45.244
X70.326Y-121.444
X72.707Y-83.344
X73.343Y-102.394
X77.47Y-45.244
X78.105Y-64.294
X80.486Y-121.444
X82.233Y-102.394
X82.867Y-83.344
X86.995Y-64.294
X87.63Y-45.244
X91.757Y-83.344
X92.392Y-102.394
X96.52Y-45.244
X97.155Y-64.294
X101.282Y-102.394
X101.917Y-83.344
X106.045Y-64.294
X106.68Y-45.244
X110.807Y-83.344
X111.442Y-102.394
X115.57Y-45.244
X116.205Y-64.294
X120.332Y-102.394
X120.968Y-83.344
X125.095Y-64.294
X125.73Y-45.244
X129.857Y-83.344
X130.493Y-102.394
X134.62Y-45.244
X135.255Y-64.294
X139.382Y-102.394
X140.017Y-83.344
X141.764Y-121.444
X144.145Y-64.294
X144.78Y-45.244
X148.907Y-83.344
X149.542Y-102.394
X151.924Y-121.444
X153.67Y-45.244
X154.305Y-64.294
X158.433Y-102.394
X159.067Y-83.344
X163.195Y-64.294
X163.83Y-45.244
X167.957Y-83.344
X168.593Y-102.394
X172.72Y-45.244
X173.355Y-64.294
X177.482Y-102.394
X178.117Y-83.344
X182.245Y-64.294
X182.88Y-45.244
X187.007Y-83.344
X187.642Y-102.394
X191.77Y-45.244
X192.405Y-64.294
X196.532Y-102.394
X197.167Y-83.344
X201.295Y-64.294
X201.93Y-45.244
X206.058Y-83.344
X206.692Y-102.394
X210.82Y-45.244
X210.82Y-121.444
X211.455Y-64.294
X215.582Y-102.394
X216.218Y-83.344
X220.345Y-64.294
X220.98Y-45.244
X220.98Y-121.444
X225.107Y-83.344
X225.742Y-102.394
X229.87Y-45.244
X229.87Y-121.444
X230.505Y-64.294
X234.632Y-102.394
X235.267Y-83.344
X239.395Y-64.294
X240.03Y-45.244
X240.03Y-121.444
X244.157Y-83.344
X244.792Y-102.394
X248.92Y-45.244
X248.92Y-121.444
X249.555Y-64.294
X254.317Y-83.344
X258.445Y-64.294
X259.08Y-45.244
X259.08Y-121.444
X260.826Y-102.394
X268.605Y-64.294
X270.986Y-102.394
X272.733Y-126.206
X275.114Y-83.344
X277.495Y-45.244
X282.257Y-64.294
X282.892Y-126.206
X285.274Y-83.344
X287.655Y-45.244
X291.782Y-107.156
X291.782Y-126.206
X292.417Y-64.294
X301.942Y-107.156
X301.942Y-126.206
X310.832Y-126.206
X315.595Y-64.294
X315.595Y-83.344
X315.595Y-102.394
X320.993Y-126.206
X325.755Y-64.294
X325.755Y-83.344
X325.755Y-102.394
T9
X25.4Y-95.409
X49.212Y-95.409
X96.844Y-128.429
X196.844Y-128.429
X268.287Y-76.359
X270.669Y-38.259
X292.1Y-76.359
X294.481Y-38.259
T10
X25.4Y-45.244
X25.4Y-110.649
X27.781Y-121.444
X30.162Y-64.294
X32.544Y-83.344
X37.306Y-102.394
X44.45Y-45.244
X49.212Y-110.649
X51.594Y-121.444
X53.975Y-64.294
X58.737Y-83.344
X63.5Y-45.244
X68.263Y-102.394
X73.025Y-64.294
X75.406Y-121.444
X77.787Y-83.344
X82.55Y-45.244
X87.312Y-102.394
X92.075Y-64.294
X96.837Y-83.344
X96.844Y-113.189
X101.6Y-45.244
X106.362Y-102.394
X111.125Y-64.294
X115.887Y-83.344
X120.65Y-45.244
X125.412Y-102.394
X130.175Y-64.294
X134.938Y-83.344
X139.7Y-45.244
X144.463Y-102.394
X146.844Y-121.444
X149.225Y-64.294
X153.987Y-83.344
X158.75Y-45.244
X163.512Y-102.394
X168.275Y-64.294
X173.037Y-83.344
X177.8Y-45.244
X182.562Y-102.394
X187.325Y-64.294
X192.087Y-83.344
X196.844Y-113.189
X196.85Y-45.244
X201.612Y-102.394
X206.375Y-64.294
X211.137Y-83.344
X215.9Y-45.244
X215.9Y-121.444
X220.662Y-102.394
X225.425Y-64.294
X230.188Y-83.344
X234.95Y-45.244
X234.95Y-121.444
X239.712Y-102.394
X244.475Y-64.294
X249.237Y-83.344
X254.0Y-45.244
X254.0Y-121.444
X263.525Y-64.294
X265.906Y-102.394
X268.287Y-91.599
X270.669Y-53.499
X277.812Y-126.206
X280.194Y-83.344
X282.575Y-45.244
X287.337Y-64.294
X292.1Y-91.599
X294.481Y-53.499
X296.863Y-107.156
X296.863Y-126.206
X315.912Y-126.206
X320.675Y-64.294
X320.675Y-83.344
X320.675Y-102.394
T7
X314.908Y-40.902G85X314.908Y-39.602
G05
X326.108Y-40.902G85X326.108Y-39.602
G05
T0
M30
