%TF.GenerationSoftware,KiCad,Pcbnew,(6.0.8)*%
%TF.CreationDate,2023-10-10T00:17:19-07:00*%
%TF.ProjectId,CMKC65_R1,434d4b43-3635-45f5-9231-2e6b69636164,rev?*%
%TF.SameCoordinates,Original*%
%TF.FileFunction,Legend,Bot*%
%TF.FilePolarity,Positive*%
%FSLAX46Y46*%
G04 Gerber Fmt 4.6, Leading zero omitted, Abs format (unit mm)*
G04 Created by KiCad (PCBNEW (6.0.8)) date 2023-10-10 00:17:19*
%MOMM*%
%LPD*%
G01*
G04 APERTURE LIST*
%ADD10C,0.300000*%
%ADD11C,0.150000*%
%ADD12C,0.120000*%
%ADD13R,1.600000X1.600000*%
%ADD14C,1.600000*%
%ADD15O,1.600000X1.600000*%
%ADD16C,3.987800*%
%ADD17C,1.750000*%
%ADD18C,2.250000*%
%ADD19C,3.048000*%
%ADD20R,2.000000X2.000000*%
%ADD21C,2.000000*%
%ADD22R,2.000000X3.200000*%
%ADD23C,1.524000*%
%ADD24R,0.600000X2.000000*%
G04 APERTURE END LIST*
D10*
X56672857Y-31955714D02*
X56601428Y-32027142D01*
X56387142Y-32098571D01*
X56244285Y-32098571D01*
X56030000Y-32027142D01*
X55887142Y-31884285D01*
X55815714Y-31741428D01*
X55744285Y-31455714D01*
X55744285Y-31241428D01*
X55815714Y-30955714D01*
X55887142Y-30812857D01*
X56030000Y-30670000D01*
X56244285Y-30598571D01*
X56387142Y-30598571D01*
X56601428Y-30670000D01*
X56672857Y-30741428D01*
X57315714Y-32098571D02*
X57315714Y-30598571D01*
X57815714Y-31670000D01*
X58315714Y-30598571D01*
X58315714Y-32098571D01*
X59030000Y-32098571D02*
X59030000Y-30598571D01*
X59887142Y-32098571D02*
X59244285Y-31241428D01*
X59887142Y-30598571D02*
X59030000Y-31455714D01*
X61387142Y-31955714D02*
X61315714Y-32027142D01*
X61101428Y-32098571D01*
X60958571Y-32098571D01*
X60744285Y-32027142D01*
X60601428Y-31884285D01*
X60530000Y-31741428D01*
X60458571Y-31455714D01*
X60458571Y-31241428D01*
X60530000Y-30955714D01*
X60601428Y-30812857D01*
X60744285Y-30670000D01*
X60958571Y-30598571D01*
X61101428Y-30598571D01*
X61315714Y-30670000D01*
X61387142Y-30741428D01*
X62030000Y-31527142D02*
X63172857Y-31527142D01*
X64530000Y-30598571D02*
X64244285Y-30598571D01*
X64101428Y-30670000D01*
X64030000Y-30741428D01*
X63887142Y-30955714D01*
X63815714Y-31241428D01*
X63815714Y-31812857D01*
X63887142Y-31955714D01*
X63958571Y-32027142D01*
X64101428Y-32098571D01*
X64387142Y-32098571D01*
X64530000Y-32027142D01*
X64601428Y-31955714D01*
X64672857Y-31812857D01*
X64672857Y-31455714D01*
X64601428Y-31312857D01*
X64530000Y-31241428D01*
X64387142Y-31170000D01*
X64101428Y-31170000D01*
X63958571Y-31241428D01*
X63887142Y-31312857D01*
X63815714Y-31455714D01*
X66030000Y-30598571D02*
X65315714Y-30598571D01*
X65244285Y-31312857D01*
X65315714Y-31241428D01*
X65458571Y-31170000D01*
X65815714Y-31170000D01*
X65958571Y-31241428D01*
X66030000Y-31312857D01*
X66101428Y-31455714D01*
X66101428Y-31812857D01*
X66030000Y-31955714D01*
X65958571Y-32027142D01*
X65815714Y-32098571D01*
X65458571Y-32098571D01*
X65315714Y-32027142D01*
X65244285Y-31955714D01*
X66672857Y-32098571D02*
X67815714Y-30598571D01*
X66887142Y-30598571D02*
X67030000Y-30670000D01*
X67101428Y-30812857D01*
X67030000Y-30955714D01*
X66887142Y-31027142D01*
X66744285Y-30955714D01*
X66672857Y-30812857D01*
X66744285Y-30670000D01*
X66887142Y-30598571D01*
X67744285Y-32027142D02*
X67815714Y-31884285D01*
X67744285Y-31741428D01*
X67601428Y-31670000D01*
X67458571Y-31741428D01*
X67387142Y-31884285D01*
X67458571Y-32027142D01*
X67601428Y-32098571D01*
X67744285Y-32027142D01*
X52892857Y-27478571D02*
X52392857Y-26764285D01*
X52035714Y-27478571D02*
X52035714Y-25978571D01*
X52607142Y-25978571D01*
X52750000Y-26050000D01*
X52821428Y-26121428D01*
X52892857Y-26264285D01*
X52892857Y-26478571D01*
X52821428Y-26621428D01*
X52750000Y-26692857D01*
X52607142Y-26764285D01*
X52035714Y-26764285D01*
X54107142Y-27407142D02*
X53964285Y-27478571D01*
X53678571Y-27478571D01*
X53535714Y-27407142D01*
X53464285Y-27264285D01*
X53464285Y-26692857D01*
X53535714Y-26550000D01*
X53678571Y-26478571D01*
X53964285Y-26478571D01*
X54107142Y-26550000D01*
X54178571Y-26692857D01*
X54178571Y-26835714D01*
X53464285Y-26978571D01*
X54750000Y-27407142D02*
X54892857Y-27478571D01*
X55178571Y-27478571D01*
X55321428Y-27407142D01*
X55392857Y-27264285D01*
X55392857Y-27192857D01*
X55321428Y-27050000D01*
X55178571Y-26978571D01*
X54964285Y-26978571D01*
X54821428Y-26907142D01*
X54750000Y-26764285D01*
X54750000Y-26692857D01*
X54821428Y-26550000D01*
X54964285Y-26478571D01*
X55178571Y-26478571D01*
X55321428Y-26550000D01*
X56607142Y-27407142D02*
X56464285Y-27478571D01*
X56178571Y-27478571D01*
X56035714Y-27407142D01*
X55964285Y-27264285D01*
X55964285Y-26692857D01*
X56035714Y-26550000D01*
X56178571Y-26478571D01*
X56464285Y-26478571D01*
X56607142Y-26550000D01*
X56678571Y-26692857D01*
X56678571Y-26835714D01*
X55964285Y-26978571D01*
X57107142Y-26478571D02*
X57678571Y-26478571D01*
X57321428Y-25978571D02*
X57321428Y-27264285D01*
X57392857Y-27407142D01*
X57535714Y-27478571D01*
X57678571Y-27478571D01*
X53307142Y-16850000D02*
X53164285Y-16778571D01*
X52950000Y-16778571D01*
X52735714Y-16850000D01*
X52592857Y-16992857D01*
X52521428Y-17135714D01*
X52450000Y-17421428D01*
X52450000Y-17635714D01*
X52521428Y-17921428D01*
X52592857Y-18064285D01*
X52735714Y-18207142D01*
X52950000Y-18278571D01*
X53092857Y-18278571D01*
X53307142Y-18207142D01*
X53378571Y-18135714D01*
X53378571Y-17635714D01*
X53092857Y-17635714D01*
X54021428Y-18278571D02*
X54021428Y-16778571D01*
X54878571Y-18278571D01*
X54878571Y-16778571D01*
X55592857Y-18278571D02*
X55592857Y-16778571D01*
X55950000Y-16778571D01*
X56164285Y-16850000D01*
X56307142Y-16992857D01*
X56378571Y-17135714D01*
X56450000Y-17421428D01*
X56450000Y-17635714D01*
X56378571Y-17921428D01*
X56307142Y-18064285D01*
X56164285Y-18207142D01*
X55950000Y-18278571D01*
X55592857Y-18278571D01*
D11*
X56373333Y-22534761D02*
X56230476Y-22582380D01*
X55992380Y-22582380D01*
X55897142Y-22534761D01*
X55849523Y-22487142D01*
X55801904Y-22391904D01*
X55801904Y-22296666D01*
X55849523Y-22201428D01*
X55897142Y-22153809D01*
X55992380Y-22106190D01*
X56182857Y-22058571D01*
X56278095Y-22010952D01*
X56325714Y-21963333D01*
X56373333Y-21868095D01*
X56373333Y-21772857D01*
X56325714Y-21677619D01*
X56278095Y-21630000D01*
X56182857Y-21582380D01*
X55944761Y-21582380D01*
X55801904Y-21630000D01*
X55468571Y-21582380D02*
X55230476Y-22582380D01*
X55040000Y-21868095D01*
X54849523Y-22582380D01*
X54611428Y-21582380D01*
X54278095Y-21677619D02*
X54230476Y-21630000D01*
X54135238Y-21582380D01*
X53897142Y-21582380D01*
X53801904Y-21630000D01*
X53754285Y-21677619D01*
X53706666Y-21772857D01*
X53706666Y-21868095D01*
X53754285Y-22010952D01*
X54325714Y-22582380D01*
X53706666Y-22582380D01*
X31800380Y-23750095D02*
X32609904Y-23750095D01*
X32705142Y-23797714D01*
X32752761Y-23845333D01*
X32800380Y-23940571D01*
X32800380Y-24131047D01*
X32752761Y-24226285D01*
X32705142Y-24273904D01*
X32609904Y-24321523D01*
X31800380Y-24321523D01*
X31895619Y-24750095D02*
X31848000Y-24797714D01*
X31800380Y-24892952D01*
X31800380Y-25131047D01*
X31848000Y-25226285D01*
X31895619Y-25273904D01*
X31990857Y-25321523D01*
X32086095Y-25321523D01*
X32228952Y-25273904D01*
X32800380Y-24702476D01*
X32800380Y-25321523D01*
D12*
X52780000Y-18900000D02*
X57280000Y-18900000D01*
X58530000Y-21400000D02*
X58530000Y-22900000D01*
X57280000Y-25400000D02*
X52780000Y-25400000D01*
X51530000Y-22900000D02*
X51530000Y-21400000D01*
D11*
X33548000Y-20637000D02*
X33548000Y-18812000D01*
X33273000Y-20637000D02*
X33273000Y-28387000D01*
X49023000Y-28387000D02*
X48658000Y-28387000D01*
X33273000Y-28387000D02*
X33638000Y-28387000D01*
X49023000Y-20637000D02*
X49023000Y-28387000D01*
X49023000Y-20637000D02*
X48658000Y-20637000D01*
X33273000Y-20637000D02*
X33548000Y-20637000D01*
X49270000Y-52920000D02*
X49270000Y-35140000D01*
X18790000Y-47840000D02*
X18790000Y-52920000D01*
X16250000Y-47840000D02*
X18790000Y-47840000D01*
X16250000Y-40220000D02*
X16250000Y-47840000D01*
X18790000Y-40220000D02*
X16250000Y-40220000D01*
X18790000Y-35140000D02*
X18790000Y-40220000D01*
X18790000Y-35140000D02*
X49270000Y-35140000D01*
X18790000Y-52920000D02*
X49270000Y-52920000D01*
D13*
X20060000Y-36410000D03*
D14*
X22600000Y-36410000D03*
X25140000Y-36410000D03*
X27680000Y-36410000D03*
X30220000Y-36410000D03*
X32760000Y-36410000D03*
X35300000Y-36410000D03*
X37840000Y-36410000D03*
X40380000Y-36410000D03*
X42920000Y-36410000D03*
X45460000Y-36410000D03*
X48000000Y-36410000D03*
X48000000Y-51650000D03*
X45460000Y-51650000D03*
X42920000Y-51650000D03*
X40380000Y-51650000D03*
X37840000Y-51650000D03*
X35300000Y-51650000D03*
X32760000Y-51650000D03*
X30220000Y-51650000D03*
X27680000Y-51650000D03*
X25140000Y-51650000D03*
X22600000Y-51650000D03*
X20060000Y-51650000D03*
%LPC*%
D13*
X34925000Y-49212500D03*
D15*
X34925000Y-41592500D03*
D13*
X53975000Y-49212500D03*
D15*
X53975000Y-41592500D03*
D13*
X73025000Y-49212500D03*
D15*
X73025000Y-41592500D03*
D13*
X92075000Y-49212500D03*
D15*
X92075000Y-41592500D03*
D13*
X111125000Y-49212500D03*
D15*
X111125000Y-41592500D03*
D13*
X130175000Y-49212500D03*
D15*
X130175000Y-41592500D03*
D13*
X149225000Y-49212500D03*
D15*
X149225000Y-41592500D03*
D13*
X168275000Y-49212500D03*
D15*
X168275000Y-41592500D03*
D13*
X187325000Y-49212500D03*
D15*
X187325000Y-41592500D03*
D13*
X206375000Y-49212500D03*
D15*
X206375000Y-41592500D03*
D13*
X225425000Y-49212500D03*
D15*
X225425000Y-41592500D03*
D13*
X244475000Y-49212500D03*
D15*
X244475000Y-41592500D03*
D13*
X263525000Y-49212500D03*
D15*
X263525000Y-41592500D03*
D13*
X301625000Y-49212500D03*
D15*
X301625000Y-41592500D03*
D13*
X42068750Y-68262500D03*
D15*
X42068750Y-60642500D03*
D13*
X63500000Y-68262500D03*
D15*
X63500000Y-60642500D03*
D13*
X82550000Y-68262500D03*
D15*
X82550000Y-60642500D03*
D13*
X101600000Y-68262500D03*
D15*
X101600000Y-60642500D03*
D13*
X120650000Y-68262500D03*
D15*
X120650000Y-60642500D03*
D13*
X139700000Y-68262500D03*
D15*
X139700000Y-60642500D03*
D13*
X158750000Y-68262500D03*
D15*
X158750000Y-60642500D03*
D13*
X177800000Y-68262500D03*
D15*
X177800000Y-60642500D03*
D13*
X196850000Y-68262500D03*
D15*
X196850000Y-60642500D03*
D13*
X215900000Y-68262500D03*
D15*
X215900000Y-60642500D03*
D13*
X234950000Y-68262500D03*
D15*
X234950000Y-60642500D03*
D13*
X254000000Y-68262500D03*
D15*
X254000000Y-60642500D03*
D13*
X273050000Y-68262500D03*
D15*
X273050000Y-60642500D03*
D13*
X301625000Y-68262500D03*
D15*
X301625000Y-60642500D03*
D13*
X311150000Y-68262500D03*
D15*
X311150000Y-60642500D03*
D13*
X44450000Y-87312500D03*
D15*
X44450000Y-79692500D03*
D13*
X68262500Y-87312500D03*
D15*
X68262500Y-79692500D03*
D13*
X87312500Y-87312500D03*
D15*
X87312500Y-79692500D03*
D13*
X106362500Y-87312500D03*
D15*
X106362500Y-79692500D03*
D13*
X125412500Y-87312500D03*
D15*
X125412500Y-79692500D03*
D13*
X144462500Y-87312500D03*
D15*
X144462500Y-79692500D03*
D13*
X163512500Y-87312500D03*
D15*
X163512500Y-79692500D03*
D13*
X182562500Y-87312500D03*
D15*
X182562500Y-79692500D03*
D13*
X201612500Y-87312500D03*
D15*
X201612500Y-79692500D03*
D13*
X220662500Y-87312500D03*
D15*
X220662500Y-79692500D03*
D13*
X239712500Y-87312500D03*
D15*
X239712500Y-79692500D03*
D13*
X258762500Y-87312500D03*
D15*
X258762500Y-79692500D03*
D13*
X301625000Y-87312500D03*
D15*
X301625000Y-79692500D03*
D13*
X311150000Y-87312500D03*
D15*
X311150000Y-79692500D03*
D13*
X56356250Y-106362500D03*
D15*
X56356250Y-98742500D03*
D13*
X77787500Y-106362500D03*
D15*
X77787500Y-98742500D03*
D13*
X96837500Y-106362500D03*
D15*
X96837500Y-98742500D03*
D13*
X115887500Y-106362500D03*
D15*
X115887500Y-98742500D03*
D13*
X134937500Y-106362500D03*
D15*
X134937500Y-98742500D03*
D13*
X153987500Y-106362500D03*
D15*
X153987500Y-98742500D03*
D13*
X173037500Y-106362500D03*
D15*
X173037500Y-98742500D03*
D13*
X192087500Y-106362500D03*
D15*
X192087500Y-98742500D03*
D13*
X211137500Y-106362500D03*
D15*
X211137500Y-98742500D03*
D13*
X230187500Y-106362500D03*
D15*
X230187500Y-98742500D03*
D13*
X249237500Y-106362500D03*
D15*
X249237500Y-98742500D03*
D13*
X277812500Y-106362500D03*
D15*
X277812500Y-98742500D03*
D13*
X306387500Y-106362500D03*
D15*
X306387500Y-98742500D03*
D13*
X311150000Y-106362500D03*
D15*
X311150000Y-98742500D03*
D13*
X39687500Y-125412500D03*
D15*
X39687500Y-117792500D03*
D13*
X63500000Y-125412500D03*
D15*
X63500000Y-117792500D03*
D13*
X87312500Y-125412500D03*
D15*
X87312500Y-117792500D03*
D13*
X158750000Y-125412500D03*
D15*
X158750000Y-117792500D03*
D13*
X225425000Y-125412500D03*
D15*
X225425000Y-117792500D03*
D13*
X244475000Y-125412500D03*
D15*
X244475000Y-117792500D03*
D13*
X263525000Y-125412500D03*
D15*
X263525000Y-117792500D03*
D13*
X287337500Y-130175000D03*
D15*
X287337500Y-122555000D03*
D13*
X306387500Y-130175000D03*
D15*
X306387500Y-122555000D03*
D13*
X325437500Y-130175000D03*
D15*
X325437500Y-122555000D03*
D16*
X201612500Y-102393750D03*
D17*
X206692500Y-102393750D03*
X196532500Y-102393750D03*
D18*
X197802500Y-99853750D03*
X204152500Y-97313750D03*
D16*
X220662500Y-102393750D03*
D17*
X225742500Y-102393750D03*
X215582500Y-102393750D03*
D18*
X216852500Y-99853750D03*
X223202500Y-97313750D03*
D16*
X215900000Y-45243750D03*
D17*
X220980000Y-45243750D03*
X210820000Y-45243750D03*
D18*
X212090000Y-42703750D03*
X218440000Y-40163750D03*
D17*
X49530000Y-45243750D03*
D16*
X44450000Y-45243750D03*
D17*
X39370000Y-45243750D03*
D18*
X40640000Y-42703750D03*
X46990000Y-40163750D03*
D16*
X63500000Y-45243750D03*
D17*
X58420000Y-45243750D03*
X68580000Y-45243750D03*
D18*
X59690000Y-42703750D03*
X66040000Y-40163750D03*
D17*
X77470000Y-45243750D03*
X87630000Y-45243750D03*
D16*
X82550000Y-45243750D03*
D18*
X78740000Y-42703750D03*
X85090000Y-40163750D03*
D17*
X96520000Y-45243750D03*
X106680000Y-45243750D03*
D16*
X101600000Y-45243750D03*
D18*
X97790000Y-42703750D03*
X104140000Y-40163750D03*
D16*
X120650000Y-45243750D03*
D17*
X115570000Y-45243750D03*
X125730000Y-45243750D03*
D18*
X116840000Y-42703750D03*
X123190000Y-40163750D03*
D17*
X134620000Y-45243750D03*
D16*
X139700000Y-45243750D03*
D17*
X144780000Y-45243750D03*
D18*
X135890000Y-42703750D03*
X142240000Y-40163750D03*
D16*
X158750000Y-45243750D03*
D17*
X163830000Y-45243750D03*
X153670000Y-45243750D03*
D18*
X154940000Y-42703750D03*
X161290000Y-40163750D03*
D17*
X172720000Y-45243750D03*
D16*
X177800000Y-45243750D03*
D17*
X182880000Y-45243750D03*
D18*
X173990000Y-42703750D03*
X180340000Y-40163750D03*
D17*
X191770000Y-45243750D03*
X201930000Y-45243750D03*
D16*
X196850000Y-45243750D03*
D18*
X193040000Y-42703750D03*
X199390000Y-40163750D03*
D17*
X254317500Y-83343750D03*
X244157500Y-83343750D03*
D16*
X249237500Y-83343750D03*
D18*
X245427500Y-80803750D03*
X251777500Y-78263750D03*
D16*
X234950000Y-45243750D03*
D17*
X229870000Y-45243750D03*
X240030000Y-45243750D03*
D18*
X231140000Y-42703750D03*
X237490000Y-40163750D03*
D17*
X234632500Y-102393750D03*
D16*
X239712500Y-102393750D03*
D17*
X244792500Y-102393750D03*
D18*
X235902500Y-99853750D03*
X242252500Y-97313750D03*
D16*
X230187500Y-83343750D03*
D17*
X235267500Y-83343750D03*
X225107500Y-83343750D03*
D18*
X226377500Y-80803750D03*
X232727500Y-78263750D03*
D17*
X259080000Y-45243750D03*
D16*
X254000000Y-45243750D03*
D17*
X248920000Y-45243750D03*
D18*
X250190000Y-42703750D03*
X256540000Y-40163750D03*
D17*
X239395000Y-64293750D03*
X249555000Y-64293750D03*
D16*
X244475000Y-64293750D03*
D18*
X240665000Y-61753750D03*
X247015000Y-59213750D03*
D16*
X287337500Y-64293750D03*
D17*
X292417500Y-64293750D03*
X282257500Y-64293750D03*
D18*
X283527500Y-61753750D03*
X289877500Y-59213750D03*
D16*
X263525000Y-64293750D03*
D17*
X258445000Y-64293750D03*
X268605000Y-64293750D03*
D18*
X259715000Y-61753750D03*
X266065000Y-59213750D03*
D16*
X58737500Y-83343750D03*
D17*
X63817500Y-83343750D03*
X53657500Y-83343750D03*
D18*
X54927500Y-80803750D03*
X61277500Y-78263750D03*
D17*
X139382500Y-102393750D03*
D16*
X144462500Y-102393750D03*
D17*
X149542500Y-102393750D03*
D18*
X140652500Y-99853750D03*
X147002500Y-97313750D03*
D19*
X294481250Y-38258750D03*
D17*
X277495000Y-45243750D03*
D19*
X270668750Y-38258750D03*
D16*
X282575000Y-45243750D03*
X270668750Y-53498750D03*
D17*
X287655000Y-45243750D03*
D16*
X294481250Y-53498750D03*
D18*
X278765000Y-42703750D03*
X285115000Y-40163750D03*
D17*
X111442500Y-102393750D03*
X101282500Y-102393750D03*
D16*
X106362500Y-102393750D03*
D18*
X102552500Y-99853750D03*
X108902500Y-97313750D03*
D17*
X37623750Y-83343750D03*
D16*
X32543750Y-83343750D03*
D17*
X27463750Y-83343750D03*
D18*
X28733750Y-80803750D03*
X35083750Y-78263750D03*
D17*
X101917500Y-83343750D03*
X91757500Y-83343750D03*
D16*
X96837500Y-83343750D03*
D18*
X93027500Y-80803750D03*
X99377500Y-78263750D03*
D17*
X315595000Y-64293750D03*
X325755000Y-64293750D03*
D16*
X320675000Y-64293750D03*
D18*
X316865000Y-61753750D03*
X323215000Y-59213750D03*
D16*
X296862500Y-126206250D03*
D17*
X301942500Y-126206250D03*
X291782500Y-126206250D03*
D18*
X293052500Y-123666250D03*
X299402500Y-121126250D03*
D17*
X97155000Y-64293750D03*
X86995000Y-64293750D03*
D16*
X92075000Y-64293750D03*
D18*
X88265000Y-61753750D03*
X94615000Y-59213750D03*
D16*
X320675000Y-102393750D03*
D17*
X325755000Y-102393750D03*
X315595000Y-102393750D03*
D18*
X316865000Y-99853750D03*
X323215000Y-97313750D03*
D16*
X280193750Y-83343750D03*
X292100000Y-91598750D03*
D17*
X285273750Y-83343750D03*
D19*
X268287500Y-76358750D03*
D17*
X275113750Y-83343750D03*
D19*
X292100000Y-76358750D03*
D16*
X268287500Y-91598750D03*
D18*
X276383750Y-80803750D03*
X282733750Y-78263750D03*
D16*
X25400000Y-45243750D03*
D17*
X20320000Y-45243750D03*
X30480000Y-45243750D03*
D18*
X21590000Y-42703750D03*
X27940000Y-40163750D03*
D17*
X110807500Y-83343750D03*
D16*
X115887500Y-83343750D03*
D17*
X120967500Y-83343750D03*
D18*
X112077500Y-80803750D03*
X118427500Y-78263750D03*
D17*
X229870000Y-121443750D03*
D16*
X234950000Y-121443750D03*
D17*
X240030000Y-121443750D03*
D18*
X231140000Y-118903750D03*
X237490000Y-116363750D03*
D17*
X140017500Y-83343750D03*
D16*
X134937500Y-83343750D03*
D17*
X129857500Y-83343750D03*
D18*
X131127500Y-80803750D03*
X137477500Y-78263750D03*
D17*
X159067500Y-83343750D03*
X148907500Y-83343750D03*
D16*
X153987500Y-83343750D03*
D18*
X150177500Y-80803750D03*
X156527500Y-78263750D03*
D17*
X325755000Y-83343750D03*
X315595000Y-83343750D03*
D16*
X320675000Y-83343750D03*
D18*
X316865000Y-80803750D03*
X323215000Y-78263750D03*
D17*
X182245000Y-64293750D03*
X192405000Y-64293750D03*
D16*
X187325000Y-64293750D03*
D18*
X183515000Y-61753750D03*
X189865000Y-59213750D03*
D17*
X167957500Y-83343750D03*
X178117500Y-83343750D03*
D16*
X173037500Y-83343750D03*
D18*
X169227500Y-80803750D03*
X175577500Y-78263750D03*
D16*
X192087500Y-83343750D03*
D17*
X197167500Y-83343750D03*
X187007500Y-83343750D03*
D18*
X188277500Y-80803750D03*
X194627500Y-78263750D03*
D17*
X216217500Y-83343750D03*
D16*
X211137500Y-83343750D03*
D17*
X206057500Y-83343750D03*
D18*
X207327500Y-80803750D03*
X213677500Y-78263750D03*
D17*
X70326250Y-121443750D03*
D16*
X75406250Y-121443750D03*
D17*
X80486250Y-121443750D03*
D18*
X71596250Y-118903750D03*
X77946250Y-116363750D03*
D17*
X32861250Y-121443750D03*
X22701250Y-121443750D03*
D16*
X27781250Y-121443750D03*
D18*
X23971250Y-118903750D03*
X30321250Y-116363750D03*
D17*
X272732500Y-126206250D03*
X282892500Y-126206250D03*
D16*
X277812500Y-126206250D03*
D18*
X274002500Y-123666250D03*
X280352500Y-121126250D03*
D17*
X32226250Y-102393750D03*
D16*
X25400000Y-110648750D03*
D19*
X49212500Y-95408750D03*
D17*
X42386250Y-102393750D03*
D16*
X37306250Y-102393750D03*
D19*
X25400000Y-95408750D03*
D16*
X49212500Y-110648750D03*
D18*
X33496250Y-99853750D03*
X39846250Y-97313750D03*
D16*
X182562500Y-102393750D03*
D17*
X177482500Y-102393750D03*
X187642500Y-102393750D03*
D18*
X178752500Y-99853750D03*
X185102500Y-97313750D03*
D17*
X158432500Y-102393750D03*
D16*
X163512500Y-102393750D03*
D17*
X168592500Y-102393750D03*
D18*
X159702500Y-99853750D03*
X166052500Y-97313750D03*
D16*
X206375000Y-64293750D03*
D17*
X201295000Y-64293750D03*
X211455000Y-64293750D03*
D18*
X202565000Y-61753750D03*
X208915000Y-59213750D03*
D16*
X225425000Y-64293750D03*
D17*
X220345000Y-64293750D03*
X230505000Y-64293750D03*
D18*
X221615000Y-61753750D03*
X227965000Y-59213750D03*
D17*
X48895000Y-64293750D03*
D16*
X53975000Y-64293750D03*
D17*
X59055000Y-64293750D03*
D18*
X50165000Y-61753750D03*
X56515000Y-59213750D03*
D17*
X116205000Y-64293750D03*
D16*
X111125000Y-64293750D03*
D17*
X106045000Y-64293750D03*
D18*
X107315000Y-61753750D03*
X113665000Y-59213750D03*
D17*
X210820000Y-121443750D03*
X220980000Y-121443750D03*
D16*
X215900000Y-121443750D03*
D18*
X212090000Y-118903750D03*
X218440000Y-116363750D03*
D16*
X254000000Y-121443750D03*
D17*
X248920000Y-121443750D03*
X259080000Y-121443750D03*
D18*
X250190000Y-118903750D03*
X256540000Y-116363750D03*
D17*
X310832500Y-126206250D03*
D16*
X315912500Y-126206250D03*
D17*
X320992500Y-126206250D03*
D18*
X312102500Y-123666250D03*
X318452500Y-121126250D03*
D17*
X260826250Y-102393750D03*
D16*
X265906250Y-102393750D03*
D17*
X270986250Y-102393750D03*
D18*
X262096250Y-99853750D03*
X268446250Y-97313750D03*
D16*
X77787500Y-83343750D03*
D17*
X82867500Y-83343750D03*
X72707500Y-83343750D03*
D18*
X73977500Y-80803750D03*
X80327500Y-78263750D03*
D16*
X96843850Y-113188750D03*
D19*
X96843850Y-128428750D03*
D17*
X141763750Y-121443750D03*
D16*
X196843650Y-113188750D03*
D19*
X196843650Y-128428750D03*
D17*
X151923750Y-121443750D03*
D16*
X146843750Y-121443750D03*
D18*
X143033750Y-118903750D03*
X149383750Y-116363750D03*
D16*
X130175000Y-64293750D03*
D17*
X135255000Y-64293750D03*
X125095000Y-64293750D03*
D18*
X126365000Y-61753750D03*
X132715000Y-59213750D03*
D16*
X30162500Y-64293750D03*
D17*
X25082500Y-64293750D03*
X35242500Y-64293750D03*
D18*
X26352500Y-61753750D03*
X32702500Y-59213750D03*
D17*
X173355000Y-64293750D03*
D16*
X168275000Y-64293750D03*
D17*
X163195000Y-64293750D03*
D18*
X164465000Y-61753750D03*
X170815000Y-59213750D03*
D17*
X301942500Y-107156250D03*
D16*
X296862500Y-107156250D03*
D17*
X291782500Y-107156250D03*
D18*
X293052500Y-104616250D03*
X299402500Y-102076250D03*
D17*
X130492500Y-102393750D03*
D16*
X125412500Y-102393750D03*
D17*
X120332500Y-102393750D03*
D18*
X121602500Y-99853750D03*
X127952500Y-97313750D03*
D16*
X73025000Y-64293750D03*
D17*
X67945000Y-64293750D03*
X78105000Y-64293750D03*
D18*
X69215000Y-61753750D03*
X75565000Y-59213750D03*
D17*
X46513750Y-121443750D03*
D16*
X51593750Y-121443750D03*
D17*
X56673750Y-121443750D03*
D18*
X47783750Y-118903750D03*
X54133750Y-116363750D03*
D17*
X82232500Y-102393750D03*
X92392500Y-102393750D03*
D16*
X87312500Y-102393750D03*
D18*
X83502500Y-99853750D03*
X89852500Y-97313750D03*
D17*
X154305000Y-64293750D03*
X144145000Y-64293750D03*
D16*
X149225000Y-64293750D03*
D18*
X145415000Y-61753750D03*
X151765000Y-59213750D03*
D17*
X63182500Y-102393750D03*
X73342500Y-102393750D03*
D16*
X68262500Y-102393750D03*
D18*
X64452500Y-99853750D03*
X70802500Y-97313750D03*
D20*
X318008000Y-47752000D03*
D21*
X323008000Y-47752000D03*
X320508000Y-47752000D03*
D22*
X326108000Y-40252000D03*
X314908000Y-40252000D03*
D21*
X323008000Y-33252000D03*
X318008000Y-33252000D03*
D23*
X18250000Y-20090000D03*
X18250000Y-22630000D03*
X18250000Y-25170000D03*
X18250000Y-27710000D03*
D21*
X51780000Y-19900000D03*
X58280000Y-19900000D03*
X51780000Y-24400000D03*
X58280000Y-24400000D03*
D24*
X34163000Y-19812000D03*
X35433000Y-19812000D03*
X36703000Y-19812000D03*
X37973000Y-19812000D03*
X39243000Y-19812000D03*
X40513000Y-19812000D03*
X41783000Y-19812000D03*
X43053000Y-19812000D03*
X44323000Y-19812000D03*
X45593000Y-19812000D03*
X46863000Y-19812000D03*
X48133000Y-19812000D03*
X48133000Y-29212000D03*
X46863000Y-29212000D03*
X45593000Y-29212000D03*
X44323000Y-29212000D03*
X43053000Y-29212000D03*
X41783000Y-29212000D03*
X40513000Y-29212000D03*
X39243000Y-29212000D03*
X37973000Y-29212000D03*
X36703000Y-29212000D03*
X35433000Y-29212000D03*
X34163000Y-29212000D03*
D13*
X20060000Y-36410000D03*
D14*
X22600000Y-36410000D03*
X25140000Y-36410000D03*
X27680000Y-36410000D03*
X30220000Y-36410000D03*
X32760000Y-36410000D03*
X35300000Y-36410000D03*
X37840000Y-36410000D03*
X40380000Y-36410000D03*
X42920000Y-36410000D03*
X45460000Y-36410000D03*
X48000000Y-36410000D03*
X48000000Y-51650000D03*
X45460000Y-51650000D03*
X42920000Y-51650000D03*
X40380000Y-51650000D03*
X37840000Y-51650000D03*
X35300000Y-51650000D03*
X32760000Y-51650000D03*
X30220000Y-51650000D03*
X27680000Y-51650000D03*
X25140000Y-51650000D03*
X22600000Y-51650000D03*
X20060000Y-51650000D03*
M02*
