%TF.GenerationSoftware,KiCad,Pcbnew,(6.0.8)*%
%TF.CreationDate,2023-03-19T19:58:51-07:00*%
%TF.ProjectId,Dissatisfaction65,44697373-6174-4697-9366-616374696f6e,rev?*%
%TF.SameCoordinates,Original*%
%TF.FileFunction,Soldermask,Bot*%
%TF.FilePolarity,Negative*%
%FSLAX46Y46*%
G04 Gerber Fmt 4.6, Leading zero omitted, Abs format (unit mm)*
G04 Created by KiCad (PCBNEW (6.0.8)) date 2023-03-19 19:58:51*
%MOMM*%
%LPD*%
G01*
G04 APERTURE LIST*
%ADD10R,1.600000X1.600000*%
%ADD11O,1.600000X1.600000*%
%ADD12C,3.987800*%
%ADD13C,1.750000*%
%ADD14C,2.250000*%
%ADD15C,3.048000*%
%ADD16R,2.000000X2.000000*%
%ADD17C,2.000000*%
%ADD18R,2.000000X3.200000*%
%ADD19R,1.700000X1.700000*%
%ADD20O,1.700000X1.700000*%
%ADD21C,1.524000*%
%ADD22R,0.600000X2.000000*%
%ADD23C,1.600000*%
G04 APERTURE END LIST*
D10*
X34925000Y-49212500D03*
D11*
X34925000Y-41592500D03*
D10*
X53975000Y-49212500D03*
D11*
X53975000Y-41592500D03*
D10*
X73025000Y-49212500D03*
D11*
X73025000Y-41592500D03*
D10*
X92075000Y-49212500D03*
D11*
X92075000Y-41592500D03*
D10*
X111125000Y-49212500D03*
D11*
X111125000Y-41592500D03*
D10*
X130175000Y-49212500D03*
D11*
X130175000Y-41592500D03*
D10*
X149225000Y-49212500D03*
D11*
X149225000Y-41592500D03*
D10*
X168275000Y-49212500D03*
D11*
X168275000Y-41592500D03*
D10*
X187325000Y-49212500D03*
D11*
X187325000Y-41592500D03*
D10*
X206375000Y-49212500D03*
D11*
X206375000Y-41592500D03*
D10*
X225425000Y-49212500D03*
D11*
X225425000Y-41592500D03*
D10*
X244475000Y-49212500D03*
D11*
X244475000Y-41592500D03*
D10*
X263525000Y-49212500D03*
D11*
X263525000Y-41592500D03*
D10*
X301625000Y-49212500D03*
D11*
X301625000Y-41592500D03*
D10*
X42068750Y-68262500D03*
D11*
X42068750Y-60642500D03*
D10*
X63500000Y-68262500D03*
D11*
X63500000Y-60642500D03*
D10*
X82550000Y-68262500D03*
D11*
X82550000Y-60642500D03*
D10*
X101600000Y-68262500D03*
D11*
X101600000Y-60642500D03*
D10*
X120650000Y-68262500D03*
D11*
X120650000Y-60642500D03*
D10*
X139700000Y-68262500D03*
D11*
X139700000Y-60642500D03*
D10*
X158750000Y-68262500D03*
D11*
X158750000Y-60642500D03*
D10*
X177800000Y-68262500D03*
D11*
X177800000Y-60642500D03*
D10*
X196850000Y-68262500D03*
D11*
X196850000Y-60642500D03*
D10*
X215900000Y-68262500D03*
D11*
X215900000Y-60642500D03*
D10*
X234950000Y-68262500D03*
D11*
X234950000Y-60642500D03*
D10*
X254000000Y-68262500D03*
D11*
X254000000Y-60642500D03*
D10*
X273050000Y-68262500D03*
D11*
X273050000Y-60642500D03*
D10*
X301625000Y-68262500D03*
D11*
X301625000Y-60642500D03*
D10*
X311150000Y-68262500D03*
D11*
X311150000Y-60642500D03*
D10*
X44450000Y-87312500D03*
D11*
X44450000Y-79692500D03*
D10*
X68262500Y-87312500D03*
D11*
X68262500Y-79692500D03*
D10*
X87312500Y-87312500D03*
D11*
X87312500Y-79692500D03*
D10*
X106362500Y-87312500D03*
D11*
X106362500Y-79692500D03*
D10*
X125412500Y-87312500D03*
D11*
X125412500Y-79692500D03*
D10*
X144462500Y-87312500D03*
D11*
X144462500Y-79692500D03*
D10*
X163512500Y-87312500D03*
D11*
X163512500Y-79692500D03*
D10*
X182562500Y-87312500D03*
D11*
X182562500Y-79692500D03*
D10*
X201612500Y-87312500D03*
D11*
X201612500Y-79692500D03*
D10*
X220662500Y-87312500D03*
D11*
X220662500Y-79692500D03*
D10*
X239712500Y-87312500D03*
D11*
X239712500Y-79692500D03*
D10*
X258762500Y-87312500D03*
D11*
X258762500Y-79692500D03*
D10*
X301625000Y-87312500D03*
D11*
X301625000Y-79692500D03*
D10*
X311150000Y-87312500D03*
D11*
X311150000Y-79692500D03*
D10*
X56356250Y-106362500D03*
D11*
X56356250Y-98742500D03*
D10*
X77787500Y-106362500D03*
D11*
X77787500Y-98742500D03*
D10*
X96837500Y-106362500D03*
D11*
X96837500Y-98742500D03*
D10*
X115887500Y-106362500D03*
D11*
X115887500Y-98742500D03*
D10*
X134937500Y-106362500D03*
D11*
X134937500Y-98742500D03*
D10*
X153987500Y-106362500D03*
D11*
X153987500Y-98742500D03*
D10*
X173037500Y-106362500D03*
D11*
X173037500Y-98742500D03*
D10*
X192087500Y-106362500D03*
D11*
X192087500Y-98742500D03*
D10*
X211137500Y-106362500D03*
D11*
X211137500Y-98742500D03*
D10*
X230187500Y-106362500D03*
D11*
X230187500Y-98742500D03*
D10*
X249237500Y-106362500D03*
D11*
X249237500Y-98742500D03*
D10*
X277812500Y-106362500D03*
D11*
X277812500Y-98742500D03*
D10*
X306387500Y-106362500D03*
D11*
X306387500Y-98742500D03*
D10*
X311150000Y-106362500D03*
D11*
X311150000Y-98742500D03*
D10*
X39687500Y-125412500D03*
D11*
X39687500Y-117792500D03*
D10*
X63500000Y-125412500D03*
D11*
X63500000Y-117792500D03*
D10*
X87312500Y-125412500D03*
D11*
X87312500Y-117792500D03*
D10*
X158750000Y-125412500D03*
D11*
X158750000Y-117792500D03*
D10*
X225425000Y-125412500D03*
D11*
X225425000Y-117792500D03*
D10*
X244475000Y-125412500D03*
D11*
X244475000Y-117792500D03*
D10*
X263525000Y-125412500D03*
D11*
X263525000Y-117792500D03*
D10*
X287337500Y-130175000D03*
D11*
X287337500Y-122555000D03*
D10*
X306387500Y-130175000D03*
D11*
X306387500Y-122555000D03*
D10*
X325437500Y-130175000D03*
D11*
X325437500Y-122555000D03*
D12*
X201612500Y-102393750D03*
D13*
X206692500Y-102393750D03*
X196532500Y-102393750D03*
D14*
X197802500Y-99853750D03*
X204152500Y-97313750D03*
D12*
X220662500Y-102393750D03*
D13*
X225742500Y-102393750D03*
X215582500Y-102393750D03*
D14*
X216852500Y-99853750D03*
X223202500Y-97313750D03*
D12*
X215900000Y-45243750D03*
D13*
X220980000Y-45243750D03*
X210820000Y-45243750D03*
D14*
X212090000Y-42703750D03*
X218440000Y-40163750D03*
D13*
X49530000Y-45243750D03*
D12*
X44450000Y-45243750D03*
D13*
X39370000Y-45243750D03*
D14*
X40640000Y-42703750D03*
X46990000Y-40163750D03*
D12*
X63500000Y-45243750D03*
D13*
X58420000Y-45243750D03*
X68580000Y-45243750D03*
D14*
X59690000Y-42703750D03*
X66040000Y-40163750D03*
D13*
X77470000Y-45243750D03*
X87630000Y-45243750D03*
D12*
X82550000Y-45243750D03*
D14*
X78740000Y-42703750D03*
X85090000Y-40163750D03*
D13*
X96520000Y-45243750D03*
X106680000Y-45243750D03*
D12*
X101600000Y-45243750D03*
D14*
X97790000Y-42703750D03*
X104140000Y-40163750D03*
D12*
X120650000Y-45243750D03*
D13*
X115570000Y-45243750D03*
X125730000Y-45243750D03*
D14*
X116840000Y-42703750D03*
X123190000Y-40163750D03*
D13*
X134620000Y-45243750D03*
D12*
X139700000Y-45243750D03*
D13*
X144780000Y-45243750D03*
D14*
X135890000Y-42703750D03*
X142240000Y-40163750D03*
D12*
X158750000Y-45243750D03*
D13*
X163830000Y-45243750D03*
X153670000Y-45243750D03*
D14*
X154940000Y-42703750D03*
X161290000Y-40163750D03*
D13*
X172720000Y-45243750D03*
D12*
X177800000Y-45243750D03*
D13*
X182880000Y-45243750D03*
D14*
X173990000Y-42703750D03*
X180340000Y-40163750D03*
D13*
X191770000Y-45243750D03*
X201930000Y-45243750D03*
D12*
X196850000Y-45243750D03*
D14*
X193040000Y-42703750D03*
X199390000Y-40163750D03*
D13*
X254317500Y-83343750D03*
X244157500Y-83343750D03*
D12*
X249237500Y-83343750D03*
D14*
X245427500Y-80803750D03*
X251777500Y-78263750D03*
D12*
X234950000Y-45243750D03*
D13*
X229870000Y-45243750D03*
X240030000Y-45243750D03*
D14*
X231140000Y-42703750D03*
X237490000Y-40163750D03*
D13*
X234632500Y-102393750D03*
D12*
X239712500Y-102393750D03*
D13*
X244792500Y-102393750D03*
D14*
X235902500Y-99853750D03*
X242252500Y-97313750D03*
D12*
X230187500Y-83343750D03*
D13*
X235267500Y-83343750D03*
X225107500Y-83343750D03*
D14*
X226377500Y-80803750D03*
X232727500Y-78263750D03*
D13*
X259080000Y-45243750D03*
D12*
X254000000Y-45243750D03*
D13*
X248920000Y-45243750D03*
D14*
X250190000Y-42703750D03*
X256540000Y-40163750D03*
D13*
X239395000Y-64293750D03*
X249555000Y-64293750D03*
D12*
X244475000Y-64293750D03*
D14*
X240665000Y-61753750D03*
X247015000Y-59213750D03*
D12*
X287337500Y-64293750D03*
D13*
X292417500Y-64293750D03*
X282257500Y-64293750D03*
D14*
X283527500Y-61753750D03*
X289877500Y-59213750D03*
D12*
X263525000Y-64293750D03*
D13*
X258445000Y-64293750D03*
X268605000Y-64293750D03*
D14*
X259715000Y-61753750D03*
X266065000Y-59213750D03*
D12*
X58737500Y-83343750D03*
D13*
X63817500Y-83343750D03*
X53657500Y-83343750D03*
D14*
X54927500Y-80803750D03*
X61277500Y-78263750D03*
D13*
X139382500Y-102393750D03*
D12*
X144462500Y-102393750D03*
D13*
X149542500Y-102393750D03*
D14*
X140652500Y-99853750D03*
X147002500Y-97313750D03*
D15*
X294481250Y-38258750D03*
D13*
X277495000Y-45243750D03*
D15*
X270668750Y-38258750D03*
D12*
X282575000Y-45243750D03*
X270668750Y-53498750D03*
D13*
X287655000Y-45243750D03*
D12*
X294481250Y-53498750D03*
D14*
X278765000Y-42703750D03*
X285115000Y-40163750D03*
D13*
X111442500Y-102393750D03*
X101282500Y-102393750D03*
D12*
X106362500Y-102393750D03*
D14*
X102552500Y-99853750D03*
X108902500Y-97313750D03*
D13*
X37623750Y-83343750D03*
D12*
X32543750Y-83343750D03*
D13*
X27463750Y-83343750D03*
D14*
X28733750Y-80803750D03*
X35083750Y-78263750D03*
D13*
X101917500Y-83343750D03*
X91757500Y-83343750D03*
D12*
X96837500Y-83343750D03*
D14*
X93027500Y-80803750D03*
X99377500Y-78263750D03*
D13*
X315595000Y-64293750D03*
X325755000Y-64293750D03*
D12*
X320675000Y-64293750D03*
D14*
X316865000Y-61753750D03*
X323215000Y-59213750D03*
D12*
X296862500Y-126206250D03*
D13*
X301942500Y-126206250D03*
X291782500Y-126206250D03*
D14*
X293052500Y-123666250D03*
X299402500Y-121126250D03*
D13*
X97155000Y-64293750D03*
X86995000Y-64293750D03*
D12*
X92075000Y-64293750D03*
D14*
X88265000Y-61753750D03*
X94615000Y-59213750D03*
D12*
X320675000Y-102393750D03*
D13*
X325755000Y-102393750D03*
X315595000Y-102393750D03*
D14*
X316865000Y-99853750D03*
X323215000Y-97313750D03*
D12*
X280193750Y-83343750D03*
X292100000Y-91598750D03*
D13*
X285273750Y-83343750D03*
D15*
X268287500Y-76358750D03*
D13*
X275113750Y-83343750D03*
D15*
X292100000Y-76358750D03*
D12*
X268287500Y-91598750D03*
D14*
X276383750Y-80803750D03*
X282733750Y-78263750D03*
D12*
X25400000Y-45243750D03*
D13*
X20320000Y-45243750D03*
X30480000Y-45243750D03*
D14*
X21590000Y-42703750D03*
X27940000Y-40163750D03*
D13*
X110807500Y-83343750D03*
D12*
X115887500Y-83343750D03*
D13*
X120967500Y-83343750D03*
D14*
X112077500Y-80803750D03*
X118427500Y-78263750D03*
D13*
X229870000Y-121443750D03*
D12*
X234950000Y-121443750D03*
D13*
X240030000Y-121443750D03*
D14*
X231140000Y-118903750D03*
X237490000Y-116363750D03*
D13*
X140017500Y-83343750D03*
D12*
X134937500Y-83343750D03*
D13*
X129857500Y-83343750D03*
D14*
X131127500Y-80803750D03*
X137477500Y-78263750D03*
D13*
X159067500Y-83343750D03*
X148907500Y-83343750D03*
D12*
X153987500Y-83343750D03*
D14*
X150177500Y-80803750D03*
X156527500Y-78263750D03*
D13*
X325755000Y-83343750D03*
X315595000Y-83343750D03*
D12*
X320675000Y-83343750D03*
D14*
X316865000Y-80803750D03*
X323215000Y-78263750D03*
D13*
X182245000Y-64293750D03*
X192405000Y-64293750D03*
D12*
X187325000Y-64293750D03*
D14*
X183515000Y-61753750D03*
X189865000Y-59213750D03*
D13*
X167957500Y-83343750D03*
X178117500Y-83343750D03*
D12*
X173037500Y-83343750D03*
D14*
X169227500Y-80803750D03*
X175577500Y-78263750D03*
D12*
X192087500Y-83343750D03*
D13*
X197167500Y-83343750D03*
X187007500Y-83343750D03*
D14*
X188277500Y-80803750D03*
X194627500Y-78263750D03*
D13*
X216217500Y-83343750D03*
D12*
X211137500Y-83343750D03*
D13*
X206057500Y-83343750D03*
D14*
X207327500Y-80803750D03*
X213677500Y-78263750D03*
D13*
X70326250Y-121443750D03*
D12*
X75406250Y-121443750D03*
D13*
X80486250Y-121443750D03*
D14*
X71596250Y-118903750D03*
X77946250Y-116363750D03*
D13*
X32861250Y-121443750D03*
X22701250Y-121443750D03*
D12*
X27781250Y-121443750D03*
D14*
X23971250Y-118903750D03*
X30321250Y-116363750D03*
D13*
X272732500Y-126206250D03*
X282892500Y-126206250D03*
D12*
X277812500Y-126206250D03*
D14*
X274002500Y-123666250D03*
X280352500Y-121126250D03*
D13*
X32226250Y-102393750D03*
D12*
X25400000Y-110648750D03*
D15*
X49212500Y-95408750D03*
D13*
X42386250Y-102393750D03*
D12*
X37306250Y-102393750D03*
D15*
X25400000Y-95408750D03*
D12*
X49212500Y-110648750D03*
D14*
X33496250Y-99853750D03*
X39846250Y-97313750D03*
D12*
X182562500Y-102393750D03*
D13*
X177482500Y-102393750D03*
X187642500Y-102393750D03*
D14*
X178752500Y-99853750D03*
X185102500Y-97313750D03*
D13*
X158432500Y-102393750D03*
D12*
X163512500Y-102393750D03*
D13*
X168592500Y-102393750D03*
D14*
X159702500Y-99853750D03*
X166052500Y-97313750D03*
D12*
X206375000Y-64293750D03*
D13*
X201295000Y-64293750D03*
X211455000Y-64293750D03*
D14*
X202565000Y-61753750D03*
X208915000Y-59213750D03*
D12*
X225425000Y-64293750D03*
D13*
X220345000Y-64293750D03*
X230505000Y-64293750D03*
D14*
X221615000Y-61753750D03*
X227965000Y-59213750D03*
D13*
X48895000Y-64293750D03*
D12*
X53975000Y-64293750D03*
D13*
X59055000Y-64293750D03*
D14*
X50165000Y-61753750D03*
X56515000Y-59213750D03*
D13*
X116205000Y-64293750D03*
D12*
X111125000Y-64293750D03*
D13*
X106045000Y-64293750D03*
D14*
X107315000Y-61753750D03*
X113665000Y-59213750D03*
D13*
X210820000Y-121443750D03*
X220980000Y-121443750D03*
D12*
X215900000Y-121443750D03*
D14*
X212090000Y-118903750D03*
X218440000Y-116363750D03*
D12*
X254000000Y-121443750D03*
D13*
X248920000Y-121443750D03*
X259080000Y-121443750D03*
D14*
X250190000Y-118903750D03*
X256540000Y-116363750D03*
D13*
X310832500Y-126206250D03*
D12*
X315912500Y-126206250D03*
D13*
X320992500Y-126206250D03*
D14*
X312102500Y-123666250D03*
X318452500Y-121126250D03*
D13*
X260826250Y-102393750D03*
D12*
X265906250Y-102393750D03*
D13*
X270986250Y-102393750D03*
D14*
X262096250Y-99853750D03*
X268446250Y-97313750D03*
D12*
X77787500Y-83343750D03*
D13*
X82867500Y-83343750D03*
X72707500Y-83343750D03*
D14*
X73977500Y-80803750D03*
X80327500Y-78263750D03*
D12*
X96843850Y-113188750D03*
D15*
X96843850Y-128428750D03*
D13*
X141763750Y-121443750D03*
D12*
X196843650Y-113188750D03*
D15*
X196843650Y-128428750D03*
D13*
X151923750Y-121443750D03*
D12*
X146843750Y-121443750D03*
D14*
X143033750Y-118903750D03*
X149383750Y-116363750D03*
D12*
X130175000Y-64293750D03*
D13*
X135255000Y-64293750D03*
X125095000Y-64293750D03*
D14*
X126365000Y-61753750D03*
X132715000Y-59213750D03*
D12*
X30162500Y-64293750D03*
D13*
X25082500Y-64293750D03*
X35242500Y-64293750D03*
D14*
X26352500Y-61753750D03*
X32702500Y-59213750D03*
D13*
X173355000Y-64293750D03*
D12*
X168275000Y-64293750D03*
D13*
X163195000Y-64293750D03*
D14*
X164465000Y-61753750D03*
X170815000Y-59213750D03*
D13*
X301942500Y-107156250D03*
D12*
X296862500Y-107156250D03*
D13*
X291782500Y-107156250D03*
D14*
X293052500Y-104616250D03*
X299402500Y-102076250D03*
D13*
X130492500Y-102393750D03*
D12*
X125412500Y-102393750D03*
D13*
X120332500Y-102393750D03*
D14*
X121602500Y-99853750D03*
X127952500Y-97313750D03*
D12*
X73025000Y-64293750D03*
D13*
X67945000Y-64293750D03*
X78105000Y-64293750D03*
D14*
X69215000Y-61753750D03*
X75565000Y-59213750D03*
D13*
X46513750Y-121443750D03*
D12*
X51593750Y-121443750D03*
D13*
X56673750Y-121443750D03*
D14*
X47783750Y-118903750D03*
X54133750Y-116363750D03*
D13*
X82232500Y-102393750D03*
X92392500Y-102393750D03*
D12*
X87312500Y-102393750D03*
D14*
X83502500Y-99853750D03*
X89852500Y-97313750D03*
D13*
X154305000Y-64293750D03*
X144145000Y-64293750D03*
D12*
X149225000Y-64293750D03*
D14*
X145415000Y-61753750D03*
X151765000Y-59213750D03*
D13*
X63182500Y-102393750D03*
X73342500Y-102393750D03*
D12*
X68262500Y-102393750D03*
D14*
X64452500Y-99853750D03*
X70802500Y-97313750D03*
D16*
X318008000Y-47752000D03*
D17*
X323008000Y-47752000D03*
X320508000Y-47752000D03*
D18*
X326108000Y-40252000D03*
X314908000Y-40252000D03*
D17*
X323008000Y-33252000D03*
X318008000Y-33252000D03*
D19*
X59200000Y-24600000D03*
D20*
X56660000Y-24600000D03*
D21*
X18250000Y-20090000D03*
X18250000Y-22630000D03*
X18250000Y-25170000D03*
X18250000Y-27710000D03*
D22*
X34163000Y-19812000D03*
X35433000Y-19812000D03*
X36703000Y-19812000D03*
X37973000Y-19812000D03*
X39243000Y-19812000D03*
X40513000Y-19812000D03*
X41783000Y-19812000D03*
X43053000Y-19812000D03*
X44323000Y-19812000D03*
X45593000Y-19812000D03*
X46863000Y-19812000D03*
X48133000Y-19812000D03*
X48133000Y-29212000D03*
X46863000Y-29212000D03*
X45593000Y-29212000D03*
X44323000Y-29212000D03*
X43053000Y-29212000D03*
X41783000Y-29212000D03*
X40513000Y-29212000D03*
X39243000Y-29212000D03*
X37973000Y-29212000D03*
X36703000Y-29212000D03*
X35433000Y-29212000D03*
X34163000Y-29212000D03*
D10*
X20060000Y-36410000D03*
D23*
X22600000Y-36410000D03*
X25140000Y-36410000D03*
X27680000Y-36410000D03*
X30220000Y-36410000D03*
X32760000Y-36410000D03*
X35300000Y-36410000D03*
X37840000Y-36410000D03*
X40380000Y-36410000D03*
X42920000Y-36410000D03*
X45460000Y-36410000D03*
X48000000Y-36410000D03*
X48000000Y-51650000D03*
X45460000Y-51650000D03*
X42920000Y-51650000D03*
X40380000Y-51650000D03*
X37840000Y-51650000D03*
X35300000Y-51650000D03*
X32760000Y-51650000D03*
X30220000Y-51650000D03*
X27680000Y-51650000D03*
X25140000Y-51650000D03*
X22600000Y-51650000D03*
X20060000Y-51650000D03*
M02*
