%TF.GenerationSoftware,KiCad,Pcbnew,(6.0.8)*%
%TF.CreationDate,2023-03-19T19:58:51-07:00*%
%TF.ProjectId,Dissatisfaction65,44697373-6174-4697-9366-616374696f6e,rev?*%
%TF.SameCoordinates,Original*%
%TF.FileFunction,Copper,L1,Top*%
%TF.FilePolarity,Positive*%
%FSLAX46Y46*%
G04 Gerber Fmt 4.6, Leading zero omitted, Abs format (unit mm)*
G04 Created by KiCad (PCBNEW (6.0.8)) date 2023-03-19 19:58:51*
%MOMM*%
%LPD*%
G01*
G04 APERTURE LIST*
%TA.AperFunction,ComponentPad*%
%ADD10R,1.600000X1.600000*%
%TD*%
%TA.AperFunction,ComponentPad*%
%ADD11O,1.600000X1.600000*%
%TD*%
%TA.AperFunction,ComponentPad*%
%ADD12C,2.250000*%
%TD*%
%TA.AperFunction,ComponentPad*%
%ADD13R,2.000000X2.000000*%
%TD*%
%TA.AperFunction,ComponentPad*%
%ADD14C,2.000000*%
%TD*%
%TA.AperFunction,ComponentPad*%
%ADD15R,2.000000X3.200000*%
%TD*%
%TA.AperFunction,ComponentPad*%
%ADD16R,1.700000X1.700000*%
%TD*%
%TA.AperFunction,ComponentPad*%
%ADD17O,1.700000X1.700000*%
%TD*%
%TA.AperFunction,ComponentPad*%
%ADD18C,1.524000*%
%TD*%
%TA.AperFunction,ComponentPad*%
%ADD19C,1.600000*%
%TD*%
%TA.AperFunction,ViaPad*%
%ADD20C,0.800000*%
%TD*%
%TA.AperFunction,Conductor*%
%ADD21C,0.254000*%
%TD*%
%TA.AperFunction,Conductor*%
%ADD22C,0.381000*%
%TD*%
G04 APERTURE END LIST*
D10*
X34925000Y-49212500D03*
D11*
X34925000Y-41592500D03*
D10*
X53975000Y-49212500D03*
D11*
X53975000Y-41592500D03*
D10*
X73025000Y-49212500D03*
D11*
X73025000Y-41592500D03*
D10*
X92075000Y-49212500D03*
D11*
X92075000Y-41592500D03*
D10*
X111125000Y-49212500D03*
D11*
X111125000Y-41592500D03*
D10*
X130175000Y-49212500D03*
D11*
X130175000Y-41592500D03*
D10*
X149225000Y-49212500D03*
D11*
X149225000Y-41592500D03*
D10*
X168275000Y-49212500D03*
D11*
X168275000Y-41592500D03*
D10*
X187325000Y-49212500D03*
D11*
X187325000Y-41592500D03*
D10*
X206375000Y-49212500D03*
D11*
X206375000Y-41592500D03*
D10*
X225425000Y-49212500D03*
D11*
X225425000Y-41592500D03*
D10*
X244475000Y-49212500D03*
D11*
X244475000Y-41592500D03*
D10*
X263525000Y-49212500D03*
D11*
X263525000Y-41592500D03*
D10*
X301625000Y-49212500D03*
D11*
X301625000Y-41592500D03*
D10*
X42068750Y-68262500D03*
D11*
X42068750Y-60642500D03*
D10*
X63500000Y-68262500D03*
D11*
X63500000Y-60642500D03*
D10*
X82550000Y-68262500D03*
D11*
X82550000Y-60642500D03*
D10*
X101600000Y-68262500D03*
D11*
X101600000Y-60642500D03*
D10*
X120650000Y-68262500D03*
D11*
X120650000Y-60642500D03*
D10*
X139700000Y-68262500D03*
D11*
X139700000Y-60642500D03*
D10*
X158750000Y-68262500D03*
D11*
X158750000Y-60642500D03*
D10*
X177800000Y-68262500D03*
D11*
X177800000Y-60642500D03*
D10*
X196850000Y-68262500D03*
D11*
X196850000Y-60642500D03*
D10*
X215900000Y-68262500D03*
D11*
X215900000Y-60642500D03*
D10*
X234950000Y-68262500D03*
D11*
X234950000Y-60642500D03*
D10*
X254000000Y-68262500D03*
D11*
X254000000Y-60642500D03*
D10*
X273050000Y-68262500D03*
D11*
X273050000Y-60642500D03*
D10*
X301625000Y-68262500D03*
D11*
X301625000Y-60642500D03*
D10*
X311150000Y-68262500D03*
D11*
X311150000Y-60642500D03*
D10*
X44450000Y-87312500D03*
D11*
X44450000Y-79692500D03*
D10*
X68262500Y-87312500D03*
D11*
X68262500Y-79692500D03*
D10*
X87312500Y-87312500D03*
D11*
X87312500Y-79692500D03*
D10*
X106362500Y-87312500D03*
D11*
X106362500Y-79692500D03*
D10*
X125412500Y-87312500D03*
D11*
X125412500Y-79692500D03*
D10*
X144462500Y-87312500D03*
D11*
X144462500Y-79692500D03*
D10*
X163512500Y-87312500D03*
D11*
X163512500Y-79692500D03*
D10*
X182562500Y-87312500D03*
D11*
X182562500Y-79692500D03*
D10*
X201612500Y-87312500D03*
D11*
X201612500Y-79692500D03*
D10*
X220662500Y-87312500D03*
D11*
X220662500Y-79692500D03*
D10*
X239712500Y-87312500D03*
D11*
X239712500Y-79692500D03*
D10*
X258762500Y-87312500D03*
D11*
X258762500Y-79692500D03*
D10*
X301625000Y-87312500D03*
D11*
X301625000Y-79692500D03*
D10*
X311150000Y-87312500D03*
D11*
X311150000Y-79692500D03*
D10*
X56356250Y-106362500D03*
D11*
X56356250Y-98742500D03*
D10*
X77787500Y-106362500D03*
D11*
X77787500Y-98742500D03*
D10*
X96837500Y-106362500D03*
D11*
X96837500Y-98742500D03*
D10*
X115887500Y-106362500D03*
D11*
X115887500Y-98742500D03*
D10*
X134937500Y-106362500D03*
D11*
X134937500Y-98742500D03*
D10*
X153987500Y-106362500D03*
D11*
X153987500Y-98742500D03*
D10*
X173037500Y-106362500D03*
D11*
X173037500Y-98742500D03*
D10*
X192087500Y-106362500D03*
D11*
X192087500Y-98742500D03*
D10*
X211137500Y-106362500D03*
D11*
X211137500Y-98742500D03*
D10*
X230187500Y-106362500D03*
D11*
X230187500Y-98742500D03*
D10*
X249237500Y-106362500D03*
D11*
X249237500Y-98742500D03*
D10*
X277812500Y-106362500D03*
D11*
X277812500Y-98742500D03*
D10*
X306387500Y-106362500D03*
D11*
X306387500Y-98742500D03*
D10*
X311150000Y-106362500D03*
D11*
X311150000Y-98742500D03*
D10*
X39687500Y-125412500D03*
D11*
X39687500Y-117792500D03*
D10*
X63500000Y-125412500D03*
D11*
X63500000Y-117792500D03*
D10*
X87312500Y-125412500D03*
D11*
X87312500Y-117792500D03*
D10*
X158750000Y-125412500D03*
D11*
X158750000Y-117792500D03*
D10*
X225425000Y-125412500D03*
D11*
X225425000Y-117792500D03*
D10*
X244475000Y-125412500D03*
D11*
X244475000Y-117792500D03*
D10*
X263525000Y-125412500D03*
D11*
X263525000Y-117792500D03*
D10*
X287337500Y-130175000D03*
D11*
X287337500Y-122555000D03*
D10*
X306387500Y-130175000D03*
D11*
X306387500Y-122555000D03*
D10*
X325437500Y-130175000D03*
D11*
X325437500Y-122555000D03*
D12*
X197802500Y-99853750D03*
X204152500Y-97313750D03*
X216852500Y-99853750D03*
X223202500Y-97313750D03*
X212090000Y-42703750D03*
X218440000Y-40163750D03*
X40640000Y-42703750D03*
X46990000Y-40163750D03*
X59690000Y-42703750D03*
X66040000Y-40163750D03*
X78740000Y-42703750D03*
X85090000Y-40163750D03*
X97790000Y-42703750D03*
X104140000Y-40163750D03*
X116840000Y-42703750D03*
X123190000Y-40163750D03*
X135890000Y-42703750D03*
X142240000Y-40163750D03*
X154940000Y-42703750D03*
X161290000Y-40163750D03*
X173990000Y-42703750D03*
X180340000Y-40163750D03*
X193040000Y-42703750D03*
X199390000Y-40163750D03*
X245427500Y-80803750D03*
X251777500Y-78263750D03*
X231140000Y-42703750D03*
X237490000Y-40163750D03*
X235902500Y-99853750D03*
X242252500Y-97313750D03*
X226377500Y-80803750D03*
X232727500Y-78263750D03*
X250190000Y-42703750D03*
X256540000Y-40163750D03*
X240665000Y-61753750D03*
X247015000Y-59213750D03*
X283527500Y-61753750D03*
X289877500Y-59213750D03*
X259715000Y-61753750D03*
X266065000Y-59213750D03*
X54927500Y-80803750D03*
X61277500Y-78263750D03*
X140652500Y-99853750D03*
X147002500Y-97313750D03*
X278765000Y-42703750D03*
X285115000Y-40163750D03*
X102552500Y-99853750D03*
X108902500Y-97313750D03*
X28733750Y-80803750D03*
X35083750Y-78263750D03*
X93027500Y-80803750D03*
X99377500Y-78263750D03*
X316865000Y-61753750D03*
X323215000Y-59213750D03*
X293052500Y-123666250D03*
X299402500Y-121126250D03*
X88265000Y-61753750D03*
X94615000Y-59213750D03*
X316865000Y-99853750D03*
X323215000Y-97313750D03*
X276383750Y-80803750D03*
X282733750Y-78263750D03*
X21590000Y-42703750D03*
X27940000Y-40163750D03*
X112077500Y-80803750D03*
X118427500Y-78263750D03*
X231140000Y-118903750D03*
X237490000Y-116363750D03*
X131127500Y-80803750D03*
X137477500Y-78263750D03*
X150177500Y-80803750D03*
X156527500Y-78263750D03*
X316865000Y-80803750D03*
X323215000Y-78263750D03*
X183515000Y-61753750D03*
X189865000Y-59213750D03*
X169227500Y-80803750D03*
X175577500Y-78263750D03*
X188277500Y-80803750D03*
X194627500Y-78263750D03*
X207327500Y-80803750D03*
X213677500Y-78263750D03*
X71596250Y-118903750D03*
X77946250Y-116363750D03*
X23971250Y-118903750D03*
X30321250Y-116363750D03*
X274002500Y-123666250D03*
X280352500Y-121126250D03*
X33496250Y-99853750D03*
X39846250Y-97313750D03*
X178752500Y-99853750D03*
X185102500Y-97313750D03*
X159702500Y-99853750D03*
X166052500Y-97313750D03*
X202565000Y-61753750D03*
X208915000Y-59213750D03*
X221615000Y-61753750D03*
X227965000Y-59213750D03*
X50165000Y-61753750D03*
X56515000Y-59213750D03*
X107315000Y-61753750D03*
X113665000Y-59213750D03*
X212090000Y-118903750D03*
X218440000Y-116363750D03*
X250190000Y-118903750D03*
X256540000Y-116363750D03*
X312102500Y-123666250D03*
X318452500Y-121126250D03*
X262096250Y-99853750D03*
X268446250Y-97313750D03*
X73977500Y-80803750D03*
X80327500Y-78263750D03*
X143033750Y-118903750D03*
X149383750Y-116363750D03*
X126365000Y-61753750D03*
X132715000Y-59213750D03*
X26352500Y-61753750D03*
X32702500Y-59213750D03*
X164465000Y-61753750D03*
X170815000Y-59213750D03*
X293052500Y-104616250D03*
X299402500Y-102076250D03*
X121602500Y-99853750D03*
X127952500Y-97313750D03*
X69215000Y-61753750D03*
X75565000Y-59213750D03*
X47783750Y-118903750D03*
X54133750Y-116363750D03*
X83502500Y-99853750D03*
X89852500Y-97313750D03*
X145415000Y-61753750D03*
X151765000Y-59213750D03*
X64452500Y-99853750D03*
X70802500Y-97313750D03*
D13*
X318008000Y-47752000D03*
D14*
X323008000Y-47752000D03*
X320508000Y-47752000D03*
D15*
X326108000Y-40252000D03*
X314908000Y-40252000D03*
D14*
X323008000Y-33252000D03*
X318008000Y-33252000D03*
D16*
X59200000Y-24600000D03*
D17*
X56660000Y-24600000D03*
D18*
X18250000Y-20090000D03*
X18250000Y-22630000D03*
X18250000Y-25170000D03*
X18250000Y-27710000D03*
D10*
X20060000Y-36410000D03*
D19*
X22600000Y-36410000D03*
X25140000Y-36410000D03*
X27680000Y-36410000D03*
X30220000Y-36410000D03*
X32760000Y-36410000D03*
X35300000Y-36410000D03*
X37840000Y-36410000D03*
X40380000Y-36410000D03*
X42920000Y-36410000D03*
X45460000Y-36410000D03*
X48000000Y-36410000D03*
X48000000Y-51650000D03*
X45460000Y-51650000D03*
X42920000Y-51650000D03*
X40380000Y-51650000D03*
X37840000Y-51650000D03*
X35300000Y-51650000D03*
X32760000Y-51650000D03*
X30220000Y-51650000D03*
X27680000Y-51650000D03*
X25140000Y-51650000D03*
X22600000Y-51650000D03*
X20060000Y-51650000D03*
D20*
X41668134Y-31229866D03*
X173863000Y-36137970D03*
X42799000Y-31238960D03*
X192913000Y-36137970D03*
X39370000Y-30988000D03*
X211836000Y-37045990D03*
X45593000Y-25415959D03*
X59055000Y-27152870D03*
X42968999Y-25869969D03*
X71755000Y-32051880D03*
X97663000Y-32505890D03*
X41783000Y-26323979D03*
X116586000Y-32959900D03*
X40513000Y-26777989D03*
X39243000Y-27231999D03*
X135763000Y-33413910D03*
X37973000Y-27559000D03*
X154813000Y-33867920D03*
X231013000Y-37045990D03*
X40519067Y-31108933D03*
X250063000Y-36137970D03*
X50673000Y-29845000D03*
X49276000Y-30330940D03*
X278638000Y-34305980D03*
X309499000Y-34759990D03*
X44422999Y-30784950D03*
X70612000Y-31597870D03*
X46941767Y-17592633D03*
X70739000Y-54737000D03*
X51770000Y-53900000D03*
X24765000Y-25146000D03*
X32330000Y-28270000D03*
X32330000Y-30320000D03*
X34160000Y-24610000D03*
X48000000Y-56870000D03*
X17440000Y-57050000D03*
X18380000Y-55840000D03*
X47010000Y-55840000D03*
D21*
X33496250Y-40163750D02*
X34925000Y-41592500D01*
X27940000Y-40163750D02*
X33496250Y-40163750D01*
X34925000Y-49212500D02*
X301625000Y-49212500D01*
X52546250Y-40163750D02*
X53975000Y-41592500D01*
X46990000Y-40163750D02*
X52546250Y-40163750D01*
X66040000Y-40163750D02*
X71596250Y-40163750D01*
X71596250Y-40163750D02*
X73025000Y-41592500D01*
X85090000Y-40163750D02*
X90646250Y-40163750D01*
X90646250Y-40163750D02*
X92075000Y-41592500D01*
X109696250Y-40163750D02*
X111125000Y-41592500D01*
X104140000Y-40163750D02*
X109696250Y-40163750D01*
X128746250Y-40163750D02*
X130175000Y-41592500D01*
X123190000Y-40163750D02*
X128746250Y-40163750D01*
X147796250Y-40163750D02*
X149225000Y-41592500D01*
X142240000Y-40163750D02*
X147796250Y-40163750D01*
X161290000Y-40163750D02*
X166846250Y-40163750D01*
X166846250Y-40163750D02*
X168275000Y-41592500D01*
X185896250Y-40163750D02*
X187325000Y-41592500D01*
X180340000Y-40163750D02*
X185896250Y-40163750D01*
X204946250Y-40163750D02*
X206375000Y-41592500D01*
X199390000Y-40163750D02*
X204946250Y-40163750D01*
X218440000Y-40163750D02*
X223996250Y-40163750D01*
X223996250Y-40163750D02*
X225425000Y-41592500D01*
X237490000Y-40163750D02*
X243046250Y-40163750D01*
X243046250Y-40163750D02*
X244475000Y-41592500D01*
X256540000Y-40163750D02*
X262096250Y-40163750D01*
X262096250Y-40163750D02*
X263525000Y-41592500D01*
X285115000Y-40163750D02*
X286543750Y-41592500D01*
X286543750Y-41592500D02*
X301625000Y-41592500D01*
X32702500Y-59213750D02*
X40640000Y-59213750D01*
X40640000Y-59213750D02*
X42068750Y-60642500D01*
X42068750Y-68262500D02*
X311150000Y-68262500D01*
X56515000Y-59213750D02*
X62071250Y-59213750D01*
X62071250Y-59213750D02*
X63500000Y-60642500D01*
X81121250Y-59213750D02*
X82550000Y-60642500D01*
X75565000Y-59213750D02*
X81121250Y-59213750D01*
X94615000Y-59213750D02*
X100171250Y-59213750D01*
X100171250Y-59213750D02*
X101600000Y-60642500D01*
X119221250Y-59213750D02*
X120650000Y-60642500D01*
X113665000Y-59213750D02*
X119221250Y-59213750D01*
X138271250Y-59213750D02*
X139700000Y-60642500D01*
X132715000Y-59213750D02*
X138271250Y-59213750D01*
X157321250Y-59213750D02*
X158750000Y-60642500D01*
X151765000Y-59213750D02*
X157321250Y-59213750D01*
X176371250Y-59213750D02*
X177800000Y-60642500D01*
X170815000Y-59213750D02*
X176371250Y-59213750D01*
X189865000Y-59213750D02*
X195421250Y-59213750D01*
X195421250Y-59213750D02*
X196850000Y-60642500D01*
X214471250Y-59213750D02*
X215900000Y-60642500D01*
X208915000Y-59213750D02*
X214471250Y-59213750D01*
X227965000Y-59213750D02*
X233521250Y-59213750D01*
X233521250Y-59213750D02*
X234950000Y-60642500D01*
X252571250Y-59213750D02*
X254000000Y-60642500D01*
X247015000Y-59213750D02*
X252571250Y-59213750D01*
X271621250Y-59213750D02*
X273050000Y-60642500D01*
X266065000Y-59213750D02*
X271621250Y-59213750D01*
X289877500Y-59213750D02*
X300196250Y-59213750D01*
X300196250Y-59213750D02*
X301625000Y-60642500D01*
X312578750Y-59213750D02*
X323215000Y-59213750D01*
X311150000Y-60642500D02*
X312578750Y-59213750D01*
X43021250Y-78263750D02*
X44450000Y-79692500D01*
X35083750Y-78263750D02*
X43021250Y-78263750D01*
X44450000Y-87312500D02*
X311150000Y-87312500D01*
X61277500Y-78263750D02*
X66833750Y-78263750D01*
X66833750Y-78263750D02*
X68262500Y-79692500D01*
X85883750Y-78263750D02*
X87312500Y-79692500D01*
X80327500Y-78263750D02*
X85883750Y-78263750D01*
X104933750Y-78263750D02*
X106362500Y-79692500D01*
X99377500Y-78263750D02*
X104933750Y-78263750D01*
X118427500Y-78263750D02*
X123983750Y-78263750D01*
X123983750Y-78263750D02*
X125412500Y-79692500D01*
X137477500Y-78263750D02*
X143033750Y-78263750D01*
X143033750Y-78263750D02*
X144462500Y-79692500D01*
X162083750Y-78263750D02*
X163512500Y-79692500D01*
X156527500Y-78263750D02*
X162083750Y-78263750D01*
X181133750Y-78263750D02*
X182562500Y-79692500D01*
X175577500Y-78263750D02*
X181133750Y-78263750D01*
X194627500Y-78263750D02*
X200183750Y-78263750D01*
X200183750Y-78263750D02*
X201612500Y-79692500D01*
X213677500Y-78263750D02*
X219233750Y-78263750D01*
X219233750Y-78263750D02*
X220662500Y-79692500D01*
X232727500Y-78263750D02*
X238283750Y-78263750D01*
X238283750Y-78263750D02*
X239712500Y-79692500D01*
X251777500Y-78263750D02*
X257333750Y-78263750D01*
X257333750Y-78263750D02*
X258762500Y-79692500D01*
X282733750Y-78263750D02*
X284162500Y-79692500D01*
X284162500Y-79692500D02*
X301625000Y-79692500D01*
X311150000Y-79692500D02*
X312578750Y-78263750D01*
X312578750Y-78263750D02*
X323215000Y-78263750D01*
X39846250Y-97313750D02*
X41275000Y-98742500D01*
X41275000Y-98742500D02*
X56356250Y-98742500D01*
X56356250Y-106362500D02*
X277812500Y-106362500D01*
X277812500Y-107416500D02*
X281140000Y-110744000D01*
X306387500Y-106362500D02*
X311150000Y-106362500D01*
X281140000Y-110744000D02*
X303276000Y-110744000D01*
X303276000Y-110744000D02*
X306387500Y-107632500D01*
X306387500Y-107632500D02*
X306387500Y-106362500D01*
X277812500Y-106362500D02*
X277812500Y-107416500D01*
X70802500Y-97313750D02*
X76358750Y-97313750D01*
X76358750Y-97313750D02*
X77787500Y-98742500D01*
X89852500Y-97313750D02*
X95408750Y-97313750D01*
X95408750Y-97313750D02*
X96837500Y-98742500D01*
X114458750Y-97313750D02*
X115887500Y-98742500D01*
X108902500Y-97313750D02*
X114458750Y-97313750D01*
X127952500Y-97313750D02*
X133508750Y-97313750D01*
X133508750Y-97313750D02*
X134937500Y-98742500D01*
X147002500Y-97313750D02*
X152558750Y-97313750D01*
X152558750Y-97313750D02*
X153987500Y-98742500D01*
X171608750Y-97313750D02*
X173037500Y-98742500D01*
X166052500Y-97313750D02*
X171608750Y-97313750D01*
X190658750Y-97313750D02*
X192087500Y-98742500D01*
X185102500Y-97313750D02*
X190658750Y-97313750D01*
X204152500Y-97313750D02*
X209708750Y-97313750D01*
X209708750Y-97313750D02*
X211137500Y-98742500D01*
X223202500Y-97313750D02*
X228758750Y-97313750D01*
X228758750Y-97313750D02*
X230187500Y-98742500D01*
X247808750Y-97313750D02*
X249237500Y-98742500D01*
X242252500Y-97313750D02*
X247808750Y-97313750D01*
X276383750Y-97313750D02*
X277812500Y-98742500D01*
X268446250Y-97313750D02*
X276383750Y-97313750D01*
X302736250Y-98742500D02*
X306387500Y-98742500D01*
X299402500Y-102076250D02*
X302736250Y-98742500D01*
X311150000Y-98742500D02*
X312578750Y-97313750D01*
X312578750Y-97313750D02*
X323215000Y-97313750D01*
X38258750Y-116363750D02*
X39687500Y-117792500D01*
X30321250Y-116363750D02*
X38258750Y-116363750D01*
X267233500Y-130175000D02*
X287337500Y-130175000D01*
X287337500Y-130175000D02*
X325437500Y-130175000D01*
X263525000Y-125412500D02*
X263525000Y-126466500D01*
X39687500Y-125412500D02*
X263525000Y-125412500D01*
X263525000Y-126466500D02*
X267233500Y-130175000D01*
X54133750Y-116363750D02*
X62071250Y-116363750D01*
X62071250Y-116363750D02*
X63500000Y-117792500D01*
X77946250Y-116363750D02*
X85883750Y-116363750D01*
X85883750Y-116363750D02*
X87312500Y-117792500D01*
X149383750Y-116363750D02*
X157321250Y-116363750D01*
X157321250Y-116363750D02*
X158750000Y-117792500D01*
X223996250Y-116363750D02*
X225425000Y-117792500D01*
X218440000Y-116363750D02*
X223996250Y-116363750D01*
X243046250Y-116363750D02*
X244475000Y-117792500D01*
X237490000Y-116363750D02*
X243046250Y-116363750D01*
X256540000Y-116363750D02*
X262096250Y-116363750D01*
X262096250Y-116363750D02*
X263525000Y-117792500D01*
X285908750Y-121126250D02*
X287337500Y-122555000D01*
X280352500Y-121126250D02*
X285908750Y-121126250D01*
X304958750Y-121126250D02*
X306387500Y-122555000D01*
X299402500Y-121126250D02*
X304958750Y-121126250D01*
X318452500Y-121126250D02*
X324008750Y-121126250D01*
X324008750Y-121126250D02*
X325437500Y-122555000D01*
X66426167Y-36410960D02*
X173590010Y-36410960D01*
X42404228Y-31965960D02*
X61981168Y-31965960D01*
X61981168Y-31965960D02*
X66426167Y-36410960D01*
X41668134Y-31229866D02*
X42404228Y-31965960D01*
X173590010Y-36410960D02*
X173863000Y-36137970D01*
X61793112Y-31511950D02*
X62169226Y-31511952D01*
X66614223Y-35956950D02*
X172968058Y-35956950D01*
X175211952Y-36410960D02*
X192640010Y-36410960D01*
X174211961Y-35410969D02*
X175211952Y-36410960D01*
X42941950Y-31511950D02*
X61793112Y-31511950D01*
X192640010Y-36410960D02*
X192913000Y-36137970D01*
X66548000Y-35890727D02*
X66614223Y-35956950D01*
X173514039Y-35410969D02*
X174211961Y-35410969D01*
X42799000Y-31238960D02*
X42799000Y-31369000D01*
X62169226Y-31511952D02*
X66548000Y-35890727D01*
X42799000Y-31369000D02*
X42941950Y-31511950D01*
X172968058Y-35956950D02*
X173514039Y-35410969D01*
X39370000Y-30988000D02*
X41255980Y-32873980D01*
X41255980Y-32873980D02*
X61605054Y-32873980D01*
X61605054Y-32873980D02*
X66050054Y-37318980D01*
X211563010Y-37318980D02*
X211836000Y-37045990D01*
X66050054Y-37318980D02*
X211563010Y-37318980D01*
X45593000Y-25527000D02*
X45754949Y-25688949D01*
X59055000Y-27152870D02*
X59055000Y-27178000D01*
X58807140Y-27425860D02*
X52544217Y-27425860D01*
X59055000Y-27178000D02*
X58807140Y-27425860D01*
X50807306Y-25688949D02*
X52544217Y-27425860D01*
X45754949Y-25688949D02*
X50807306Y-25688949D01*
X45593000Y-25415959D02*
X45593000Y-25527000D01*
X50243137Y-26142959D02*
X50619251Y-26142961D01*
X52356160Y-27879870D02*
X63680403Y-27879870D01*
X68125403Y-32324870D02*
X71482010Y-32324870D01*
X63680403Y-27879870D02*
X68125403Y-32324870D01*
X71482010Y-32324870D02*
X71755000Y-32051880D01*
X50619251Y-26142961D02*
X52356160Y-27879870D01*
X42968999Y-25869969D02*
X43241989Y-26142959D01*
X43241989Y-26142959D02*
X50243137Y-26142959D01*
X67930620Y-32778880D02*
X97390010Y-32778880D01*
X63485620Y-28333880D02*
X67930620Y-32778880D01*
X97390010Y-32778880D02*
X97663000Y-32505890D01*
X50431193Y-26596969D02*
X52168103Y-28333880D01*
X41836969Y-26596969D02*
X50431193Y-26596969D01*
X41783000Y-26543000D02*
X41836969Y-26596969D01*
X52168103Y-28333880D02*
X63485620Y-28333880D01*
X41783000Y-26323979D02*
X41783000Y-26543000D01*
X51943000Y-28750843D02*
X51943000Y-28754905D01*
X40513000Y-26777989D02*
X40513000Y-26924000D01*
X67742562Y-33232890D02*
X116313010Y-33232890D01*
X63297563Y-28787890D02*
X67742562Y-33232890D01*
X50243136Y-27050979D02*
X51943000Y-28750843D01*
X40513000Y-26924000D02*
X40639979Y-27050979D01*
X40639979Y-27050979D02*
X50243136Y-27050979D01*
X51975985Y-28787890D02*
X63297563Y-28787890D01*
X116313010Y-33232890D02*
X116586000Y-32959900D01*
X51943000Y-28754905D02*
X51975985Y-28787890D01*
X135490010Y-33686900D02*
X135763000Y-33413910D01*
X39243000Y-27231999D02*
X39243000Y-27305000D01*
X39442989Y-27504989D02*
X50051018Y-27504989D01*
X50051018Y-27504989D02*
X51787929Y-29241900D01*
X39243000Y-27305000D02*
X39442989Y-27504989D01*
X67554506Y-33686900D02*
X135490010Y-33686900D01*
X62733394Y-29241900D02*
X63109508Y-29241902D01*
X63109508Y-29241902D02*
X67554506Y-33686900D01*
X51787929Y-29241900D02*
X62733394Y-29241900D01*
X154540010Y-34140910D02*
X154813000Y-33867920D01*
X51599872Y-29695910D02*
X62921450Y-29695910D01*
X37973000Y-27559000D02*
X38372999Y-27958999D01*
X67366449Y-34140910D02*
X154540010Y-34140910D01*
X49862961Y-27958999D02*
X51599872Y-29695910D01*
X62921450Y-29695910D02*
X67366449Y-34140910D01*
X38372999Y-27958999D02*
X49862961Y-27958999D01*
X213184952Y-37318980D02*
X230740010Y-37318980D01*
X230740010Y-37318980D02*
X231013000Y-37045990D01*
X41830104Y-32419970D02*
X61793111Y-32419970D01*
X40519067Y-31108933D02*
X41830104Y-32419970D01*
X212184961Y-36318989D02*
X213184952Y-37318980D01*
X66238111Y-36864970D02*
X210941058Y-36864970D01*
X61793111Y-32419970D02*
X66238111Y-36864970D01*
X210941058Y-36864970D02*
X211487039Y-36318989D01*
X211487039Y-36318989D02*
X212184961Y-36318989D01*
X62733393Y-30149920D02*
X67178393Y-34594920D01*
X231738075Y-35410969D02*
X232738066Y-36410960D01*
X172403888Y-34594920D02*
X172949868Y-34048939D01*
X232738066Y-36410960D02*
X249790010Y-36410960D01*
X175776123Y-35048930D02*
X191641945Y-35048930D01*
X193641016Y-34502949D02*
X194641007Y-35502940D01*
X50673000Y-29845000D02*
X50977920Y-30149920D01*
X50977920Y-30149920D02*
X62733393Y-30149920D01*
X230287925Y-35410969D02*
X231738075Y-35410969D01*
X210922868Y-34956959D02*
X212771093Y-34956959D01*
X229741945Y-35956950D02*
X230287925Y-35410969D01*
X174776132Y-34048939D02*
X175776123Y-35048930D01*
X213771084Y-35956950D02*
X229741945Y-35956950D01*
X67178393Y-34594920D02*
X172403888Y-34594920D01*
X172949868Y-34048939D02*
X174776132Y-34048939D01*
X194641007Y-35502940D02*
X210376888Y-35502940D01*
X192187925Y-34502949D02*
X193641016Y-34502949D01*
X249790010Y-36410960D02*
X250063000Y-36137970D01*
X210376888Y-35502940D02*
X210922868Y-34956959D01*
X212771093Y-34956959D02*
X213771084Y-35956950D01*
X191641945Y-35048930D02*
X192187925Y-34502949D01*
X278365010Y-34578970D02*
X278638000Y-34305980D01*
X49548990Y-30603930D02*
X62545336Y-30603930D01*
X232550009Y-36864970D02*
X264103830Y-36864970D01*
X193452959Y-34956959D02*
X194452950Y-35956950D01*
X172591945Y-35048930D02*
X173137925Y-34502949D01*
X230475982Y-35864979D02*
X231550018Y-35864979D01*
X66990336Y-35048930D02*
X172591945Y-35048930D01*
X49276000Y-30330940D02*
X49548990Y-30603930D01*
X212583036Y-35410969D02*
X213583027Y-36410960D01*
X211110925Y-35410969D02*
X212583036Y-35410969D01*
X62545336Y-30603930D02*
X66990336Y-35048930D01*
X194452950Y-35956950D02*
X210564945Y-35956950D01*
X175588066Y-35502940D02*
X191830002Y-35502940D01*
X266389829Y-34578970D02*
X278365010Y-34578970D01*
X231550018Y-35864979D02*
X232550009Y-36864970D01*
X213583027Y-36410960D02*
X229930002Y-36410960D01*
X264103830Y-36864970D02*
X266389829Y-34578970D01*
X229930002Y-36410960D02*
X230475982Y-35864979D01*
X174588075Y-34502949D02*
X175588066Y-35502940D01*
X210564945Y-35956950D02*
X211110925Y-35410969D01*
X173137925Y-34502949D02*
X174588075Y-34502949D01*
X191830002Y-35502940D02*
X192375982Y-34956959D01*
X192375982Y-34956959D02*
X193452959Y-34956959D01*
X211298982Y-35864979D02*
X212394979Y-35864979D01*
X66802280Y-35502940D02*
X172780002Y-35502940D01*
X62045940Y-31057940D02*
X62045942Y-31057942D01*
X174400018Y-34956959D02*
X175400009Y-35956950D01*
X193261961Y-35410969D02*
X194261952Y-36410960D01*
X230118058Y-36864970D02*
X230664039Y-36318989D01*
X231361961Y-36318989D02*
X232361952Y-37318980D01*
X194261952Y-36410960D02*
X210753002Y-36410960D01*
X264291887Y-37318980D02*
X266577886Y-35032980D01*
X232361952Y-37318980D02*
X264291887Y-37318980D01*
X309226010Y-35032980D02*
X309499000Y-34759990D01*
X213394970Y-36864970D02*
X230118058Y-36864970D01*
X230664039Y-36318989D02*
X231361961Y-36318989D01*
X192564039Y-35410969D02*
X193261961Y-35410969D01*
X172780002Y-35502940D02*
X173325982Y-34956959D01*
X210753002Y-36410960D02*
X211298982Y-35864979D01*
X192018058Y-35956950D02*
X192564039Y-35410969D01*
X173325982Y-34956959D02*
X174400018Y-34956959D01*
X212394979Y-35864979D02*
X213394970Y-36864970D01*
X175400009Y-35956950D02*
X192018058Y-35956950D01*
X62045942Y-31057942D02*
X62357283Y-31057943D01*
X62357283Y-31057943D02*
X66802280Y-35502940D01*
X44695989Y-31057940D02*
X62045940Y-31057940D01*
X44422999Y-30784950D02*
X44695989Y-31057940D01*
X266577886Y-35032980D02*
X309226010Y-35032980D01*
X305960000Y-39740000D02*
X297180000Y-39740000D01*
X65456948Y-38680980D02*
X264850980Y-38680980D01*
X48000000Y-36410000D02*
X50174020Y-34235980D01*
X272580000Y-41000000D02*
X267170000Y-41000000D01*
X50174020Y-34235980D02*
X61011948Y-34235980D01*
X61011948Y-34235980D02*
X65456948Y-38680980D01*
X286110000Y-37930000D02*
X275650000Y-37930000D01*
X267170000Y-41000000D02*
X264850980Y-38680980D01*
X318008000Y-47752000D02*
X313972000Y-47752000D01*
X296340000Y-40580000D02*
X288760000Y-40580000D01*
X275650000Y-37930000D02*
X272580000Y-41000000D01*
X288760000Y-40580000D02*
X286110000Y-37930000D01*
X313972000Y-47752000D02*
X305960000Y-39740000D01*
X297180000Y-39740000D02*
X296340000Y-40580000D01*
D22*
X70739000Y-54737000D02*
X263906000Y-54737000D01*
X31302367Y-17592633D02*
X30606999Y-18288001D01*
X46941767Y-17592633D02*
X31302367Y-17592633D01*
X70402510Y-31807360D02*
X68339762Y-31807360D01*
X70612000Y-31597870D02*
X70402510Y-31807360D01*
X24900000Y-36170000D02*
X25140000Y-36410000D01*
X22600000Y-44340000D02*
X25140000Y-41800000D01*
X30606999Y-28573001D02*
X24900000Y-34280000D01*
X70739000Y-54737000D02*
X24357000Y-54737000D01*
X268224000Y-50419000D02*
X298704000Y-50419000D01*
X25140000Y-36410000D02*
X18250000Y-29520000D01*
X30606999Y-18288001D02*
X30606999Y-28573001D01*
X22600000Y-52980000D02*
X22600000Y-51650000D01*
X24357000Y-54737000D02*
X22600000Y-52980000D01*
X25140000Y-41800000D02*
X25140000Y-36410000D01*
X61132402Y-24600000D02*
X59200000Y-24600000D01*
X18250000Y-29520000D02*
X18250000Y-27710000D01*
X299847000Y-51562000D02*
X318112213Y-51562000D01*
X263906000Y-54737000D02*
X268224000Y-50419000D01*
X318112213Y-51562000D02*
X320508000Y-49166213D01*
X320508000Y-49166213D02*
X320508000Y-47752000D01*
X68339762Y-31807360D02*
X61132402Y-24600000D01*
X22600000Y-51650000D02*
X22600000Y-44340000D01*
X298704000Y-50419000D02*
X299847000Y-51562000D01*
X24900000Y-34280000D02*
X24900000Y-36170000D01*
D21*
X264667992Y-38226980D02*
X266940972Y-35954000D01*
X61200000Y-33781980D02*
X65645000Y-38226980D01*
X65645000Y-38226980D02*
X264667992Y-38226980D01*
X46180000Y-33781980D02*
X61200000Y-33781980D01*
X323008000Y-39458000D02*
X323008000Y-47752000D01*
X266940972Y-35954000D02*
X319504000Y-35954000D01*
X45460000Y-34501980D02*
X46180000Y-33781980D01*
X319504000Y-35954000D02*
X323008000Y-39458000D01*
X45460000Y-36410000D02*
X45460000Y-34501980D01*
X266752920Y-35500000D02*
X320760000Y-35500000D01*
X65862002Y-37772980D02*
X264479940Y-37772980D01*
X61417002Y-33327980D02*
X65862002Y-37772980D01*
X320760000Y-35500000D02*
X323008000Y-33252000D01*
X42920000Y-34217980D02*
X43810000Y-33327980D01*
X43810000Y-33327980D02*
X61417002Y-33327980D01*
X264479940Y-37772980D02*
X266752920Y-35500000D01*
X42920000Y-36410000D02*
X42920000Y-34217980D01*
X26150000Y-53900000D02*
X25140000Y-52890000D01*
X25140000Y-52890000D02*
X25140000Y-51650000D01*
X51770000Y-53900000D02*
X26150000Y-53900000D01*
D22*
X18274000Y-25146000D02*
X18250000Y-25170000D01*
X24765000Y-25146000D02*
X18274000Y-25146000D01*
D21*
X32330000Y-28270000D02*
X32330000Y-30320000D01*
X36890000Y-34640000D02*
X37840000Y-35590000D01*
X37840000Y-35590000D02*
X37840000Y-36410000D01*
X34160000Y-24610000D02*
X36890000Y-27340000D01*
X36890000Y-27340000D02*
X36890000Y-34640000D01*
X17440000Y-57050000D02*
X17620000Y-56870000D01*
X17620000Y-56870000D02*
X48000000Y-56870000D01*
X18380000Y-55840000D02*
X47010000Y-55840000D01*
M02*
